<svg xmlns="http://www.w3.org/2000/svg" id="Layer_1" width="468" height="468" viewBox="0 0 468 468"><style>.st0{fill:#fff}</style><path d="M88.2 141.1H175c9.6-.3 19.1 1 28.2 4 12.8 4.5 22.4 12.8 26.9 25.9 4.5 12.6 3.8 26.7-2 38.7-3.3 6-8.3 10.8-14.3 14.1l-3.5 2.3 7.5 3.8c10.1 5.8 16.9 15.6 18.9 26.9 2.8 12.3 1.5 25.4-4 36.7-5.8 12.8-16.6 22.4-29.9 26.7-8.6 2.8-17.6 4-26.7 3.8H88.2V141.1zm42.3 151.4h.8c15.8-.3 31.7 0 47.5-.5 5.8 0 11.6-2.8 15.3-7 5.5-6.5 6.3-14.3 5.3-22.4-.5-6.8-4.8-12.8-11.1-15.3-3.8-1.8-7.8-2.8-12.1-3-14.6-.5-29.2-.3-43.5-.5-2.3 0-2.5.8-2.5 2.8v43.8c.3.4.3 1.1.3 2.1zm.2-119.4c0 1-.3 1.8-.3 2.3v35.5c0 2 .5 2.5 2.5 2.5h35.7c4-.3 8-.8 12.1-1.5 4.5-.8 8.6-3 11.6-6.5 3.3-4.8 4.5-10.8 3.5-16.6-1-6.8-4.5-11.8-11.8-13.3-5-1-10.1-1.8-15.1-2-9.3-.3-18.1-.3-27.4-.3l-10.8-.1zm252.3 90h-95.8c.3 2.3.3 4.3.8 6.3 2 12.3 8.3 20.9 20.4 24.4 8.8 3 18.6 2.3 26.9-1.8 3.8-2 7-5 8.8-8.6.8-2 2.8-3 4.8-2.8h31.9c-.8 5.8-2.8 11.3-6.3 16.1-8.3 12.8-21.6 21.6-36.5 24.7-15.6 3.8-31.9 2.8-47-3-19.1-7.5-32.2-20.9-36.2-41.8-3.5-16.3-3-33.2 1.5-49.3 3.5-12.6 11.1-23.4 21.6-30.9 12.8-9.3 27.4-12.6 42.5-12.1 12.1 0 24.1 3.5 34.5 9.8 8.8 5.8 15.8 13.8 20.4 23.1 4 8.6 6.5 18.1 6.8 27.7 0 .8.3 1.8.5 2.5l.4 15.7zm-36-22.9c-.5-10.6-4.3-19.1-13.8-23.9-10.1-5.8-22.4-5.5-32.2.5-8.3 5-11.6 13.8-13.3 23.4H347zm7.1-91V167h-73.4v-17.9h73.4z" class="st0"/><path d="M388.1 79.5c-41.2-41.2-96-63.9-154.3-63.9S120.7 38.3 79.5 79.5s-63.9 96-63.9 154.3 22.7 113.1 63.9 154.3 96 63.9 154.3 63.9 113.1-22.7 154.3-63.9 63.9-96 63.9-154.3-22.7-113.1-63.9-154.3zM233.8 432c-109.3 0-198.2-88.9-198.2-198.2S124.5 35.6 233.8 35.6 432 124.5 432 233.8 343.1 432 233.8 432z" class="st0"/></svg>