<?xml version="1.0" encoding="utf-8"?>
<!-- Generator: Adobe Illustrator 21.1.0, SVG Export Plug-In . SVG Version: 6.00 Build 0)  -->
<svg version="1.1" id="Layer_1" xmlns="http://www.w3.org/2000/svg" xmlns:xlink="http://www.w3.org/1999/xlink" x="0px" y="0px"
	 viewBox="0 0 468 468" style="enable-background:new 0 0 468 468;" xml:space="preserve">
<style type="text/css">
	.st0{fill:#FFFFFF;}
</style>
<path class="st0" d="M88.2,141.1H175c9.6-0.3,19.1,1,28.2,4c12.8,4.5,22.4,12.8,26.9,25.9c4.5,12.6,3.8,26.7-2,38.7
	c-3.3,6-8.3,10.8-14.3,14.1l-3.5,2.3l7.5,3.8c10.1,5.8,16.9,15.6,18.9,26.9c2.8,12.3,1.5,25.4-4,36.7c-5.8,12.8-16.6,22.4-29.9,26.7
	c-8.6,2.8-17.6,4-26.7,3.8H88.2V141.1z M130.5,292.5h0.8c15.8-0.3,31.7,0,47.5-0.5c5.8,0,11.6-2.8,15.3-7c5.5-6.5,6.3-14.3,5.3-22.4
	c-0.5-6.8-4.8-12.8-11.1-15.3c-3.8-1.8-7.8-2.8-12.1-3c-14.6-0.5-29.2-0.3-43.5-0.5c-2.3,0-2.5,0.8-2.5,2.8v43.8
	C130.5,290.8,130.5,291.5,130.5,292.5z M130.7,173.1c0,1-0.3,1.8-0.3,2.3v35.5c0,2,0.5,2.5,2.5,2.5h35.7c4-0.3,8-0.8,12.1-1.5
	c4.5-0.8,8.6-3,11.6-6.5c3.3-4.8,4.5-10.8,3.5-16.6c-1-6.8-4.5-11.8-11.8-13.3c-5-1-10.1-1.8-15.1-2c-9.3-0.3-18.1-0.3-27.4-0.3
	L130.7,173.1z M383,263.1h-95.8c0.3,2.3,0.3,4.3,0.8,6.3c2,12.3,8.3,20.9,20.4,24.4c8.8,3,18.6,2.3,26.9-1.8c3.8-2,7-5,8.8-8.6
	c0.8-2,2.8-3,4.8-2.8h31.9c-0.8,5.8-2.8,11.3-6.3,16.1c-8.3,12.8-21.6,21.6-36.5,24.7c-15.6,3.8-31.9,2.8-47-3
	c-19.1-7.5-32.2-20.9-36.2-41.8c-3.5-16.3-3-33.2,1.5-49.3c3.5-12.6,11.1-23.4,21.6-30.9c12.8-9.3,27.4-12.6,42.5-12.1
	c12.1,0,24.1,3.5,34.5,9.8c8.8,5.8,15.8,13.8,20.4,23.1c4,8.6,6.5,18.1,6.8,27.7c0,0.8,0.3,1.8,0.5,2.5L383,263.1z M347,240.2
	c-0.5-10.6-4.3-19.1-13.8-23.9c-10.1-5.8-22.4-5.5-32.2,0.5c-8.3,5-11.6,13.8-13.3,23.4H347z M354.1,149.2V167h-73.4v-17.9H354.1z"
	/>
<path class="st0" d="M388.1,79.5c-41.2-41.2-96-63.9-154.3-63.9S120.7,38.3,79.5,79.5s-63.9,96-63.9,154.3s22.7,113.1,63.9,154.3
	s96,63.9,154.3,63.9s113.1-22.7,154.3-63.9s63.9-96,63.9-154.3S429.3,120.7,388.1,79.5z M233.8,432c-109.3,0-198.2-88.9-198.2-198.2
	S124.5,35.6,233.8,35.6S432,124.5,432,233.8S343.1,432,233.8,432z"/>
</svg>
