<?xml version="1.0" encoding="utf-8"?>
<!-- Generator: Adobe Illustrator 22.0.1, SVG Export Plug-In . SVG Version: 6.00 Build 0)  -->
<svg version="1.1" id="Layer_1" xmlns="http://www.w3.org/2000/svg" xmlns:xlink="http://www.w3.org/1999/xlink" x="0px" y="0px"
	 viewBox="0 0 150 150" style="enable-background:new 0 0 150 150;" xml:space="preserve">
<style type="text/css">
	.st0{fill:#FFFFFF;}
	.st1{fill:#333333;}
</style>
<circle class="st0" cx="75" cy="75" r="75"/>
<g>
	<path class="st1" d="M75,6c38,0,69,31,69,69s-31,69-69,69S6,113,6,75S37,6,75,6 M75,0C33.6,0,0,33.6,0,75s33.6,75,75,75
		s75-33.6,75-75S116.4,0,75,0L75,0z"/>
</g>
<g id="YuNgZ5.tif">
	<g>
		<path class="st1" d="M122.7,76.2c-0.4,0.4-0.8,1-1.3,1.2c-0.8,0.3-1.5-0.5-1.5-1.6c-0.2-2.9-0.2-5.8-0.8-8.7
			c-2.2-11.8-8.2-21.2-17.9-28.3c-0.9-0.6-1.1-1.4-0.6-2.1c0.5-0.7,1.3-0.8,2.2-0.1c9.6,7,15.8,16.3,18.5,27.8
			c0.7,2.8,0.8,5.7,1.2,8.6c0,0.3,0.1,0.7,0.1,1C122.7,74.8,122.7,75.5,122.7,76.2z"/>
		<path class="st1" d="M100.8,85.5c-0.4,4-0.8,7.9-1.2,11.9c-0.1,1-0.8,1.6-1.6,1.4c-0.8-0.1-1.2-0.8-1.1-1.8
			c0.8-5.2,1.1-10.5,0.8-15.7c-0.3-4.8-0.7-9.7-2.5-14.2c-3.4-9-12.6-14.5-22.1-13.4c-10,1.1-17.7,8.3-19.3,17.8
			c-0.5,3.2,0,6.3,0.4,9.4c0.3,2.6,0.2,5.2,0.2,7.8c0,0.8-0.6,1.2-1.4,1.2c-0.8,0-1.3-0.6-1.3-1.5c0-0.3,0.1-0.7,0.1-1
			c-0.1-2-0.1-4-0.3-6.1c-0.1-1.5-0.5-3-0.6-4.5c-1-12.2,8.4-23.9,20.5-25.6c12.7-1.8,24.5,6.2,27.5,18.6
			C100.2,74.9,100.6,80.2,100.8,85.5z"/>
		<path class="st1" d="M39.9,69c0.5-2.9,1.4-5.8,2.7-8.6C48.1,49,57.1,41.7,69.7,39.8c14.8-2.1,26.6,3.4,35.3,15.5
			c3.6,5.1,5.4,10.9,6.1,17.1c0.1,1-0.3,1.7-1.1,1.7c-0.8,0.1-1.4-0.4-1.6-1.4c-0.6-4-1.4-8-3.2-11.7C100,50.4,91.5,43.9,79.7,42.4
			c-17.1-2.3-32.4,8.2-36.6,24.8c-0.2,0.8-0.3,1.6-0.5,2.4s-0.7,1.2-1.6,1.1C40.2,70.5,39.8,69.9,39.9,69z"/>
		<path class="st1" d="M83.4,84.8c-0.2,13.8-4.2,25.7-12.1,36.3c-0.1,0.2-0.2,0.3-0.3,0.5c-0.6,0.7-1.3,0.8-1.9,0.3
			s-0.7-1.3-0.2-1.9c0.4-0.6,0.9-1.2,1.4-1.8c7.4-10.4,11-21.9,10.5-34.6c-0.1-3.3-0.7-6.7-1.3-10c-0.4-2.1-2.7-3.2-5-2.7
			s-3.7,2.4-3.3,4.6c1.2,6.4,1.4,12.9,0,19.4c0,0.2-0.1,0.3-0.1,0.5c-0.2,0.8-0.9,1.3-1.6,1.1c-0.8-0.2-1.2-0.9-1-1.8
			c0.8-4,1.2-8,0.8-12.1c-0.2-2-0.5-4-0.8-6c-0.6-3.6,1.8-7.4,5.3-8.3C77,67.4,81,69.5,82,73c0.6,2.1,0.8,4.3,1.1,6.5
			C83.3,81.5,83.3,83.4,83.4,84.8z"/>
		<path class="st1" d="M36.1,75c0.4,2.7,0.7,5.4,1.1,8.2c0.6,4.1-0.4,7.7-3.1,10.8c-0.8,1-2,0.9-2.5-0.2c-0.3-0.7,0-1.2,0.5-1.7
			c1.9-2.2,2.8-4.8,2.4-7.7c-0.2-1.9-0.6-3.7-0.8-5.5c-0.9-11.4,2.4-21.5,9.6-30.2c6.6-8,15.1-12.8,25.3-14.5
			c3.8-0.6,7.6-0.7,11.5-0.2c0.4,0,1,0.1,1.2,0.4c0.3,0.4,0.6,1.1,0.4,1.4c-0.2,0.4-0.8,0.9-1.3,0.9c-0.8,0.1-1.7-0.1-2.5-0.2
			c-9.9-0.6-18.8,2-26.6,8c-8.2,6.3-13,14.7-14.6,24.8c-0.1,0.6-0.2,1.3-0.2,1.9c-0.1,1.3-0.2,2.5-0.2,3.8
			C36.2,74.9,36.2,75,36.1,75z"/>
		<path class="st1" d="M117.9,87c-0.2,2.2-0.4,5.8-0.7,9.5c-0.1,1.1-0.6,1.6-1.5,1.6c-0.9-0.1-1.3-0.7-1.2-1.8
			c0.2-4.5,0.6-9,0.6-13.6c0-4.9-0.7-9.8-1.6-14.6c-1.5-8.1-5.1-15-10.9-20.7c-4.2-4.2-9.2-7.1-14.8-9.1c-0.3-0.1-0.6-0.2-0.9-0.3
			c-0.7-0.4-0.8-1-0.6-1.6c0.2-0.7,0.7-1,1.4-0.9c0.2,0,0.5,0.1,0.7,0.2c14,5.1,23.1,14.7,27.1,29C117.3,71.5,117.8,78.5,117.9,87z"
			/>
		<path class="st1" d="M75.2,56.5c0.3,0,0.9,0,1.4,0.1c0.8,0.1,1.4,0.7,1.3,1.4c0,0.7-0.6,1.3-1.5,1.3c-2.1-0.1-4.2,0.1-6.2,0.8
			c-7,2.2-11.6,8.9-10.9,16.3c0.2,2.6,0.9,5.2,0.9,7.8c0.3,11.2-3.8,20.6-12,28.1c-0.9,0.8-1.7,0.8-2.2,0.1
			c-0.6-0.7-0.4-1.4,0.4-2.2c7.8-7.1,11.6-15.9,11.1-26.5c-0.1-1.9-0.5-3.8-0.8-5.6C55.1,67,63.6,56.9,75.2,56.5z"/>
		<path class="st1" d="M94.9,85.4c-0.1,12.5-3.2,24.2-9.3,35c-0.2,0.3-0.3,0.6-0.5,0.8c-0.5,0.5-1,0.6-1.6,0.3
			c-0.6-0.3-0.8-0.9-0.7-1.5c0.1-0.4,0.3-0.7,0.5-1c6.6-11.6,9.6-24.1,8.8-37.5c-0.2-3.6-0.8-7.2-1.6-10.8c-0.9-4-3.4-6.9-6.9-9.1
			c-0.3-0.2-0.6-0.3-0.9-0.6c-0.5-0.5-0.6-1.1-0.2-1.7c0.4-0.6,0.9-0.7,1.6-0.5c0.3,0.1,0.5,0.2,0.8,0.4c5.1,3.2,8.1,7.9,8.9,13.9
			c0.5,4.1,0.9,8.2,1.4,12.3C95,85.3,95,85.4,94.9,85.4z"/>
		<path class="st1" d="M75.2,27.8c7.1,0.1,13.9,1.6,20.4,4.7c0.4,0.2,0.9,0.6,1.1,1.1c0.1,0.3,0,1-0.3,1.3c-0.4,0.3-1,0.4-1.4,0.3
			c-0.7-0.2-1.4-0.6-2.1-0.9c-18.9-8.1-40.7-2.4-53.2,14c-0.2,0.3-0.4,0.5-0.6,0.8c-0.5,0.5-1.2,0.7-1.8,0.2
			c-0.7-0.5-0.8-1.1-0.4-1.8c0.4-0.6,0.9-1.2,1.4-1.8c8.4-10.2,19.1-16,32.3-17.4C72.1,27.9,73.7,27.9,75.2,27.8z"/>
		<path class="st1" d="M106.3,84c0,11.2-1.7,20.8-5.2,30c-0.2,0.5-0.5,1-0.9,1.2s-1.2,0.1-1.4-0.2c-0.3-0.3-0.5-1.1-0.3-1.5
			c0.7-2.5,1.7-4.9,2.3-7.4c3.3-12,3.7-24,1.2-36.2c-0.8-3.9-2.3-7.4-4.5-10.6c-0.6-0.9-0.6-1.8,0.2-2.2c0.7-0.5,1.4-0.2,2.1,0.7
			c2.9,4.1,4.6,8.6,5.3,13.6C105.9,76,106.4,80.7,106.3,84z"/>
		<path class="st1" d="M58.7,52.9c-0.4,0.5-0.7,1-1.1,1.4c-4.3,3.7-7.3,8.2-8.8,13.6c-1.1,4.1-1.2,8.3-0.4,12.5
			c1.7,9.4-1.1,17.4-8.2,23.8c-0.3,0.3-0.8,0.6-1.1,0.6c-0.5-0.1-1.1-0.4-1.3-0.7c-0.2-0.4,0-1.1,0.2-1.5s0.8-0.7,1.2-1.1
			c5.3-5,7.6-11.1,6.9-18.3c-0.2-1.8-0.7-3.7-0.8-5.5C44.7,67.5,48.3,59,56,52.2c0.5-0.5,1.1-0.8,1.8-0.4
			C58.1,51.9,58.3,52.4,58.7,52.9z"/>
		<path class="st1" d="M75.1,85.5c-0.4-3.3-0.8-6.5-1.2-9.8c-0.1-1.1,0.2-1.7,1.1-1.9c0.8-0.2,1.5,0.4,1.7,1.4
			c3,16.8-1.1,31.8-12,44.9c-0.8,0.9-1.7,1-2.3,0.3c-0.5-0.6-0.4-1.3,0.3-2.1c2.6-3.1,4.9-6.4,6.7-10C73,101.2,74.9,93.6,75.1,85.5z
			"/>
		<path class="st1" d="M89.1,83c0,0.7,0,1.3,0,2c0,1-0.6,1.7-1.4,1.7s-1.3-0.6-1.3-1.6c0-3.8-0.4-7.6-1.1-11.3
			c-0.8-4-2.8-6.9-6.7-8.2C73,63.7,67,67,65.5,72.7c-0.1,0.5-0.3,1.1-0.7,1.3c-0.4,0.2-1.1,0.2-1.5,0.1c-0.7-0.3-0.8-0.9-0.6-1.6
			c1-3.8,3.2-6.7,6.6-8.5c7.1-3.8,16.5,0.2,18.4,8.1c0.9,3.6,1.1,7.4,1.7,11C89.3,83,89.2,83,89.1,83z"/>
		<path class="st1" d="M66.2,84.9c-0.3,12.2-4.5,22.3-12.9,30.5c-0.8,0.8-1.6,0.9-2.2,0.3c-0.6-0.6-0.5-1.3,0.2-2.2
			c2-2.3,4.2-4.5,5.9-7.1c5.3-7.9,7.1-16.6,6-26c-0.1-1.1,0.3-1.8,1.2-1.9c0.9-0.1,1.4,0.5,1.5,1.6C66,82,66.1,83.6,66.2,84.9z"/>
		<path class="st1" d="M27.9,75.2c0-7.4,1.7-14.5,5-21.2c0.5-1,1.2-1.4,2-1s1,1.2,0.4,2.2c-3.3,6.6-5,13.5-4.7,20.8
			c0.1,3.1,0.8,6.2,1.2,9.3c0,0.1,0.1,0.2,0.1,0.4c0.2,1-0.2,1.7-1,1.8c-0.8,0.2-1.4-0.3-1.6-1.2C28.3,82.7,27.9,78.9,27.9,75.2z"/>
		<path class="st1" d="M74.3,45c7.7,0.1,13.9,2.2,19.4,6.4c0.1,0.1,0.2,0.2,0.4,0.3c0.8,0.7,1,1.5,0.4,2.1c-0.5,0.6-1.3,0.7-2.1,0
			c-3.3-2.6-7-4.5-11.2-5.4c-5.8-1.3-11.4-0.7-16.8,1.6c-0.3,0.1-0.5,0.3-0.8,0.3c-0.8,0.2-1.4-0.1-1.7-0.9
			c-0.3-0.8,0.1-1.4,0.8-1.7c2.2-0.8,4.3-1.6,6.6-2.1C71.2,45.2,73.2,45.1,74.3,45z"/>
		<path class="st1" d="M88.7,92.9c-0.5,4.1-1.4,8.3-2.7,12.4c-1.9,5.8-4.5,11.1-7.8,16.2c-0.2,0.3-0.3,0.7-0.6,0.7
			c-0.5,0.1-1.2,0.2-1.7,0.1c-0.6-0.2-0.7-0.9-0.5-1.6c0.1-0.2,0.2-0.4,0.4-0.7c5.6-8.3,9-17.4,10.2-27.3c0.1-1,0.7-1.5,1.5-1.4
			C88.2,91.3,88.7,91.9,88.7,92.9z"/>
		<path class="st1" d="M112.1,85.6c0,7.3-0.9,14.6-2.7,21.7c0,0.2-0.1,0.4-0.2,0.5c-0.3,0.8-0.9,1.2-1.7,1.1c-0.8-0.2-1.2-0.9-1-1.8
			c0.3-1.4,0.7-2.7,1-4.1c1.6-7.3,2.2-14.8,1.7-22.3c0-0.2,0-0.4,0-0.6c0-0.8,0.5-1.4,1.3-1.5s1.4,0.4,1.5,1.3
			c0.1,1.3,0.1,2.5,0.2,3.8C112.1,84.4,112.1,85,112.1,85.6z"/>
		<path class="st1" d="M43.2,85C43,90.8,41,95.5,37,99.2c-0.2,0.2-0.4,0.4-0.7,0.5c-0.6,0.4-1.2,0.2-1.7-0.3s-0.5-1.2,0-1.7
			c0.2-0.2,0.4-0.4,0.6-0.6c3.8-3.6,5.6-8,5.1-13.2c-0.2-2-0.6-4-0.8-6c-0.1-0.5-0.1-1-0.1-1.5c0.1-0.8,0.6-1.2,1.3-1.2
			s1.2,0.4,1.3,1.1C42.5,79.3,42.8,82.3,43.2,85z"/>
		<path class="st1" d="M68.8,101.9c-0.2,0.5-0.3,0.8-0.4,1.1c-2.3,5.7-5.5,10.7-9.7,15.1c-0.1,0.1-0.3,0.3-0.4,0.4
			c-0.6,0.5-1.3,0.5-1.9-0.1c-0.5-0.6-0.5-1.2-0.1-1.8c0.6-0.7,1.2-1.3,1.8-2c3.3-3.8,5.8-7.9,7.7-12.6c0.1-0.3,0.2-0.5,0.4-0.8
			c0.4-0.6,1-0.8,1.6-0.5C68.3,101,68.5,101.6,68.8,101.9z"/>
		<path class="st1" d="M42.6,109.2c-0.4-0.4-1-0.7-1.1-1.1c-0.1-0.5,0.1-1.2,0.5-1.6c1.1-1.2,2.3-2.2,3.4-3.4
			c1.9-2.2,3.4-4.7,4.5-7.4c0.2-0.5,0.6-1,1-1.1s1,0,1.4,0.3c0.6,0.4,0.5,1.1,0.2,1.7c-1.9,4.7-4.8,8.7-8.7,11.9
			C43.5,108.8,43.1,108.9,42.6,109.2z"/>
		<path class="st1" d="M92.1,119.4c-1.4,0-2-1-1.5-2.1c1.1-2.7,2.2-5.3,3.3-8c0.6-1.5,1-3.1,1.5-4.7c0.3-1.1,0.9-1.5,1.7-1.3
			c0.9,0.2,1.2,0.9,0.9,2c-1.2,4.5-2.8,8.8-4.9,13C92.8,118.9,92.3,119.2,92.1,119.4z"/>
	</g>
</g>
</svg>
