<?xml version="1.0" encoding="utf-8"?>
<!-- Generator: Adobe Illustrator 22.0.1, SVG Export Plug-In . SVG Version: 6.00 Build 0)  -->
<svg version="1.1" id="Layer_1" xmlns="http://www.w3.org/2000/svg" xmlns:xlink="http://www.w3.org/1999/xlink" x="0px" y="0px"
	 viewBox="0 0 150 150" style="enable-background:new 0 0 150 150;" xml:space="preserve">
<style type="text/css">
	.st0{fill:#FFFFFF;}
</style>
<g>
	<path d="M75,6c38,0,69,31,69,69s-31,69-69,69S6,113,6,75S37,6,75,6 M75,0C33.6,0,0,33.6,0,75s33.6,75,75,75s75-33.6,75-75
		S116.4,0,75,0L75,0z"/>
</g>
<g id="YuNgZ5.tif">
	<g>
		<path class="st0" d="M122.7,76.2c0,15.5,0,31.1,0,46.6c-31.7,0-63.4,0-95.1,0c0-31.7,0-63.4,0-95.1c31.7,0,63.4,0,95.1,0
			c0,15.5,0,30.9,0,46.4c0-0.3-0.1-0.7-0.1-1c-0.4-2.9-0.6-5.8-1.2-8.6c-2.7-11.6-9-20.8-18.5-27.8c-0.9-0.7-1.8-0.6-2.2,0.1
			c-0.5,0.7-0.3,1.4,0.6,2.1c9.7,7.1,15.8,16.5,17.9,28.3c0.5,2.8,0.6,5.8,0.8,8.7c0.1,1.1,0.7,1.8,1.5,1.6
			C121.9,77.2,122.2,76.6,122.7,76.2z M100.8,85.5c-0.3-5.4-0.7-10.7-1.9-15.8C96,57.3,84.1,49.3,71.4,51.1
			c-12.1,1.7-21.5,13.5-20.5,25.6c0.1,1.5,0.5,3,0.6,4.5c0.2,2,0.2,4,0.3,6.1c0,0.3-0.1,0.7-0.1,1c0,0.8,0.5,1.5,1.3,1.5
			c0.8,0,1.4-0.4,1.4-1.2c0-2.6,0.1-5.2-0.2-7.8c-0.4-3.1-0.9-6.3-0.4-9.4c1.6-9.5,9.3-16.7,19.3-17.8c9.5-1.1,18.7,4.5,22.1,13.4
			c1.8,4.6,2.2,9.4,2.5,14.2c0.4,5.3,0,10.5-0.8,15.7c-0.2,1,0.2,1.7,1.1,1.8c0.9,0.1,1.5-0.4,1.6-1.4
			C100.1,93.5,100.4,89.5,100.8,85.5z M39.9,69c0,0.9,0.3,1.5,1.1,1.6c0.8,0.1,1.4-0.3,1.6-1.1c0.2-0.8,0.3-1.6,0.5-2.4
			c4.2-16.5,19.5-27,36.6-24.8c11.8,1.6,20.2,8,25.5,18.6c1.8,3.7,2.6,7.7,3.2,11.7c0.2,1,0.7,1.5,1.6,1.4c0.8-0.1,1.3-0.7,1.1-1.7
			c-0.8-6.1-2.5-12-6.1-17.1c-8.7-12.1-20.5-17.7-35.3-15.5C57.1,41.7,48.1,49,42.6,60.4C41.2,63.2,40.4,66.1,39.9,69z M83.4,84.8
			c-0.1-1.4-0.1-3.3-0.3-5.2c-0.3-2.2-0.5-4.4-1.1-6.5c-1-3.6-5-5.7-8.5-4.8c-3.5,0.9-5.9,4.6-5.3,8.3c0.3,2,0.7,4,0.8,6
			c0.3,4.1,0,8.1-0.8,12.1c-0.2,0.9,0.3,1.6,1,1.8c0.7,0.2,1.4-0.3,1.6-1.1c0-0.2,0.1-0.3,0.1-0.5c1.4-6.5,1.1-12.9,0-19.4
			c-0.4-2.1,1-4,3.3-4.6c2.4-0.5,4.7,0.6,5,2.7c0.6,3.3,1.2,6.6,1.3,10c0.5,12.7-3.1,24.2-10.5,34.6c-0.4,0.6-0.9,1.2-1.4,1.8
			c-0.5,0.7-0.4,1.5,0.2,1.9c0.6,0.5,1.4,0.4,1.9-0.3c0.1-0.1,0.2-0.3,0.3-0.5C79.2,110.6,83.2,98.6,83.4,84.8z M36.1,75
			c0.1,0,0.1,0,0.2,0c0.1-1.3,0.1-2.5,0.2-3.8c0-0.6,0.1-1.3,0.2-1.9c1.7-10.2,6.4-18.5,14.6-24.8c7.8-6,16.7-8.6,26.6-8
			c0.9,0.1,1.7,0.3,2.5,0.2c0.5-0.1,1.1-0.5,1.3-0.9c0.2-0.3-0.1-1-0.4-1.4c-0.2-0.3-0.8-0.4-1.2-0.4c-3.8-0.4-7.7-0.4-11.5,0.2
			C58.5,35.8,50,40.6,43.4,48.5c-7.3,8.8-10.5,18.9-9.6,30.2c0.1,1.9,0.6,3.7,0.8,5.5c0.3,2.9-0.5,5.5-2.4,7.7
			c-0.4,0.5-0.8,1-0.5,1.7c0.4,1,1.6,1.1,2.5,0.2c2.7-3.1,3.6-6.7,3.1-10.8C36.8,80.4,36.5,77.7,36.1,75z M117.9,87
			c-0.1-8.6-0.6-15.6-2.5-22.3c-4-14.3-13.2-23.9-27.1-29c-0.2-0.1-0.5-0.2-0.7-0.2c-0.7-0.1-1.2,0.3-1.4,0.9
			c-0.2,0.7,0,1.3,0.6,1.6c0.3,0.1,0.6,0.2,0.9,0.3c5.6,1.9,10.6,4.9,14.8,9.1c5.8,5.8,9.4,12.7,10.9,20.7c0.9,4.8,1.6,9.7,1.6,14.6
			c0,4.5-0.4,9-0.6,13.6c-0.1,1.1,0.3,1.7,1.2,1.8c0.9,0.1,1.4-0.4,1.5-1.6C117.5,92.9,117.7,89.2,117.9,87z M75.2,56.5
			c-11.6,0.4-20,10.5-18.3,21.6c0.3,1.9,0.7,3.7,0.8,5.6c0.4,10.5-3.3,19.4-11.1,26.5c-0.9,0.8-1,1.5-0.4,2.2
			c0.6,0.7,1.4,0.7,2.2-0.1c8.2-7.6,12.3-17,12-28.1c-0.1-2.6-0.7-5.2-0.9-7.8c-0.7-7.3,3.8-14,10.9-16.3c2-0.6,4.1-0.9,6.2-0.8
			c0.8,0,1.4-0.5,1.5-1.3c0-0.7-0.5-1.3-1.3-1.4C76,56.5,75.5,56.5,75.2,56.5z M94.9,85.4c0.1,0,0.2,0,0.3,0
			c-0.5-4.1-0.8-8.2-1.4-12.3c-0.8-6-3.8-10.6-8.9-13.9c-0.2-0.2-0.5-0.3-0.8-0.4c-0.6-0.2-1.2,0-1.6,0.5c-0.4,0.6-0.3,1.2,0.2,1.7
			c0.2,0.2,0.6,0.4,0.9,0.6c3.5,2.1,6,5.1,6.9,9.1c0.8,3.5,1.4,7.2,1.6,10.8c0.8,13.3-2.2,25.8-8.8,37.5c-0.2,0.3-0.4,0.7-0.5,1
			c-0.2,0.7,0.1,1.2,0.7,1.5c0.6,0.3,1.2,0.2,1.6-0.3c0.2-0.2,0.4-0.5,0.5-0.8C91.7,109.5,94.8,97.8,94.9,85.4z M75.2,27.8
			c-1.5,0.1-3.1,0.1-4.6,0.3c-13.1,1.4-23.9,7.3-32.3,17.4c-0.5,0.6-1,1.2-1.4,1.8c-0.4,0.7-0.3,1.4,0.4,1.8
			c0.6,0.4,1.3,0.3,1.8-0.2c0.2-0.2,0.4-0.5,0.6-0.8c12.4-16.4,34.3-22.1,53.2-14c0.7,0.3,1.4,0.7,2.1,0.9c0.4,0.1,1.1,0,1.4-0.3
			c0.3-0.2,0.5-0.9,0.3-1.3c-0.2-0.4-0.6-0.9-1.1-1.1C89.2,29.4,82.4,27.9,75.2,27.8z M106.3,84c0-3.4-0.5-8-1.2-12.7
			c-0.8-4.9-2.5-9.5-5.3-13.6c-0.6-0.9-1.4-1.1-2.1-0.7c-0.7,0.5-0.8,1.3-0.2,2.2c2.2,3.2,3.7,6.7,4.5,10.6
			c2.5,12.2,2.1,24.2-1.2,36.2c-0.7,2.5-1.6,4.9-2.3,7.4c-0.1,0.4,0,1.2,0.3,1.5c0.3,0.3,1,0.4,1.4,0.2c0.4-0.2,0.7-0.8,0.9-1.2
			C104.6,104.8,106.3,95.2,106.3,84z M58.7,52.9c-0.4-0.5-0.6-1-1-1.2c-0.7-0.4-1.3-0.1-1.8,0.4c-7.7,6.8-11.3,15.2-10.7,25.5
			c0.1,1.8,0.6,3.7,0.8,5.5c0.7,7.2-1.6,13.3-6.9,18.3c-0.4,0.4-0.9,0.6-1.2,1.1c-0.2,0.4-0.4,1.1-0.2,1.5c0.2,0.4,0.8,0.7,1.3,0.7
			c0.4,0,0.8-0.3,1.1-0.6c7.1-6.4,9.9-14.3,8.2-23.8c-0.8-4.2-0.7-8.4,0.4-12.5c1.5-5.4,4.5-9.9,8.8-13.6
			C58,53.9,58.3,53.4,58.7,52.9z M75.1,85.5c-0.3,8.1-2.1,15.7-5.8,22.9c-1.8,3.6-4.1,6.9-6.7,10c-0.7,0.8-0.8,1.5-0.3,2.1
			c0.6,0.7,1.6,0.6,2.3-0.3c10.9-13.1,15-28.1,12-44.9c-0.2-1-0.8-1.6-1.7-1.4c-0.8,0.2-1.2,0.9-1.1,1.9
			C74.3,79,74.7,82.2,75.1,85.5z M89.1,83c0.1,0,0.1,0,0.2,0c-0.5-3.7-0.8-7.4-1.7-11c-1.9-7.9-11.2-12-18.4-8.1
			c-3.4,1.9-5.6,4.7-6.6,8.5c-0.2,0.7-0.1,1.4,0.6,1.6c0.4,0.2,1.1,0.2,1.5-0.1c0.4-0.2,0.6-0.8,0.7-1.3c1.5-5.7,7.4-9,13.1-7.1
			c3.9,1.3,6,4.2,6.7,8.2c0.7,3.7,1.1,7.5,1.1,11.3c0,1,0.5,1.6,1.3,1.6c0.8,0,1.4-0.6,1.4-1.7C89.1,84.3,89.1,83.7,89.1,83z
			 M66.2,84.9c-0.1-1.3-0.2-3-0.4-4.6c-0.1-1.1-0.7-1.7-1.5-1.6c-0.9,0.1-1.3,0.8-1.2,1.9c1.1,9.4-0.8,18.1-6,26
			c-1.7,2.5-3.9,4.7-5.9,7.1c-0.7,0.8-0.8,1.5-0.2,2.2c0.6,0.6,1.4,0.5,2.2-0.3C61.7,107.2,65.9,97.1,66.2,84.9z M27.9,75.2
			c0,3.8,0.4,7.5,1.4,11.2c0.2,0.9,0.9,1.4,1.6,1.2c0.8-0.2,1.2-0.9,1-1.8c0-0.1-0.1-0.2-0.1-0.4c-0.4-3.1-1-6.2-1.2-9.3
			c-0.3-7.3,1.4-14.3,4.7-20.8c0.5-1,0.3-1.8-0.4-2.2c-0.8-0.4-1.5,0-2,1C29.6,60.7,27.9,67.7,27.9,75.2z M74.3,45
			c-1.1,0.1-3.1,0.2-5,0.6c-2.2,0.5-4.4,1.3-6.6,2.1c-0.7,0.3-1.1,0.9-0.8,1.7c0.3,0.8,0.9,1.1,1.7,0.9c0.3-0.1,0.5-0.2,0.8-0.3
			c5.4-2.3,11.1-2.9,16.8-1.6c4.2,0.9,7.9,2.8,11.2,5.4c0.8,0.6,1.6,0.6,2.1,0c0.6-0.6,0.4-1.5-0.4-2.1c-0.1-0.1-0.2-0.2-0.4-0.3
			C88.2,47.2,82,45.2,74.3,45z M88.7,92.9c0-1-0.4-1.6-1.2-1.6c-0.9-0.1-1.4,0.4-1.5,1.4c-1.2,9.9-4.6,19-10.2,27.3
			c-0.1,0.2-0.3,0.4-0.4,0.7c-0.2,0.6-0.1,1.3,0.5,1.6c0.5,0.2,1.1,0.1,1.7-0.1c0.2-0.1,0.4-0.5,0.6-0.7c3.4-5,6-10.4,7.8-16.2
			C87.3,101.2,88.2,97,88.7,92.9z M112.1,85.6c0-0.6,0-1.2,0-1.8c0-1.3,0-2.5-0.2-3.8c-0.1-0.9-0.7-1.4-1.5-1.3
			c-0.7,0.1-1.3,0.7-1.3,1.5c0,0.2,0,0.4,0,0.6c0.5,7.5-0.1,14.9-1.7,22.3c-0.3,1.4-0.7,2.7-1,4.1c-0.2,0.9,0.2,1.6,1,1.8
			c0.7,0.2,1.4-0.2,1.7-1.1c0.1-0.2,0.1-0.4,0.2-0.5C111.2,100.2,112.1,92.9,112.1,85.6z M43.2,85c-0.3-2.7-0.7-5.7-1.1-8.7
			c-0.1-0.7-0.6-1.1-1.3-1.1c-0.8,0-1.3,0.5-1.3,1.2c-0.1,0.5,0,1,0.1,1.5c0.3,2,0.7,4,0.8,6c0.5,5.2-1.3,9.6-5.1,13.2
			c-0.2,0.2-0.4,0.4-0.6,0.6c-0.5,0.6-0.4,1.2,0,1.7c0.5,0.5,1.1,0.7,1.7,0.3c0.2-0.1,0.5-0.3,0.7-0.5C41,95.5,43,90.8,43.2,85z
			 M68.8,101.9c-0.3-0.3-0.6-0.9-1-1.1c-0.6-0.3-1.2-0.1-1.6,0.5c-0.2,0.2-0.3,0.5-0.4,0.8c-1.9,4.6-4.4,8.8-7.7,12.6
			c-0.6,0.7-1.3,1.3-1.8,2c-0.5,0.6-0.5,1.3,0.1,1.8c0.6,0.6,1.2,0.6,1.9,0.1c0.2-0.1,0.3-0.3,0.4-0.4c4.2-4.4,7.5-9.5,9.7-15.1
			C68.6,102.7,68.7,102.4,68.8,101.9z M42.6,109.2c0.5-0.3,0.9-0.5,1.2-0.7c3.9-3.3,6.8-7.3,8.7-11.9c0.3-0.6,0.4-1.3-0.2-1.7
			c-0.4-0.3-1-0.4-1.4-0.3c-0.4,0.2-0.8,0.7-1,1.1c-1.1,2.7-2.6,5.2-4.5,7.4c-1.1,1.2-2.3,2.2-3.4,3.4c-0.3,0.4-0.6,1.1-0.5,1.6
			C41.6,108.5,42.2,108.8,42.6,109.2z M92.1,119.4c0.2-0.2,0.7-0.5,1-1c2.1-4.2,3.7-8.5,4.9-13c0.3-1.1,0-1.8-0.9-2
			c-0.8-0.2-1.4,0.2-1.7,1.3c-0.5,1.6-0.9,3.2-1.5,4.7c-1,2.7-2.2,5.3-3.3,8C90.1,118.4,90.6,119.4,92.1,119.4z"/>
		<path d="M122.7,76.2c-0.4,0.4-0.8,1-1.3,1.2c-0.8,0.3-1.5-0.5-1.5-1.6c-0.2-2.9-0.2-5.8-0.8-8.7c-2.2-11.8-8.2-21.2-17.9-28.3
			c-0.9-0.6-1.1-1.4-0.6-2.1c0.5-0.7,1.3-0.8,2.2-0.1c9.6,7,15.8,16.3,18.5,27.8c0.7,2.8,0.8,5.7,1.2,8.6c0,0.3,0.1,0.7,0.1,1
			C122.7,74.8,122.7,75.5,122.7,76.2z"/>
		<path d="M100.8,85.5c-0.4,4-0.8,7.9-1.2,11.9c-0.1,1-0.8,1.6-1.6,1.4c-0.8-0.1-1.2-0.8-1.1-1.8c0.8-5.2,1.1-10.5,0.8-15.7
			c-0.3-4.8-0.7-9.7-2.5-14.2c-3.4-9-12.6-14.5-22.1-13.4c-10,1.1-17.7,8.3-19.3,17.8c-0.5,3.2,0,6.3,0.4,9.4
			c0.3,2.6,0.2,5.2,0.2,7.8c0,0.8-0.6,1.2-1.4,1.2c-0.8,0-1.3-0.6-1.3-1.5c0-0.3,0.1-0.7,0.1-1c-0.1-2-0.1-4-0.3-6.1
			c-0.1-1.5-0.5-3-0.6-4.5c-1-12.2,8.4-23.9,20.5-25.6c12.7-1.8,24.5,6.2,27.5,18.6C100.2,74.9,100.6,80.2,100.8,85.5z"/>
		<path d="M39.9,69c0.5-2.9,1.4-5.8,2.7-8.6C48.1,49,57.1,41.7,69.7,39.8c14.8-2.1,26.6,3.4,35.3,15.5c3.6,5.1,5.4,10.9,6.1,17.1
			c0.1,1-0.3,1.7-1.1,1.7c-0.8,0.1-1.4-0.4-1.6-1.4c-0.6-4-1.4-8-3.2-11.7c-5.2-10.6-13.7-17.1-25.5-18.6
			c-17.1-2.3-32.4,8.2-36.6,24.8c-0.2,0.8-0.3,1.6-0.5,2.4c-0.2,0.8-0.7,1.2-1.6,1.1C40.2,70.5,39.8,69.9,39.9,69z"/>
		<path d="M83.4,84.8c-0.2,13.8-4.2,25.7-12.1,36.3c-0.1,0.2-0.2,0.3-0.3,0.5c-0.6,0.7-1.3,0.8-1.9,0.3c-0.6-0.5-0.7-1.3-0.2-1.9
			c0.4-0.6,0.9-1.2,1.4-1.8c7.4-10.4,11-21.9,10.5-34.6c-0.1-3.3-0.7-6.7-1.3-10c-0.4-2.1-2.7-3.2-5-2.7c-2.3,0.5-3.7,2.4-3.3,4.6
			c1.2,6.4,1.4,12.9,0,19.4c0,0.2-0.1,0.3-0.1,0.5c-0.2,0.8-0.9,1.3-1.6,1.1c-0.8-0.2-1.2-0.9-1-1.8c0.8-4,1.2-8,0.8-12.1
			c-0.2-2-0.5-4-0.8-6c-0.6-3.6,1.8-7.4,5.3-8.3C77,67.4,81,69.5,82,73c0.6,2.1,0.8,4.3,1.1,6.5C83.3,81.5,83.3,83.4,83.4,84.8z"/>
		<path d="M36.1,75c0.4,2.7,0.7,5.4,1.1,8.2c0.6,4.1-0.4,7.7-3.1,10.8c-0.8,1-2,0.9-2.5-0.2c-0.3-0.7,0-1.2,0.5-1.7
			c1.9-2.2,2.8-4.8,2.4-7.7c-0.2-1.9-0.6-3.7-0.8-5.5c-0.9-11.4,2.4-21.5,9.6-30.2c6.6-8,15.1-12.8,25.3-14.5
			c3.8-0.6,7.6-0.7,11.5-0.2c0.4,0,1,0.1,1.2,0.4c0.3,0.4,0.6,1.1,0.4,1.4c-0.2,0.4-0.8,0.9-1.3,0.9c-0.8,0.1-1.7-0.1-2.5-0.2
			c-9.9-0.6-18.8,2-26.6,8c-8.2,6.3-13,14.7-14.6,24.8c-0.1,0.6-0.2,1.3-0.2,1.9c-0.1,1.3-0.2,2.5-0.2,3.8
			C36.2,74.9,36.2,75,36.1,75z"/>
		<path d="M117.9,87c-0.2,2.2-0.4,5.8-0.7,9.5c-0.1,1.1-0.6,1.6-1.5,1.6c-0.9-0.1-1.3-0.7-1.2-1.8c0.2-4.5,0.6-9,0.6-13.6
			c0-4.9-0.7-9.8-1.6-14.6c-1.5-8.1-5.1-15-10.9-20.7c-4.2-4.2-9.2-7.1-14.8-9.1c-0.3-0.1-0.6-0.2-0.9-0.3c-0.7-0.4-0.8-1-0.6-1.6
			c0.2-0.7,0.7-1,1.4-0.9c0.2,0,0.5,0.1,0.7,0.2c14,5.1,23.1,14.7,27.1,29C117.3,71.5,117.8,78.5,117.9,87z"/>
		<path d="M75.2,56.5c0.3,0,0.9,0,1.4,0.1c0.8,0.1,1.4,0.7,1.3,1.4c0,0.7-0.6,1.3-1.5,1.3c-2.1-0.1-4.2,0.1-6.2,0.8
			c-7,2.2-11.6,8.9-10.9,16.3c0.2,2.6,0.9,5.2,0.9,7.8c0.3,11.2-3.8,20.6-12,28.1c-0.9,0.8-1.7,0.8-2.2,0.1
			c-0.6-0.7-0.4-1.4,0.4-2.2c7.8-7.1,11.6-15.9,11.1-26.5c-0.1-1.9-0.5-3.8-0.8-5.6C55.1,67,63.6,56.9,75.2,56.5z"/>
		<path d="M94.9,85.4c-0.1,12.5-3.2,24.2-9.3,35c-0.2,0.3-0.3,0.6-0.5,0.8c-0.5,0.5-1,0.6-1.6,0.3c-0.6-0.3-0.8-0.9-0.7-1.5
			c0.1-0.4,0.3-0.7,0.5-1c6.6-11.6,9.6-24.1,8.8-37.5c-0.2-3.6-0.8-7.2-1.6-10.8c-0.9-4-3.4-6.9-6.9-9.1c-0.3-0.2-0.6-0.3-0.9-0.6
			c-0.5-0.5-0.6-1.1-0.2-1.7c0.4-0.6,0.9-0.7,1.6-0.5c0.3,0.1,0.5,0.2,0.8,0.4c5.1,3.2,8.1,7.9,8.9,13.9c0.5,4.1,0.9,8.2,1.4,12.3
			C95,85.3,95,85.4,94.9,85.4z"/>
		<path d="M75.2,27.8c7.1,0.1,13.9,1.6,20.4,4.7c0.4,0.2,0.9,0.6,1.1,1.1c0.1,0.3,0,1-0.3,1.3c-0.4,0.3-1,0.4-1.4,0.3
			c-0.7-0.2-1.4-0.6-2.1-0.9c-18.9-8.1-40.7-2.4-53.2,14c-0.2,0.3-0.4,0.5-0.6,0.8c-0.5,0.5-1.2,0.7-1.8,0.2
			c-0.7-0.5-0.8-1.1-0.4-1.8c0.4-0.6,0.9-1.2,1.4-1.8c8.4-10.2,19.1-16,32.3-17.4C72.1,27.9,73.7,27.9,75.2,27.8z"/>
		<path d="M106.3,84c0,11.2-1.7,20.8-5.2,30c-0.2,0.5-0.5,1-0.9,1.2c-0.4,0.2-1.2,0.1-1.4-0.2c-0.3-0.3-0.5-1.1-0.3-1.5
			c0.7-2.5,1.7-4.9,2.3-7.4c3.3-12,3.7-24,1.2-36.2c-0.8-3.9-2.3-7.4-4.5-10.6c-0.6-0.9-0.6-1.8,0.2-2.2c0.7-0.5,1.4-0.2,2.1,0.7
			c2.9,4.1,4.6,8.6,5.3,13.6C105.9,76,106.4,80.7,106.3,84z"/>
		<path d="M58.7,52.9c-0.4,0.5-0.7,1-1.1,1.4c-4.3,3.7-7.3,8.2-8.8,13.6c-1.1,4.1-1.2,8.3-0.4,12.5c1.7,9.4-1.1,17.4-8.2,23.8
			c-0.3,0.3-0.8,0.6-1.1,0.6c-0.5-0.1-1.1-0.4-1.3-0.7c-0.2-0.4,0-1.1,0.2-1.5c0.2-0.4,0.8-0.7,1.2-1.1c5.3-5,7.6-11.1,6.9-18.3
			c-0.2-1.8-0.7-3.7-0.8-5.5c-0.6-10.2,3-18.7,10.7-25.5c0.5-0.5,1.1-0.8,1.8-0.4C58.1,51.9,58.3,52.4,58.7,52.9z"/>
		<path d="M75.1,85.5c-0.4-3.3-0.8-6.5-1.2-9.8c-0.1-1.1,0.2-1.7,1.1-1.9c0.8-0.2,1.5,0.4,1.7,1.4c3,16.8-1.1,31.8-12,44.9
			c-0.8,0.9-1.7,1-2.3,0.3c-0.5-0.6-0.4-1.3,0.3-2.1c2.6-3.1,4.9-6.4,6.7-10C73,101.2,74.9,93.6,75.1,85.5z"/>
		<path d="M89.1,83c0,0.7,0,1.3,0,2c0,1-0.6,1.7-1.4,1.7c-0.8,0-1.3-0.6-1.3-1.6c0-3.8-0.4-7.6-1.1-11.3c-0.8-4-2.8-6.9-6.7-8.2
			c-5.6-1.9-11.6,1.4-13.1,7.1c-0.1,0.5-0.3,1.1-0.7,1.3c-0.4,0.2-1.1,0.2-1.5,0.1c-0.7-0.3-0.8-0.9-0.6-1.6c1-3.8,3.2-6.7,6.6-8.5
			c7.1-3.8,16.5,0.2,18.4,8.1c0.9,3.6,1.1,7.4,1.7,11C89.3,83,89.2,83,89.1,83z"/>
		<path d="M66.2,84.9c-0.3,12.2-4.5,22.3-12.9,30.5c-0.8,0.8-1.6,0.9-2.2,0.3c-0.6-0.6-0.5-1.3,0.2-2.2c2-2.3,4.2-4.5,5.9-7.1
			c5.3-7.9,7.1-16.6,6-26c-0.1-1.1,0.3-1.8,1.2-1.9c0.9-0.1,1.4,0.5,1.5,1.6C66,82,66.1,83.6,66.2,84.9z"/>
		<path d="M27.9,75.2c0-7.4,1.7-14.5,5-21.2c0.5-1,1.2-1.4,2-1c0.8,0.4,1,1.2,0.4,2.2c-3.3,6.6-5,13.5-4.7,20.8
			c0.1,3.1,0.8,6.2,1.2,9.3c0,0.1,0.1,0.2,0.1,0.4c0.2,1-0.2,1.7-1,1.8c-0.8,0.2-1.4-0.3-1.6-1.2C28.3,82.7,27.9,78.9,27.9,75.2z"/>
		<path d="M74.3,45c7.7,0.1,13.9,2.2,19.4,6.4c0.1,0.1,0.2,0.2,0.4,0.3c0.8,0.7,1,1.5,0.4,2.1c-0.5,0.6-1.3,0.7-2.1,0
			c-3.3-2.6-7-4.5-11.2-5.4c-5.8-1.3-11.4-0.7-16.8,1.6c-0.3,0.1-0.5,0.3-0.8,0.3c-0.8,0.2-1.4-0.1-1.7-0.9
			c-0.3-0.8,0.1-1.4,0.8-1.7c2.2-0.8,4.3-1.6,6.6-2.1C71.2,45.2,73.2,45.1,74.3,45z"/>
		<path d="M88.7,92.9c-0.5,4.1-1.4,8.3-2.7,12.4c-1.9,5.8-4.5,11.1-7.8,16.2c-0.2,0.3-0.3,0.7-0.6,0.7c-0.5,0.1-1.2,0.2-1.7,0.1
			c-0.6-0.2-0.7-0.9-0.5-1.6c0.1-0.2,0.2-0.4,0.4-0.7c5.6-8.3,9-17.4,10.2-27.3c0.1-1,0.7-1.5,1.5-1.4
			C88.2,91.3,88.7,91.9,88.7,92.9z"/>
		<path d="M112.1,85.6c0,7.3-0.9,14.6-2.7,21.7c0,0.2-0.1,0.4-0.2,0.5c-0.3,0.8-0.9,1.2-1.7,1.1c-0.8-0.2-1.2-0.9-1-1.8
			c0.3-1.4,0.7-2.7,1-4.1c1.6-7.3,2.2-14.8,1.7-22.3c0-0.2,0-0.4,0-0.6c0-0.8,0.5-1.4,1.3-1.5c0.8-0.1,1.4,0.4,1.5,1.3
			c0.1,1.3,0.1,2.5,0.2,3.8C112.1,84.4,112.1,85,112.1,85.6z"/>
		<path d="M43.2,85C43,90.8,41,95.5,37,99.2c-0.2,0.2-0.4,0.4-0.7,0.5c-0.6,0.4-1.2,0.2-1.7-0.3c-0.5-0.5-0.5-1.2,0-1.7
			c0.2-0.2,0.4-0.4,0.6-0.6c3.8-3.6,5.6-8,5.1-13.2c-0.2-2-0.6-4-0.8-6c-0.1-0.5-0.1-1-0.1-1.5c0.1-0.8,0.6-1.2,1.3-1.2
			c0.7,0,1.2,0.4,1.3,1.1C42.5,79.3,42.8,82.3,43.2,85z"/>
		<path d="M68.8,101.9c-0.2,0.5-0.3,0.8-0.4,1.1c-2.3,5.7-5.5,10.7-9.7,15.1c-0.1,0.1-0.3,0.3-0.4,0.4c-0.6,0.5-1.3,0.5-1.9-0.1
			c-0.5-0.6-0.5-1.2-0.1-1.8c0.6-0.7,1.2-1.3,1.8-2c3.3-3.8,5.8-7.9,7.7-12.6c0.1-0.3,0.2-0.5,0.4-0.8c0.4-0.6,1-0.8,1.6-0.5
			C68.3,101,68.5,101.6,68.8,101.9z"/>
		<path d="M42.6,109.2c-0.4-0.4-1-0.7-1.1-1.1c-0.1-0.5,0.1-1.2,0.5-1.6c1.1-1.2,2.3-2.2,3.4-3.4c1.9-2.2,3.4-4.7,4.5-7.4
			c0.2-0.5,0.6-1,1-1.1c0.4-0.1,1,0,1.4,0.3c0.6,0.4,0.5,1.1,0.2,1.7c-1.9,4.7-4.8,8.7-8.7,11.9C43.5,108.8,43.1,108.9,42.6,109.2z"
			/>
		<path d="M92.1,119.4c-1.4,0-2-1-1.5-2.1c1.1-2.7,2.2-5.3,3.3-8c0.6-1.5,1-3.1,1.5-4.7c0.3-1.1,0.9-1.5,1.7-1.3
			c0.9,0.2,1.2,0.9,0.9,2c-1.2,4.5-2.8,8.8-4.9,13C92.8,118.9,92.3,119.2,92.1,119.4z"/>
	</g>
</g>
</svg>
