<?xml version="1.0" encoding="utf-8"?>
<!-- Generator: Adobe Illustrator 22.0.1, SVG Export Plug-In . SVG Version: 6.00 Build 0)  -->
<svg version="1.1" xmlns="http://www.w3.org/2000/svg" xmlns:xlink="http://www.w3.org/1999/xlink" x="0px" y="0px"
	 viewBox="0 0 2000 1402.2" style="enable-background:new 0 0 2000 1402.2;" xml:space="preserve">
<style type="text/css">
	.st0{clip-path:url(#SVGID_2_);}
	.st1{fill:#FFFFFF;}
	.st2{fill:#010101;}
	.st3{fill:#7E2829;}
	.st4{fill:#984334;}
	.st5{fill:#F5825A;}
	.st6{fill:#FFEEAA;}
	.st7{fill:#423E38;}
	.st8{fill:none;}
	.st9{fill:#8B735B;}
	.st10{fill:#D5563D;}
	.st11{fill:#505251;}
	.st12{fill:#FFFEF9;}
	.st13{fill:#423F3D;}
	.st14{fill:#EEBB75;}
	.st15{fill:#BC8D5A;}
	.st16{fill:#BCC7C2;}
	.st17{fill:#888988;}
	.st18{fill:#B08B6C;}
	.st19{fill:#474441;}
	.st20{fill:#EA6849;}
	.st21{fill:#F8A16C;}
</style>
<g id="Layer_1">
	<defs>
		<rect id="SVGID_1_" y="-5.5" width="2000" height="1405.4"/>
	</defs>
	<clipPath id="SVGID_2_">
		<use xlink:href="#SVGID_1_"  style="overflow:visible;"/>
	</clipPath>
	<g class="st0">
		<line class="st1" x1="1001.5" y1="1068.5" x2="1001.5" y2="2283.4"/>
		<polygon class="st2" points="1001.5,2062.6 2045,1133.6 2045,1354.4 1001.5,2283.4 		"/>
		<polygon class="st1" points="1001.5,1844.7 2045,915.7 2045,1136.5 1001.5,2065.5 		"/>
		<polygon class="st1" points="1001.5,1626.8 2045,697.8 2045,918.5 1001.5,1847.6 		"/>
		<polygon class="st1" points="1001.5,1408.9 2045,479.9 2045,700.6 1001.5,1629.7 		"/>
		<polygon class="st1" points="1001.5,1191 2045,261.9 2045,482.7 1001.5,1411.8 		"/>
		<polygon class="st1" points="1001.5,973.1 2045,44 2045,264.8 1001.5,1193.9 		"/>
		<polygon class="st1" points="1001.5,755.2 2045,-173.9 2045,46.9 1001.5,976 		"/>
		<line class="st1" x1="1001.5" y1="850.6" x2="1001.5" y2="2065.5"/>
		<polygon class="st1" points="1001.5,1844.7 2045,915.7 2045,1136.5 1001.5,2065.5 		"/>
		<polygon class="st1" points="1001.5,1626.8 2045,697.8 2045,918.5 1001.5,1847.6 		"/>
		<polygon class="st1" points="1001.5,1408.9 2045,479.9 2045,700.6 1001.5,1629.7 		"/>
		<polygon class="st1" points="1001.5,1191 2045,261.9 2045,482.7 1001.5,1411.8 		"/>
		<polygon class="st1" points="1001.5,973.1 2045,44 2045,264.8 1001.5,1193.9 		"/>
		<polygon class="st1" points="1001.5,755.2 2045,-173.9 2045,46.9 1001.5,976 		"/>
		<polygon class="st1" points="1001.5,537.3 2045,-391.8 2045,-171 1001.5,758 		"/>
		<line class="st1" x1="1001.5" y1="632.7" x2="1001.5" y2="1847.6"/>
		<polygon class="st2" points="1001.5,1626.8 2045,697.8 2045,918.5 1001.5,1847.6 		"/>
		<polygon class="st1" points="1001.5,1408.9 2045,479.9 2045,700.6 1001.5,1629.7 		"/>
		<polygon class="st1" points="1001.5,1191 2045,261.9 2045,482.7 1001.5,1411.8 		"/>
		<polygon class="st1" points="1001.5,973.1 2045,44 2045,264.8 1001.5,1193.9 		"/>
		<polygon class="st1" points="1001.5,755.2 2045,-173.9 2045,46.9 1001.5,976 		"/>
		<polygon class="st1" points="1001.5,537.3 2045,-391.8 2045,-171 1001.5,758 		"/>
		<polygon class="st1" points="1001.5,319.4 2045,-609.7 2045,-388.9 1001.5,540.1 		"/>
		<line class="st1" x1="1001.5" y1="414.8" x2="1001.5" y2="1629.7"/>
		<polygon class="st1" points="1001.5,1408.9 2045,479.9 2045,700.6 1001.5,1629.7 		"/>
		<polygon class="st1" points="1001.5,1191 2045,261.9 2045,482.7 1001.5,1411.8 		"/>
		<polygon class="st1" points="1001.5,973.1 2045,44 2045,264.8 1001.5,1193.9 		"/>
		<polygon class="st1" points="1001.5,755.2 2045,-173.9 2045,46.9 1001.5,976 		"/>
		<polygon class="st1" points="1001.5,537.3 2045,-391.8 2045,-171 1001.5,758 		"/>
		<polygon class="st1" points="1001.5,319.4 2045,-609.7 2045,-388.9 1001.5,540.1 		"/>
		<polygon class="st1" points="1001.5,101.4 2045,-827.6 2045,-606.8 1001.5,322.2 		"/>
		<line class="st1" x1="1001.5" y1="196.9" x2="1001.5" y2="1411.8"/>
		<polygon class="st2" points="1001.5,1191 2045,261.9 2045,482.7 1001.5,1411.8 		"/>
		<polygon class="st1" points="1001.5,973.1 2045,44 2045,264.8 1001.5,1193.9 		"/>
		<polygon class="st2" points="1001.5,755.2 2045,-173.9 2045,46.9 1001.5,976 		"/>
		<polygon class="st1" points="1001.5,537.3 2045,-391.8 2045,-171 1001.5,758 		"/>
		<polygon class="st2" points="1001.5,319.4 2045,-609.7 2045,-388.9 1001.5,540.1 		"/>
		<polygon class="st1" points="1001.5,101.4 2045,-827.6 2045,-606.8 1001.5,322.2 		"/>
		<polygon class="st2" points="1001.5,-116.5 2045,-1045.5 2045,-824.7 1001.5,104.3 		"/>
		<line class="st1" x1="1001.5" y1="1068.5" x2="1001.5" y2="2283.4"/>
		<polygon class="st2" points="1001.5,2062.6 -42,1133.6 -42,1354.4 1001.5,2283.4 		"/>
		<polygon class="st1" points="1001.5,1844.7 -42,915.7 -42,1136.5 1001.5,2065.5 		"/>
		<polygon class="st1" points="1001.5,1626.8 -42,697.8 -42,918.5 1001.5,1847.6 		"/>
		<polygon class="st1" points="1001.5,1408.9 -42,479.9 -42,700.6 1001.5,1629.7 		"/>
		<polygon class="st1" points="1001.5,1191 -42,261.9 -42,482.7 1001.5,1411.8 		"/>
		<polygon class="st1" points="1001.5,973.1 -42,44 -42,264.8 1001.5,1193.9 		"/>
		<polygon class="st1" points="1001.5,755.2 -42,-173.9 -42,46.9 1001.5,976 		"/>
		<line class="st1" x1="1001.5" y1="850.6" x2="1001.5" y2="2065.5"/>
		<polygon class="st1" points="1001.5,1844.7 -42,915.7 -42,1136.5 1001.5,2065.5 		"/>
		<polygon class="st1" points="1001.5,1626.8 -42,697.8 -42,918.5 1001.5,1847.6 		"/>
		<polygon class="st1" points="1001.5,1408.9 -42,479.9 -42,700.6 1001.5,1629.7 		"/>
		<polygon class="st1" points="1001.5,1191 -42,261.9 -42,482.7 1001.5,1411.8 		"/>
		<polygon class="st1" points="1001.5,973.1 -42,44 -42,264.8 1001.5,1193.9 		"/>
		<polygon class="st1" points="1001.5,755.2 -42,-173.9 -42,46.9 1001.5,976 		"/>
		<polygon class="st1" points="1001.5,537.3 -42,-391.8 -42,-171 1001.5,758 		"/>
		<line class="st1" x1="1001.5" y1="632.7" x2="1001.5" y2="1847.6"/>
		<polygon class="st2" points="1001.5,1626.8 -42,697.8 -42,918.5 1001.5,1847.6 		"/>
		<polygon class="st1" points="1001.5,1408.9 -42,479.9 -42,700.6 1001.5,1629.7 		"/>
		<polygon class="st1" points="1001.5,1191 -42,261.9 -42,482.7 1001.5,1411.8 		"/>
		<polygon class="st1" points="1001.5,973.1 -42,44 -42,264.8 1001.5,1193.9 		"/>
		<polygon class="st1" points="1001.5,755.2 -42,-173.9 -42,46.9 1001.5,976 		"/>
		<polygon class="st1" points="1001.5,537.3 -42,-391.8 -42,-171 1001.5,758 		"/>
		<polygon class="st1" points="1001.5,319.4 -42,-609.7 -42,-388.9 1001.5,540.1 		"/>
		<line class="st1" x1="1001.5" y1="414.8" x2="1001.5" y2="1629.7"/>
		<polygon class="st1" points="1001.5,1408.9 -42,479.9 -42,700.6 1001.5,1629.7 		"/>
		<polygon class="st1" points="1001.5,1191 -42,261.9 -42,482.7 1001.5,1411.8 		"/>
		<polygon class="st1" points="1001.5,973.1 -42,44 -42,264.8 1001.5,1193.9 		"/>
		<polygon class="st1" points="1001.5,755.2 -42,-173.9 -42,46.9 1001.5,976 		"/>
		<polygon class="st1" points="1001.5,537.3 -42,-391.8 -42,-171 1001.5,758 		"/>
		<polygon class="st1" points="1001.5,319.4 -42,-609.7 -42,-388.9 1001.5,540.1 		"/>
		<polygon class="st1" points="1001.5,101.4 -42,-827.6 -42,-606.8 1001.5,322.2 		"/>
		<line class="st1" x1="1001.5" y1="196.9" x2="1001.5" y2="1411.8"/>
		<polygon class="st2" points="1001.5,1191 -42,261.9 -42,482.7 1001.5,1411.8 		"/>
		<polygon class="st1" points="1001.5,973.1 -42,44 -42,264.8 1001.5,1193.9 		"/>
		<polygon class="st2" points="1001.5,755.2 -42,-173.9 -42,46.9 1001.5,976 		"/>
		<polygon class="st1" points="1001.5,537.3 -42,-391.8 -42,-171 1001.5,758 		"/>
		<polygon class="st2" points="1001.5,319.4 -42,-609.7 -42,-388.9 1001.5,540.1 		"/>
		<polygon class="st1" points="1001.5,101.4 -42,-827.6 -42,-606.8 1001.5,322.2 		"/>
		<polygon class="st2" points="1001.5,-116.5 -42,-1045.5 -42,-824.7 1001.5,104.3 		"/>
	</g>
	<g class="st0">
		<polygon class="st3" points="916.2,1011.7 937.4,1047 1103.3,1034 1143.5,981.8 1143.5,898.5 1195,868.8 1187.4,787.7 
			1200.1,714.4 1146.3,708.8 1087.7,609.7 1043,595.4 946.4,665.7 898.9,683.4 860.2,742.7 879,868.6 		"/>
		<path class="st4" d="M885.8,762.2l11.8,65.8l28.3,18.5c0,0,52.5-27.1,52.5-28.9c0-1.8,46.5-26.6,47-28c0.5-1.4,7.7,6.8,7.7,6.8
			s-0.9,33.4,0,31.6c0.9-1.8,6.8-35.7,6.8-35.7s-1.4-26.6,0-28.4c1.4-1.8,9.4,1.4,9.4,1.4v29.4l4.3,7.7l-4.3,11.7
			c0,0,15.9,15.4,16.8,14.9c0.9-0.5,29.3,10.8,29.3,10.8s19.9-4.1,19.4-5.9c-0.5-1.8,11.7-20.8,11.7-20.8l26.7-7.9l23.5,4.3
			l3.5-36.1l-10.7-6.5v-14.7l-56.6-26.5l22.5-6.9h-59.5l-17.4-25.9l-50.6,23.4l-58-9.4l-33.6,3.7l54.3,7.7c0,0-10.5,4.3-10.2,2.2
			s29.7,7.6,29.7,7.6l-57.2-5.4c0,0,36.8,10,37.5,9.1c0.7-1,62.3,4.6,62.8,3.6c0.5-1,46.3-2.3,46.3-2.3l-31.7,18.3l-18.2-6.4
			l-24.7-1.6L885.8,762.2z"/>
		<path class="st4" d="M1008.1,831.7l-46.7,10.2l54.3,2.8c0,0,3.6-14,2.8-13C1017.6,832.7,1008.1,831.7,1008.1,831.7z"/>
		<path class="st5" d="M1053.5,753l-4.3,12.2c0,0-1.4,11.4,0,11c1.4-0.4,66.6,36.1,66.6,36.1s-9.9,13.8-9.9,14.2s-13.5,4-13.5,4
			l-34.6-22.1c0,0-15.2-3-14.2-5.3s-4.8,1.1-4.8,1.1l10.3,9.8l34.9,21.3l11.3,4.4l19.4-5.9c0,0,3.2-23.8,5.4-23.2s6.3,2.4,6.3,2.4
			l26.7-7.9l-15.6-36.8l5.9-9.7h22.1l-28.4-22.1l-24.4-10.8l-20.8-3.1l-16.2-3.7c0,0-27.6-21.2-26.3-21.8
			c1.3-0.6-25.1,21.8-25.1,21.8l-25,1.9c0,0,34.3,4.3,35.6,4s62.9,4.3,62.9,4.3l-2.2,7.5L1053.5,753z"/>
		<path class="st4" d="M917.7,871c0.5-1,12.3,11.1,12.3,10.1s18,1.7,18.2,0c0.2-1.7,12.1-8.1,12.1-8.1s14.9,1,16.1,1
			c1.2,0,13.7,11.1,13.7,11.1l21.7,38.6l23.4-1.5l5.4-6.9l-3.5-20.4c0,0-3.8-8.6-4-9.6c-0.1-1,3.9-13.2,4-14.3c0.1-1.2,5-5.1,5-5.1
			h7.8c0,0,5,23.9,4.7,24.6c-0.2,0.7-2,21.4-2,21.4s17.5,5.2,17.5,4.4c0-0.7,22.6-39.9,22.6-39.9l16-2.7l4.4,3.7l18-11.6
			c0,0-9.8-3.4-9.8-5.2c0-1.7,3.7-8.1,3.7-8.1l-8.4-7.8l-28.8,2.9l-31.5,5.9l-29.3,4.2h-10.6l-13-6.4l-46,4.4L917.7,871z"/>
		<path class="st4" d="M925,893.3l8,6.4l6.4,61.2l86.6,12.6c0,0,4.7-10.2,3.7-9.9c-1,0.3-33.2-5.4-33.2-6.4c0-1-19.2-7.9-19.1-8.6
			c0.1-0.7,3.3-8.4,3.3-8.4l64.2,7.6c0,0,22.4,3.9,21.4,4.4c-1,0.5-18.1,13.5-19,13.3s53.4,14,53.4,14l20.6,2.3
			c0,0,3.7-36.8,3.6-36.2c-0.1,0.6-52.7,4.2-52.7,4.2l-3.4-3c0,0,56.7-6.9,56.8-7.9c0.1-1,5-49.9,5-49.9l-65,42.8l-2.5,3.6
			c0,0-2.7-7-3.4-7.5c-0.7-0.5-9.9,0.7-9.9,0.7s-1.4,15.3-1.4,14.5s-6.9-2.3-6.9-2.1c0,0.2-1.7-7.3-1.7-7.3l-14.3,1.7
			c0,0-10.8,0.1-11.3,0c-0.5-0.1-9.4-6.3-9.4-6.3l-38.3-26.5c0,0-28.6-8.7-28.9-9.4S925,893.3,925,893.3z"/>
		<path class="st4" d="M937.4,1000.4c0-0.2,39-14.2,38.9-14.7c-0.1-0.5,94.7,2.7,94.4,1.7s37.9,3.4,37.9,3.4s-37.2,23.1-37.9,22.4
			s-89.3,8.9-89.3,8.9s-43.1,0.6-43.1,0S937.4,1000.4,937.4,1000.4z"/>
		<path d="M919.4,693.7l-38.7,54.1l12.7,120.4l39.5,31.4c0,0,7.4,163,6.7,158.1s-6.7,35.9-6.7,35.9s-33.5,66.9-35.5,64.9
			c-2-2-78.3,56.9-78.3,56.9l-83.6,93.7c0,0-36.8,29.4-37.5,27.4c-0.7-2-19.4,4.7-19.4,4.7s59.6-137.8,59.6-141.2
			c0-3.3-4.7-98.4-4.7-98.4l-14.1,0.7l-12-15l15.4-11.4c0,0,7-72.3,7.4-73.5c0.4-1.2,37.8-9.7,37.8-9.7l4.4-22.9l50.3-6.8l4.8-53.9
			l-13.3-82.9L794.6,764l-11.7-2l-9.3-6l-44.6,53.9l-115.8,61.9l-30.2-7.2l-33-49.9c0,0,31.4-90.1,31.8-91.3
			c0.4-1.2,10.1-23.3,10.5-24.5c0.4-1.2,17.3-16.9,17.7-18.1c0.4-1.2,22.5-52.7,22.5-52.7l26.9-51.5l4.4-37.8l24.9-61.5l21.3-37.4
			l20.5-18.5l38.2-15.5l47.1-8.2l34.2-5.6c0,0,116.4-34.4,116.4-34.5c0-0.1-0.3,4.7-0.3,4.7l-48.8,24.7l-4.6,55.6l6.6,162V693.7z"/>
		<polygon class="st3" points="944.4,156.8 971.7,163 994.3,172.9 975.6,171.6 959.9,190.8 962.5,254 987.1,320.7 1005.3,350.7 
			1038.2,382 1060.6,386.8 1150.5,379.9 1141.2,405.4 1071.9,412.4 1041.9,395.1 1007.9,363.5 984.6,324.9 957.1,252.7 946.3,204.5 
					"/>
		<polygon class="st6" points="1150.5,146.8 1123,179.5 1118,207.8 1122.5,221.4 1165.7,188.6 1175.7,150.4 		"/>
		<path class="st4" d="M1075.9,368.6l-15.3,18.2l11.3,19.8c0,0,13.9,2.6,14.2,1.3c0.3-1.3,25.2-8.3,25.2-8.3h28.3l10.8-19.7
			l-18.5-7.2L1075.9,368.6z"/>
		<path d="M1183.4,253.1c-0.5-3.6,0-87.1,0-87.1l-13.9-48.4L1153,92.4l16.5,58.2l-23.2,22.2l-22.4,42.8l-11.1,47.4v12.4l2.6,34.5
			l8.5,43.3c0,0,5.9,17,8,19.6c2.1,2.6,18.5,7.2,18.5,7.2l16-12.4c0,0,10.8-49.5,10.8-52C1177.2,312.9,1183.4,253.1,1183.4,253.1z"
			/>
		<path d="M959.9,190.8l2.7,63.2l24.6,66.7l18.2,30l32.9,31.3l22.4,4.8l15.3-18.2l6.4-21.1v-62.5l7.9-8l-5.1-4.4l-9.3-0.5
			c0,0,5.9-4.8,6.5-7.7c0.6-2.9-3.8-21.1-3.8-21.1l-8.8,16.6l-21.3-46l-28.4-29.4l-25.7-11.8l-18.7-1.3L959.9,190.8z"/>
		<polygon class="st3" points="989.7,65.1 1038.2,47.6 1082.5,44.5 1121.6,62 1153,92.4 1160.8,117.6 1128.3,114.6 		"/>
		<path class="st5" d="M966.9,89.9l22.8-24.8l53.6-9.7h35.1c0,0,38.6,16.4,39.1,14.9c0.5-1.5,28.8,31.9,28.8,31.9l14.4,15.5l8.8,33
			l-20.1,5.2l-21.1,26.8l-10.3,25.2l6,7.7l-8,32.5l-3.1,14.9v12.4l-13.4,9.8l-14.4-12.4l-9.3-0.5l-20.1-40.2c0,0-81.9-67-84-69
			c-2.1-2.1-18,18-18.5,16.5c-0.5-1.5-9.3-19.6-8.8-22.7c0.5-3.1,8.2-47.4,8.2-47.4L966.9,89.9z"/>
		<polygon class="st6" points="985.6,84.2 959.9,108.9 983.5,124.3 1001.7,134.8 1014.5,149.1 1067.5,123.8 1087.6,119.2 
			1109.8,156.3 1116.7,152.3 1098.9,109.9 1124,96.2 1111.3,71.8 1078.4,55.4 1045.4,60 		"/>
		<polygon class="st1" points="966.9,107.2 1018.9,137.2 1124,96.2 1078.4,55.4 		"/>
		<path class="st7" d="M1169.5,156.3l6.7,37.1v23.7l-6.7-8.2v9.8l-29.9,25.2l32-18.5l4.5,24.2l-3.1,17.5l-3.6-10.3
			c0,0-6.4,17.7-6.4,18c0,0.3,6.4-3.8,6.4-3.8s3.1,40.6,3.1,39.3s7.1-59.2,7.1-59.2v-70.1L1169.5,156.3z"/>
		<path class="st1" d="M1130.8,265.8c1.3-1,13.4-10.9,14.7-11.8c1.3-1,14.2-2.9,14.2-2.9l-3,7.3l-8.5,10.5L1130.8,265.8z"/>
		<path class="st1" d="M1017,277.1c1.4-0.2,14.3-3,15.7-3.3c1.4-0.2,14.2,1.4,14.2,1.4l-3.7,3.3l-9.5,3.9L1017,277.1z"/>
		<path class="st8" d="M1115.2,270.9h8.8l4.3-1.9l2.6,5.1c0,0-5.4,3.1-5.2,3C1125.8,277,1115.2,270.9,1115.2,270.9z"/>
		<polygon class="st9" points="1128.3,280.8 1130.8,291 1128.3,304.1 1139.6,304.1 1141.7,290.1 1135,292.5 		"/>
		<path class="st7" d="M1154.1,279.5c0,0-14.6,35.8-14.5,34.8c0.1-1-11.4-10.2-11.4-10.2l13.4-14.1L1154.1,279.5z"/>
		<path class="st10" d="M1072.7,191.4c1.3-0.6,12.1-15.3,12.1-15.3l11.5,2.9l6.4,8.9l5.1-2.2l7.3-9.6l17.2-5.9l-17.2,25.7l1.3,25.5
			h6.1l-3.7,16.2l-3.6-2.1l-5.1,2.1l5.9,10.4l-10-5.8c0,0,1,20.4,1,19.5c0-1,6,1.3,6,1.3s-7.6,3.8-7.9,4.8c-0.3,1-12.5-0.6-13.1-1.6
			c-0.6-1-5.7-24.6-5.7-24.6s-9.3,19.2-10.9,18.5s-10.5-18.2-10.5-18.2l14.9-8.6c0,0-15.5-16.2-29.4-30.8
			c-11.2-11.7-21.3-22.4-21.6-22.8c-0.6-1,28.3,11.2,28.3,11.2l23.6,35.1l7.8-2.2c0,0,9.6,19.5,9.6,18.5s0-38.6,0-38.6L1072.7,191.4
			z"/>
		<path class="st3" d="M1090.2,277.1c0.8,0.7-7.9,8-7.9,8h32.9c0,0-2.6-9.1-2.3-9.8S1090.2,277.1,1090.2,277.1z"/>
		<path class="st5" d="M1075.9,368.6c0,0,19.2,29.1,20.9,29.1s23.8-2.9,23.8-2.9l11.3-22.2l-16.7-87.6h-32.9v62.5L1075.9,368.6z"/>
		<path class="st6" d="M1093.5,290.4c0,0,3.2,39.3,3.4,38c0.2-1.3,11.3,2,11.3,0s-6.4-38-6.4-38l-6.7-5.3L1093.5,290.4z"/>
		<path class="st9" d="M977.2,182.8c-0.3,1,10.2,55.9,10.2,55.9l8.3,7.7l-13.7,3.5l2.2-5.4l-13.1-15.6l-4.9-16.1l-3.1-10.2l3.7-15.5
			L977.2,182.8z"/>
		<path class="st7" d="M983.9,293.9c-0.3-1.6-14.1-44.1-14.1-44.1s-3.6-33.2-3.6-37.2s18,31.8,18,31.8l-9,13.1l9,1.3
			c0,0-2.6,21.1-1.3,20.8c1.3-0.3,34.2,10.9,34.2,10.9l-11.5-9.6l27.1,7.3l21.4-12.4l5.1,1.3l-30.7,15.4l13.3,4.5
			c0,0-16.1,12.3-15.2,13.3c1,0.9,37,21.4,37,21.4l-15,17.6l0.6,17.6l15.1,15.5l-16.6-9.6l-7.4-22.2l3.2-16l-11.5-3.5
			c0,0-19.8-19.7-19.8-20.7C1012.4,309.2,983.9,293.9,983.9,293.9z"/>
		<polygon class="st8" points="1012.4,247.3 1026.7,255.3 1026.7,248.6 		"/>
		<polygon class="st7" points="1045.4,262 1066.6,275.1 1071.9,268.5 1059.9,268 		"/>
		<path class="st7" d="M1064.5,279.2c0,0,2.8,3.7,3.1,5.8c0.3,2.1-9.9,8.8-8.9,10.1s10.2-2.7,10.2-2.7s10.2,17.4,10.2,16.4
			c0-1,0-16.4,0-16.4l-7.2-7.4v-5.5L1064.5,279.2z"/>
		<polygon class="st8" points="975.3,257.5 979.5,266.4 984.3,258.8 		"/>
		<path class="st9" d="M979.8,279.5l51.5,21.3l-1-3.5l11.6-0.3c0,0-13.3,10.9-13.3,10.9s-15-3.1-15-3.1l-14.4-14.3l-17.3-3
			L979.8,279.5z"/>
		<path class="st9" d="M1025,294.1c-0.5-0.7,7.8-5.9,7.8-5.9l-27.1-7.3l11.5,9.6L1025,294.1z"/>
		<polygon class="st3" points="963.3,269 963.8,273.1 971.5,338.7 1007.9,363.5 984.6,324.9 		"/>
		<path class="st4" d="M972.1,310.7c0,0,20.4,42.4,20.2,42.3s-16-10.9-16-10.9L972.1,310.7z"/>
		<polygon points="970.9,333.2 967.8,334.1 966.3,362.1 999.6,388.4 1038.7,402.4 1052.4,401.2 1041.9,395.1 1007.9,363.5 
			971.5,338.7 		"/>
		<path class="st3" d="M979.8,372.8l33.3,74.9l17.3,29.5l34.1,28.7l29,6.3l17.9-7.4l28.3-9.9l17.3-22.4l2.7-17.4l39.8-1.1l-2.9-26.4
			l-8.4-31.7c0,0-29.3-9.2-28.5-7.4c0.7,1.8-27.3,29-27.3,29l-53.3,0.4l-50.9-29.4L979.8,372.8z"/>
		<path class="st11" d="M970.9,342.2l1.2,20.5c0,0,11.3,10.5,12.1,9.9s-2-15.2-2-15.2l17.7,6.1L970.9,342.2z"/>
		<path d="M1166.4,367.5v9.5l21.8,18.9l8.4,31.7c0,0-31.7-31.6-33-29.9c-1.3,1.7-18.3,64.6-18.3,64.6l11.7,10.1c0,0,0,13.6,0,10.6
			c0-3.1-26.2,0.5-26.2,0.5s-10.8-13.2-11.2-14.5s17.2-45.7,17.2-45.7l-31.2,54.1l9.7,11.9l-11.3,2.6l-7.1-15.8l28.5-46.3l-8.4,1.9
			l-28.6,25.5l15.5-29l-35.1-8.4l-21.4-17.2l5-1.3l19.5,11.2l69.3-7l9.3-25.5L1166.4,367.5z"/>
		<polygon class="st8" points="921.3,388.4 963.3,372.7 975.3,377.7 972.1,393.8 924.8,405.9 		"/>
		<path class="st8" d="M919.4,408.3c0.3-1.2,61-5.2,60.3-5.8c-0.6-0.6,0-18.7,0-18.7l-6.7-16.3l-51.7,21L919.4,408.3z"/>
		<path class="st4" d="M916.8,420.5c0-1.3,45.1,13.8,46.5,12.5c1.4-1.3,10.6-12.5,10.6-12.5l5.9,35.2l-16.5,7.5l-50.4-20.7v34.1
			l50.4,26.6l-43.9,101.3v89.2h13.2l114.8-81.5l9.5,13.9l11.9-11.6l53.1,96.4l19.7,11.6h52.6l-40.1-57.6l-85.3-89.8l24.6-63l-29-6.3
			l-34.1-28.7l-17.3-29.5l-33.3-74.9l-13.5-10.7l-48.8,24.7L916.8,420.5z"/>
		<path class="st5" d="M1000,437.6l13.4,39.5l-9.3,5.4l34.2,13.3l11,60.8l-20.8,61.2c0,0-59.6,37.1-60.5,35.5
			c-0.8-1.7-42.1-44.6-42.1-44.6l10.8-30.9c0,0,43.5-45,43-47.5c-0.5-2.5-16.4-32.1-16.4-32.1s14.9-13.3,16.5-14.6
			s-31.5-14.6-31.5-14.6l7.6-8.8l7.4,3l16.5-7.5L1000,437.6z"/>
		<path d="M999.6,388.4c0,0,40.2,90.9,39.3,89.2c-0.8-1.7,1.3-18.4,0-20S999.6,388.4,999.6,388.4z"/>
		<path d="M1035.2,417.6c0,0,25,66.3,25.4,64.6c0.4-1.7,3.9-4.6,3.9-4.6s0.5,16.1,0,14.1c-0.5-2,17.4-15.8,17.4-15.8l6.5-19
			c0,0-19.4,22.8-19.4,20.7s-10.4-30.9-10.4-30.9s3.2,29.2,3.3,27.5C1061.8,472.7,1035.2,417.6,1035.2,417.6z"/>
		<path d="M1053.5,519.8l5,115.9l-26.3,54.2l-20,20l-86.3-7.1l82,13.3l50.6-23.4c0,0,7.5-86.3,7.5-87.6c0-1.3-2.1-78.4-2.1-78.4
			L1053.5,519.8z"/>
		<path d="M1135.4,718.8c-2.6-1.5-56-6.7-56-8s-18.8-14.2-18.8-14.2l15.3,22.1H1135.4z"/>
		<path class="st5" d="M1093.5,512.1l-24.6,63l85.3,89.8c0,0,16.2-48.8,15.3-50.2s-29.8-119.9-29.8-119.9L1093.5,512.1z"/>
		<path class="st6" d="M1105.5,512.1l-26.2,50.3l33.5,44.4c0,0,24.8,19.6,24.8,18.2s23.3-8.9,23.3-8.9l-25.7-70.7v-44.7l-15.2,11.3
			H1105.5z"/>
		<polygon class="st9" points="1188.2,395.9 1194.2,388.4 1202.7,397.7 1211.4,437.6 1211.4,454.8 1199.4,453.9 1196.6,427.5 		"/>
		<polygon class="st6" points="1251.2,425.8 1202.7,397.7 1211.4,437.6 1211.4,454.8 1251.2,500.8 1266.5,491.9 		"/>
		<polygon class="st11" points="1341,133.1 1202.7,397.7 1243.9,421.6 1374,153 1361.3,137.2 		"/>
		<path class="st12" d="M1225.3,397.7c-0.6-1.7,119.3-247.5,119.3-247.5l16.6-13l-15.4-3.1l-134.5,260.8l4.5,7.5L1225.3,397.7z"/>
		<path class="st12" d="M1238.1,386.8c1.1-2.5,7.2,1,7.2,1l111.5-226l-5-5.6l-50.3,94.8L1238.1,386.8z"/>
		<path d="M1220.9,408.3l10-5.8l11.4,5.8c0,0-4.9,11.2-4.3,9.9S1220.9,408.3,1220.9,408.3z"/>
		<polygon points="1251.8,382.2 1242.3,402.4 1253.4,392.3 		"/>
		<polygon points="1259.2,368.6 1260.4,378 1272.7,352.7 1270.9,344.6 		"/>
		<polygon points="1276.6,333.7 1278.4,341.4 1288.3,318.6 1286.3,312.9 		"/>
		<polygon points="1293.2,300.3 1295,307.2 1308.9,279.5 1305.6,272.1 		"/>
		<path d="M1310.7,262.9c0,1.2,2.7,6.1,2.7,6.1l17.2-34.4l-4.8-3.9L1310.7,262.9z"/>
		<polygon points="1334.2,217.1 1336.9,220.7 1358.6,164.7 		"/>
		<path d="M1124.8,593.7c0,0,16.8,26.7,17.7,24.3c0.8-2.4,18.6-1.9,18.6-1.9l-10.6,51.1l19,40.4l14.5,11.1l-14.5,33.4v14.7
			l33.2,20.6l31.9,17.7l31.9-21l26.3-30.7l27.7-56.8l-14.3-15.9c0,0-16.4-15.3-17.7-15.8c-1.3-0.5-7.1,2-7.1,2s-5.9-11.9-7.1-13.5
			c-1.3-1.6-1.3-1.6-1.3-1.6l0,0l-13.9-3.4l-5-34l12.3-48.7l-9.4-11.3c0,0,15.5-46.6,15.5-47.9s-15.5-19.3-15.5-19.3l-25.6-23.1
			c0,0-15.5-15.8-15.5-14.6c0,1.2-56.3,5.8-56.3,5.8l-2.7,17.4l-17.3,22.4l1.6,20.5l-18,32.5v9.8l12.8,10.9L1124.8,593.7z"/>
		<path class="st7" d="M1126.5,554.3l8.5,8.7l4.9-18.2l10.1-7.5l27.3,8.9l25.4,1.1l12,10.9l-3.3,30.8l3.3,2.7l-6,18.5l7.6,7.8
			l-4.9,17.5l4.9,9.3l-4.9,7.9v23.7l4.9-3.3c0,0,0-16.9,0-17.7s5.9-11.5,5.7-12.3c-0.2-0.8-4.6-7.9-4.3-8.7c0.3-0.8,6-17.2,5.7-18
			c-0.3-0.8-6.5-18-6.5-18l5.1,0.5l-1.6-39l9.5-13.4l-5.2-13.6l-18.5,5.2l-6.4-8.2l-37.2,7.6l-16.4-4.9l-9.3,9.6l-4.1,5.1l-0.3,6.5
			L1126.5,554.3z"/>
		<path class="st7" d="M1145.4,508.2c0-1.1,18-13.4,18-13.4l22.1,9.8l6.6-3.8l25.8,21.8h6c0,0,9.7,23.7,10.7,22.9
			c1-0.8,13-25.3,12.2-25.8s-13.1-7.5-13.3-7.7c-0.2-0.1-11.6,5.1-11.6,5.1l-5.8-3.3l1.5-11.4l-23.4-18.3l-51.3,14.5L1145.4,508.2z"
			/>
		<polygon class="st9" points="1196.6,473 1194.2,484.2 1145.4,502.2 1145.4,494.8 		"/>
		<polygon class="st6" points="1202.7,474.4 1145.4,494.8 1147.8,491.8 1194.9,470.3 		"/>
		<path class="st7" d="M1161,470.3c-0.9-0.5-1.8,12.3-1.8,12.3l27.8-12.3l7.1-4.1l13.9,8.2l11.5,13.3l16.1,7.2l18.3,17.3l-7.1,30.2
			l15.8-32.8l-12.8-16.4l-12.5-3.3l-15.3-12.3l-14-8.1l-6.1-3.4l-8.7-3.2l-12.8,7.4H1161z"/>
		<path class="st9" d="M1163.9,505.2l-17.2,6.9c0,0-21.3,39.1-20.2,38.3c1.1-0.8,0,3.8,0,3.8l6-0.3l0.3-6.5l13.4-14.7l16.4,4.9
			l37.2-7.6l-13.4-8.8c0,0-10.1,2.6-10.1,1.3c0-1.3-6.8-9-6.8-9L1163.9,505.2z"/>
		<path class="st6" d="M1162.2,518.7c0.4-1.3,7.3-5.1,7.3-5.1v-12.7h-6.3l-5.9,8.9L1162.2,518.7z"/>
		<path class="st9" d="M1232.3,514.3l-3.7,7.3c0,0,5.2,12.6,6,11.8c0.8-0.9,6-10.3,6.2-11.1C1241,521.4,1232.3,514.3,1232.3,514.3z"
			/>
		<path class="st7" d="M1162,672.7l14.8,10.7h13.1c0,0,17.1-24.2,16.5-24.2s-2.4-35.3-2.8-36.2c-0.4-0.9-18.6-12.2-19.4-13.3
			c-0.8-1.1,11.7-16.9,12.4-17.6s-1.7-30.8-1.7-30.8s8.2,4.1,7.8,3.2c-0.4-0.9,1.1-9.2,1.1-9.2l-16.5-2.8h-21.4l-21.4-6.9
			l-13.7,50.2l34.3,12.4l-6.9,56.7L1162,672.7z"/>
		<path d="M1161,576.5c0,0-2.3,17.6-1.8,16.9c0.6-0.6,9.1,11.1,9.2,9.8c0.1-1.3,3.5-9,3.5-9L1161,576.5z"/>
		<path d="M1174,617.4c0-0.2,20.6,38.8,20.2,39.4s-2.5,19.1-2.5,18.2c0-0.9,11.6-18,10.9-18.8c-0.6-0.9-10.7-31.1-10.7-31.1
			L1174,617.4z"/>
		<path class="st9" d="M1133.9,584c0,0,8.4,2.7,9,2.1c0.6-0.6,4.9-17.1,4.9-17.1l13.2,10.9c0,0,20.9-4.4,21.1-5.5
			c0.2-1.1,1.1-5.4,1.1-5.4l11.7-7.7l7.8,3.2l1.1-9.2l-16.5-2.8h-21.4c0,0-21.8-4.6-21.4-6.9C1144.8,543.3,1133.9,584,1133.9,584z"
			/>
		<path class="st6" d="M1147,552.1v7.3c0,0,6.7,3.8,6.2,3.6c-0.5-0.3-0.3-10.4,0-10.9C1153.5,551.6,1147,552.1,1147,552.1z"/>
		<polygon class="st9" points="1196.6,592.1 1172,594.3 1165,608.2 1184.1,609.7 		"/>
		<polygon class="st9" points="1192,625.1 1204.4,633.9 1203.5,623 1184.1,609.7 		"/>
		<path class="st9" d="M1178.1,625.1c-0.6-1.2-14.6-4.7-14.6-4.7l-5.4,44.5l3.9,7.8c0,0,5.5,4,5.2,3.8c-0.2-0.2,13.6-14.9,13.6-14.9
			l12.6,0.7l0.8-5.4L1178.1,625.1z"/>
		<path class="st7" d="M1241.9,578c0,0-1.3,55.9-1.9,54.8s-5.8-41.1-5.2-41.8C1235.2,590.4,1241.9,578,1241.9,578z"/>
		<polygon class="st6" points="1004.8,509.9 1030.1,556.9 979.5,609.7 916.2,575.2 929.3,528.6 		"/>
		<path d="M1251.2,425.8l49,29l35,13l19.6,5.3l26.7,21.8l15.4,38.7l19.6,91.6l-8.7,50l13.9,96.5c0,0,0.4,8.2,0,7.8
			c-0.4-0.4,7.5,5.7,7.5,5.7l-4.5,12.3l-0.4,14.7l25.6,33.9l-2.6,75.3l-1.1,54.9l-24.1,18.8c0,0-32.7,10.2-33.9,10.5
			s-40.3-36.1-40.3-36.1l-53.1-30.9l-24.1-33.9l-11.4-38.4c0,0-6.3-33.1-5.9-34.2c0.4-1.1-19.3,44.4-19.3,44.4l-3.7,38h29l5.4,7.1
			l9.8-3.4l13.5,16.6c0,0,6.8,36.9,4.9,36.5c-1.9-0.4,7.6,4.4,7.6,4.4s2.9,29.5,3.3,29.9c0.4,0.4-11.4,6-11.4,6l8.2,27l-9.2,7.5
			l15.5,105.2l-6.3,10.9c0,0-27.6,12.1-28.2,10.3c-0.6-1.7,25.3,77.6,25.3,75.9s-52.9,15.5-52.9,15.5l-18.4-46.6l-24.1-33.9
			l-53.5-58.1l-29.9-120.7l11.5-115.5l40.2-18.4l9.9-103.3c0,0,86.1-120.7,87.4-123s0-16.7,0-19.3s-7.5-4.7-7.5-4.7
			s9.7-5.6,10.3-5.9c0.6-0.3-4.3-84.7-4.3-84.7L1251.2,425.8z"/>
		<path class="st7" d="M1186.6,690l-1.3,8.1c0,0,14.4,16.9,14.8,16.3c0.4-0.6,28.5-12.2,28.5-12.2s-28.9,24-28.1,23.3
			c0.9-0.6,30.8-15,31.3-15.9s11.1-14.6,11.1-15.2s-31.1,7.9-30,7.5c1.1-0.4-12.9,1.7-12.9,1.7l-11.7-7.1L1186.6,690z"/>
		<path class="st9" d="M1211.4,676.5l36.9-2.7l-48.2,30c0,0,11-0.7,12.9-1.7s46.5-32.8,46.5-32.8l-43.2,4L1211.4,676.5z"/>
		<path class="st9" d="M1194.2,722.5l-3.6-2.3l-14.5,27l-2.2,15h8.9l46.9-25.7c0,0,22-26.1,21.8-27.2c-0.2-1.1,16.7-28.3,16.5-29.1
			c-0.2-0.9-4.9-5.1-4.9-5.1s-18.6,31.7-18.6,31s-18.8,22.3-18.8,22.3s-19.7,18-20.3,17.8c-0.6-0.2-22.5,11.6-22.5,11.6
			s-1.6-2.1-2.2-2.8c-0.6-0.6,0.9-9,0.9-9L1194.2,722.5z"/>
		<path class="st7" d="M1252.9,620.4c0,0-2.4,33.1-2.4,32.2c0-0.9,6.1,6.7,6.1,6.7s0-9.3,0-10.9
			C1256.5,646.8,1252.9,620.4,1252.9,620.4z"/>
		<path class="st6" d="M1268.2,680.2l4.4-17.5c0,0-1.9-9.2-2.2-9.2c-0.3,0-9.7-1.7-9.7-1.7l2.2,5.7h4.5l0.1,6.4l-4.3,11.2
			L1268.2,680.2z"/>
		<path class="st13" d="M1287.9,684l-16.9-28.6l1.6,7.2l-4.4,17.5l-16.5,29.1l-21.8,27.2l-46.9,25.7c0,0,41.6-13.4,41.6-14.2
			c0-0.8,29.2-17.7,29.8-18s18.3-29.2,18.3-29.2l-13.9,33.1l17.7-25.1c0,0-13.8,32.4-13.3,32c0.5-0.5,17.6-26.2,17.6-26.2
			s-14.8,31.6-14,31.3s18.2-24.7,18.2-24.7s-14,31.8-13.8,31.3c0.2-0.5,19.1-27.9,19.1-27.9l-14.3,29.8c0,0,19.7-15.2,19.9-15.9
			c0.2-0.6,15.6-39.2,15.6-39.6c0-0.5,0-10.6,0-10.6s-12.2-4.1-12-4.9s-9.1-12.4-9.1-12.4l-4.3,1.6L1287.9,684z"/>
		<polygon class="st7" points="1234,797.3 1245.4,791.2 1247.2,786.1 		"/>
		<polygon class="st7" points="1225.4,793.3 1227.7,795 1242.9,783.1 1240.6,781.7 		"/>
		<polygon class="st7" points="1218.2,789.7 1221.9,791.7 1236.1,779.6 1234,778.4 		"/>
		<polygon class="st7" points="1211.1,785.1 1214.1,787.7 1230.4,775.2 1227.9,774.2 		"/>
		<path class="st7" d="M1205.2,780.9l3,2.1c0,0,15.5-11.4,16-11.6c0.5-0.2-2.3-0.9-2.3-0.9L1205.2,780.9z"/>
		<polygon class="st7" points="1199.5,776.8 1202.1,779.3 1216.9,768.2 1214.1,767.3 		"/>
		<path class="st7" d="M1193.6,772.5c0,0,3.8,2.2,3.4,2s6.6-5.8,6.6-5.8h-3.5L1193.6,772.5z"/>
		<polygon class="st7" points="1187.4,767.3 1190.5,770.5 1195,767.3 		"/>
		<path class="st13" d="M1292.4,494.8c1.5-0.3,12.6,19.5,12.6,19.5s-6.4-1.2-7.5-2.2c-1.1-0.9-9.1-11.3-9.1-11.3l-15.7,5.5l-4-5.5
			L1292.4,494.8z"/>
		<path class="st13" d="M1351.3,536.8c0,1.5,4,24.4,4,24.4s-4.3,4.8-4,4.7s-4-5-3.7-5.9c0.3-0.9,0-15.7,0-15.7L1351.3,536.8z"/>
		<path class="st13" d="M1281.6,545.5c0,0,15.2,36,15.9,33.9c0.8-2.2-5.7-27.4-5.7-28C1291.7,550.7,1281.6,545.5,1281.6,545.5z"/>
		<path class="st13" d="M1276.8,657.6c1-2.1,12.7-17.8,12.7-17.8l-8,27L1276.8,657.6z"/>
		<path class="st13" d="M1297.5,657.4c-0.5-1.2,20.4-13.9,20.4-13.9l11.1-3.7c0,0-6.7-3.9-8.5-4.9c-1.8-1-3.6-2.1-3.6-2.1
			s8.1-27,8.7-29.6c0.6-2.6,15.7-27.9,15.7-27.9l-8,37.3c0,0,0.6,27.5,0.9,27.2c0.3-0.3,15.4,2.8,15.4,2.8l26.2-7.4l-18.4,10.6
			l15,11.6l-23.4-8.3l-15.4-1.2c0,0,3.6,30,3,27.2c-0.6-2.8-11.1-23.3-11.1-23.3L1297.5,657.4z"/>
		<polygon class="st13" points="1344.5,676.5 1338,683 1355.3,703.7 		"/>
		<path class="st13" d="M1376,779.3c0.9-3.8,10.8-51.6,10.8-51.6s16.7,62.2,16.7,60s-27.1,2.1-27.5,0.7
			C1375.6,787,1376,779.3,1376,779.3z"/>
		<path class="st6" d="M1421.7,790l2.8-4.5l-13.4-4.2H1371c0,0,8,4.6,7.5,4.3c-0.5-0.3,29.3-1.5,29.3-1.5L1421.7,790z"/>
		<path class="st6" d="M1424.3,812c0,0-1.7,18.1-2,17.1s-17.6-25.1-17.8-26.7s-12.7-7.7-12.7-7.7l32.6,43.6l2-23.4L1424.3,812z"/>
		<path class="st3" d="M1239.9,801.6l13.6,30.4l18.8,51.7c0,0,16-2.3,16-3.1s-23.2-28.8-23.2-29.6s-5.9-19.9-5.9-19.9l39.2,48.4
			c0,0,23-7.4,22.1-8.2c-0.9-0.8-23.9-54.9-23.9-54.9l14.6-77.5l-7.3-8.4l-11.2,22.9l-26.3,30.7L1239.9,801.6z"/>
		<path class="st4" d="M1345.4,858.4c-0.5-1.3-41.9-77.5-41.9-77.5l-14.4,40l22.3,54.3c0,0,18-6.4,18.5-7.2
			C1330.4,867.3,1345.4,858.4,1345.4,858.4z"/>
		<path class="st5" d="M1307.7,725.6c0.5,0.4,48.9,55.4,48.9,55.4l33,19.1l-2.9,15.3l-15.7,19.9l-25.6,23.2l-41.9-77.5L1307.7,725.6
			z"/>
		<polygon class="st4" points="1338.3,778.4 1349.7,797.3 1371,802.4 1386.8,815.4 1389.6,800.1 		"/>
		<path class="st3" d="M1371,835.2c1.6-0.5,15.7-19.9,15.7-19.9l-28.6-23.6l-8.4,5.6L1371,835.2z"/>
		<path class="st13" d="M1272.3,886.4h16.8l4.6,25.5l51.7,38c0,0,14.8,25,15,23.9s-52.2-37.4-52.2-37.4l-23.7-23.9L1272.3,886.4z"/>
		<path class="st13" d="M1298.5,879.5l32.9,42.5c0,0-24.7-40.2-23.9-41c0.8-0.8,28.5-11.2,28.5-11.2s43.6,61.2,43.8,60.3
			c0.3-0.9-34.4-66.1-34.4-66.1l37.4-39.2c0,0,8,7.4,6.8,6.6c-1.2-0.8-4,13.4-4,13.4s40.2,47.7,40.8,46.5c0.6-1.2-4.2-41.3-4.4-42
			c-0.3-0.8-35.3-33.9-35.3-33.9l-15.7,19.9l-25.6,23.2l-15.5,9.7l-9.2,3.3l-9.2,3.9L1298.5,879.5z"/>
		<path class="st7" d="M1214.8,928.5c0-1.2,0,7.9,0,7s-48.7,5.5-48.7,5.5l44.3-14.6L1214.8,928.5z"/>
		<path class="st14" d="M1211.6,944.5v5.8c0,0-35.6,16.6-35.6,15.7c0-0.9,0,15.7,0,15.7l-6.7-1.7v-14.6c0,0,4.7-9.9,5-10.8
			C1174.5,953.8,1211.6,944.5,1211.6,944.5z"/>
		<polygon class="st7" points="1183.6,978.9 1176,981.8 1176,966.1 1185.1,962.4 		"/>
		<polygon class="st7" points="1230.8,930.1 1230.8,960.2 1236.7,960.2 1236.7,938.7 1250.7,935.7 1273.7,935.7 1278.9,941 
			1287.1,1034 1295.3,1034 1289.1,1010.1 1283,936.9 1276.9,928.5 		"/>
		<path class="st11" d="M1231.8,921.3c0.5-0.2,26,1.4,25.7,1.1c-0.2-0.4-12.9,3.4-12.9,3.4h-14.4L1231.8,921.3z"/>
		<path class="st14" d="M1245.1,918c0.6-0.4,8.9,0,8.9,0l3.5,4.3l-25.7-1.1L1245.1,918z"/>
		<path class="st14" d="M1235,930l5.6,3.7c0,0,35.5-0.1,35.6-1.2c0.1-1.1,0.7-7.4,0-7.7c-0.7-0.4-22.5,1-22.5,1L1235,930z"/>
		<path class="st14" d="M1234,973.2c0.6-0.8,10-6,10-6l13.7,79.5c0,0-10.6,6.5-10.8,4.9c0-0.4-1.1-6.9-2.6-15.9
			C1240.5,1012.7,1234,973.2,1234,973.2z"/>
		<path class="st9" d="M1239.5,1048.4c0-0.5,4.4-14.4,4.4-14.4l2.9,17.5L1239.5,1048.4z"/>
		<path class="st15" d="M1234,973.2l-10-3.5c0,0,7.9-5.7,8.8-5.1c0.9,0.6,11.2,2.5,11.2,2.5L1234,973.2z"/>
		<path class="st9" d="M1217.3,975.8l-4.8,5.4l8.4,0.6c0,0,7.6,53.1,7.4,52.2c-0.2-0.8-4,0.8-4.4,0s-8.1-50.1-8.1-50.1l-103.5,6.9
			l-11.7,32.4l29.1,24.7c0,0,101-8.5,100.4-9.6c-0.6-1.1-0.6,7.3-0.6,7.3h6.5c0,0,2.6-4.8,2.4-6c-0.2-1.3-9.5-62.9-9.5-63.8
			C1229,974.9,1217.3,975.8,1217.3,975.8z"/>
		<path class="st14" d="M1049.8,1000.4c0-0.9,62.6-9.5,62.6-9.5l-11.7,32.4l29.1,24.7c0,0-72.3,11.5-72.5,10.3
			C1057.1,1057,1049.8,1000.4,1049.8,1000.4z"/>
		<path class="st16" d="M1049.8,1000.4l-13.6-7.3c0,0-73.6,13.8-72.2,13.8s-5.1,11-5.1,11l10.8,58.2c0,0,12.3,12.2,12.7,11.4
			s66.3-14,66.3-14.9c0-0.9,8.6-14.3,8.6-14.3L1049.8,1000.4z"/>
		<path class="st17" d="M1035.1,1009.2c0.6-1.3,14.7-8.9,14.7-8.9l7.6,57.9c0,0-4.3,8.9-4.5,8.2c-0.2-0.6-12.1-9.1-12.3-9.9
			C1040.3,1055.7,1035.1,1009.2,1035.1,1009.2z"/>
		<path class="st17" d="M951.5,1017.9c0,0,9.5,58.3,10.2,57.9c0.6-0.4,14.9,0.9,14.7,0c-0.2-0.9-10.8-57.9-10.8-57.9H951.5z"/>
		<path class="st17" d="M976.3,1075.7c0,0,5.6,4.3,5.6,3.6c0-0.7,64.7-13.3,64.3-14c-0.5-0.7,2.3-2.4,2.3-2.4l4.3,3.5l-4.1,6
			l-66.3,14.9l-12.7-11.4L976.3,1075.7z"/>
		<path class="st14" d="M951.5,1017.9l-91.3,25.2c0,0,42.4,15.6,42.7,15.3c0.3-0.3-37.4,39.3-37.4,39.3l96.2-21.9L951.5,1017.9z"/>
		<path class="st11" d="M893.7,367.8c0-0.7-63.3-275.1-63.3-275.1l-25.1-3.4c0,0-19.1,13.2-18.7,14.4s65.8,285.6,66.3,284.7
			c0.4-1,25.9,10.9,25.9,10.9L893.7,367.8z"/>
		<path class="st9" d="M800.6,1059.4c0,0,6.9,56.5,6.9,55.4c0-1.1,57.9-17.2,57.9-17.2l37.4-39.3l-42.7-15.3L800.6,1059.4z"/>
		<path class="st6" d="M812.3,491.9c0-1,44.2-86.1,44.2-86.1l23.7-31.2l43.4-12.6l-42.6,58.4c0,0-36.6,77.6-36.6,76.4
			c0-1.2-12.5-16.1-12.5-16.1L812.3,491.9z"/>
		<path class="st15" d="M793.4,542.3c0-1.1,18.9-50.4,18.9-50.4l19.7-11.1l12.5,16.1l-16.9,41.4L793.4,542.3z"/>
		<path class="st7" d="M762.2,1098.2c-0.1-1-2.5-47.7-2.5-47.7l15.4,11.3l2.1,39l4.7,20.3c0,0-6.5,10.2-6.6,9.7
			c-0.1-0.5-6.2-23.5-6.1-23.9C769.4,1106.6,762.2,1098.2,762.2,1098.2z"/>
		<path class="st9" d="M800.7,556.9c0-1.2-7.2-14.6-7.2-14.6l34.2-3.9l2.4,16.5L800.7,556.9z"/>
		<polygon class="st9" points="923.7,362.1 939.8,367.5 916.9,378.3 886.3,429.5 862.6,472.8 844.5,514.3 842.1,519.8 842.1,529.1 
			835.7,529.1 830,554.9 827.6,538.4 844.5,497 881.1,420.5 		"/>
		<path class="st7" d="M908.7,437.6c0.7-0.7,2.9-17.9,2.5-19.2c-0.3-1.3-12.2-10.2-12.2-10.2l-6.9,11.6L908.7,437.6z"/>
		<path class="st12" d="M809.6,98.3l-8.5,7.6c0,0,60.7,282.7,61,282.6c0.4-0.1-9.2,0-9.2,0L793,105.8l8.9-9.5L809.6,98.3z"/>
		<path d="M825.3,100l-10.6,11l8.5,6.6l8.5,52.6c0,0,7.2,3.6,6.8,0c-0.4-3.6-10.8-57.5-10.8-57.5l-5.3-4.7l5.3-3.8L825.3,100z"/>
		<path class="st12" d="M871.1,372.8c0.8-1.4,4.2-9.3,4.2-9.3L825,114.2l-10.3-3.2L871.1,372.8z"/>
		<path class="st18" d="M755.9,1033.4c0,0,1.8,21.2,2.4,20.9s8.3,10.2,8.3,10.2l9.5-2.8c0,0,6.4-2.6,6.4-2.9s-7.9-26.9-7.9-26.9
			s-10.3,4.1-10.4,3.6S755.9,1033.4,755.9,1033.4z"/>
		<path d="M856.5,249l5.6,3l5.9,34.4c0,0-6-2.4-5.8-3C862.5,282.8,856.5,249,856.5,249z"/>
		<polygon points="865.4,291.7 870.6,294.1 877.2,327.5 871.3,322.9 		"/>
		<polygon points="874,331.3 879,335 883.7,358.9 877.2,355.9 		"/>
		<path d="M854.9,334.2c0.8,0,5,2.8,5,2.8l6.8,30.5l-5.9-4.8L854.9,334.2z"/>
		<path d="M847.2,302.6c0,0.6,5,25,5,25l6.4,3.8l-5.7-27L847.2,302.6z"/>
		<path d="M836,250.4l8.3,36c0,0,6.4,3.6,6,2.8c-0.4-0.8-6.8-34.4-7.1-35C842.8,253.6,836,250.4,836,250.4z"/>
		<path d="M845,196.7c1.4,1,5.3,27.8,5.3,27.8l7.8,5.2l-7.8-33H845z"/>
		<path class="st11" d="M730.8,618v24.6c0,0,12.5,38.6,12.9,37.1c0.4-1.5-4.5-35.9-4.5-35.9s7.6,24.6,7.9,23.5
			c0.4-1.1-4.9-34.8-4.9-34.8s9.5,25.7,9.5,24.2s-4.5-34.1-4.5-34.1s9.8,27.3,9.8,26.3c0-1-1.9-26-1.9-26s8.7,26.2,8.7,26
			c0-0.2-2.6-22.6-2.6-22.6s9.5,23.9,9.5,22.6c0-1.4,0-22.6,0-22.6s6.4,29.9,6.8,28.8c0.4-1.1,0-21.9,0-21.9s10.6,33.3,9.3,31.8
			s-4-28.8-4-28.8s11.3,43.1,10.8,41.6s-4-28.9-4-28.9l17.8,65.6l43.2,24.9l6.8-31.7l-1.5-19.7l-5.6,3.3l-1.2,27.5
			c0,0-5.7,11.2-6.1,9.7c-0.4-1.5-31.1-20.8-31.1-20.8l-21.9-109.8L730.8,618z"/>
		<path class="st9" d="M808.4,597.9c0-2.6,0-5.3,0-5.3l-12.5-3.4L730.8,618v17.8l4.9,4.5l50.3-25.5l25.7,92.9l-21.9-109.8l7.9-4.6
			L808.4,597.9z"/>
		<path class="st6" d="M735,622.5c0,0,2.6,11.4,2.3,10.2c-0.4-1.1,48.8-20.8,49.2-21.9c0.4-1.1,0-11.7,0-11.7L735,622.5z"/>
		<path class="st11" d="M797.4,561.6c0.4,1.1-1.5,27.6-1.5,27.6l6.1,1.7v-23.6l23.8-2.6l4.2-9.7l-29.4,2L797.4,561.6z"/>
		<polygon class="st15" points="808.4,592.6 825.8,564.6 802,567.3 802,590.9 		"/>
		<polygon class="st3" points="963.3,433 973.9,420.4 979.8,455.6 963.3,463.1 912.9,442.5 916.8,420.5 		"/>
		<path d="M919.4,693.7c0,0,6.1-5.3,6.5-6.1c0.4-0.7,0.8-72.8,1.8-74.4c1.1-1.6,0.9-12.4,1.2-13.2c0.3-0.7,8.1-2,8.3-2.8
			c0.2-0.7-1.2-13-1.2-13s16.5-3.9,16.7-4.5c0.2-0.5,9.7-18,9.7-18l16.7-14l6.2-22.4l-22-27.4l-5.1-25.1l-9.9-4.1l7.6-8.8l-3.5-18.3
			l-21.6-8.7l-4.9,9.4c0,0-14.2,40.2-13,34.1c1.1-6.1-26.9,1.1-26.9,1.1s-23.3,13.8-23.3,14.1c0,0.3-20.5,37.4-20.5,37.4l-35.4,86.8
			l19.1,60.4L919.4,693.7z"/>
		<polygon class="st7" points="917.1,476.2 921.3,477.7 934.6,440.4 		"/>
		<path class="st9" d="M881.4,484.5l6.3-3.6l10.2,4.5l47.5-7.4l3.1,3.9l5.6,7v13.3c0,0-12.1-10.2-12.4-10.3
			c-0.3-0.1-49.7-1.8-49.7-1.8L881.4,484.5z"/>
		<polygon class="st8" points="892.1,490.1 925.9,486.7 948.6,481.8 954.2,488.9 954.2,502.2 941.8,491.8 		"/>
		<polygon class="st9" points="864.8,494.2 875.1,489 891.1,495.8 910.6,494.6 939.8,494.9 940.8,509.9 		"/>
		<path class="st19" d="M860.5,504.8c0.2-0.5,4.3-10.6,4.3-10.6l33.2,6.8l42.8,8.8l7.5,50.4c0,0-10.9-45.9-10.9-46.4
			s1.6,48.2,1.6,48.2l6.7,2.5c0,0-7.9,4.5-9.2,3.7c-1.2-0.8-1.9-47.4-2-47.8c-0.2-0.5-23-7.7-23-7.7l-32.3-1.2L860.5,504.8z"/>
		<path class="st9" d="M854.3,507.1l-3.9,7l14.4,1.4L876,522l47.2,17.9c0,0,10.8-10.4,10.5-11c-0.3-0.6-2.4-4.2-2.4-4.2l-23.2-8
			h-30.2c0,0-15.3-8.8-15.6-9C861.8,507.4,854.3,507.1,854.3,507.1z"/>
		<path class="st19" d="M850.4,514.1c0,0-7.9,14.3-7.5,13.5s10.1-3.3,10.1-3.3l10.2,0.6l9.3,8.3c0,0,51.7,21.8,51.5,21
			c-0.2-0.8-0.9-14.4-0.9-14.4l-46-15l-12.3-9.3L850.4,514.1z"/>
		<polygon class="st9" points="838.7,537.4 852.2,527.4 866.7,535.7 914.9,556.9 905.6,566.6 887.2,563.4 855.4,543.7 849.5,538.4 
					"/>
		<polygon class="st8" points="855.4,543.7 857.2,566.6 848,569.1 842.9,575.2 832.2,574.1 832.2,564.6 838.7,537.4 849.5,538.4 		
			"/>
		<path class="st7" d="M799.1,624.6l6.9,33.9l13.8,31.8l13.4,17.3c0,0,4.5-1.4,4.6-1.9c0.2-0.5,3.5-18.7,3.5-18.7l-9.1,9.9
			l-11.4-15.2l-12.2-23.8l1-11l12.6,14.7l22.4,23.2l15.8-2l11.8-9.7v-7l-15.2,13h-12.5l-21.9-22.1l-1.1-15.5l12.5,14.6l13.4,0.6
			l22.4-20.6l-7.2-46.9c0,0-9.1,10.5-9.1,9.9c0-0.7-0.5-21.6-0.5-21.6l-5.1-8.3l-5.1,6.1l-10.7-1.1l1,27.5l-16.8,35.8
			c0,0,2.2-39.5,2.6-40.3c0.4-0.8,10.3-20.8,10.3-20.8l-14.4,19.5l-9.5,23.1c0,0,2.9,16,2.6,15.5s-5-13-5-13L799.1,624.6z"/>
		<polygon class="st7" points="832.2,574.1 842.9,575.2 848,569.1 857.2,566.6 855.4,543.7 849.5,538.4 838.7,537.4 832.2,564.6 		
			"/>
		<path class="st9" d="M821.1,633.9c0.2-0.5,1.1-27.2,1.4-28.2c0.3-1,9.6-18.9,9.6-18.9v-12.8l10.7,1.1l5.1-6.1l5.1,8.3l0.5,21.6
			l9.1-9.9l6.8,44.1c0,0-16,3.8-15.9,3.1c0.2-0.6-10.2-14.2-10.2-14.2l-4.7-3.8l-8.7,4l-1.5,10.4L821.1,633.9z"/>
		<path class="st9" d="M808.5,621.6c-0.2-0.6,0.8-5.6,0.8-5.6l6.6-3.8l0.4,25.3l5.7,9.4l0.7,10.3l-2.3,2.4L808.5,621.6z"/>
		<polygon class="st9" points="799.5,626.6 802,625.2 806.7,639.8 808.7,657.9 		"/>
		<path class="st19" d="M904.4,569.1l-5.5,6.1l7.6,3.4l-2.1,25.6c0,0,8.1-15.5,8.4-16.2c0.3-0.7,3.3-12.8,3.3-12.8L904.4,569.1z"/>
		<polygon class="st19" points="892,585.2 890.2,595.4 883.7,593.6 		"/>
		<path class="st19" d="M879,610.4c0.2,0.7,1.2,5.5,1.2,5.5s23.3,4.9,24.2,3.9c0.9-0.9,6.9-0.5,7.2-1.9c0.2-1.4,4.6-16.6,4.6-16.6
			s-10.4,12.9-10.4,12.2c0-0.7-22.4-1.5-22.4-1.5L879,610.4z"/>
		<path class="st19" d="M881.6,631.9c0.7-0.2-4.8,30.5-4.8,30.5l19.2-12.9c0,0,15.1-12.6,15.3-13.6c0.2-0.9,4.8-14.1,4.8-14.1
			l-6.5,5.5l-8.5,0.7v12l-17.5,10.9L881.6,631.9z"/>
		<path class="st9" d="M769.8,733.2c0.9-0.2,24.2,25.4,24.2,25.4s6.1-1.7,5.1-2.9C798,754.5,769.8,733.2,769.8,733.2z"/>
		<path class="st9" d="M801.9,751.9c0-0.7,3.2-2.3,3.2-2.3l-28.4-28.9L801.9,751.9z"/>
		<path class="st9" d="M810.7,748c-0.7-1.4,3.5-3.5,3.5-3.5L794,723.8L810.7,748z"/>
		<polygon class="st9" points="819.9,742.7 828,739.4 814.2,729.8 821.1,739.4 806.7,728.9 		"/>
		<path class="st7" d="M806.7,776.2l13.6,56.2l36.9,64.8v5.3c0,0-13.5-4.9-13.5-6.6S824,846.7,824,846.7l2.1,26.3l21.7,58.3
			l3.9,14.4l2.7,7.8L828,942.3l23.7,16.8l24,8.2L828,955.4l49.8,24.6L828,962l29.2,18v37.8c0,0,34.1,12.6,33.7,11s-2.9-34-2.9-34
			s24,7,22.9,4.5s-3.6-30.8-3.6-30.8l25.4,4.5l-27.5-12.3c0,0-3.3-20.5-4.5-21.7s-28.1-29.1-28.4-30.4s-12.2-55-12.2-55l-36.5-30.4
			L806.7,776.2z"/>
		<path class="st9" d="M833.9,835.9c0.9,0.6,13.7,35.8,13.4,34.5c-0.3-1.2,16.5,17.3,18.4,16.8s-8.5-31.1-8.5-31.1L833.9,835.9z"/>
		<path class="st9" d="M896.5,943.6c0,0,8.1,20.8,6.4,19.9c-1.7-0.9-39.7-10.3-40.3-12.8c-0.6-2.5-30.5-70.6-30.5-72.2s0-10,0-10
			l11.7,27.4l9.8,21.5L896.5,943.6z"/>
		<path class="st6" d="M907.3,968.5l-2.8,4.9L844,953.6c0,0,32.8,5.3,33.8,5.9C878.7,960,907.3,968.5,907.3,968.5z"/>
		<path class="st6" d="M857.2,985.3l31.2,14.4c0,0,0.6,7.5,0.5,6.5c-0.1-1-31.7-14.4-31.7-14.4V985.3z"/>
		<path class="st15" d="M789.1,973.4c0.9,0,8.1,4.7,8.1,4.7l25.5-2.3v-7.9L789.1,973.4z"/>
		<path class="st15" d="M777.3,976.6c0.9-0.3,21.7,10.6,23.3,10.6c1.6,0,6.9,11.5,6.9,11.5l-0.8,19.2c0,0,5.4-12.1,5.4-13.3
			s0-14.3,0-14.3l-8.6-5L782.2,973L777.3,976.6z"/>
		<path class="st7" d="M777.3,990.9c0-1.6-0.2-9.1,0-9.4c0.2-0.4,4.9-2.8,4.9-2.8l-4.9-2l-3.2,1.6c0,0-1.2,18.4-1,17.3
			C773.3,994.4,777.3,990.9,777.3,990.9z"/>
		<path class="st15" d="M741.8,1018.4c0.1-0.5,0-10,0-10l12.6-6.8l29.7-4.9l5.6,15.8l1.7,20.9l-3.7,0.6l-5.5-32l-25.9,3.2l-11.5,5.4
			L741.8,1018.4z"/>
		<path class="st7" d="M788.6,1045.9c0-0.8-0.8-12-0.8-12l3.7-0.6l1.1,11.8L788.6,1045.9z"/>
		<path class="st7" d="M735.7,1059.2c0.2,0.5,1.5,23.9,1.5,23.9l-4.1,2.4c0,0-2.7-5.6-2.9-6.5c-0.2-0.9,0-12.1,0-12.1L735.7,1059.2z
			"/>
		<path class="st7" d="M721.9,1083.8l-1.9,4.9l4.7,4.1h7.2c0,0,4.3,2.3,5.3,1.7c1-0.7,10.5-9,10.5-9v9.1l-4.8,9.4l-8-7.7
			c0,0-12.5,1-12.7,0.5c-0.2-0.5-6.2-6.1-6.2-6.1l0.7-5.2L721.9,1083.8z"/>
		<path class="st15" d="M741.8,1097.1l-4.6-2.7c0,0,6.5-9.9,6.5-10.7c0-0.8-1-60.6-1-60.6l5,25v37.4l-1.7,8.4L741.8,1097.1z"/>
		<path class="st7" d="M751.2,1036.8c0.2,0.5,6.8,58.6,7.1,61.1s0.4,0.5,0.3,2.5c-0.2,2,0.2,2.3-0.2,2s-3.8,10.4-4.3,11.2
			C753.6,1114.5,751.2,1036.8,751.2,1036.8z"/>
		<path class="st15" d="M753.7,1176.7c0-1.2,4.9-11.7,4.9-11.7l-2.7-73l-1.9,21.7L753.7,1176.7z"/>
		<path class="st7" d="M737.2,1107.5c0,0,4.7,92.6,4.5,92.6c-0.2,0,10.4-17.9,10.4-17.9l-4.3-50.3l-3.1-9.7c0,0-1.3,24.6-1.3,23.9
			S737.2,1107.5,737.2,1107.5z"/>
		<polygon class="st7" points="749.7,1195.4 749.7,1200.1 758.3,1195.4 800.7,1192.5 		"/>
		<path class="st7" d="M738.4,1217.9c0.5-0.5,9.5-4,11.4-4.8c1.8-0.8,34.9-6.3,34.9-6.3l-34.1,3L738.4,1217.9z"/>
		<path class="st11" d="M827.6,408.3l-13.7,12.2l-18,6.8c0,0,10.6,2.4,10.8,2.3c0.3,0,23.3-4.3,23.3-4.3l8.7,7.8l-4.6,6.6l-13-2.1
			l-12.6,12.3l-23.9,18.7c0,0-3.3,39.1-3,38.5c0.3-0.6-6.2-15.6-6.2-18.1s4.6-40,4.6-40l1.2-6.8l-8.5,10.3l3.1-9.7l-16,15.8l7.5-17
			l-18.5,21.1l9.5-19.9c0,0-18.5,19.4-18,18.5c0.5-0.9,11.6-20.6,11.6-20.6L735,457.7l6.3-15.7c0,0-15.6,14.4-15.1,13.7
			s8.9-15.9,8.9-15.9l-22.6,24.6l-14.7,29.7l-6.9,25.4v31.5l18,1.4l-18,4.4l26.3,7.7l-32.7,4.5l-21.8,35.5l-14.9,30.1l-2.8,28.6
			l-8.8,6.6l-17.3,6.2l2.1-16.3l20.6-39.5l15.6-26.7l21.8-31v-5.6h-6.2l2.6-25.2l7.1-17.6l31.7-68.3c0,0,24.6-18.5,24.8-19.2
			C739.3,425.9,827.6,408.3,827.6,408.3z"/>
		<path class="st6" d="M841.7,405.9l-27.8,14.6l-14.4-7.3l-17,9.8l17,12.4l-10.9,9.6l-11.8-4.6l-6.9-10.8l-34.9,3.5l-24.1,26.1
			L693,497l-9.6,40.4l4.8,21.4l-10.5-17.6l4.8-27.2c0,0,20.6-52.5,21.2-55.6s10.5-16.7,10.5-16.7l20.7-18l36.3-14l44.4-7.9
			L841.7,405.9z"/>
		<path d="M807.7,433.1h5.2c0,0-28.7,33.6-29.9,33.3c-1.2-0.2,0-5.2,0-5.2L807.7,433.1z"/>
		<path class="st6" d="M821.1,429.5c1,0.6,7.4,3.5,7.4,3.5l-7.4,4.5l-12.6,12.3l-8.5-1.8L821.1,429.5z"/>
		<path class="st6" d="M622.9,666.6c0,0,6.9,2.5,7.3,2.1s4.5-3.3,4.5-4.7s3.5-23.9,4-25.1c0.5-1.2,21.1-42.8,21.5-43.8
			s25.6-29.8,25.6-29.8l-6.9-2.8l-21.8,31l-23.2,48L622.9,666.6z"/>
		<path class="st6" d="M624.8,679.3v9l-20.3,15.9l-10.9,20.6l-6.6,22l16.8-3.1c0,0,22.7-15.9,23.2-16.6c0.5-0.7,1.4,5,1.4,5
			l-60.6,67c0,0-8.8,19.4-9.5,18.7S555,810,555,810s30.5-67.7,30.8-68.6c0.2-0.9,9.5-33.6,9.5-33.6l17.3-20.1L624.8,679.3z"/>
		<path class="st7" d="M626.2,693.3l-1.4-5l-17.7,9.9L595,713.9l-11.1,38.3l-25.6,65.5l26.3,43.3c0,0,29.6,8.5,29.6,7.1
			s94.4-57.5,94.4-57.5l-73.8,35.7c0,0-31.9,5.9-31.9,5c0-0.9-11.1-2-11.1-2v-3.9l55.8-31.9l22.5-23.4l14.2-2.6l-14.9-12.8l2.8,9
			l-11.4-5.4l5,10.8l-12.5-8.8c0,0,6.6,14,5.9,13.3c-0.7-0.7-14.3-8.3-14.3-8.3l5.3,13l-11.1-8.3l3.8,12.5l-9.3-7.3l3.9,14.2
			l-12.5-9.5c0,0,3.1,15.4,3.5,14.7c0.5-0.7-9.5-9.7-9.5-9.7s4,14.9,4,14c0-0.9-10.6-9.2-10.6-9.2l4.3,13l-11.8-11.1l2.8,15.6
			l-6.2-7.8c0,0-0.5,10.6-0.2,9.7c0.2-0.9-4.7,2.4-4.7,2.4l-4.7-4.7l-10.9,4v-5h-3.3l-11.1-13.3l6.2-15.1l62.2-69.8l-1.3-5.7
			l-6.5,5.2l-33.4,15.4l5.7-22l10.4-16.3L626.2,693.3z"/>
		<path class="st3" d="M629.5,677.9l1.6,18.4l2.3,25.6l1.3,5.7l19.6,27.9l14.9,19.2l14.9,12.8c0,0,32.2,14,32.2,13.3
			s27-17.3,27.4-18.2c0.5-0.9,27.4-30.6,27.4-30.6l-22-35.9l-17.5-40l-3-29.3L629.5,677.9z"/>
		<polygon class="st4" points="676.2,690.5 631.2,696.4 629.5,677.9 718.7,651.4 720.9,739.4 684.2,787.5 669.3,774.7 634.7,727.6 
					"/>
		<polygon class="st5" points="634.3,679.3 634.3,685.3 651.1,682.3 713.3,660.2 641.4,677.2 		"/>
		<polygon class="st5" points="716.9,668.7 716.9,704.9 670.2,744.2 652.6,751.9 638.9,733.2 		"/>
		<path class="st4" d="M730.8,750.8l1.7,13.3c0,0-22,12.7-21.1,12.2C712.2,775.7,730.8,750.8,730.8,750.8z"/>
		<path class="st4" d="M698.8,793.7c-0.3-0.1,36.5-21.4,36.5-21.4l-20.6,21.4l-6.2,4.1L698.8,793.7z"/>
		<path class="st5" d="M947.5,826.4c-0.7-1.3-61.6-64.3-61.6-64.3l69.5-21.4c0,0,46.5-2,47.4-3.6c1-1.6,26.4,0,26.4,0l7.8,10.2
			c0,0-7,4-6.8,3.9c0.2-0.1-11.5-7.3-11.5-7.3s-14.5,14.9-13.5,14.9s13.3,35,13.3,35l-40.1,23.7l-14.7,8.9H947.5z"/>
		<path class="st6" d="M963.9,776.2c-0.7-1.8-13.5-22.4-13-24.4c0.5-2.1,43.4-13.3,43.4-13.3l10.5,10.9l-1.3,17.5l15,27.1
			c0,0-7.4,4.9-6.9,4.1c0.5-0.8-15.6-28.3-15.6-28.3L963.9,776.2z"/>
		<path class="st5" d="M1089.8,841.3c-2.7-1.6-32.5-9.6-32.5-9.6l-38.9,0l-7.1,0l-6.6,13.1h10.9l66.9,1.7L1089.8,841.3z"/>
		<polygon class="st5" points="961.4,860.9 978.5,869.5 994.3,882.6 1009.2,911.9 1035.1,908.4 1026.7,876.7 1033,868.6 1037,865.8 
			1035.1,862.4 1022,865.1 1009.5,863.1 1001.4,853.8 		"/>
		<path class="st5" d="M1038.3,860.7c0.7-0.7,16.7,3.2,16.7,3.2s20.7-2.6,20.7-3.3s9.1-3.8,9.1-4.6s-2.2-4.4-2.2-4.4l-21,4.7
			L1038.3,860.7z"/>
		<path class="st5" d="M965.2,958.6c-1-2.2-32.2-59-32.2-59l4.7-6.5c0,0,31.7,2,32,1.2c0.2-0.7,37.2,29.3,37.2,29.3l-5.2,10.1
			l12.6,1.6l22.8,4.5l6,5.2c0,0-33-3.7-33.5-5.4c-0.5-1.7-26.6-0.5-27.1-1.7c-0.5-1.2-9.4-9.8-10.1-10.1s-8.4,8.9-8.4,8.9s0,15,0,14
			c0-1,24,9.8,24,9.8l39.8,8.8l-1.8,4.1l-86.6-12.6L965.2,958.6z"/>
		<path class="st5" d="M1141,884.2c-0.1,0.1-10.4,4.7-10.4,4.7s-1.8,18.5-1.7,17.3s-9.8-3.2-9.8-3.2l-14.9,11.1l-19.4,5.1l-9.4,12.4
			l-12.3,3.8l4.4-10c0,0,20.2-12.8,20.2-13.5c0-0.7,34.2-27.7,34.2-27.7H1141z"/>
		<polygon class="st5" points="1049.8,947.6 1059.2,939.9 1125.6,938.9 1068.8,946.8 		"/>
		<path class="st4" d="M1059.2,957.4l32,19.7l9.5,2.5l20.6,2.3l2.3-22.7c0,0-19.1-0.1-19.4-1.8s-7.9-7.3-7.9-7.3L1059.2,957.4z"/>
		<path class="st5" d="M983.2,998.2c-0.2-0.7-6.8-12.6-6.8-12.6l40.5,0.9c0,0,2.7,15.2,2.4,13.8C1019.1,999,983.2,998.2,983.2,998.2
			z"/>
		<path class="st3" d="M678.7,1341.3l-32.7,109.8c0,0,5.8,0,15.7-0.1c55.7-0.4,241-1.8,241.2-3.8c0.3-2.4,64.9-114.8,63.7-118
			c-1.3-3.1,27.8-37,27.8-37l40.8,7.9l45,62.1c0,0,37,94.4,34.6,94.4s115.1,0,116.1-3.1c1.1-3.1,26.8-151,26.8-151l-12.6-38.7
			l-18.4-46.6l-24.1-33.9l-53.5-58.1l-19.1-77.2l-72.5,10.3l-8.6,14.3l-66.3,14.9l-6-11.7h-14.7l-27.4,9.6l-1.3,8.4l-35.5,64.9
			l-78.3,56.9l-83.6,93.7l-37.5,27.4L678.7,1341.3z"/>
		<path class="st4" d="M917.7,1287.1c-0.4-2.5-37.1,70.2-37.1,70.2v31l4.1,59.8l-223.1,2.7l36.5-114.4l37.5-27.4l83.6-93.7l41-27.5
			h33.3l-20.8-11.3L890,1164l48.8,56.3c0,0,19.4,35.9,17.7,34.7c-1.8-1.2-30.6-27.1-30.6-27.1l-27.1-27.9l7.7,27.9l15.3,29.4
			L917.7,1287.1z"/>
		<path class="st20" d="M733.7,1324l14.1,34.7c0,0,0.9,26.5,0,24.7c-0.9-1.8-26.8,67.5-26.8,67.5h40.6l27.1-30.4l5.3-11.8
			c0,0,52.4-40,53-41.8c0.6-1.8,74.8-109.5,74.8-109.5l-10.8-17.7l-33.4-33h23l-1.8-6.7l-22.4-12.1h-16.2l-41,27.5l-83.6,93.7
			L733.7,1324z"/>
		<path class="st21" d="M744.6,1334l16.9,27.7l-5.3,23.6l-35.3,65.7l17.5-0.6c0,0,37.2-63.9,36.9-65.2c-0.3-1.3,18.3-5.1,18.3-5.1
			s11.9,3.2,11.9,2.2s34.7-27,34.7-27l55.9-88.6c0,0,8.1-14.2,11.5-20.6c3.4-6.4-38.9-33.8-38.9-33.8l8.9-5.6c0,0,18.1,0,17.6,0
			s-5.6-6.7-5.6-6.7l-15.2-7.5l-18.6,3.8l4.5,10.4h-16.3l-29.5,20.8l-59.3,80L744.6,1334z"/>
		<polygon class="st20" points="897.5,1158.6 937.4,1176.7 946.4,1192.5 895.2,1170 890,1164 		"/>
		<path class="st4" d="M910.9,1134.3c0,0,60.3-36.3,61.9-37.2c1.7-0.9,79.9-13.3,79.9-13.3s28.8-7.7,30.5-7.7s55.8,0,55.8,0
			l14.7,54.3l-29.9,9.3l17,9.8l28.8-1.8l10.1,11l-19.2,5.5c0,0,10.5,6,9.2,5.3s15.1-5.3,15.1-5.3l17.7,19.2c0,0-80.8,56.7-80.8,55
			s-20.9,5.1-20.9,5.1s25.4-32.7,25.9-33.8s25.9-29.3,25.9-29.3l-22.7,5.1l-29.1,42.8l-57.5-21.4l-70.4,36.6l-26.5-50.8l-9-15.9
			c0,0-10.2-25.8-10.2-27.4s-21.7-5.3-21.7-5.3L910.9,1134.3z"/>
		<path class="st20" d="M951.8,1120.5c2.5-2.3,31.2-25.3,31.2-25.3l63.2-7.8l-2.4,100.5v12.1c0,0-5.7,6.1-8.8,3.2
			c-3.1-2.8-36.1-39.3-36.1-39.3h-29.3L951.8,1120.5z"/>
		<path class="st20" d="M1064.1,1148.1c0.6,2.3-14.4,48.2-14.4,48.2l11,10.4l30.2,17.4c0,0,12.1-5.7,12.1-6.2
			c0-0.5,31.6-46.7,31.6-46.7l3.9,5.5l22-12.6l19.2-5.5l-10.1-11l-28.8,1.8c0,0-27.3,34.2-26.1,32.5s-14-23.3-14-23.3l-24.2-11
			L1064.1,1148.1z"/>
		<path class="st4" d="M1140.2,1456.5c-0.6-2.3-16.9-52-16.9-52v-41.1l39.4-53l28.2-106.3l18.7-10.8l17,23.9l18.4,46.6l12.6,38.7
			l71.4,60.4l20.8,87.9C1349.8,1450.7,1141.6,1461.6,1140.2,1456.5z"/>
		<polygon points="1297.9,1248.2 1329,1362.8 1257.6,1302.4 1245,1263.7 		"/>
		<path class="st20" d="M1202.4,1211.8c0.3,0,15,17.5,15,17.5l42.8,90.2l7.9,63.7l-10.5,47.9l-8.6,26.9c0,0-79.7,1.5-79.3,0
			c0.4-1.5-11.4-68-11.4-68s-23.4-42-21.7-44.2c1.6-2.2,3.1-14.5,4.3-20.1c1.1-5.6,33.8-78.9,34.4-82.2s6.8-22,7.3-23.7
			S1202.4,1211.8,1202.4,1211.8z"/>
		<path class="st20" d="M1136.4,1211.8c-0.2-2.4,51.7-41.6,51.7-41.6h-11.4l-50,39.4L1136.4,1211.8z"/>
		<path class="st20" d="M1132.9,1224.2c0.8-1.8,20.2-9.5,21.9-12.4c1.7-2.8,40-31.1,38.8-31.5c-1.3-0.4-26.6,13-26.6,13
			L1132.9,1224.2z"/>
		<path class="st7" d="M1279.2,1040.2l16,105.5l-10.8,11.4l-21.5-6.2l5.1,8.8l11.1,3.7c0,0,19.3-5.6,19.3-7.5
			c0.1-1.9,4.4-10.2,4.4-10.2L1283,1034L1279.2,1040.2z"/>
		<path class="st7" d="M1290.4,981.8c0,0,3,23.4,3.4,22.2c0.4-1.2,5.4-1.2,4.8-2c-0.6-0.8-3.2-20.8-3.2-20.8L1290.4,981.8z"/>
		<path class="st7" d="M1169.7,1054.3l-6.4,44.4l14.3,19.2v34.6c0,0,15.3,19.5,16.1,17.6c0.8-1.8,0.7-66.9,0-68.4
			c-0.7-1.5-8.5-7.5-8.5-7.5l48.9-22.6l-38,4.4l-19.9-24.2L1169.7,1054.3z"/>
		<path class="st14" d="M1173,1098.7h6.7v59.9c0,0,10.5,0,10.7,0s-5.3-72.3-5.3-73.4s11.6-3.4,11.6-3.4l19.9-5.8
			c0,0-14.1-2.9-14.4-4s-8.7-13.7-8.7-13.7l-7.1-6.8l-10.5,0.2L1173,1098.7z"/>
		<polygon class="st7" points="771.3,545.6 776.8,579.8 789.8,597.9 760.8,580.2 773.6,599.1 738.2,578.6 753.2,575.2 735.3,564.9 
			771.3,572.9 		"/>
		<path class="st6" d="M1040.5,211.8l9.8-9.4c0,0,21.3,22.4,21.6,22.7c0.3,0.3-7.2,16.7-7.2,16.7l-16.3-27.8L1040.5,211.8z"/>
		<path class="st6" d="M1259.4,449.2l4.9,11.7l37,17.3c0,0-9.3,8.6-8.3,7.7c0.9-0.9,24.4,0,24.4,0l-2.8-9.3l28.4,7.6l24.7,26.4
			l19.1,48.4l5.2,27.2v26.5l6.8-20.6l-6.8-46.6l-19.4-42.9l-28.1-23.5l-32.1-13.6L1259.4,449.2z"/>
		<path class="st6" d="M1391.4,776.8c0.9-1.2,9.7,3.3,9.2,1.7s-13.8-50.7-13.8-50.7L1391.4,776.8z"/>
		<path class="st6" d="M1433.5,907.8c0,0-28.8-79.5-29-79.7s-33.5-25.7-33.5-25.7l32.4,44.8l7.7,25.2L1433.5,907.8z"/>
		<polygon class="st6" points="1095.7,736.4 1063.1,758.6 1100.7,792 1135.4,805.1 1137.6,768.3 1143.5,758.6 1119.2,738.5 		"/>
		<path class="st6" d="M934.6,440.4c0,0-14.2,38.2-13.3,37.3c0.9-0.9,8.3,0.9,8.3,0c0-0.9,13-31.5,13-31.5L934.6,440.4z"/>
		<path class="st6" d="M935.7,480.9c0.5-0.2,9.8,0,9.8,0l1.9,2.6c0,0-21.3,3.8-21.5,3.2S935.7,480.9,935.7,480.9z"/>
		<path class="st6" d="M904.4,499.4c0.7-0.6,3.3-1.5,3.6-2.5c0.3-1,31.2,1.2,31.2,1.2l1.6,11.7c0,0-39.4-7.4-39.4-7.7
			C901.5,501.8,904.4,499.4,904.4,499.4z"/>
		<path class="st6" d="M863.2,511.6c-0.1,0.6,13.9,13.2,13.9,13.2v3.4l37.9,13.1l14.2-12.6l-39.5-9.9l-8.4,2.7l-15.3-8.2
			L863.2,511.6z"/>
		<path class="st6" d="M872.3,547.6c0.5-0.4,5.3-4,5.3-4l30.4,14.2c0,0-3,7.6-3,6.7s-32.8-13.6-32.6-14.1
			C872.5,550.1,872.3,547.6,872.3,547.6z"/>
		<polygon class="st6" points="834.1,581.3 840,577.9 849.3,577.1 841.7,583.4 834.1,582.7 		"/>
		<path class="st15" d="M785,1050.6l12.2,79.8c0,0,9.4-0.3,9.4-1.9c0-1.7,0.8-13.6,0.8-13.6l-6.9-55.4l-1.9-12.5L785,1050.6z"/>
		<path class="st9" d="M774.5,1050.6c0.3,0,10.5,0,10.5,0l12.2,79.8c0,0-11.4,1.1-11.4,0S774.5,1050.6,774.5,1050.6z"/>
		<polygon points="1035.1,1300 1063.1,1283.4 1075.7,1248.2 1100.7,1228.1 1126.7,1209.5 1100.7,1243.3 1080.9,1254.8 
			1069.9,1286.8 		"/>
		<polygon points="994.3,1292.2 966.5,1252.3 949.7,1240.8 956.4,1255.1 		"/>
	</g>
</g>
<g id="Layer_2">
</g>
</svg>
