<svg xmlns="http://www.w3.org/2000/svg" xmlns:xlink="http://www.w3.org/1999/xlink" id="Layer_1" width="612" height="792" viewBox="0 0 612 792"><style>.st0{clip-path:url(#SVGID_2_)}.st1{fill:#fff;stroke:#000;stroke-miterlimit:10}.st2{fill:none}.st3{fill:#7e2829}.st4{fill:#984233}.st5{fill:#fe8357}.st6{fill:#fea}.st7{fill:#fff}.st8{fill:#413e38}.st9{fill:#8b735b}.st10{fill:#d4563e}.st11{fill:#505251}.st12{fill:#fefff9}.st13{fill:#423e3c}.st14{fill:#eebb76}.st15{fill:#bd8d5b}.st16{fill:#bcc7c2}.st17{fill:#888988}.st18{fill:#b08b6c}.st19{fill:#464340}.st20{fill:#ea6848}.st21{fill:#fea16a}</style><defs><path id="SVGID_1_" d="M0 0h612v792H0z"/></defs><clipPath id="SVGID_2_"><use overflow="visible" xlink:href="#SVGID_1_"/></clipPath><g class="st0"><path d="M0-4.9h612v803H0v-803z" class="st1"/><path d="M306 1282.2l359.1-613.4v145.8L306 1428v-145.8z"/><path d="M306 1138.3l359.1-613.4v145.8L306 1284.1v-145.8z" class="st2"/><path d="M306 994.5L665.1 381v145.8L306 1140.2V994.5z" class="st2"/><path d="M306 850.6l359.1-613.5v145.8L306 996.4V850.6z" class="st2"/><path d="M306 706.7L665.1 93.2V239L306 852.5V706.7z" class="st2"/><path d="M306 562.8L665.1-50.7V95.1L306 708.6V562.8z" class="st2"/><path d="M306 418.9l359.1-613.5v145.8L306 564.7V418.9zm0 719.4l359.1-613.4v145.8L306 1284.1v-145.8z" class="st2"/><path d="M306 994.5L665.1 381v145.8L306 1140.2V994.5z" class="st2"/><path d="M306 850.6l359.1-613.5v145.8L306 996.4V850.6z" class="st2"/><path d="M306 706.7L665.1 93.2V239L306 852.5V706.7z" class="st2"/><path d="M306 562.8L665.1-50.7V95.1L306 708.6V562.8z" class="st2"/><path d="M306 418.9l359.1-613.5v145.8L306 564.7V418.9z" class="st2"/><path d="M306 275l359.1-613.5v145.8L306 420.8V275z" class="st2"/><path d="M306 994.5L665.1 381v145.8L306 1140.2V994.5z"/><path d="M306 850.6l359.1-613.5v145.8L306 996.4V850.6z" class="st2"/><path d="M306 706.7L665.1 93.2V239L306 852.5V706.7z" class="st2"/><path d="M306 562.8L665.1-50.7V95.1L306 708.6V562.8z" class="st2"/><path d="M306 418.9l359.1-613.5v145.8L306 564.7V418.9z" class="st2"/><path d="M306 275l359.1-613.5v145.8L306 420.8V275z" class="st2"/><path d="M306 131.1l359.1-613.4v145.7L306 276.9V131.1zm0 719.5l359.1-613.5v145.8L306 996.4V850.6z" class="st2"/><path d="M306 706.7L665.1 93.2V239L306 852.5V706.7z" class="st2"/><path d="M306 562.8L665.1-50.7V95.1L306 708.6V562.8z" class="st2"/><path d="M306 418.9l359.1-613.5v145.8L306 564.7V418.9z" class="st2"/><path d="M306 275l359.1-613.5v145.8L306 420.8V275z" class="st2"/><path d="M306 131.1l359.1-613.4v145.7L306 276.9V131.1z" class="st2"/><path d="M306-12.8l359.1-613.4v145.7L306 133V-12.8z" class="st2"/><path d="M306 706.7L665.1 93.2V239L306 852.5V706.7z"/><path d="M306 562.8L665.1-50.7V95.1L306 708.6V562.8z" class="st2"/><path d="M306 418.9l359.1-613.5v145.8L306 564.7V418.9z"/><path d="M306 275l359.1-613.5v145.8L306 420.8V275z" class="st2"/><path d="M306 131.1l359.1-613.4v145.7L306 276.9V131.1z"/><path d="M306-12.8l359.1-613.4v145.7L306 133V-12.8zm0 638.6V1428" class="st2"/><path d="M306 1282.2L-53.1 668.8v145.8L306 1428v-145.8z"/><path d="M306 1138.3L-53.1 524.9v145.8L306 1284.1v-145.8z" class="st2"/><path d="M306 994.5L-53.1 381v145.8L306 1140.2V994.5z" class="st2"/><path d="M306 850.6L-53.1 237.1v145.8L306 996.4V850.6z" class="st2"/><path d="M306 706.7L-53.1 93.2V239L306 852.5V706.7z" class="st2"/><path d="M306 562.8L-53.1-50.7V95.1L306 708.6V562.8z" class="st2"/><path d="M306 418.9L-53.1-194.6v145.8L306 564.7V418.9zm0 63v802.2m0-145.8L-53.1 524.9v145.8L306 1284.1v-145.8z" class="st2"/><path d="M306 994.5L-53.1 381v145.8L306 1140.2V994.5z" class="st2"/><path d="M306 850.6L-53.1 237.1v145.8L306 996.4V850.6z" class="st2"/><path d="M306 706.7L-53.1 93.2V239L306 852.5V706.7z" class="st2"/><path d="M306 562.8L-53.1-50.7V95.1L306 708.6V562.8z" class="st2"/><path d="M306 418.9L-53.1-194.6v145.8L306 564.7V418.9z" class="st2"/><path d="M306 275L-53.1-338.5v145.8L306 420.8V275zm0 63v802.2" class="st2"/><path d="M306 994.5L-53.1 381v145.8L306 1140.2V994.5z"/><path d="M306 850.6L-53.1 237.1v145.8L306 996.4V850.6z" class="st2"/><path d="M306 706.7L-53.1 93.2V239L306 852.5V706.7z" class="st2"/><path d="M306 562.8L-53.1-50.7V95.1L306 708.6V562.8z" class="st2"/><path d="M306 418.9L-53.1-194.6v145.8L306 564.7V418.9z" class="st2"/><path d="M306 275L-53.1-338.5v145.8L306 420.8V275z" class="st2"/><path d="M306 131.1L-53.1-482.3v145.7L306 276.9V131.1zm0 63v802.3m0-145.8L-53.1 237.1v145.8L306 996.4V850.6z" class="st2"/><path d="M306 706.7L-53.1 93.2V239L306 852.5V706.7z" class="st2"/><path d="M306 562.8L-53.1-50.7V95.1L306 708.6V562.8z" class="st2"/><path d="M306 418.9L-53.1-194.6v145.8L306 564.7V418.9z" class="st2"/><path d="M306 275L-53.1-338.5v145.8L306 420.8V275z" class="st2"/><path d="M306 131.1L-53.1-482.3v145.7L306 276.9V131.1z" class="st2"/><path d="M306-12.8L-53.1-626.2v145.7L306 133V-12.8zm0 63v802.3" class="st2"/><path d="M306 706.7L-53.1 93.2V239L306 852.5V706.7z"/><path d="M306 562.8L-53.1-50.7V95.1L306 708.6V562.8z" class="st2"/><path d="M306 418.9L-53.1-194.6v145.8L306 564.7V418.9z"/><path d="M306 275L-53.1-338.5v145.8L306 420.8V275z" class="st2"/><path d="M306 131.1L-53.1-482.3v145.7L306 276.9V131.1z"/><path d="M306-12.8L-53.1-626.2v145.7L306 133V-12.8z" class="st2"/><path d="M263.1 556.9l11.6 19.3 91.2-7.1 22-28.6v-45.8l28.3-16.3-4.2-44.5 7-40.3-29.5-3.1-32.2-54.4-24.6-7.8-53 38.6-26.1 9.7-21.3 32.6 10.4 69.1 20.4 78.6z" class="st3"/><path d="M246.4 419.8l6.5 36.2 15.5 10.1s28.9-14.9 28.9-15.9 25.5-14.6 25.8-15.3 4.2 3.7 4.2 3.7-.5 18.3 0 17.4 3.7-19.6 3.7-19.6-.8-14.7 0-15.7 5.2.8 5.2.8v16.1l2.3 4.2-2.3 6.5s8.7 8.4 9.2 8.1 16.1 6 16.1 6 10.9-2.2 10.7-3.2 6.4-11.4 6.4-11.4l14.7-4.4 12.9 2.4 1.9-19.8-5.9-3.6v-8.1l-31.1-14.5 12.4-3.8h-32.7l-9.5-14.2-27.9 12.8-31.8-5.2-18.5 2 29.8 4.3s-5.8 2.4-5.6 1.2 16.3 4.1 16.3 4.1l-31.4-3s20.2 5.6 20.6 5 34.2 2.6 34.4 2 25.5-1.3 25.5-1.3l-17.4 10.1-10-3.5-13.5-.9-65.4 10.4z" class="st4"/><path d="M313.6 458l-25.7 5.6 29.8 1.6s2-7.7 1.6-7.2-5.7 0-5.7 0z" class="st4"/><path d="M338.5 414.8l-2.3 6.7s-.8 6.3 0 6 36.5 19.9 36.5 19.9-5.4 7.5-5.4 7.7-7.4 2.2-7.4 2.2l-19-12.1s-8.4-1.7-7.8-2.9-2.6.6-2.6.6l5.7 5.4 19.1 11.7 6.2 2.4 10.7-3.2s1.7-13.1 2.9-12.8l3.5 1.4 14.7-4.4-8.6-20.2 3.2-5.3h12.2l-15.6-12.2-13.4-5.9-11.4-1.8-8.9-2s-15.1-11.6-14.4-12-13.8 12-13.8 12l-13.7 1.1s18.8 2.3 19.5 2.1 34.5 2.4 34.5 2.4l-1.2 4.1-23.2 9.1z" class="st5"/><path d="M263.9 479.6c.3-.5 6.8 6.1 6.8 5.5s9.8 1 10 0 6.6-4.4 6.6-4.4l8.8.5c.7 0 7.5 6.1 7.5 6.1l11.9 21.2 12.9-.8 3-3.8-2-11.2s-2.1-4.7-2.2-5.3 2.2-7.2 2.2-7.8 2.8-2.8 2.8-2.8h4.3s2.7 13.1 2.6 13.5S338 502 338 502s9.6 2.9 9.6 2.5 12.4-21.9 12.4-21.9l8.8-1.5 2.4 2 9.9-6.3s-5.4-1.9-5.4-2.9 2-4.4 2-4.4l-4.6-4.3-15.8 1.6L340 470l-16.1 2.3h-5.8l-7.1-3.5-25.3 2.4-21.8 8.4z" class="st4"/><path d="M267.9 491.8l4.4 3.5 3.5 33.6 47.6 7s2.6-5.6 2-5.5-18.2-3-18.2-3.5-10.6-4.3-10.5-4.7 1.8-4.6 1.8-4.6l35.3 4.2s12.3 2.1 11.7 2.4-9.9 7.4-10.4 7.3l29.3 7.7 11.4 1.3s2-20.2 1.9-19.9-28.9 2.3-28.9 2.3l-1.9-1.7s31.2-3.8 31.2-4.3l2.7-27.4-35.7 23.5-1.3 2c-.5-1.4-1.2-2.9-1.9-4.2-1.8 0-3.6.2-5.4.4 0 0-.8 8.4-.8 8s-3.8-1.3-3.8-1.2-.9-4-.9-4l-7.9 1h-6.2c-.3-.1-5.1-3.5-5.1-3.5l-21.1-14.6s-15.7-4.7-15.8-5.1-7 0-7 0zm6.8 58.8s21.5-7.7 21.4-8 52 1.5 51.9.9 20.8 1.9 20.8 1.9-20.4 12.7-20.8 12.3-49.1 4.9-49.1 4.9-23.6.3-23.6 0-.6-12-.6-12z" class="st4"/><path d="M264.9 382.2l-21.3 29.7 7 66.2 21.7 17.2s4 89.6 3.7 86.9-3.7 19.7-3.7 19.7-18.4 36.7-19.5 35.6-43 31.3-43 31.3l-45.9 51.4s-20.2 16.2-20.6 15.1-10.6 2.5-10.6 2.5 32.7-75.7 32.7-77.5-2.6-54-2.6-54l-7.7.4-6.6-8.3 8.4-6.2s3.9-39.7 4.1-40.4 20.8-5.3 20.8-5.3l2.4-12.6 27.6-3.7 2.7-29.6-7.3-45.5-10.9-34.2-6.4-1.1-5-3.4-24.6 29.6-63.6 34.1-16.5-4L62 448.7s17.3-49.5 17.5-50.2 5.5-12.8 5.7-13.4 9.5-9.3 9.8-10 12.3-28.9 12.3-28.9l14.8-28.3 2.5-20.7 13.7-33.8 11.7-20.6 11.2-10.1 21-8.5 25.8-4.6 18.8-3.1 63.9-18.9v2.5l-26.8 13.6-2.5 30.6 3.6 88.9-.1 49z"/><path d="M278.6 87.4l15 3.4 12.4 5.4-10.3-.7-8.6 10.5 1.4 34.8 13.6 36.6 9.9 16.5 18.1 17.2 12.3 2.6 49.3-3.8-5 14-38.1 3.8-16.5-9.4-18.7-17.4-12.8-21.2-15-39.6-6-26.5-1-26.2z" class="st3"/><path d="M391.7 81.9l-15 18-2.8 15.5 2.5 7.5 23.7-18.1 5.5-20.9-13.9-2z" class="st6"/><path d="M350.8 203.7l-8.4 10 6.2 10.9s7.6 1.4 7.8.7 13.9-4.6 13.9-4.6h15.5l5.9-10.8-10.1-4-30.8-2.2z" class="st4"/><path d="M409.8 140.3c-.2-2 0-47.8 0-47.8l-7.6-26.6-9-13.9 9 32-12.7 12.2-12.3 23.4-6.1 26.1v6.8l1.4 18.9 4.7 23.8s3.2 9.3 4.4 10.7 10.1 4 10.1 4l8.8-6.8s6-27.2 6-28.6 3.3-34.2 3.3-34.2zM287.1 106l1.4 34.8 13.6 36.6 9.9 16.5 18.1 17.2 12.3 2.6 8.4-10 3.5-11.6v-34.3l4.3-4.3-2.8-2.5-5.1-.2s3.3-2.7 3.6-4.2-2.1-11.6-2.1-11.6l-4.8 9.1-11.7-25.3-15.6-16.1-14.1-6.5-10.3-.7-8.6 10.5z"/><path d="M303.5 37l26.6-9.6 24.3-1.7 21.5 9.6L393.2 52l4.2 13.9-17.8-1.7L303.5 37z" class="st3"/><path d="M291 50.7L303.5 37l29.4-5.3h19.3s21.2 9 21.4 8.2 15.9 17.5 15.9 17.5l7.9 8.5 4.8 18.1-11 2.8-11.6 14.7-5.7 13.9 3.3 4.2-4.4 17.9-1.7 8.2v6.8l-7.4 5.3-7.9-6.8-5.1-.2-11-22.1s-45-36.8-46.1-37.9-9.9 9.9-10.2 9-5.1-10.7-4.8-12.4l4.5-26 7.9-10.7z" class="st5"/><path d="M301.2 47.5l-14.1 13.6 13 8.5 10 5.7 7 7.8 29.1-13.8 11-2.6 12.2 20.4 3.8-2.2-9.7-23.3 13.7-7.5-7-13.4-18-9-18.1 2.5-32.9 13.3z" class="st6"/><path d="M291 60.2l28.5 16.4 57.7-22.5-25-22.4L291 60.2z" class="st7"/><path d="M402.2 87.1l3.7 20.4v13l-3.7-4.5v5.3l-16.4 13.9 17.6-10.2 2.5 13.3-1.7 9.6-2-5.6s-3.5 9.7-3.5 9.9 3.5-2.1 3.5-2.1 1.7 22.2 1.7 21.5 3.9-32.5 3.9-32.5v-38.5l-5.6-13.5z" class="st8"/><path d="M381 147.3l8-6.5c.7-.6 7.8-1.6 7.8-1.6l-1.6 4-4.7 5.8-9.5-1.7zm-62.5 6.1l8.6-1.8c.7-.1 7.8.8 7.8.8l-2.1 1.8-5.2 2.1-9.1-2.9z" class="st7"/><path d="M372.4 150.1h4.8l2.4-1.1 1.4 2.8-2.9 1.7c.1-.1-5.7-3.4-5.7-3.4z" class="st2"/><path d="M379.6 155.5l1.4 5.6-1.4 7.2h6.2l1.1-7.7-3.7 1.3-3.6-6.4z" class="st9"/><path d="M393.8 154.8s-8.1 19.6-8 19.1-6.2-5.6-6.2-5.6l7.3-7.7 6.9-5.8z" class="st8"/><path d="M349 106.4c.7-.4 6.7-8.4 6.7-8.4l6.3 1.6 3.5 4.9 2.8-1.3 4.1-5.2 9.4-3.2-9.4 14.1.7 14h3.3l-2 8.9-2-1.2-2.8 1.2 3.2 5.7-5.5-3.2s.5 11.2.5 10.7 3.3.7 3.3.7-4.2 2.1-4.3 2.6-6.9-.3-7.2-.9-3.2-13.5-3.2-13.5-5.1 10.5-6 10.2-5.7-10-5.7-10l8.1-4.7-16.1-17-11.9-12.5c-.3-.5 15.6 6.1 15.6 6.1l12.9 19.3 4.3-1.2s5.3 10.7 5.3 10.2v-21.2l-13.9-6.7z" class="st10"/><path d="M358.6 153.5c.5.3-4.3 4.3-4.3 4.3h18.1s-1.5-5-1.3-5.3-12.5 1-12.5 1z" class="st3"/><path d="M350.8 203.7s10.5 16 11.5 16 13-1.6 13-1.6l6.3-12.2-9.2-48.1h-18.1v34.3l-3.5 11.6z" class="st5"/><path d="M360.4 160.8s1.8 21.5 1.9 20.8 6.2 1.1 6.2 0-3.5-20.8-3.5-20.8l-3.7-3-.9 3z" class="st6"/><path d="M296.6 101.7c-.2.5 5.6 30.6 5.6 30.6l4.6 4.3-7.6 1.9 1.3-3-7.2-8.6-2.7-8.8-1.7-5.7 2.1-8.5 5.6-2.2z" class="st9"/><path d="M300.3 162.7c-.2-.9-7.7-24.2-7.7-24.2s-2-18.3-2-20.4 9.9 17.4 9.9 17.4l-5 7.2 5 .7s-1.4 11.6-.7 11.4 18.7 6 18.7 6l-6.3-5.3 14.9 4 11.8-6.8 2.8.8-16.9 8.4 7.3 2.5s-8.8 6.7-8.3 7.2 20.3 11.8 20.3 11.8l-8.2 9.6.3 9.7 8.3 8.5-9.1-5.3-4.1-12.2 1.8-8.7-6.3-2s-10.9-10.8-10.9-11.4-15.6-8.9-15.6-8.9z" class="st8"/><path d="M315.9 137.1l7.9 4.4v-3.7l-7.9-.7z" class="st2"/><path d="M334.1 145.2l11.6 7.1 2.9-3.6-6.6-.2-7.9-3.3zm10.4 9.4s1.6 2.1 1.7 3.2-5.4 4.9-4.9 5.6 5.6-1.5 5.6-1.5 5.7 9.6 5.7 9v-9l-4-4.1v-3l-4.1-.2z" class="st8"/><path d="M295.5 142.7l2.3 4.9 2.7-4.2-5-.7z" class="st2"/><path d="M298 154.8l28.3 11.7-.6-2 6.4-.1-7.3 5.9-8.2-1.7-7.9-7.8-9.5-1.7-1.2-4.3z" class="st9"/><path d="M322.9 162.8c-.3-.4 4.2-3.3 4.2-3.3l-14.9-4 6.3 5.3 4.4 2z" class="st9"/><path d="M289 149l.2 2.2 4.3 36.1 19.9 13.6-12.8-21.2L289 149z" class="st3"/><path d="M293.8 171.9s11.2 23.3 11.1 23.2l-8.8-6-2.3-17.2z" class="st4"/><path d="M293.1 184.3l-1.7.5-.8 15.3 18.3 14.5 21.5 7.7 7.5-.7-5.8-3.3-18.7-17.4-19.9-13.6-.4-3z"/><path d="M298 206l18.3 41.1 9.5 16.2 18.7 15.8 15.9 3.4 9.9-4 15.5-5.5 9.5-12.3 1.5-9.5 21.8-.6-1.5-14.5-4.6-17.4s-16.1-5.1-15.7-4.1-15 15.9-15 15.9l-29.2.2-28-16.1L298 206z" class="st3"/><path d="M293.1 189.2l.7 11.3s6.2 5.7 6.7 5.4-1.1-8.3-1.1-8.3l9.7 3.3-16-11.7z" class="st11"/><path d="M400.5 203.1v5.2l12 10.4 4.6 17.4s-17.4-17.4-18.2-16.4-10 35.5-10 35.5l6.4 5.5v5.8c0-1.7-14.3.3-14.3.3s-6-7.3-6.2-8 9.4-25.1 9.4-25.1l-17.1 29.7 5.3 6.5-6.2 1.4-3.9-8.7 15.6-25.4-4.6 1-15.7 14.1 8.6-16-19.3-4.6-11.7-9.4 2.7-.7 10.7 6.1 38.1-3.8 5-14 8.8-6.8z"/><path d="M265.9 214.6l23.1-8.7 6.5 2.8-1.7 8.8-26 6.7-1.9-9.6z" class="st2"/><path d="M264.9 225.5c.2-.7 33.5-2.9 33.1-3.2s0-10.3 0-10.3l-3.7-8.9-28.4 11.5-1 10.9z" class="st2"/><path d="M263.4 232.2c0-.7 24.8 7.6 25.6 6.9l5.8-6.9 3.2 19.3-9 4.1-27.7-11.3V263l27.7 14.6-24.1 55.6v49h7.2l63.1-44.7 5.2 7.6 6.5-6.4 29.2 53 10.8 6.3h28.9l-22-31.6-46.9-49.3 13.5-34.6-15.9-3.4-18.7-15.8-9.5-16.2L298 206l-7.4-5.9-26.8 13.6-.4 18.5z" class="st4"/><path d="M309.1 241.6l7.4 21.7-5.2 3 18.8 7.3 6.1 33.3-11.4 33.7S292 360.9 291.5 360s-23.1-24.5-23.1-24.5l6-16.9s23.9-24.8 23.6-26.1-9-17.7-9-17.7l9-8c.9-.7-17.3-8-17.3-8l4.2-4.8 4.1 1.6 9-4.1 11.1-9.9z" class="st5"/><path d="M308.9 214.6l21.6 49c-.5-.9.7-10.1 0-11s-21.6-38-21.6-38zm19.5 16s13.7 36.4 14 35.5 2.1-2.5 2.1-2.5.3 8.8 0 7.7 9.6-8.6 9.6-8.6l3.5-10.4S347 264.8 347 263.6s-5.7-17-5.7-17 1.7 16.1 1.7 15.2-14.6-31.2-14.6-31.2zm10.1 56.1l2.8 63.7-14.5 29.8-11 11-47.4-3.9 45 7.3 27.9-12.8s4.1-47.4 4.1-48.1-1.2-43.1-1.2-43.1l-5.7-3.9zm45 109.3c-1.5-.8-30.8-3.7-30.8-4.4s-10.3-7.8-10.3-7.8l8.4 12.2h32.7z"/><path d="M360.4 282.5l-13.5 34.6 46.9 49.3s8.9-26.8 8.4-27.5-16.4-65.9-16.4-65.9l-25.4 9.5z" class="st5"/><path d="M367.1 282.5l-14.4 27.6 18.4 24.4s13.6 10.8 13.6 10 12.9-4.9 12.9-4.9l-14.1-38.8v-24.5l-8.4 6.2h-8z" class="st6"/><path d="M412.5 218.7l3.3-4.1 4.6 5.1 4.8 21.9v9.4l-6.6-.4-1.5-14.5-4.6-17.4z" class="st9"/><path d="M447.1 235.1l-26.7-15.4 4.8 21.9v9.4l21.9 25.3 8.4-4.9-8.4-36.3z" class="st6"/><path d="M496.4 74.4l-76 145.3 22.7 13.1 71.4-147.5-7-8.7-11.1-2.2z" class="st11"/><path d="M432.9 219.7c-.3-1 65.5-135.9 65.5-135.9l9.1-7.2-8.5-1.7-73.8 143.2 2.5 4.2 5.2-2.6z" class="st12"/><path d="M439.9 213.7c.6-1.4 3.9.6 3.9.6l61.3-124.1-2.8-3.1-27.6 52.1-34.8 74.5z" class="st12"/><path d="M430.4 225.5l5.5-3.2 6.3 3.2s-2.7 6.1-2.3 5.4-9.5-5.4-9.5-5.4zm17-14.3l-5.2 11.1 6.1-5.6-.9-5.5zm4-7.5l.7 5.2 6.8-13.9-1-4.5-6.5 13.2zm9.6-19.2l1 4.3 5.5-12.5-1.1-3.2-5.4 11.4zm9.1-18.3l1 3.8 7.6-15.2-1.8-4.1-6.8 15.5zm9.6-20.5c.4 1.1.9 2.3 1.5 3.3l9.5-18.9-2.7-2.1-8.3 17.7zm12.9-25.2l1.5 2L506 91.7l-13.4 28.8zm-115 206.8s9.3 14.7 9.7 13.4 10.3-1.1 10.3-1.1l-5.9 28.1 10.5 22.2 8 6.1-8 18.3v8.1l18.2 11.3 17.6 9.7 17.5-11.5 14.4-16.9 15.3-31.2-7.9-8.7s-9-8.4-9.7-8.7-3.9 1.1-3.9 1.1-3.2-6.6-3.9-7.4l-.7-.9-7.6-1.9-2.8-18.7 6.8-26.7-5.2-6.3s8.6-25.6 8.6-26.3-8.6-10.6-8.6-10.6l-14-12.7s-8.6-8.7-8.6-8-30.9 3.2-30.9 3.2l-1.5 9.5-9.5 12.3.9 11.2-9.9 17.9v5.4l7.1 6-6.3 13.8z"/><path d="M378.6 305.7l4.7 4.7 2.7-10 5.5-4.1 15 4.9 13.9.6 6.6 6-1.8 16.9 1.8 1.5-3.3 10.2 4.2 4.3-2.7 9.6 2.7 5.1-2.7 4.3v13.1l2.7-1.8v-9.8c0-.4 3.2-6.3 3.1-6.7s-2.5-4.4-2.4-4.8 3.3-9.4 3.2-9.9-3.6-9.9-3.6-9.9l2.8.3-.9-21.4 5.3-7.3-2.9-7.5-10.2 2.8-3.5-4.5-20.4 4.2-9-2.7-5.1 5.3-2.2 2.8-.2 3.6-3.3.2z" class="st2"/><path d="M388.9 280.4c0-.6 9.9-7.4 9.9-7.4l12.2 5.4 3.6-2.1 14.2 12h3.3s5.3 13 5.9 12.6 7.1-13.9 6.7-14.2l-7.3-4.2c-.1-.1-6.4 2.8-6.4 2.8l-3.2-1.8.8-6.3-12.8-10-28.2 7.9 1.3 5.3z" class="st2"/><path d="M417.1 261l-1.3 6.2-26.9 9.9V273l28.2-12z" class="st2"/><path d="M420.4 261.8L388.9 273l1.4-1.7 25.8-11.8 4.3 2.3z" class="st2"/><path d="M397.6 259.5c-.6-.3-1 6.8-1 6.8l15.3-6.8 3.9-2.2 7.6 4.5 6.3 7.2 8.8 4 10.1 9.5-3.9 16.6 8.6-18-7-9-6.9-1.8-8.4-6.7-7.7-4.5-3.3-1.8-4.8-1.8-7 4h-10.6zm1.5 19.2l-9.4 3.8S378 304 378.6 303.6s0 2.1 0 2.1l3.3-.2.2-3.6 7.3-8.1 9 2.7 20.4-4.2-7.3-4.8s-5.6 1.4-5.6.7-3.7-4.9-3.7-4.9l-3.1-4.6z" class="st2"/><path d="M398.2 286.1c.2-.7 4-2.8 4-2.8v-7h-3.5l-3.2 4.9 2.7 4.9zm38.5-2.4l-2.1 4s2.9 7 3.4 6.5 3.2-5.6 3.4-6.1-4.7-4.4-4.7-4.4zm-38.6 87l8.1 5.9h7.2s9.4-13.3 9-13.3-1.3-19.4-1.5-19.9-10.2-6.7-10.7-7.3 6.4-9.3 6.9-9.7-1-16.9-1-16.9 4.5 2.2 4.3 1.8.6-5.1.6-5.1l-9.1-1.5h-11.7l-11.8-3.8-7.5 27.5 18.8 6.9-3.7 31.1 2.1 4.3z" class="st2"/><path d="M397.6 317.9s-1.3 9.6-1 9.3 5 6 5.1 5.3c.5-1.7 1.2-3.3 1.9-4.9l-6-9.7zm7.1 22.4c0-.1 11.3 21.3 11.1 21.7s-1.4 10.4-1.4 10 6.4-9.9 6-10.4-5.9-17.1-5.9-17.1l-9.8-4.2z" class="st2"/><path d="M382.7 322s4.5 1.5 4.9 1.2 2.7-9.5 2.7-9.5l7.3 6s11.4-2.4 11.5-3l.6-3 6.4-4.2 4.3 1.8.6-5.1-9.1-1.5h-11.7s-12-2.6-11.8-3.8-5.7 21.1-5.7 21.1z" class="st2"/><path d="M389.8 304.5v4l3.4 1.9c-.2-2-.2-3.9 0-5.9.2-.3-3.4 0-3.4 0zm27.3 21.9l-13.5 1.2-3.9 7.7 10.5.8 6.9-9.7zm-2.6 18.1l6.9 4.9-.5-6-10.7-7.3 4.3 8.4zm-7.6 0c-.3-.6-8-2.5-8-2.5l-2.9 24.4 2.1 4.3c1 .7 1.9 1.4 2.8 2.1-.1-.1 7.5-8.2 7.5-8.2l6.9.3.5-2.9-8.9-17.5zm35-25.8s-.7 30.7-1 30.1-3.2-22.6-2.9-22.9 3.9-7.2 3.9-7.2zm-30.3 61.5l-.7 4.5s7.9 9.3 8.1 8.9 15.6-6.7 15.6-6.7l-15.4 12.8c.5-.3 17-8.2 17.2-8.7s6.1-8 6.1-8.3-17 4.3-16.4 4.1-7.1.9-7.1.9l-6.4-3.9-1-3.6z" class="st2"/><path d="M425.2 372.8l20.3-1.5-26.5 16.4s6.1-.3 7.1-.9 25.5-18 25.5-18l-23.7 2.2-2.7 1.8z" class="st2"/><path d="M447.1 235.1L474 251l19.2 7.1 10.7 2.9 14.7 12 8.5 21.2 10.7 50.3-4.7 27.5 7.6 53s.2 4.5 0 4.3 4.1 3.1 4.1 3.1l-2.4 6.7-.3 8.1 14.1 18.6-1.5 41.3-.6 30.2-13.2 10.3-18.6 5.8c-.6.2-22.1-19.8-22.1-19.8l-29.1-17-13.3-18.6-6.2-21s-3.5-18.2-3.3-18.8-10.6 24.3-10.6 24.3l-2 20.9h15.9l2.9 3.9 5.4-1.8 7.4 9.1s3.8 20.2 2.7 20 4.2 2.4 4.2 2.4 1.6 16.2 1.8 16.4-6.2 3.3-6.2 3.3l4.5 14.8-5.1 4.1 8.5 57.8-3.4 6s-15.2 6.6-15.5 5.7 13.9 42.6 13.9 41.6-29 8.6-29 8.6l-10.1-25.6-13.3-18.6-29.4-31.9-16.4-66.3 6.3-63.4 22.1-10.1 5.5-56.7s47.3-66.3 48-67.6 0-9.1 0-10.6-4.1-2.5-4.1-2.5l5.6-3.3c.4-.2-2.3-46.5-2.3-46.5l-8.5-57.1z"/><path d="M415.8 398l-2-1.2-7.9 14.8-1.2 8.2h4.9l25.8-14.1s12.1-14.3 12-14.9 9.1-15.5 9-16-2.7-2.8-2.7-2.8-10.2 17.4-10.2 17-10.4 12.3-10.4 12.3-10.8 9.8-11.2 9.7-12.3 6.4-12.3 6.4l-1.2-1.6c-.3-.3.5-4.9.5-4.9l6.9-12.9z" class="st9"/><path d="M448 342s-1.3 18.2-1.3 17.7 3.3 3.6 3.3 3.6v-5.9c0-.9-2-15.4-2-15.4z" class="st2"/><path d="M456.4 374.8l2.4-9.6c-.3-1.7-.7-3.4-1.2-5.1l-5.3-.9 1.2 3.1h2.5v3.6l-2.4 6.1 2.8 2.8z" class="st6"/><path d="M467.2 376.9l-9.2-15.7.8 4-2.4 9.6-9 16-12 14.9-25.8 14.1s22.8-7.3 22.8-7.8 16.1-9.7 16.4-9.8 10-16.1 10-16.1l-7.6 18.2 9.7-13.8s-7.6 17.8-7.3 17.6 9.7-14.4 9.7-14.4-8.1 17.4-7.7 17.2 10-13.6 10-13.6l-7.6 17.2c.1-.3 10.5-15.3 10.5-15.3l-7.9 16.4s10.9-8.4 11-8.8 8.5-21.5 8.5-21.7v-5.8s-6.7-2.3-6.6-2.7-5-6.9-5-6.9l-2.4.9 1.1 6.3z" class="st13"/><path d="M437.6 439.1l6.3-3.3 1-2.8-7.3 6.1zm-4.7-2.2l1.3 1 8.3-6.6-1.3-.7-8.3 6.3zm-4-1.9l2.1 1.1 7.8-6.7-1.2-.6-8.7 6.2zm-3.8-2.6l1.6 1.5 9-6.9-1.5-.6-9.1 6zm-3.3-2.3l1.7 1.2 8.7-6.4c.3-.1-1.2-.5-1.2-.5l-9.2 5.7zm-3.1-2.3l1.4 1.5 8.1-6.1-1.5-.5-8 5.1zm-3.3-2.3l1.9 1.1c-.2-.1 3.7-3.2 3.7-3.2h-2l-3.6 2.1zm-3.4-2.8l1.8 1.7 2.4-1.7H412z" class="st8"/><path d="M469.7 273c.8-.2 6.9 10.7 6.9 10.7s-3.5-.7-4.1-1.2-5-6.2-5-6.2l-8.6 3-2.2-3 13-3.3zm32.3 23.1c0 .8 2.2 13.3 2.2 13.3L502 312c.2 0-2.2-2.7-2-3.2s0-8.7 0-8.7l2-4zm-38.3 4.7s8.4 19.8 8.8 18.6-3.2-15-3.2-15.4-5.6-3.2-5.6-3.2zm-2.6 61.6c.6-1.1 7-9.7 7-9.7l-4.4 14.8-2.6-5.1zm11.4-.1c-.3-.7 11.2-7.6 11.2-7.6l6.2-2-4.7-2.7-2-1.2s4.4-14.8 4.8-16.3 8.6-15.3 8.6-15.3l-4.4 20.5s.3 15.1.5 15 8.5 1.5 8.5 1.5l14.4-4.1-10.1 5.8 8.2 6.4-12.9-4.6-8.4-.7s2 16.5 1.6 15-6-12.8-6-12.8l-15.5 3.1zm25.8 10.5l-3.6 3.6 9.5 11.3-5.9-14.9zm17.3 56.5c.5-2.1 5.9-28.4 5.9-28.4s9.2 34.2 9.2 33-15 1.1-15.1.3c-.1-1.6-.1-3.3 0-4.9z" class="st13"/><path d="M540.7 435.1l1.5-2.4-7.3-2.4h-22l4.1 2.4c-.3-.1 16.1-.8 16.1-.8l7.6 3.2zm1.4 12.1s-.9 9.9-1 9.4-9.7-13.8-9.8-14.7-7-4.2-7-4.2l17.9 23.9 1.1-12.8-1.2-1.6z" class="st6"/><path d="M440.9 441.5l7.4 16.7 10.3 28.3s8.9-1.2 8.9-1.7-12.8-15.8-12.8-16.2-3.2-10.9-3.2-10.9l21.6 26.6s12.6-4.1 12.1-4.5-13.1-30.1-13.1-30.1l8-42.6-4-4.7-6.2 12.6-14.4 16.9-14.6 9.6z" class="st3"/><path d="M498.8 472.7c-.3-.7-23-42.6-23-42.6l-7.9 22 12.2 29.8s9.9-3.5 10.2-3.9 8.5-5.3 8.5-5.3z" class="st4"/><path d="M478.1 399.7c.3.2 26.8 30.4 26.8 30.4l18.2 10.5-1.6 8.4-8.6 10.9-14.1 12.8-23-42.6 2.3-30.4z" class="st5"/><path d="M494.9 428.8l6.3 10.3 11.7 2.8 8.6 7.1 1.6-8.4-28.2-11.8z" class="st4"/><path d="M512.9 459.9c.9-.2 8.6-10.9 8.6-10.9l-15.7-12.9-4.6 3 11.7 20.8z" class="st3"/><path d="M458.6 488.1h9.3l2.5 14 28.4 20.8s8.1 13.7 8.2 13.2-28.6-20.6-28.6-20.6l-13-13.2-6.8-14.2zm14.5-3.8l18 23.4s-13.6-22.2-13.2-22.6 15.7-6.1 15.7-6.1 23.9 33.6 24.1 33.1-18.9-36.3-18.9-36.3l20.6-21.6s4.3 4.1 3.7 3.7-2.2 7.3-2.2 7.3 22.1 26.2 22.4 25.5-2.3-22.6-2.4-23.1-19.4-18.6-19.4-18.6l-8.6 10.9-14.1 12.8-8.5 5.3-5.1 1.8-5.1 2.1-7 2.4z" class="st13"/><path d="M427.1 511.1v3.9c0-.5-26.8 3-26.8 3l24.4-8 2.4 1.1z" class="st8"/><path d="M425.3 520v3.2s-19.5 9.1-19.5 8.6v8.7l-3.7-1v-8s2.6-5.5 2.7-5.9 20.5-5.6 20.5-5.6z" class="st14"/><path d="M409.9 538.9l-4.1 1.6v-8.7l5-2-.9 9.1zm26-26.8v16.5h3.2v-11.8l7.7-1.6h12.6l2.9 2.8 4.5 51.1h4.5l-3.4-13.1-3.3-40.2-3.4-4.7-25.3 1z" class="st8"/><path d="M436.4 507.2c.3-.1 14.3.8 14.2.6s-7.1 1.9-7.1 1.9h-7.9l.8-2.5z" class="st11"/><path d="M443.7 505.4c1.6-.1 3.3-.1 4.9 0l2 2.4-14.2-.6 7.3-1.8zm-5.5 6.6l3 2s19.5 0 19.6-.6.4-4.1 0-4.3-12.3.6-12.3.6l-10.3 2.3zm-.6 23.7c.4-.4 5.5-3.3 5.5-3.3l7.5 43.7s-5.9 3.5-5.9 2.6-.6-3.7-1.5-8.7c-2-12.6-5.6-34.3-5.6-34.3z" class="st14"/><path d="M440.7 577c0-.3 2.4-7.9 2.4-7.9l1.6 9.6-4-1.7z" class="st9"/><path d="M437.6 535.7l-5.5-1.9s4.4-3.1 4.8-2.8 6.2 1.4 6.2 1.4l-5.5 3.3z" class="st15"/><path d="M428.5 537.2l-2.6 2.9 4.6.4s4.1 29.1 4.1 28.6-2.2.5-2.5 0-4.4-27.5-4.4-27.5l-56.8 3.8-6.5 17.8 16 13.6s55.5-4.7 55.2-5.3-.3 4-.3 4h3.5s1.4-2.6 1.3-3.3-5.2-34.5-5.2-35-6.4 0-6.4 0z" class="st9"/><path d="M336.5 550.6c0-.4 34.4-5.2 34.4-5.2l-6.5 17.8 16 13.6s-39.7 6.3-39.8 5.6l-4.1-31.8z" class="st14"/><path d="M336.5 550.6l-7.5-4s-40.5 7.6-39.7 7.6-2.8 6-2.8 6l6 32s6.7 6.7 7 6.2 36.4-7.7 36.4-8.1 4.7-7.9 4.7-7.9l-4.1-31.8z" class="st16"/><path d="M328.4 555.5c.3-.7 8.1-4.9 8.1-4.9l4.1 31.8s-2.4 4.9-2.5 4.5-6.6-5-6.7-5.4-3-26-3-26zm-45.9 4.7s5.2 32.1 5.6 31.8 8.1.5 8 0-5.9-31.8-5.9-31.8h-7.7z" class="st17"/><path d="M296.1 592s3.1 2.4 3.1 2 35.6-7.3 35.3-7.7 1.3-1.3 1.3-1.3l2.3 1.9-2.2 3.4-36.4 8.1-7-6.2 3.6-.2z" class="st17"/><path d="M282.5 560.2l-50.2 13.9s23.3 8.5 23.5 8.4l-20.6 21.6 52.9-12.1-5.6-31.8z" class="st14"/><path d="M199.6 583.1s3.8 31 3.8 30.4 31.8-9.4 31.8-9.4l20.6-21.6-23.5-8.4-32.7 9z" class="st9"/><path d="M206.1 271.4c0-.5 24.3-47.2 24.3-47.2l13-17.2 23.8-6.9-23.4 32.1s-20.1 42.7-20.1 42-6.8-8.8-6.8-8.8l-10.8 6z" class="st6"/><path d="M195.7 299.1c0-.6 10.4-27.7 10.4-27.7l10.8-6 6.8 8.8-9.2 22.7-18.8 2.2z" class="st15"/><path d="M178.5 604.4c0-.5-1.4-26.2-1.4-26.2l8.5 6.2 1.2 21.4 2.5 11.2s-3.5 5.6-3.6 5.3-3.4-12.9-3.3-13.1-3.9-4.8-3.9-4.8z" class="st8"/><path d="M199.7 307.1c0-.7-4-8-4-8l18.8-2.2 1.3 9.1-16.1 1.1z" class="st9"/><path d="M267.2 200.1l8.9 3-12.6 5.9-16.8 28.2-13 23.7-10 22.8-1.3 3v5.2h-3.5l-3.1 14.1-1.3-9.1 9.2-22.7 20.1-42 23.4-32.1z" class="st9"/><path d="M259 241.6c.4-.4 1.6-9.8 1.4-10.5s-6.7-5.6-6.7-5.6l-3.8 6.4 9.1 9.7z" class="st8"/><path d="M250.7 203.3c0-.4-34.7-151.1-34.7-151.1l-13.8-1.9s-10.5 7.3-10.3 8 36.2 156.8 36.4 156.3 14.3 6 14.3 6l8.1-17.3z" class="st11"/><path d="M204.5 55.2l-4.6 4.2s33.3 155.3 33.5 155.2h-5.1L195.4 59.4l4.9-5.2 4.2 1z" class="st12"/><path d="M213.2 56.2l-5.9 6 4.7 3.7 4.7 28.9s3.9 1.9 3.7 0-5.9-31.6-5.9-31.6l-3-2.6 3-2.1-1.3-2.3z"/><path d="M238.4 206l2.3-5.1L213 64l-5.7-1.8L238.4 206z" class="st12"/><path d="M175.1 568.8s1 11.6 1.3 11.4 4.6 5.6 4.6 5.6l5.2-1.5 3.5-1.6c0-.2-4.4-14.8-4.4-14.8s-5.7 2.2-5.7 2-4.5-1.1-4.5-1.1z" class="st18"/><path d="M230.3 138l3.1 1.7 3.3 18.9s-3.4-1.3-3.2-1.7-3.2-18.9-3.2-18.9zm4.9 23.5l2.9 1.3 3.6 18.3-3.3-2.5-3.2-17.1zm4.7 21.7l2.8 2 2.6 13.2-3.6-1.7-1.8-13.5zm-10.5 1.6c1 .4 1.9.9 2.8 1.5l3.8 16.8-3.3-2.6-3.3-15.7zm-4.2-17.4c0 .4 2.8 13.7 2.8 13.7l3.5 2.1-3.1-14.8-3.2-1zm-6.2-28.6l4.6 19.8s3.5 2 3.3 1.5-3.8-18.9-3.9-19.2c-1.3-.8-2.6-1.5-4-2.1zm5-29.5c.8.5 2.9 15.2 2.9 15.2l4.3 2.9-4.3-18.1H224z"/><path d="M161.3 340.7v13.5s6.9 21.2 7.1 20.3-2.5-19.7-2.5-19.7 4.1 13.5 4.3 12.9-2.7-19.2-2.7-19.2 5.2 14.2 5.2 13.3-2.5-18.7-2.5-18.7 5.4 15 5.4 14.5-1-14.2-1-14.2l4.8 14.2c0-.1-1.5-12.4-1.5-12.4s5.2 13.2 5.2 12.4v-12.4s3.5 16.4 3.8 15.8 0-12 0-12 5.8 18.2 5 17.4-2.1-15.8-2.1-15.8 6.2 23.7 5.9 22.9-2.2-15.9-2.2-15.9l9.8 36 23.7 13.7 3.7-17.4-.8-10.8-3.1 1.8-.7 15.1s-3.1 6.2-3.3 5.3-17.1-11.4-17.1-11.4l-12-60.3-32.4 11.1z" class="st11"/><path d="M203.9 329.6v-2.9l-6.9-1.8-35.7 15.8v9.7l2.7 2.5 27.6-14 14.1 51-12-60.3 4.4-2.5 5.8 2.5z" class="st9"/><path d="M163.6 343.1s1.4 6.3 1.2 5.7 26.8-11.5 27-12.1 0-6.4 0-6.4l-28.2 12.8z" class="st6"/><path d="M197.9 309.7c.2.6-.9 15.2-.9 15.2l3.4.9v-13l13.1-1.5 2.3-5.3-16.1 1.1-1.8 2.6z" class="st11"/><path d="M203.9 326.7l9.6-15.3-13.1 1.4v13l3.5.9z" class="st15"/><path d="M289 239.1l5.8-6.9 3.2 19.3-9 4.1-27.7-11.3 2.1-12.1 25.6 6.9z" class="st3"/><path d="M264.9 382.2s3.3-2.9 3.5-3.3.4-40 1-40.8.5-6.9.7-7.3 4.4-1.1 4.5-1.5-.6-7.1-.6-7.1 9-2.2 9.1-2.5l5.4-9.9 9.2-7.7 3.4-12.2-12.1-15.1-2.8-13.8-5.5-2.2 4.2-4.8-1.9-10.1-11.9-4.8-2.7 5.2s-7.8 22-7.1 18.7-14.8.6-14.8.6-12.8 7.6-12.8 7.7-11.3 20.6-11.3 20.6L203 339.5l10.5 33.2 51.4 9.5z"/><path d="M263.6 262.8l2.3.8 7.3-20.5-9.6 19.7z" class="st8"/><path d="M244 267.4l3.5-2 5.6 2.4 26.1-4 1.7 2.1 3.1 3.9v7.3l-6.8-5.7-27.3-1-5.9-3z" class="st9"/><path d="M249.9 270.4l18.5-1.8 12.5-2.7 3.1 3.9v7.3l-6.8-5.7-27.3-1z" class="st2"/><path d="M234.9 272.7l5.6-2.9 8.8 3.8 10.7-.7 16.1.1.5 8.3-41.7-8.6z" class="st9"/><path d="M232.5 278.5l2.4-5.8 18.2 3.8 23.5 4.8 4.2 27.7s-6-25.2-6-25.5.9 26.5.9 26.5l3.7 1.3s-4.4 2.5-5.1 2.1-1-26-1.1-26.3-12.6-4.2-12.6-4.2l-17.8-.7-10.3-3.7z" class="st19"/><path d="M229.1 279.8l-2.1 3.8 7.9.8 6.1 3.5 25.9 9.8s6-5.7 5.8-6l-1.3-2.3-12.8-4.4H242l-8.6-5-4.3-.2z" class="st9"/><path d="M227 283.6s-4.4 7.9-4.1 7.5 5.5-1.9 5.5-1.9l5.6.4 5.1 4.5s28.4 12 28.3 11.5-.5-7.9-.5-7.9l-25.2-8.2-6.8-5.1-7.9-.8z" class="st19"/><path d="M220.6 296.4l7.3-5.5 8 4.6 26.5 11.6-5.1 5.3-10.1-1.7-17.5-10.9-3.2-2.9-5.9-.5z" class="st9"/><path d="M229.7 299.8l1 12.6-5 1.4-2.9 3.4-5.8-.7v-5.1l3.6-15 5.9.5 3.2 2.9z" class="st2"/><path d="M198.8 344.3l3.8 18.6 7.5 17.5 7.4 9.5c.9-.2 1.7-.6 2.5-1 .1-.3 2-10.3 2-10.3l-5 5.4-6.3-8.3-6.7-13.1.6-6.1 6.9 8.1 12.3 12.8 8.7-1.2 6.5-5.3v-3.8l-8.3 7.2h-6.9l-12-12.2-.6-8.5 6.8 8 7.4.4 12.3-11.4-4-25.7s-5 5.7-5 5.4-.2-11.9-.2-11.9l-2.8-4.6-2.9 3.4-5.8-.7.5 15.2-9.2 19.6s1.2-21.7 1.4-22.1l5.7-11.4-7.9 10.7-5.2 12.6s1.6 8.8 1.4 8.6-2.7-7.1-2.7-7.1l-2.2 1.7z" class="st8"/><path d="M217 316.5l5.8.7 2.9-3.4 5-1.4-1-12.6-3.2-2.9-5.9-.5-3.6 15v5.1z" class="st8"/><path d="M210.9 349.4c.1-.3.6-14.9.8-15.5s5.3-10.3 5.3-10.3v-7.1l5.8.7 2.9-3.4 2.8 4.6.2 11.9 5-5.4 3.8 24.2s-8.8 2.1-8.8 1.7-5.6-7.8-5.6-7.8l-2.5-2.1-4.8 2.2-.9 5.7-4 .6zm-6.9-6.8c.1-1 .2-2.1.4-3.1l3.6-2.1.3 13.9 3.1 5.2.4 5.6-1.3 1.4-6.5-20.9zm-5 2.8l1.4-.8 2.6 8.1 1.1 9.9-5.1-17.2z" class="st9"/><path d="M256.6 313.8l-3 3.4 4.2 1.8-1.2 14.1 4.7-8.9c.2-.4 1.8-7 1.8-7l-6.5-3.4zm-6.8 8.9l-1 5.6-3.5-1.1 4.5-4.5zm-7.1 13.8c.1.4.6 3 .6 3s12.8 2.7 13.3 2.2 3.8-.3 4-1 2.5-9.1 2.5-9.1-5.7 7.1-5.7 6.7-12.3-.9-12.3-.9l-2.4-.9zm1.4 11.8c.4-.1-2.6 16.7-2.6 16.7l10.5-7.1s8.3-6.9 8.4-7.4l2.7-7.8-3.5 3.1-4.7.3v6.6l-9.6 6-1.2-10.4z" class="st19"/><path d="M182.7 403.9c.5-.1 13.3 14 13.3 14s3.4-.9 2.8-1.6-16.1-12.4-16.1-12.4zm17.6 10.3c0-.4 1.8-1.2 1.8-1.2l-15.6-15.9 13.8 17.1zm4.9-2.1c-.4-.8 1.9-1.9 1.9-1.9L196 398.8l9.2 13.3zm5-2.9l4.5-1.9-7.6-5.3 3.8 5.3-7.9-5.8 7.2 7.7z" class="st9"/><path d="M203 427.5l7.5 30.9 20.2 35.6v2.9s-7.4-2.7-7.4-3.6-10.8-27-10.8-27l1.1 14.4 12 32 2.1 7.9 1.5 4.2-14.5-6.1 13 9.3 13.2 4.5-26.2-6.5 27.3 13.5-27.3-9.9 16 9.9v20.7s18.7 7 18.5 6.1-1.6-18.7-1.6-18.7 13.2 3.8 12.6 2.5-2-16.9-2-16.9l14 2.4-15.1-6.7s-1.8-11.3-2.5-12-15.4-15.9-15.6-16.6-6.7-30.2-6.7-30.2l-20-16.7-9.3-25.9z" class="st8"/><path d="M217.9 460.3c.5.4 7.5 19.7 7.4 19s9.1 9.5 10 9.2-4.6-17.1-4.6-17.1l-12.8-11.1zm34.4 59.1s4.4 11.5 3.5 11-21.8-5.7-22.2-7-16.7-38.8-16.7-39.7v-5.4l6.4 15 5.4 11.8 23.6 14.3z" class="st9"/><path d="M258.2 533.2l-1.5 2.7-33.3-10.9s18.1 2.9 18.6 3.2 16.2 5 16.2 5zm-27.5 9.1l17.1 7.9s.4 4.2.3 3.6-17.4-7.9-17.4-7.9v-3.6z" class="st6"/><path d="M193.3 535.9c.5 0 4.5 2.5 4.5 2.5l14-1.3v-4.3l-18.5 3.1zm-6.5 1.7c.5-.2 11.9 5.8 12.8 5.8s3.8 6.3 3.8 6.3l-.4 10.5s3-6.6 3-7.3v-7.8l-4.8-2.8-11.7-6.7-2.7 2z" class="st15"/><path d="M186.8 545.4c0-.8-.1-5 0-5.2l2.7-1.5-2.7-1.1-1.8.8s-.6 10.1-.5 9.5c.7-.9 1.4-1.8 2.3-2.5z" class="st8"/><path d="M167.3 560.5c.1-.2 0-5.4 0-5.4l6.9-3.8 16.4-2.7 3.1 8.7.9 11.5-2 .3-3.1-17.6-14.2 1.8-6.3 2.9-1.7 4.3z" class="st15"/><path d="M193 575.7c0-.5-.4-6.6-.4-6.6l2-.3.6 6.4-2.2.5zm-29 7.3c.1.2.8 13.1.8 13.1l-2.3 1.3c-.6-1.2-1.1-2.4-1.5-3.6-.1-.5 0-6.6 0-6.6l3-4.2zm-7.6 13.4l-1 2.7 2.5 2.3h4s2.4 1.3 2.9.9 5.8-4.9 5.8-4.9v5l-2.7 5.1-4.4-4.2s-6.9.6-7 .3c-1-1.2-2.1-2.3-3.3-3.3l.3-2.9 2.9-1z" class="st8"/><path d="M167.3 603.8l-2.5-1.5s3.6-5.4 3.6-5.9-.6-33.3-.6-33.3l2.8 13.8v20.5l-.9 4.6-2.4 1.8z" class="st15"/><path d="M172.5 570.7c.1.2 3.7 32.2 3.9 33.5s.2.3.1 1.4.1 1.3 0 1.1-2.2 5.7-2.4 6.2-1.6-42.2-1.6-42.2z" class="st8"/><path d="M173.9 647.5c0-.7 2.7-6.5 2.7-6.5l-1.5-40.1-1 12-.2 34.6z" class="st15"/><path d="M164.8 609.5s2.6 50.8 2.5 50.8 5.7-9.8 5.7-9.8l-2.4-27.6-1.7-5.4s-.7 13.5-.7 13.2-3.4-21.2-3.4-21.2zm6.9 48.2v2.6l4.7-2.6 23.3-1.5-28 1.5zm-6.3 12.4c.3-.3 5.3-2.2 6.3-2.6s19.2-3.5 19.2-3.5l-18.8 1.6-6.7 4.5z" class="st8"/><path d="M214.5 225.5l-7.6 6.7-9.9 3.7 6 1.3 12.8-2.4 4.8 4.3-2.6 3.7-7.1-1.2-6.9 6.7-13.1 10.3s-1.9 21.5-1.7 21.2-3.4-8.6-3.4-10 2.5-22 2.5-22l.7-3.7-4.7 5.6 1.7-5.3-8.8 8.7 4.1-9.3-10.1 11.5 5.2-10.9s-10.2 10.7-9.9 10.1l6.4-11.3-9.3 9.4 3.4-8.6-8.3 7.6c.3-.4 4.9-8.7 4.9-8.7l-12.4 13.5-8.1 16.3-3.8 13.9v17.3l9.9.8-9.9 2.4 14.5 4.2-18 2.5-11.9 19.5-8.2 16.5-1.6 15.7-4.8 3.7-9.5 3.3 1.2-8.9 11.3-21.7 8.6-14.7 11.9-17v-3.1h-3.3l1.4-13.8 3.9-9.7 17.4-37.5s13.5-10.1 13.6-10.5 48.7-10.1 48.7-10.1z" class="st11"/><path d="M222.2 224.2l-15.3 8-7.9-4-9.3 5.3 9.3 6.9-6 5.2-6.5-2.5-3.8-5.9-19.1 1.9-13.2 14.3-9.9 20.8-5.2 22.2 2.6 11.8-5.7-9.7 2.6-14.9s11.3-28.8 11.6-30.5 5.8-9.2 5.8-9.2l11.4-9.9 19.9-7.7 24.4-4.3 14.3 2.2z" class="st6"/><path d="M203.5 239.1h2.9s-15.7 18.4-16.4 18.3 0-2.9 0-2.9l13.5-15.4z"/><path d="M210.9 237.2l4.1 1.9-4.1 2.5-6.9 6.7-4.7-.9 11.6-10.2zM102 367.3s3.8 1.4 4.1 1.2 2.4-1.8 2.4-2.6 2-13.1 2.3-13.8 11.5-23.5 11.8-24 14-16.4 14-16.4l-3.8-1.5-11.9 17-12.7 26.4-6.2 13.7zm1.1 7v5L91.9 388l-6 11.3-3.6 12.1 9.2-1.7s12.5-8.7 12.8-9.1.7 2.7.7 2.7l-33.2 36.8s-4.8 10.7-5.2 10.3c-.7-1.4-1.3-2.8-1.8-4.3 0 0 16.7-37.2 16.8-37.7s5.2-18.5 5.2-18.5l9.5-11 6.8-4.6z" class="st6"/><path d="M103.9 382l-.8-2.7-9.8 5.4-6.6 8.6-6.1 21.1-14 36L81 474.1s16.2 4.7 16.2 3.9 51.9-31.5 51.9-31.5l-40.6 19.6S91 469.3 91 468.8s-6.1-1.1-6.1-1.1v-2.1l30.7-17.6 12.3-12.8 7.8-1.5-8.2-7 1.6 5-6.3-3 2.8 5.9-6.9-4.8s3.6 7.7 3.2 7.3-7.8-4.5-7.8-4.5l2.9 7.1-6.1-4.5 2.1 6.8-5.2-4 2.2 7.8-6.9-5.2s1.7 8.5 1.9 8.1-5.2-5.4-5.2-5.4 2.2 8.2 2.2 7.7-5.8-5.1-5.8-5.1l2.3 7.2L92 447l1.6 8.6-3.4-4.3s-.2 5.8-.1 5.3-2.6 1.3-2.6 1.3l-2.6-2.6-6 2.2v-2.7h-1.8l-6.1-7.3 3.4-8.3 34.1-38.3-.7-3.2-3.5 2.9-18.4 8.4 3.2-12 5.7-9 9.1-6z" class="st8"/><path d="M105.7 373.6l.9 10.1 1.2 14 .7 3.2 10.8 15.3 8.2 10.5 8.2 7s17.7 7.7 17.7 7.3 14.8-9.5 15-10 15.1-16.8 15.1-16.8l-12.1-19.7-9.6-22-1.6-16.1-54.5 17.2z" class="st3"/><path d="M131.3 380.5l-24.7 3.2-.9-10.1 49-14.6 1.1 48.3-20.1 26.4-8.2-7-19-25.8 22.8-20.4z" class="st4"/><path d="M108.3 374.3v3.3l9.2-1.6 34.2-12.2-39.5 9.4-3.9 1.1zm45.3-5.8v19.9L128 410l-9.7 4.2-7.5-10.3 42.8-35.4z" class="st5"/><path d="M161.3 413.6l.9 7.3-11.6 6.7c.5-.3 10.7-14 10.7-14zm-17.6 23.6c-.1-.1 20.1-11.8 20.1-11.8l-11.3 11.8-3.4 2.2-5.4-2.2z" class="st4"/><path d="M280.3 455.1c-.4-.7-33.9-35.3-33.9-35.3l38.2-11.7s25.5-1.1 26.1-2 14.4 0 14.4 0l4.3 5.6-3.7 2.2c.1-.1-6.3-4-6.3-4s-8 8.1-7.5 8.1 7.4 19.2 7.4 19.2l-22 13-8.1 4.9h-8.9z" class="st5"/><path d="M289.3 427.5c-.3-1-7.4-12.3-7.1-13.4s23.8-7.3 23.8-7.3l5.8 6-.8 9.6 8.3 14.8s-4.1 2.7-3.8 2.3-8.6-15.6-8.6-15.6l-17.6 3.6z" class="st6"/><path d="M358.4 463.3c-1.4-.9-17.8-5.3-17.8-5.3h-25.2l-3.6 7.2h5.9l36.8.9 3.9-2.8zm-70.5 10.8l9.4 4.7 8.7 7.2 8.2 16 14.2-1.9-4.6-17.4 3.4-4.4 2.2-1.5-1-1.9-7.2 1.5-6.9-1.1-4.4-5.2-22 4zm42.2-.2c.4-.4 9.2 1.8 9.2 1.8s11.4-1.5 11.4-1.8 5-2.1 5-2.5c-.3-.9-.7-1.7-1.2-2.5l-11.6 2.6-12.8 2.4zM290 527.7c-.5-1.2-17.7-32.4-17.7-32.4l2.6-3.5s17.4 1 17.5.6 20.4 16.1 20.4 16.1l-2.8 5.6 6.9.9 12.5 2.4 3.3 2.9s-18.1-2-18.4-3-14.6-.3-14.8-.9c-1.7-2-3.6-3.9-5.6-5.6-.4-.1-4.6 4.9-4.6 4.9v7.7c0-.5 13.2 5.4 13.2 5.4l21.9 4.8-1 2.3-47.6-7 14.2-1.2zm96.5-40.8l-5.7 2.6s-1 10.1-.9 9.4-5.4-1.7-5.4-1.7l-8.1 6.1-10.7 2.7-5.1 6.9-6.8 2.1 2.4-5.5s11.1-7.1 11.1-7.5 18.8-15.1 18.8-15.1h10.4zm-50 34.7l5.1-4.2 36.5-.5-31.2 4.3-10.4.4z" class="st5"/><path d="M341.7 527l17.5 10.8 5.2 1.4 11.4 1.3L377 528s-10.5-.1-10.6-1-4.4-4-4.4-4l-20.3 4z" class="st4"/><path d="M299.9 549.5l-3.8-6.9 22.3.5s1.5 8.3 1.3 7.5-19.8-1.1-19.8-1.1z" class="st5"/><path d="M132.7 737.8l-18 60.3h8.6c30.6-.2 132.3-1 132.5-2.1s35.6-63.1 34.9-64.8 15.3-20.3 15.3-20.3l22.4 4.3 24.7 34.1s20.3 51.9 19 51.9 63.2 0 63.8-1.8 14.7-82.9 14.7-82.9l-6.9-21.2-10.1-25.6-13.3-18.6-29.4-31.9-10.5-42.4-39.8 5.6-4.7 7.9-36.4 8.1-3.4-6.4h-8l-14.8 3.4-1 6.5-19.5 35.6-43 31.3-45.9 51.4-20.6 15.1-10.6 2.5z" class="st3"/><path d="M263.9 708.1c-.2-1.4-20.4 38.6-20.4 38.6v17l2.3 32.9-122.5 1.5 20-62.8 20.6-15.1 45.9-51.4 22.5-15.2h18.3l-11.4-6.1 9.5-7 26.8 30.9s10.7 19.8 9.7 19.1-16.8-14.9-16.8-14.9l-14.9-15.3 4.2 15.3 8.4 16.2-2.2 16.3z" class="st4"/><path d="M162.9 728.4l7.7 19s.5 14.6 0 13.6-14.8 37.1-14.8 37.1h22.4l14.8-16.7 2.9-6.5s28.8-22 29.2-22.9 41-60.2 41-60.2l-5.9-9.7-18.3-18.1h12.6l-1-3.7-12.3-6.7h-8.9l-22.5 15.2-45.9 51.4-1 8.2z" class="st20"/><path d="M168.9 733.8l9.3 15.2-3 13-19.4 36.1 9.6-.3s20.5-35.1 20.3-35.8 10.1-2.8 10.1-2.8 6.5 1.7 6.5 1.2 19-14.8 19-14.8l30.7-48.7 6.3-11.3c1.9-3.5-21.3-18.6-21.3-18.6l4.9-3h9.6c-.3 0-3.1-3.7-3.1-3.7l-8.3-4.1-10.2 2 2.4 5.8h-8.9l-16.3 11.4-32.6 43.9-5.6 14.5z" class="st21"/><path d="M252.8 637.5l21.9 10 5 8.7-28.2-12.4-2.8-3.3 4.1-3z" class="st20"/><path d="M260.2 624.2s33.1-20 34-20.4 43.9-7.4 43.9-7.4 15.8-4.2 16.8-4.2h30.6l8.1 29.8-16.5 5.1 9.4 5.4 15.8-1 5.5 6-10.5 3 5 2.9c-.7-.4 8.3-2.9 8.3-2.9l9.7 10.6s-44.4 31.1-44.4 30.2-11.5 2.8-11.5 2.8 14-18 14.3-18.6 14.2-16.1 14.2-16.1l-12.5 2.8-16 23.5-31.5-11.7-38.7 20.1-14.5-27.9-5-8.7s-5.5-14.2-5.5-15.1-12-2.9-12-2.9l3-5.3z" class="st4"/><path d="M282.6 616.6l17.2-13.9 34.7-4.3-1.3 55.2v6.7s-3.1 3.3-4.8 1.8-19.8-21.6-19.8-21.6h-16.1l-9.9-23.9zm61.7 15.2c.4 1.2-7.8 26.4-7.8 26.4l6 5.8 16.6 9.5s6.6-3.1 6.6-3.4 17.3-25.7 17.3-25.7l2.2 3.1 12.1-7 10.5-3-5.5-6-15.8 1s-15 18.8-14.4 17.8-7.7-12.8-7.7-12.8l-13.2-6-6.9.3z" class="st20"/><path d="M386.1 801.1c-.3-1.3-9.3-28.5-9.3-28.5V750l21.7-29.1 15.5-58.4 10.2-5.9 9.4 13.1 10.1 25.6 6.9 21.2 39.2 33.2 11.4 48.2s-114.3 6-115.1 3.2z" class="st4"/><path d="M472.7 686.7l17.1 63-39.2-33.2-6.9-21.2 29-8.6z"/><path d="M420.3 666.7c.2 0 8.2 9.6 8.2 9.6l23.5 49.5 4.4 35-5.8 26.3-4.8 14.8s-43.7.8-43.5 0-6.3-37.4-6.3-37.4-12.8-23.1-11.9-24.3 1.7-7.9 2.3-11 18.6-43.3 18.9-45.1 3.7-12.1 4-13 11-4.4 11-4.4zm-36.3 0c-.1-1.3 28.4-22.8 28.4-22.8h-6.2l-27.5 21.6 5.3 1.2zm-1.9 6.8c.4-.9 11.1-5.2 12-6.8s22-17 21.3-17.3-14.6 7.2-14.6 7.2l-18.7 16.9z" class="st20"/><path d="M462.5 572.5l8.8 58-5.9 6.2-11.8-3.4 2.8 4.8 6 2.1s10.6-3.1 10.7-4.1 2.4-5.6 2.4-5.6l-11-61.4-2 3.4zm6.1-32s1.6 12.8 1.8 12.1 3-.6 2.7-1-1.8-11.5-1.8-11.5l-2.7.4zm-66.3 39.8l-3.5 24.3 7.8 10.6v19s8.4 10.7 8.8 9.7.4-36.8 0-37.6-4.6-4.1-4.6-4.1l26.8-12.4-20.9 2.4-10.9-13.3-3.5 1.4z" class="st8"/><path d="M404.1 604.6h3.7v32.9h5.9c.1 0-2.9-39.7-2.9-40.3s6.3-1.9 6.3-1.9l11-3.1s-7.7-1.6-7.9-2.2-4.8-7.5-4.8-7.5l-3.8-3.8-5.8.2-1.7 25.7z" class="st14"/><path d="M183.5 300.9l3 18.8 7.2 9.9-15.9-9.7 7 10.4-19.5-11.3 8.3-1.8-9.8-5.7 19.7 4.4v-15z" class="st8"/><path d="M331.3 117.6l5.4-5.2 11.9 12.5c.2.2-3.9 9.2-3.9 9.2l-9-15.3-4.4-1.2zM451.6 248l2.7 6.4 20.3 9.5-4.6 4.2c.5-.5 13.4 0 13.4 0l-1.5-5.1 15.6 4.2 13.5 14.5 10.5 26.6 2.9 14.9v14.5l3.7-11.3-3.7-25.6-10.7-23.5-15.4-12.9-17.6-7.5-29.1-8.9zM524 427.8c.6-.6 5.4 1.9 5.1 1s-7.6-27.9-7.6-27.9l2.5 26.9zm23.2 72s-15.8-43.6-16-43.8l-18.3-14.1 17.8 24.6 4.2 13.9 12.3 19.4zm-185.5-94.1l-17.9 12.2 20.6 18.3 19.1 7.2 1.2-20.2 3.2-5.3-13.3-11.1-12.9-1.1zm-88.5-162.6s-7.8 21-7.3 20.5 4.6.5 4.6 0 7.1-17.3 7.1-17.3l-4.4-3.2zm.6 22.3c1.8-.1 3.6-.1 5.4 0l1 1.4s-11.7 2.1-11.8 1.8 5.4-3.2 5.4-3.2zm-17.2 10.2c.4-.4 1.8-.9 2-1.4s17.2.7 17.2.7l.8 6.4s-21.6-4-21.6-4.2c.5-.6 1-1.1 1.6-1.5zm-22.6 6.6c0 .4 7.7 7.3 7.7 7.3v1.8l20.8 7.2 7.8-6.9-21.7-5.5-4.6 1.5-8.4-4.4-1.6-1zm5 19.8l2.9-2.2 16.7 7.9s-1.7 4.2-1.7 3.6-18-7.4-17.9-7.7c.1-.5.1-1.1 0-1.6zm-21 18.5l3.2-1.9 5.2-.4-4.2 3.4-4.2-.3v-.8z" class="st6"/><path d="M191.1 578.2l6.7 43.8s5.2-.1 5.2-1 .4-7.5.4-7.5l-3.8-30.4-1.1-6.9-7.4 2z" class="st15"/><path d="M185.3 578.2h5.8l6.7 43.8s-6.3.6-6.3 0-6.2-43.8-6.2-43.8z" class="st9"/><path d="M328.4 715.2l15.4-9.1 6.9-19.4 13.7-11 14.3-10.2-14.3 18.6-10.9 6.2-6 17.6-19.1 7.3zm-22.4-4.3L290.7 689l-9.2-6.3 3.7 7.8 20.8 20.4z"/></g></svg>