<svg id="Layer_1" data-name="Layer 1" xmlns="http://www.w3.org/2000/svg" xmlns:xlink="http://www.w3.org/1999/xlink" width="612" height="792" viewBox="0 0 612 792"><defs><clipPath id="clip-path"><rect width="612" height="792" fill="none"/></clipPath></defs><title>deadpool</title><g clip-path="url(#clip-path)"><rect y="-4.9" width="612" height="802.99" fill="#fff" stroke="#000" stroke-miterlimit="10"/><polygon points="306 1282.2 665.1 668.8 665.1 814.6 306 1428 306 1282.2"/><polygon points="306 1138.3 665.1 524.9 665.1 670.7 306 1284.1 306 1138.3" fill="none"/><polygon points="306 994.5 665.1 381 665.1 526.8 306 1140.2 306 994.5" fill="none"/><polygon points="306 850.6 665.1 237.1 665.1 382.9 306 996.4 306 850.6" fill="none"/><polygon points="306 706.7 665.1 93.2 665.1 239 306 852.5 306 706.7" fill="none"/><polygon points="306 562.8 665.1 -50.7 665.1 95.1 306 708.6 306 562.8" fill="none"/><polygon points="306 418.9 665.1 -194.6 665.1 -48.8 306 564.7 306 418.9" fill="none"/><polygon points="306 1138.3 665.1 524.9 665.1 670.7 306 1284.1 306 1138.3" fill="none"/><polygon points="306 994.5 665.1 381 665.1 526.8 306 1140.2 306 994.5" fill="none"/><polygon points="306 850.6 665.1 237.1 665.1 382.9 306 996.4 306 850.6" fill="none"/><polygon points="306 706.7 665.1 93.2 665.1 239 306 852.5 306 706.7" fill="none"/><polygon points="306 562.8 665.1 -50.7 665.1 95.1 306 708.6 306 562.8" fill="none"/><polygon points="306 418.9 665.1 -194.6 665.1 -48.8 306 564.7 306 418.9" fill="none"/><polygon points="306 275 665.1 -338.5 665.1 -192.7 306 420.8 306 275" fill="none"/><polygon points="306 994.5 665.1 381 665.1 526.8 306 1140.2 306 994.5"/><polygon points="306 850.6 665.1 237.1 665.1 382.9 306 996.4 306 850.6" fill="none"/><polygon points="306 706.7 665.1 93.2 665.1 239 306 852.5 306 706.7" fill="none"/><polygon points="306 562.8 665.1 -50.7 665.1 95.1 306 708.6 306 562.8" fill="none"/><polygon points="306 418.9 665.1 -194.6 665.1 -48.8 306 564.7 306 418.9" fill="none"/><polygon points="306 275 665.1 -338.5 665.1 -192.7 306 420.8 306 275" fill="none"/><polygon points="306 131.1 665.1 -482.3 665.1 -336.6 306 276.9 306 131.1" fill="none"/><polygon points="306 850.6 665.1 237.1 665.1 382.9 306 996.4 306 850.6" fill="none"/><polygon points="306 706.7 665.1 93.2 665.1 239 306 852.5 306 706.7" fill="none"/><polygon points="306 562.8 665.1 -50.7 665.1 95.1 306 708.6 306 562.8" fill="none"/><polygon points="306 418.9 665.1 -194.6 665.1 -48.8 306 564.7 306 418.9" fill="none"/><polygon points="306 275 665.1 -338.5 665.1 -192.7 306 420.8 306 275" fill="none"/><polygon points="306 131.1 665.1 -482.3 665.1 -336.6 306 276.9 306 131.1" fill="none"/><polygon points="306 -12.8 665.1 -626.2 665.1 -480.5 306 133 306 -12.8" fill="none"/><polygon points="306 706.7 665.1 93.2 665.1 239 306 852.5 306 706.7"/><polygon points="306 562.8 665.1 -50.7 665.1 95.1 306 708.6 306 562.8" fill="none"/><polygon points="306 418.9 665.1 -194.6 665.1 -48.8 306 564.7 306 418.9"/><polygon points="306 275 665.1 -338.5 665.1 -192.7 306 420.8 306 275" fill="none"/><polygon points="306 131.1 665.1 -482.3 665.1 -336.6 306 276.9 306 131.1"/><polygon points="306 -12.8 665.1 -626.2 665.1 -480.5 306 133 306 -12.8" fill="none"/><line x1="306" y1="625.8" x2="306" y2="1428" fill="none"/><polygon points="306 1282.2 -53.1 668.8 -53.1 814.6 306 1428 306 1282.2"/><polygon points="306 1138.3 -53.1 524.9 -53.1 670.7 306 1284.1 306 1138.3" fill="none"/><polygon points="306 994.5 -53.1 381 -53.1 526.8 306 1140.2 306 994.5" fill="none"/><polygon points="306 850.6 -53.1 237.1 -53.1 382.9 306 996.4 306 850.6" fill="none"/><polygon points="306 706.7 -53.1 93.2 -53.1 239 306 852.5 306 706.7" fill="none"/><polygon points="306 562.8 -53.1 -50.7 -53.1 95.1 306 708.6 306 562.8" fill="none"/><polygon points="306 418.9 -53.1 -194.6 -53.1 -48.8 306 564.7 306 418.9" fill="none"/><line x1="306" y1="481.9" x2="306" y2="1284.1" fill="none"/><polygon points="306 1138.3 -53.1 524.9 -53.1 670.7 306 1284.1 306 1138.3" fill="none"/><polygon points="306 994.5 -53.1 381 -53.1 526.8 306 1140.2 306 994.5" fill="none"/><polygon points="306 850.6 -53.1 237.1 -53.1 382.9 306 996.4 306 850.6" fill="none"/><polygon points="306 706.7 -53.1 93.2 -53.1 239 306 852.5 306 706.7" fill="none"/><polygon points="306 562.8 -53.1 -50.7 -53.1 95.1 306 708.6 306 562.8" fill="none"/><polygon points="306 418.9 -53.1 -194.6 -53.1 -48.8 306 564.7 306 418.9" fill="none"/><polygon points="306 275 -53.1 -338.5 -53.1 -192.7 306 420.8 306 275" fill="none"/><line x1="306" y1="338" x2="306" y2="1140.2" fill="none"/><polygon points="306 994.5 -53.1 381 -53.1 526.8 306 1140.2 306 994.5"/><polygon points="306 850.6 -53.1 237.1 -53.1 382.9 306 996.4 306 850.6" fill="none"/><polygon points="306 706.7 -53.1 93.2 -53.1 239 306 852.5 306 706.7" fill="none"/><polygon points="306 562.8 -53.1 -50.7 -53.1 95.1 306 708.6 306 562.8" fill="none"/><polygon points="306 418.9 -53.1 -194.6 -53.1 -48.8 306 564.7 306 418.9" fill="none"/><polygon points="306 275 -53.1 -338.5 -53.1 -192.7 306 420.8 306 275" fill="none"/><polygon points="306 131.1 -53.1 -482.3 -53.1 -336.6 306 276.9 306 131.1" fill="none"/><line x1="306" y1="194.1" x2="306" y2="996.4" fill="none"/><polygon points="306 850.6 -53.1 237.1 -53.1 382.9 306 996.4 306 850.6" fill="none"/><polygon points="306 706.7 -53.1 93.2 -53.1 239 306 852.5 306 706.7" fill="none"/><polygon points="306 562.8 -53.1 -50.7 -53.1 95.1 306 708.6 306 562.8" fill="none"/><polygon points="306 418.9 -53.1 -194.6 -53.1 -48.8 306 564.7 306 418.9" fill="none"/><polygon points="306 275 -53.1 -338.5 -53.1 -192.7 306 420.8 306 275" fill="none"/><polygon points="306 131.1 -53.1 -482.3 -53.1 -336.6 306 276.9 306 131.1" fill="none"/><polygon points="306 -12.8 -53.1 -626.2 -53.1 -480.5 306 133 306 -12.8" fill="none"/><line x1="306" y1="50.2" x2="306" y2="852.5" fill="none"/><polygon points="306 706.7 -53.1 93.2 -53.1 239 306 852.5 306 706.7"/><polygon points="306 562.8 -53.1 -50.7 -53.1 95.1 306 708.6 306 562.8" fill="none"/><polygon points="306 418.9 -53.1 -194.6 -53.1 -48.8 306 564.7 306 418.9"/><polygon points="306 275 -53.1 -338.5 -53.1 -192.7 306 420.8 306 275" fill="none"/><polygon points="306 131.1 -53.1 -482.3 -53.1 -336.6 306 276.9 306 131.1"/><polygon points="306 -12.8 -53.1 -626.2 -53.1 -480.5 306 133 306 -12.8" fill="none"/><polygon points="263.1 556.9 274.7 576.2 365.9 569.1 387.9 540.5 387.9 494.7 416.2 478.4 412 433.9 419 393.6 389.5 390.5 357.3 336.1 332.7 328.3 279.7 366.9 253.6 376.6 232.3 409.2 242.7 478.3 263.1 556.9" fill="#7e2829"/><path d="M246.4,419.8l6.5,36.2,15.5,10.1s28.9-14.9,28.9-15.9,25.5-14.6,25.8-15.3,4.2,3.7,4.2,3.7-.5,18.3,0,17.4,3.7-19.6,3.7-19.6-.8-14.7,0-15.7,5.2.8,5.2.8v16.1l2.3,4.2-2.3,6.5s8.7,8.4,9.2,8.1,16.1,6,16.1,6,10.9-2.2,10.7-3.2,6.4-11.4,6.4-11.4l14.7-4.4,12.9,2.4,1.9-19.8-5.9-3.6v-8.1l-31.1-14.5,12.4-3.8H350.8l-9.5-14.2-27.9,12.8-31.8-5.2-18.5,2,29.8,4.3s-5.8,2.4-5.6,1.2,16.3,4.1,16.3,4.1l-31.4-3s20.2,5.6,20.6,5,34.2,2.6,34.4,2,25.5-1.3,25.5-1.3l-17.4,10.1-10-3.5-13.5-.9Z" fill="#984233"/><path d="M313.6,458l-25.7,5.6,29.8,1.6s2-7.7,1.6-7.2S313.6,458,313.6,458Z" fill="#984233"/><path d="M338.5,414.8l-2.3,6.7s-.8,6.3,0,6,36.5,19.9,36.5,19.9-5.4,7.5-5.4,7.7-7.4,2.2-7.4,2.2l-19-12.1s-8.4-1.7-7.8-2.9-2.6.6-2.6.6l5.7,5.4L355.3,460l6.2,2.4,10.7-3.2s1.7-13.1,2.9-12.8l3.5,1.4,14.7-4.4-8.6-20.2,3.2-5.3h12.2l-15.6-12.2-13.4-5.9L359.7,398l-8.9-2s-15.1-11.6-14.4-12-13.8,12-13.8,12l-13.7,1.1s18.8,2.3,19.5,2.1,34.5,2.4,34.5,2.4l-1.2,4.1Z" fill="#fe8357"/><path d="M263.9,479.6c.3-.5,6.8,6.1,6.8,5.5s9.8,1,10,0,6.6-4.4,6.6-4.4l8.8.5c.7,0,7.5,6.1,7.5,6.1l11.9,21.2,12.9-.8,3-3.8-2-11.2s-2.1-4.7-2.2-5.3,2.2-7.2,2.2-7.8,2.8-2.8,2.8-2.8h4.3s2.7,13.1,2.6,13.5S338,502,338,502s9.6,2.9,9.6,2.5S360,482.6,360,482.6l8.8-1.5,2.4,2,9.9-6.3s-5.4-1.9-5.4-2.9,2-4.4,2-4.4l-4.6-4.3-15.8,1.6L340,470l-16.1,2.3h-5.8l-7.1-3.5-25.3,2.4Z" fill="#984233"/><path d="M267.9,491.8l4.4,3.5,3.5,33.6,47.6,7s2.6-5.6,2-5.5-18.2-3-18.2-3.5-10.6-4.3-10.5-4.7,1.8-4.6,1.8-4.6l35.3,4.2s12.3,2.1,11.7,2.4-9.9,7.4-10.4,7.3l29.3,7.7,11.4,1.3s2-20.2,1.9-19.9-28.9,2.3-28.9,2.3l-1.9-1.7s31.2-3.8,31.2-4.3l2.7-27.4L345.1,513l-1.3,2a29.3,29.3,0,0,0-1.9-4.2,42.6,42.6,0,0,0-5.4.4s-.8,8.4-.8,8-3.8-1.3-3.8-1.2-.9-4-.9-4l-7.9,1h-6.2c-.3-.1-5.1-3.5-5.1-3.5l-21.1-14.6s-15.7-4.7-15.8-5.1S267.9,491.8,267.9,491.8Z" fill="#984233"/><path d="M274.7,550.6s21.5-7.7,21.4-8,52,1.5,51.9.9,20.8,1.9,20.8,1.9-20.4,12.7-20.8,12.3-49.1,4.9-49.1,4.9-23.6.3-23.6,0S274.7,550.6,274.7,550.6Z" fill="#984233"/><path d="M264.9,382.2l-21.3,29.7,7,66.2,21.7,17.2s4,89.6,3.7,86.9-3.7,19.7-3.7,19.7-18.4,36.7-19.5,35.6-43,31.3-43,31.3l-45.9,51.4s-20.2,16.2-20.6,15.1-10.6,2.5-10.6,2.5,32.7-75.7,32.7-77.5-2.6-54-2.6-54l-7.7.4-6.6-8.3,8.4-6.2s3.9-39.7,4.1-40.4,20.8-5.3,20.8-5.3l2.4-12.6,27.6-3.7,2.7-29.6-7.3-45.5-10.9-34.2-6.4-1.1-5-3.4L160.3,446,96.7,480.1l-16.5-4L62,448.7s17.3-49.5,17.5-50.2,5.5-12.8,5.7-13.4,9.5-9.3,9.8-10,12.3-28.9,12.3-28.9l14.8-28.3,2.5-20.7,13.7-33.8L150,242.8l11.2-10.1,21-8.5,25.8-4.6,18.8-3.1,63.9-18.9v2.5l-26.8,13.6-2.5,30.6,3.6,88.9Z"/><polygon points="278.6 87.4 293.6 90.8 306 96.2 295.7 95.5 287.1 106 288.5 140.8 302.1 177.4 312 193.9 330.1 211.1 342.4 213.7 391.7 209.9 386.7 223.9 348.6 227.7 332.1 218.3 313.4 200.9 300.6 179.7 285.6 140.1 279.6 113.6 278.6 87.4" fill="#7e2829"/><polygon points="391.7 81.9 376.7 99.9 373.9 115.4 376.4 122.9 400.1 104.8 405.6 83.9 391.7 81.9" fill="#fea"/><path d="M350.8,203.7l-8.4,10,6.2,10.9s7.6,1.4,7.8.7,13.9-4.6,13.9-4.6h15.5l5.9-10.8-10.1-4Z" fill="#984233"/><path d="M409.8,140.3c-.2-2,0-47.8,0-47.8l-7.6-26.6-9-13.9,9,32L389.5,96.2l-12.3,23.4-6.1,26.1v6.8l1.4,18.9,4.7,23.8s3.2,9.3,4.4,10.7,10.1,4,10.1,4l8.8-6.8s6-27.2,6-28.6S409.8,140.3,409.8,140.3Z"/><path d="M287.1,106l1.4,34.8,13.6,36.6,9.9,16.5,18.1,17.2,12.3,2.6,8.4-10,3.5-11.6V157.8l4.3-4.3-2.8-2.5-5.1-.2s3.3-2.7,3.6-4.2-2.1-11.6-2.1-11.6l-4.8,9.1-11.7-25.3-15.6-16.1L306,96.2l-10.3-.7Z"/><polygon points="303.5 37 330.1 27.4 354.4 25.7 375.9 35.3 393.2 52 397.4 65.9 379.6 64.2 303.5 37" fill="#7e2829"/><path d="M291,50.7,303.5,37l29.4-5.3h19.3s21.2,9,21.4,8.2,15.9,17.5,15.9,17.5l7.9,8.5L402.2,84l-11,2.8-11.6,14.7-5.7,13.9,3.3,4.2-4.4,17.9-1.7,8.2v6.8l-7.4,5.3-7.9-6.8-5.1-.2-11-22.1s-45-36.8-46.1-37.9-9.9,9.9-10.2,9-5.1-10.7-4.8-12.4l4.5-26Z" fill="#fe8357"/><polygon points="301.2 47.5 287.1 61.1 300.1 69.6 310.1 75.3 317.1 83.1 346.2 69.3 357.2 66.7 369.4 87.1 373.2 84.9 363.5 61.6 377.2 54.1 370.2 40.7 352.2 31.7 334.1 34.2 301.2 47.5" fill="#fea"/><polygon points="291 60.2 319.5 76.6 377.2 54.1 352.2 31.7 291 60.2" fill="#fff"/><path d="M402.2,87.1l3.7,20.4v13l-3.7-4.5v5.3l-16.4,13.9L403.4,125l2.5,13.3-1.7,9.6-2-5.6s-3.5,9.7-3.5,9.9,3.5-2.1,3.5-2.1,1.7,22.2,1.7,21.5,3.9-32.5,3.9-32.5V100.6Z" fill="#413e38"/><path d="M381,147.3l8-6.5c.7-.6,7.8-1.6,7.8-1.6l-1.6,4-4.7,5.8Z" fill="#fff"/><path d="M318.5,153.4l8.6-1.8c.7-.1,7.8.8,7.8.8l-2.1,1.8-5.2,2.1Z" fill="#fff"/><path d="M372.4,150.1h4.8l2.4-1.1,1.4,2.8-2.9,1.7C378.2,153.4,372.4,150.1,372.4,150.1Z" fill="none"/><polygon points="379.6 155.5 381 161.1 379.6 168.3 385.8 168.3 386.9 160.6 383.2 161.9 379.6 155.5" fill="#8b735b"/><path d="M393.8,154.8s-8.1,19.6-8,19.1-6.2-5.6-6.2-5.6l7.3-7.7Z" fill="#413e38"/><path d="M349,106.4c.7-.4,6.7-8.4,6.7-8.4l6.3,1.6,3.5,4.9,2.8-1.3,4.1-5.2,9.4-3.2-9.4,14.1.7,14h3.3l-2,8.9-2-1.2-2.8,1.2,3.2,5.7-5.5-3.2s.5,11.2.5,10.7,3.3.7,3.3.7-4.2,2.1-4.3,2.6-6.9-.3-7.2-.9-3.2-13.5-3.2-13.5-5.1,10.5-6,10.2-5.7-10-5.7-10l8.1-4.7-16.1-17L324.8,99.9c-.3-.5,15.6,6.1,15.6,6.1l12.9,19.3,4.3-1.2s5.3,10.7,5.3,10.2V113.1Z" fill="#d4563e"/><path d="M358.6,153.5c.5.3-4.3,4.3-4.3,4.3h18.1s-1.5-5-1.3-5.3S358.6,153.5,358.6,153.5Z" fill="#7e2829"/><path d="M350.8,203.7s10.5,16,11.5,16,13-1.6,13-1.6l6.3-12.2-9.2-48.1H354.3v34.3Z" fill="#fe8357"/><path d="M360.4,160.8s1.8,21.5,1.9,20.8,6.2,1.1,6.2,0-3.5-20.8-3.5-20.8l-3.7-3Z" fill="#fea"/><path d="M296.6,101.7c-.2.5,5.6,30.6,5.6,30.6l4.6,4.3-7.6,1.9,1.3-3-7.2-8.6-2.7-8.8-1.7-5.7,2.1-8.5Z" fill="#8b735b"/><path d="M300.3,162.7c-.2-.9-7.7-24.2-7.7-24.2s-2-18.3-2-20.4,9.9,17.4,9.9,17.4l-5,7.2,5,.7s-1.4,11.6-.7,11.4,18.7,6,18.7,6l-6.3-5.3,14.9,4,11.8-6.8,2.8.8-16.9,8.4,7.3,2.5s-8.8,6.7-8.3,7.2,20.3,11.8,20.3,11.8l-8.2,9.6.3,9.7,8.3,8.5-9.1-5.3-4.1-12.2,1.8-8.7-6.3-2s-10.9-10.8-10.9-11.4S300.3,162.7,300.3,162.7Z" fill="#413e38"/><polygon points="315.9 137.1 323.8 141.5 323.8 137.8 315.9 137.1" fill="none"/><polygon points="334.1 145.2 345.7 152.3 348.6 148.7 342 148.5 334.1 145.2" fill="#413e38"/><path d="M344.5,154.6s1.6,2.1,1.7,3.2-5.4,4.9-4.9,5.6,5.6-1.5,5.6-1.5,5.7,9.6,5.7,9v-9l-4-4.1v-3Z" fill="#413e38"/><polygon points="295.5 142.7 297.8 147.6 300.5 143.4 295.5 142.7" fill="none"/><polygon points="298 154.8 326.3 166.5 325.7 164.5 332.1 164.4 324.8 170.3 316.6 168.6 308.7 160.8 299.2 159.1 298 154.8" fill="#8b735b"/><path d="M322.9,162.8c-.3-.4,4.2-3.3,4.2-3.3l-14.9-4,6.3,5.3Z" fill="#8b735b"/><polygon points="289 149 289.2 151.2 293.5 187.3 313.4 200.9 300.6 179.7 289 149" fill="#7e2829"/><path d="M293.8,171.9s11.2,23.3,11.1,23.2l-8.8-6Z" fill="#984233"/><polygon points="293.1 184.3 291.4 184.8 290.6 200.1 308.9 214.6 330.4 222.3 337.9 221.6 332.1 218.3 313.4 200.9 293.5 187.3 293.1 184.3"/><path d="M298,206l18.3,41.1,9.5,16.2,18.7,15.8,15.9,3.4,9.9-4,15.5-5.5,9.5-12.3,1.5-9.5,21.8-.6-1.5-14.5-4.6-17.4s-16.1-5.1-15.7-4.1-15,15.9-15,15.9l-29.2.2-28-16.1Z" fill="#7e2829"/><path d="M293.1,189.2l.7,11.3s6.2,5.7,6.7,5.4-1.1-8.3-1.1-8.3l9.7,3.3Z" fill="#505251"/><path d="M400.5,203.1v5.2l12,10.4,4.6,17.4s-17.4-17.4-18.2-16.4-10,35.5-10,35.5l6.4,5.5v5.8c0-1.7-14.3.3-14.3.3s-6-7.3-6.2-8,9.4-25.1,9.4-25.1l-17.1,29.7,5.3,6.5-6.2,1.4-3.9-8.7,15.6-25.4-4.6,1-15.7,14.1,8.6-16-19.3-4.6-11.7-9.4,2.7-.7,10.7,6.1,38.1-3.8,5-14Z"/><polygon points="265.9 214.6 289 205.9 295.5 208.7 293.8 217.5 267.8 224.2 265.9 214.6" fill="none"/><path d="M264.9,225.5c.2-.7,33.5-2.9,33.1-3.2s0-10.3,0-10.3l-3.7-8.9-28.4,11.5Z" fill="none"/><path d="M263.4,232.2c0-.7,24.8,7.6,25.6,6.9l5.8-6.9,3.2,19.3-9,4.1-27.7-11.3V263L289,277.6l-24.1,55.6v49h7.2l63.1-44.7,5.2,7.6,6.5-6.4,29.2,53,10.8,6.3h28.9l-22-31.6-46.9-49.3,13.5-34.6-15.9-3.4-18.7-15.8-9.5-16.2L298,206l-7.4-5.9-26.8,13.6Z" fill="#984233"/><path d="M309.1,241.6l7.4,21.7-5.2,3,18.8,7.3,6.1,33.3-11.4,33.7S292,360.9,291.5,360s-23.1-24.5-23.1-24.5l6-16.9s23.9-24.8,23.6-26.1-9-17.7-9-17.7l9-8c.9-.7-17.3-8-17.3-8l4.2-4.8,4.1,1.6,9-4.1Z" fill="#fe8357"/><path d="M308.9,214.6l21.6,49c-.5-.9.7-10.1,0-11S308.9,214.6,308.9,214.6Z"/><path d="M328.4,230.6s13.7,36.4,14,35.5,2.1-2.5,2.1-2.5.3,8.8,0,7.7,9.6-8.6,9.6-8.6l3.5-10.4S347,264.8,347,263.6s-5.7-17-5.7-17,1.7,16.1,1.7,15.2S328.4,230.6,328.4,230.6Z"/><path d="M338.5,286.7l2.8,63.7-14.5,29.8-11,11-47.4-3.9,45,7.3,27.9-12.8s4.1-47.4,4.1-48.1-1.2-43.1-1.2-43.1Z"/><path d="M383.5,396c-1.5-.8-30.8-3.7-30.8-4.4s-10.3-7.8-10.3-7.8l8.4,12.2Z"/><path d="M360.4,282.5l-13.5,34.6,46.9,49.3s8.9-26.8,8.4-27.5S385.8,273,385.8,273Z" fill="#fe8357"/><path d="M367.1,282.5l-14.4,27.6,18.4,24.4s13.6,10.8,13.6,10,12.9-4.9,12.9-4.9l-14.1-38.8V276.3l-8.4,6.2Z" fill="#fea"/><polygon points="412.5 218.7 415.8 214.6 420.4 219.7 425.2 241.6 425.2 251 418.6 250.6 417.1 236.1 412.5 218.7" fill="#8b735b"/><polygon points="447.1 235.1 420.4 219.7 425.2 241.6 425.2 251 447.1 276.3 455.5 271.4 447.1 235.1" fill="#fea"/><polygon points="496.4 74.4 420.4 219.7 443.1 232.8 514.5 85.3 507.5 76.6 496.4 74.4" fill="#505251"/><path d="M432.9,219.7c-.3-1,65.5-135.9,65.5-135.9l9.1-7.2L499,74.9,425.2,218.1l2.5,4.2Z" fill="#fefff9"/><path d="M439.9,213.7c.6-1.4,3.9.6,3.9.6L505.1,90.2l-2.8-3.1-27.6,52.1Z" fill="#fefff9"/><path d="M430.4,225.5l5.5-3.2,6.3,3.2s-2.7,6.1-2.3,5.4S430.4,225.5,430.4,225.5Z"/><polygon points="447.4 211.2 442.2 222.3 448.3 216.7 447.4 211.2"/><polygon points="451.4 203.7 452.1 208.9 458.9 195 457.9 190.5 451.4 203.7"/><polygon points="461 184.5 462 188.8 467.5 176.3 466.4 173.1 461 184.5"/><polygon points="470.1 166.2 471.1 170 478.7 154.8 476.9 150.7 470.1 166.2"/><path d="M479.7,145.7a17.5,17.5,0,0,0,1.5,3.3l9.5-18.9L488,128Z"/><polygon points="492.6 120.5 494.1 122.5 506 91.7 492.6 120.5"/><path d="M377.6,327.3s9.3,14.7,9.7,13.4,10.3-1.1,10.3-1.1l-5.9,28.1,10.5,22.2,8,6.1-8,18.3v8.1l18.2,11.3,17.6,9.7,17.5-11.5L469.9,415l15.3-31.2-7.9-8.7s-9-8.4-9.7-8.7-3.9,1.1-3.9,1.1-3.2-6.6-3.9-7.4l-.7-.9h0l-7.6-1.9-2.8-18.7,6.8-26.7-5.2-6.3s8.6-25.6,8.6-26.3-8.6-10.6-8.6-10.6l-14-12.7s-8.6-8.7-8.6-8-30.9,3.2-30.9,3.2l-1.5,9.5L385.8,273l.9,11.2-9.9,17.9v5.4l7.1,6Z"/><path d="M378.6,305.7l4.7,4.7,2.7-10,5.5-4.1,15,4.9,13.9.6,6.6,6-1.8,16.9,1.8,1.5-3.3,10.2,4.2,4.3-2.7,9.6,2.7,5.1-2.7,4.3v13.1l2.7-1.8v-9.8c0-.4,3.2-6.3,3.1-6.7s-2.5-4.4-2.4-4.8,3.3-9.4,3.2-9.9-3.6-9.9-3.6-9.9l2.8.3-.9-21.4,5.3-7.3-2.9-7.5-10.2,2.8-3.5-4.5-20.4,4.2-9-2.7-5.1,5.3-2.2,2.8-.2,3.6Z" fill="none"/><path d="M388.9,280.4c0-.6,9.9-7.4,9.9-7.4l12.2,5.4,3.6-2.1,14.2,12h3.3s5.3,13,5.9,12.6,7.1-13.9,6.7-14.2l-7.3-4.2c-.1-.1-6.4,2.8-6.4,2.8l-3.2-1.8.8-6.3-12.8-10-28.2,7.9Z" fill="none"/><polygon points="417.1 261 415.8 267.2 388.9 277.1 388.9 273 417.1 261" fill="none"/><polygon points="420.4 261.8 388.9 273 390.3 271.3 416.1 259.5 420.4 261.8" fill="none"/><path d="M397.6,259.5c-.6-.3-1,6.8-1,6.8l15.3-6.8,3.9-2.2,7.6,4.5,6.3,7.2,8.8,4,10.1,9.5-3.9,16.6,8.6-18-7-9-6.9-1.8-8.4-6.7-7.7-4.5-3.3-1.8-4.8-1.8-7,4Z" fill="none"/><path d="M399.1,278.7l-9.4,3.8S378,304,378.6,303.6s0,2.1,0,2.1l3.3-.2.2-3.6,7.3-8.1,9,2.7,20.4-4.2-7.3-4.8s-5.6,1.4-5.6.7-3.7-4.9-3.7-4.9Z" fill="none"/><path d="M398.2,286.1c.2-.7,4-2.8,4-2.8v-7h-3.5l-3.2,4.9Z" fill="none"/><path d="M436.7,283.7l-2.1,4s2.9,7,3.4,6.5,3.2-5.6,3.4-6.1S436.7,283.7,436.7,283.7Z" fill="none"/><path d="M398.1,370.7l8.1,5.9h7.2s9.4-13.3,9-13.3-1.3-19.4-1.5-19.9-10.2-6.7-10.7-7.3,6.4-9.3,6.9-9.7-1-16.9-1-16.9,4.5,2.2,4.3,1.8.6-5.1.6-5.1l-9.1-1.5H400.2l-11.8-3.8-7.5,27.5,18.8,6.9L396,366.4Z" fill="none"/><path d="M397.6,317.9s-1.3,9.6-1,9.3,5,6,5.1,5.3a42.2,42.2,0,0,1,1.9-4.9Z" fill="none"/><path d="M404.7,340.3c0-.1,11.3,21.3,11.1,21.7s-1.4,10.4-1.4,10,6.4-9.9,6-10.4-5.9-17.1-5.9-17.1Z" fill="none"/><path d="M382.7,322s4.5,1.5,4.9,1.2,2.7-9.5,2.7-9.5l7.3,6s11.4-2.4,11.5-3l.6-3,6.4-4.2,4.3,1.8.6-5.1-9.1-1.5H400.2s-12-2.6-11.8-3.8S382.7,322,382.7,322Z" fill="none"/><path d="M389.8,304.5v4l3.4,1.9a38.7,38.7,0,0,1,0-5.9C393.4,304.2,389.8,304.5,389.8,304.5Z" fill="none"/><polygon points="417.1 326.4 403.6 327.6 399.7 335.3 410.2 336.1 417.1 326.4" fill="none"/><polygon points="414.5 344.5 421.4 349.4 420.9 343.4 410.2 336.1 414.5 344.5" fill="none"/><path d="M406.9,344.5c-.3-.6-8-2.5-8-2.5L396,366.4l2.1,4.3a34,34,0,0,1,2.8,2.1c-.1-.1,7.5-8.2,7.5-8.2l6.9.3.5-2.9Z" fill="none"/><path d="M441.9,318.7s-.7,30.7-1,30.1-3.2-22.6-2.9-22.9S441.9,318.7,441.9,318.7Z" fill="none"/><path d="M411.6,380.2l-.7,4.5s7.9,9.3,8.1,8.9,15.6-6.7,15.6-6.7l-15.4,12.8c.5-.3,17-8.2,17.2-8.7s6.1-8,6.1-8.3-17,4.3-16.4,4.1-7.1.9-7.1.9l-6.4-3.9Z" fill="none"/><path d="M425.2,372.8l20.3-1.5L419,387.7s6.1-.3,7.1-.9,25.5-18,25.5-18L427.9,371Z" fill="none"/><path d="M447.1,235.1,474,251l19.2,7.1,10.7,2.9,14.7,12,8.5,21.2,10.7,50.3L533.1,372l7.6,53s.2,4.5,0,4.3,4.1,3.1,4.1,3.1l-2.4,6.7-.3,8.1,14.1,18.6-1.5,41.3-.6,30.2-13.2,10.3-18.6,5.8c-.6.2-22.1-19.8-22.1-19.8l-29.1-17L457.8,498l-6.2-21s-3.5-18.2-3.3-18.8-10.6,24.3-10.6,24.3l-2,20.9h15.9l2.9,3.9,5.4-1.8,7.4,9.1s3.8,20.2,2.7,20,4.2,2.4,4.2,2.4,1.6,16.2,1.8,16.4-6.2,3.3-6.2,3.3l4.5,14.8-5.1,4.1,8.5,57.8-3.4,6s-15.2,6.6-15.5,5.7,13.9,42.6,13.9,41.6-29,8.6-29,8.6l-10.1-25.6-13.3-18.6-29.4-31.9-16.4-66.3,6.3-63.4,22.1-10.1,5.5-56.7s47.3-66.3,48-67.6,0-9.1,0-10.6-4.1-2.5-4.1-2.5l5.6-3.3c.4-.2-2.3-46.5-2.3-46.5Z"/><path d="M415.8,398l-2-1.2-7.9,14.8-1.2,8.2h4.9l25.8-14.1s12.1-14.3,12-14.9,9.1-15.5,9-16-2.7-2.8-2.7-2.8-10.2,17.4-10.2,17-10.4,12.3-10.4,12.3-10.8,9.8-11.2,9.7-12.3,6.4-12.3,6.4l-1.2-1.6c-.3-.3.5-4.9.5-4.9Z" fill="#8b735b"/><path d="M448,342s-1.3,18.2-1.3,17.7,3.3,3.6,3.3,3.6v-5.9C450,356.5,448,342,448,342Z" fill="none"/><path d="M456.4,374.8l2.4-9.6a47,47,0,0,0-1.2-5.1l-5.3-.9,1.2,3.1H456v3.6l-2.4,6.1Z" fill="#fea"/><path d="M467.2,376.9,458,361.2l.8,4-2.4,9.6-9,16-12,14.9-25.8,14.1s22.8-7.3,22.8-7.8,16.1-9.7,16.4-9.8,10-16.1,10-16.1l-7.6,18.2,9.7-13.8s-7.6,17.8-7.3,17.6,9.7-14.4,9.7-14.4-8.1,17.4-7.7,17.2,10-13.6,10-13.6L458,414.5c.1-.3,10.5-15.3,10.5-15.3l-7.9,16.4s10.9-8.4,11-8.8,8.5-21.5,8.5-21.7v-5.8s-6.7-2.3-6.6-2.7-5-6.9-5-6.9l-2.4.9Z" fill="#423e3c"/><polygon points="437.6 439.1 443.9 435.8 444.9 433 437.6 439.1" fill="#413e38"/><polygon points="432.9 436.9 434.2 437.9 442.5 431.3 441.2 430.6 432.9 436.9" fill="#413e38"/><polygon points="428.9 435 431 436.1 438.8 429.4 437.6 428.8 428.9 435" fill="#413e38"/><polygon points="425.1 432.4 426.7 433.9 435.7 427 434.2 426.4 425.1 432.4" fill="#413e38"/><path d="M421.8,430.1l1.7,1.2,8.7-6.4c.3-.1-1.2-.5-1.2-.5Z" fill="#413e38"/><polygon points="418.7 427.8 420.1 429.3 428.2 423.2 426.7 422.7 418.7 427.8" fill="#413e38"/><path d="M415.4,425.5l1.9,1.1c-.2-.1,3.7-3.2,3.7-3.2h-2Z" fill="#413e38"/><polygon points="412 422.7 413.8 424.4 416.2 422.7 412 422.7" fill="#413e38"/><path d="M469.7,273c.8-.2,6.9,10.7,6.9,10.7s-3.5-.7-4.1-1.2-5-6.2-5-6.2l-8.6,3-2.2-3Z" fill="#423e3c"/><path d="M502,296.1c0,.8,2.2,13.3,2.2,13.3L502,312c.2,0-2.2-2.7-2-3.2s0-8.7,0-8.7Z" fill="#423e3c"/><path d="M463.7,300.8s8.4,19.8,8.8,18.6-3.2-15-3.2-15.4S463.7,300.8,463.7,300.8Z" fill="#423e3c"/><path d="M461.1,362.4c.6-1.1,7-9.7,7-9.7l-4.4,14.8Z" fill="#423e3c"/><path d="M472.5,362.3c-.3-.7,11.2-7.6,11.2-7.6l6.2-2-4.7-2.7-2-1.2s4.4-14.8,4.8-16.3,8.6-15.3,8.6-15.3l-4.4,20.5s.3,15.1.5,15,8.5,1.5,8.5,1.5l14.4-4.1-10.1,5.8,8.2,6.4-12.9-4.6-8.4-.7s2,16.5,1.6,15-6-12.8-6-12.8Z" fill="#423e3c"/><polygon points="498.3 372.8 494.7 376.4 504.2 387.7 498.3 372.8" fill="#423e3c"/><path d="M515.6,429.3c.5-2.1,5.9-28.4,5.9-28.4s9.2,34.2,9.2,33-15,1.1-15.1.3A39.6,39.6,0,0,1,515.6,429.3Z" fill="#423e3c"/><path d="M540.7,435.1l1.5-2.4-7.3-2.4h-22l4.1,2.4c-.3-.1,16.1-.8,16.1-.8Z" fill="#fea"/><path d="M542.1,447.2s-.9,9.9-1,9.4-9.7-13.8-9.8-14.7-7-4.2-7-4.2l17.9,23.9,1.1-12.8Z" fill="#fea"/><path d="M440.9,441.5l7.4,16.7,10.3,28.3s8.9-1.2,8.9-1.7-12.8-15.8-12.8-16.2-3.2-10.9-3.2-10.9l21.6,26.6s12.6-4.1,12.1-4.5-13.1-30.1-13.1-30.1l8-42.6-4-4.7L469.9,415l-14.4,16.9Z" fill="#7e2829"/><path d="M498.8,472.7c-.3-.7-23-42.6-23-42.6l-7.9,22,12.2,29.8s9.9-3.5,10.2-3.9S498.8,472.7,498.8,472.7Z" fill="#984233"/><path d="M478.1,399.7c.3.2,26.8,30.4,26.8,30.4l18.2,10.5-1.6,8.4-8.6,10.9-14.1,12.8-23-42.6Z" fill="#fe8357"/><polygon points="494.9 428.8 501.2 439.1 512.9 441.9 521.5 449 523.1 440.6 494.9 428.8" fill="#984233"/><path d="M512.9,459.9c.9-.2,8.6-10.9,8.6-10.9l-15.7-12.9-4.6,3Z" fill="#7e2829"/><path d="M458.6,488.1h9.3l2.5,14,28.4,20.8s8.1,13.7,8.2,13.2-28.6-20.6-28.6-20.6l-13-13.2Z" fill="#423e3c"/><path d="M473.1,484.3l18,23.4s-13.6-22.2-13.2-22.6,15.7-6.1,15.7-6.1,23.9,33.6,24.1,33.1-18.9-36.3-18.9-36.3l20.6-21.6s4.3,4.1,3.7,3.7-2.2,7.3-2.2,7.3,22.1,26.2,22.4,25.5-2.3-22.6-2.4-23.1S521.5,449,521.5,449l-8.6,10.9-14.1,12.8-8.5,5.3-5.1,1.8-5.1,2.1Z" fill="#423e3c"/><path d="M427.1,511.1V515c0-.5-26.8,3-26.8,3l24.4-8Z" fill="#413e38"/><path d="M425.3,520v3.2s-19.5,9.1-19.5,8.6v8.7l-3.7-1v-8s2.6-5.5,2.7-5.9S425.3,520,425.3,520Z" fill="#eebb76"/><polygon points="409.9 538.9 405.8 540.5 405.8 531.8 410.8 529.8 409.9 538.9" fill="#413e38"/><polygon points="435.9 512.1 435.9 528.6 439.1 528.6 439.1 516.8 446.8 515.2 459.4 515.2 462.3 518 466.8 569.1 471.3 569.1 467.9 556 464.6 515.8 461.2 511.1 435.9 512.1" fill="#413e38"/><path d="M436.4,507.2c.3-.1,14.3.8,14.2.6s-7.1,1.9-7.1,1.9h-7.9Z" fill="#505251"/><path d="M443.7,505.4a39.9,39.9,0,0,1,4.9,0l2,2.4-14.2-.6Z" fill="#eebb76"/><path d="M438.2,512l3,2s19.5,0,19.6-.6.4-4.1,0-4.3-12.3.6-12.3.6Z" fill="#eebb76"/><path d="M437.6,535.7c.4-.4,5.5-3.3,5.5-3.3l7.5,43.7s-5.9,3.5-5.9,2.6-.6-3.7-1.5-8.7C441.2,557.4,437.6,535.7,437.6,535.7Z" fill="#eebb76"/><path d="M440.7,577c0-.3,2.4-7.9,2.4-7.9l1.6,9.6Z" fill="#8b735b"/><path d="M437.6,535.7l-5.5-1.9s4.4-3.1,4.8-2.8,6.2,1.4,6.2,1.4Z" fill="#bd8d5b"/><path d="M428.5,537.2l-2.6,2.9,4.6.4s4.1,29.1,4.1,28.6-2.2.5-2.5,0-4.4-27.5-4.4-27.5l-56.8,3.8-6.5,17.8,16,13.6s55.5-4.7,55.2-5.3-.3,4-.3,4h3.5s1.4-2.6,1.3-3.3-5.2-34.5-5.2-35S428.5,537.2,428.5,537.2Z" fill="#8b735b"/><path d="M336.5,550.6c0-.4,34.4-5.2,34.4-5.2l-6.5,17.8,16,13.6s-39.7,6.3-39.8,5.6Z" fill="#eebb76"/><path d="M336.5,550.6l-7.5-4s-40.5,7.6-39.7,7.6-2.8,6-2.8,6l6,32s6.7,6.7,7,6.2,36.4-7.7,36.4-8.1,4.7-7.9,4.7-7.9Z" fill="#bcc7c2"/><path d="M328.4,555.5c.3-.7,8.1-4.9,8.1-4.9l4.1,31.8s-2.4,4.9-2.5,4.5-6.6-5-6.7-5.4S328.4,555.5,328.4,555.5Z" fill="#888988"/><path d="M282.5,560.2s5.2,32.1,5.6,31.8,8.1.5,8,0-5.9-31.8-5.9-31.8Z" fill="#888988"/><path d="M296.1,592s3.1,2.4,3.1,2,35.6-7.3,35.3-7.7,1.3-1.3,1.3-1.3l2.3,1.9-2.2,3.4-36.4,8.1-7-6.2Z" fill="#888988"/><path d="M282.5,560.2l-50.2,13.9s23.3,8.5,23.5,8.4l-20.6,21.6L288.1,592Z" fill="#eebb76"/><path d="M199.6,583.1s3.8,31,3.8,30.4,31.8-9.4,31.8-9.4l20.6-21.6-23.5-8.4Z" fill="#8b735b"/><path d="M206.1,271.4c0-.5,24.3-47.2,24.3-47.2l13-17.2,23.8-6.9-23.4,32.1s-20.1,42.7-20.1,42-6.8-8.8-6.8-8.8Z" fill="#fea"/><path d="M195.7,299.1c0-.6,10.4-27.7,10.4-27.7l10.8-6,6.8,8.8-9.2,22.7Z" fill="#bd8d5b"/><path d="M178.5,604.4c0-.5-1.4-26.2-1.4-26.2l8.5,6.2,1.2,21.4,2.5,11.2s-3.5,5.6-3.6,5.3-3.4-12.9-3.3-13.1S178.5,604.4,178.5,604.4Z" fill="#413e38"/><path d="M199.7,307.1c0-.7-4-8-4-8l18.8-2.2,1.3,9.1Z" fill="#8b735b"/><polygon points="267.2 200.1 276.1 203.1 263.5 209 246.7 237.2 233.7 260.9 223.7 283.7 222.4 286.7 222.4 291.9 218.9 291.9 215.8 306 214.5 296.9 223.7 274.2 243.8 232.2 267.2 200.1" fill="#8b735b"/><path d="M259,241.6c.4-.4,1.6-9.8,1.4-10.5s-6.7-5.6-6.7-5.6l-3.8,6.4Z" fill="#413e38"/><path d="M250.7,203.3c0-.4-34.7-151.1-34.7-151.1l-13.8-1.9s-10.5,7.3-10.3,8,36.2,156.8,36.4,156.3,14.3,6,14.3,6Z" fill="#505251"/><path d="M204.5,55.2l-4.6,4.2s33.3,155.3,33.5,155.2h-5.1L195.4,59.4l4.9-5.2Z" fill="#fefff9"/><path d="M213.2,56.2l-5.9,6,4.7,3.7,4.7,28.9s3.9,1.9,3.7,0-5.9-31.6-5.9-31.6l-3-2.6,3-2.1Z"/><path d="M238.4,206l2.3-5.1L213,64l-5.7-1.8Z" fill="#fefff9"/><path d="M175.1,568.8s1,11.6,1.3,11.4,4.6,5.6,4.6,5.6l5.2-1.5,3.5-1.6c0-.2-4.4-14.8-4.4-14.8s-5.7,2.2-5.7,2S175.1,568.8,175.1,568.8Z" fill="#b08b6c"/><path d="M230.3,138l3.1,1.7,3.3,18.9s-3.4-1.3-3.2-1.7S230.3,138,230.3,138Z"/><polygon points="235.2 161.5 238.1 162.8 241.7 181.1 238.4 178.6 235.2 161.5"/><polygon points="239.9 183.2 242.7 185.2 245.3 198.4 241.7 196.7 239.9 183.2"/><path d="M229.4,184.8a14.1,14.1,0,0,1,2.8,1.5l3.8,16.8-3.3-2.6Z"/><path d="M225.2,167.4c0,.4,2.8,13.7,2.8,13.7l3.5,2.1-3.1-14.8Z"/><path d="M219,138.8l4.6,19.8s3.5,2,3.3,1.5-3.8-18.9-3.9-19.2A39.3,39.3,0,0,0,219,138.8Z"/><path d="M224,109.3c.8.5,2.9,15.2,2.9,15.2l4.3,2.9-4.3-18.1Z"/><path d="M161.3,340.7v13.5s6.9,21.2,7.1,20.3-2.5-19.7-2.5-19.7,4.1,13.5,4.3,12.9-2.7-19.2-2.7-19.2,5.2,14.2,5.2,13.3-2.5-18.7-2.5-18.7,5.4,15,5.4,14.5-1-14.2-1-14.2l4.8,14.2c0-.1-1.5-12.4-1.5-12.4s5.2,13.2,5.2,12.4V345.2s3.5,16.4,3.8,15.8,0-12,0-12,5.8,18.2,5,17.4-2.1-15.8-2.1-15.8,6.2,23.7,5.9,22.9-2.2-15.9-2.2-15.9l9.8,36L227,407.3l3.7-17.4-.8-10.8-3.1,1.8-.7,15.1s-3.1,6.2-3.3,5.3-17.1-11.4-17.1-11.4l-12-60.3Z" fill="#505251"/><path d="M203.9,329.6v-2.9l-6.9-1.8-35.7,15.8v9.7l2.7,2.5,27.6-14,14.1,51-12-60.3,4.4-2.5Z" fill="#8b735b"/><path d="M163.6,343.1s1.4,6.3,1.2,5.7,26.8-11.5,27-12.1,0-6.4,0-6.4Z" fill="#fea"/><path d="M197.9,309.7c.2.6-.9,15.2-.9,15.2l3.4.9v-13l13.1-1.5,2.3-5.3-16.1,1.1Z" fill="#505251"/><polygon points="203.9 326.7 213.5 311.4 200.4 312.8 200.4 325.8 203.9 326.7" fill="#bd8d5b"/><polygon points="289 239.1 294.8 232.2 298 251.5 289 255.6 261.3 244.3 263.4 232.2 289 239.1" fill="#7e2829"/><path d="M264.9,382.2s3.3-2.9,3.5-3.3.4-40,1-40.8.5-6.9.7-7.3,4.4-1.1,4.5-1.5-.6-7.1-.6-7.1,9-2.2,9.1-2.5l5.4-9.9,9.2-7.7,3.4-12.2L289,274.8,286.2,261l-5.5-2.2,4.2-4.8L283,243.9l-11.9-4.8-2.7,5.2s-7.8,22-7.1,18.7-14.8.6-14.8.6-12.8,7.6-12.8,7.7-11.3,20.6-11.3,20.6L203,339.5l10.5,33.2Z"/><polygon points="263.6 262.8 265.9 263.6 273.2 243.1 263.6 262.8" fill="#413e38"/><path d="M244,267.4l3.5-2,5.6,2.4,26.1-4,1.7,2.1,3.1,3.9v7.3l-6.8-5.7-27.3-1Z" fill="#8b735b"/><polygon points="249.9 270.4 268.4 268.6 280.9 265.9 284 269.8 284 277.1 277.2 271.4 249.9 270.4" fill="none"/><polygon points="234.9 272.7 240.5 269.8 249.3 273.6 260 272.9 276.1 273 276.6 281.3 234.9 272.7" fill="#8b735b"/><path d="M232.5,278.5l2.4-5.8,18.2,3.8,23.5,4.8,4.2,27.7s-6-25.2-6-25.5.9,26.5.9,26.5l3.7,1.3s-4.4,2.5-5.1,2.1-1-26-1.1-26.3-12.6-4.2-12.6-4.2l-17.8-.7Z" fill="#464340"/><path d="M229.1,279.8l-2.1,3.8,7.9.8,6.1,3.5,25.9,9.8s6-5.7,5.8-6l-1.3-2.3L258.6,285H242l-8.6-5Z" fill="#8b735b"/><path d="M227,283.6s-4.4,7.9-4.1,7.5,5.5-1.9,5.5-1.9l5.6.4,5.1,4.5s28.4,12,28.3,11.5-.5-7.9-.5-7.9l-25.2-8.2-6.8-5.1Z" fill="#464340"/><polygon points="220.6 296.4 227.9 290.9 235.9 295.5 262.4 307.1 257.3 312.4 247.2 310.7 229.7 299.8 226.5 296.9 220.6 296.4" fill="#8b735b"/><polygon points="229.7 299.8 230.7 312.4 225.7 313.8 222.8 317.2 217 316.5 217 311.4 220.6 296.4 226.5 296.9 229.7 299.8" fill="none"/><path d="M198.8,344.3l3.8,18.6,7.5,17.5,7.4,9.5a13,13,0,0,0,2.5-1c.1-.3,2-10.3,2-10.3l-5,5.4-6.3-8.3L204,362.6l.6-6.1,6.9,8.1,12.3,12.8,8.7-1.2,6.5-5.3v-3.8l-8.3,7.2h-6.9l-12-12.2-.6-8.5,6.8,8,7.4.4,12.3-11.4-4-25.7s-5,5.7-5,5.4-.2-11.9-.2-11.9l-2.8-4.6-2.9,3.4-5.8-.7.5,15.2-9.2,19.6s1.2-21.7,1.4-22.1l5.7-11.4-7.9,10.7-5.2,12.6s1.6,8.8,1.4,8.6-2.7-7.1-2.7-7.1Z" fill="#413e38"/><polygon points="217 316.5 222.8 317.2 225.7 313.8 230.7 312.4 229.7 299.8 226.5 296.9 220.6 296.4 217 311.4 217 316.5" fill="#413e38"/><path d="M210.9,349.4c.1-.3.6-14.9.8-15.5s5.3-10.3,5.3-10.3v-7.1l5.8.7,2.9-3.4,2.8,4.6.2,11.9,5-5.4,3.8,24.2s-8.8,2.1-8.8,1.7-5.6-7.8-5.6-7.8l-2.5-2.1-4.8,2.2-.9,5.7Z" fill="#8b735b"/><path d="M204,342.6a23.6,23.6,0,0,1,.4-3.1l3.6-2.1.3,13.9,3.1,5.2.4,5.6-1.3,1.4Z" fill="#8b735b"/><polygon points="199 345.4 200.4 344.6 203 352.7 204.1 362.6 199 345.4" fill="#8b735b"/><path d="M256.6,313.8l-3,3.4,4.2,1.8-1.2,14.1,4.7-8.9c.2-.4,1.8-7,1.8-7Z" fill="#464340"/><polygon points="249.8 322.7 248.8 328.3 245.3 327.2 249.8 322.7" fill="#464340"/><path d="M242.7,336.5c.1.4.6,3,.6,3s12.8,2.7,13.3,2.2,3.8-.3,4-1,2.5-9.1,2.5-9.1-5.7,7.1-5.7,6.7-12.3-.9-12.3-.9Z" fill="#464340"/><path d="M244.1,348.3c.4-.1-2.6,16.7-2.6,16.7l10.5-7.1s8.3-6.9,8.4-7.4l2.7-7.8-3.5,3.1-4.7.3v6.6l-9.6,6Z" fill="#464340"/><path d="M182.7,403.9c.5-.1,13.3,14,13.3,14s3.4-.9,2.8-1.6S182.7,403.9,182.7,403.9Z" fill="#8b735b"/><path d="M200.3,414.2c0-.4,1.8-1.2,1.8-1.2l-15.6-15.9Z" fill="#8b735b"/><path d="M205.2,412.1c-.4-.8,1.9-1.9,1.9-1.9L196,398.8Z" fill="#8b735b"/><polygon points="210.2 409.2 214.7 407.3 207.1 402 210.9 407.3 203 401.5 210.2 409.2" fill="#8b735b"/><path d="M203,427.5l7.5,30.9L230.7,494v2.9s-7.4-2.7-7.4-3.6-10.8-27-10.8-27l1.1,14.4,12,32,2.1,7.9,1.5,4.2-14.5-6.1,13,9.3,13.2,4.5L214.7,526,242,539.5l-27.3-9.9,16,9.9v20.7s18.7,7,18.5,6.1-1.6-18.7-1.6-18.7,13.2,3.8,12.6,2.5-2-16.9-2-16.9l14,2.4-15.1-6.7s-1.8-11.3-2.5-12S239.2,501,239,500.3s-6.7-30.2-6.7-30.2l-20-16.7Z" fill="#413e38"/><path d="M217.9,460.3c.5.4,7.5,19.7,7.4,19s9.1,9.5,10,9.2-4.6-17.1-4.6-17.1Z" fill="#8b735b"/><path d="M252.3,519.4s4.4,11.5,3.5,11-21.8-5.7-22.2-7-16.7-38.8-16.7-39.7v-5.4l6.4,15,5.4,11.8Z" fill="#8b735b"/><path d="M258.2,533.2l-1.5,2.7L223.4,525s18.1,2.9,18.6,3.2S258.2,533.2,258.2,533.2Z" fill="#fea"/><path d="M230.7,542.3l17.1,7.9s.4,4.2.3,3.6-17.4-7.9-17.4-7.9Z" fill="#fea"/><path d="M193.3,535.9c.5,0,4.5,2.5,4.5,2.5l14-1.3v-4.3Z" fill="#bd8d5b"/><path d="M186.8,537.6c.5-.2,11.9,5.8,12.8,5.8s3.8,6.3,3.8,6.3l-.4,10.5s3-6.6,3-7.3v-7.8l-4.8-2.8-11.7-6.7Z" fill="#bd8d5b"/><path d="M186.8,545.4c0-.8-.1-5,0-5.2l2.7-1.5-2.7-1.1-1.8.8s-.6,10.1-.5,9.5A14.7,14.7,0,0,1,186.8,545.4Z" fill="#413e38"/><path d="M167.3,560.5c.1-.2,0-5.4,0-5.4l6.9-3.8,16.4-2.7,3.1,8.7.9,11.5-2,.3-3.1-17.6-14.2,1.8-6.3,2.9Z" fill="#bd8d5b"/><path d="M193,575.7c0-.5-.4-6.6-.4-6.6l2-.3.6,6.4Z" fill="#413e38"/><path d="M164,583c.1.2.8,13.1.8,13.1l-2.3,1.3a26.2,26.2,0,0,1-1.5-3.6c-.1-.5,0-6.6,0-6.6Z" fill="#413e38"/><path d="M156.4,596.4l-1,2.7,2.5,2.3h4s2.4,1.3,2.9.9,5.8-4.9,5.8-4.9v5l-2.7,5.1-4.4-4.2s-6.9.6-7,.3a34.2,34.2,0,0,0-3.3-3.3l.3-2.9Z" fill="#413e38"/><path d="M167.3,603.8l-2.5-1.5s3.6-5.4,3.6-5.9-.6-33.3-.6-33.3l2.8,13.8v20.5l-.9,4.6Z" fill="#bd8d5b"/><path d="M172.5,570.7c.1.2,3.7,32.2,3.9,33.5s.2.3.1,1.4.1,1.3,0,1.1-2.2,5.7-2.4,6.2S172.5,570.7,172.5,570.7Z" fill="#413e38"/><path d="M173.9,647.5c0-.7,2.7-6.5,2.7-6.5l-1.5-40.1-1,12Z" fill="#bd8d5b"/><path d="M164.8,609.5s2.6,50.8,2.5,50.8,5.7-9.8,5.7-9.8l-2.4-27.6-1.7-5.4s-.7,13.5-.7,13.2S164.8,609.5,164.8,609.5Z" fill="#413e38"/><polygon points="171.7 657.7 171.7 660.3 176.4 657.7 199.7 656.2 171.7 657.7" fill="#413e38"/><path d="M165.4,670.1c.3-.3,5.3-2.2,6.3-2.6s19.2-3.5,19.2-3.5l-18.8,1.6Z" fill="#413e38"/><path d="M214.5,225.5l-7.6,6.7-9.9,3.7,6,1.3,12.8-2.4,4.8,4.3-2.6,3.7-7.1-1.2-6.9,6.7-13.1,10.3s-1.9,21.5-1.7,21.2-3.4-8.6-3.4-10,2.5-22,2.5-22l.7-3.7-4.7,5.6,1.7-5.3-8.8,8.7,4.1-9.3-10.1,11.5,5.2-10.9s-10.2,10.7-9.9,10.1l6.4-11.3-9.3,9.4L167,244l-8.3,7.6c.3-.4,4.9-8.7,4.9-8.7l-12.4,13.5-8.1,16.3-3.8,13.9v17.3l9.9.8-9.9,2.4,14.5,4.2-18,2.5-11.9,19.5-8.2,16.5-1.6,15.7-4.8,3.7-9.5,3.3,1.2-8.9,11.3-21.7,8.6-14.7,11.9-17v-3.1h-3.3l1.4-13.8,3.9-9.7,17.4-37.5s13.5-10.1,13.6-10.5S214.5,225.5,214.5,225.5Z" fill="#505251"/><path d="M222.2,224.2l-15.3,8-7.9-4-9.3,5.3,9.3,6.9-6,5.2-6.5-2.5-3.8-5.9-19.1,1.9-13.2,14.3-9.9,20.8-5.2,22.2,2.6,11.8-5.7-9.7,2.6-14.9s11.3-28.8,11.6-30.5,5.8-9.2,5.8-9.2l11.4-9.9,19.9-7.7,24.4-4.3Z" fill="#fea"/><path d="M203.5,239.1h2.9s-15.7,18.4-16.4,18.3,0-2.9,0-2.9Z"/><path d="M210.9,237.2l4.1,1.9-4.1,2.5-6.9,6.7-4.7-.9Z" fill="#fea"/><path d="M102,367.3s3.8,1.4,4.1,1.2,2.4-1.8,2.4-2.6,2-13.1,2.3-13.8,11.5-23.5,11.8-24,14-16.4,14-16.4l-3.8-1.5-11.9,17-12.7,26.4Z" fill="#fea"/><path d="M103.1,374.3v5L91.9,388l-6,11.3-3.6,12.1,9.2-1.7s12.5-8.7,12.8-9.1.7,2.7.7,2.7L71.8,440.1s-4.8,10.7-5.2,10.3a33.6,33.6,0,0,1-1.8-4.3s16.7-37.2,16.8-37.7,5.2-18.5,5.2-18.5l9.5-11Z" fill="#fea"/><path d="M103.9,382l-.8-2.7-9.8,5.4-6.6,8.6-6.1,21.1-14,36L81,474.1s16.2,4.7,16.2,3.9,51.9-31.5,51.9-31.5l-40.6,19.6S91,469.3,91,468.8s-6.1-1.1-6.1-1.1v-2.1L115.6,448l12.3-12.8,7.8-1.5-8.2-7,1.6,5-6.3-3,2.8,5.9-6.9-4.8s3.6,7.7,3.2,7.3-7.8-4.5-7.8-4.5l2.9,7.1-6.1-4.5L113,442l-5.2-4,2.2,7.8-6.9-5.2s1.7,8.5,1.9,8.1-5.2-5.4-5.2-5.4,2.2,8.2,2.2,7.7-5.8-5.1-5.8-5.1l2.3,7.2L92,447l1.6,8.6-3.4-4.3s-.2,5.8-.1,5.3-2.6,1.3-2.6,1.3l-2.6-2.6-6,2.2v-2.7H77.1L71,447.5l3.4-8.3,34.1-38.3-.7-3.2-3.5,2.9L85.9,409l3.2-12,5.7-9Z" fill="#413e38"/><path d="M105.7,373.6l.9,10.1,1.2,14,.7,3.2,10.8,15.3,8.2,10.5,8.2,7s17.7,7.7,17.7,7.3,14.8-9.5,15-10,15.1-16.8,15.1-16.8l-12.1-19.7-9.6-22-1.6-16.1Z" fill="#7e2829"/><polygon points="131.3 380.5 106.6 383.7 105.7 373.6 154.7 359 155.8 407.3 135.7 433.7 127.5 426.7 108.5 400.9 131.3 380.5" fill="#984233"/><polygon points="108.3 374.3 108.3 377.6 117.5 376 151.7 363.8 112.2 373.2 108.3 374.3" fill="#fe8357"/><polygon points="153.6 368.5 153.6 388.4 128 410 118.3 414.2 110.8 403.9 153.6 368.5" fill="#fe8357"/><path d="M161.3,413.6l.9,7.3-11.6,6.7C151.1,427.3,161.3,413.6,161.3,413.6Z" fill="#984233"/><path d="M143.7,437.2c-.1-.1,20.1-11.8,20.1-11.8l-11.3,11.8-3.4,2.2Z" fill="#984233"/><path d="M280.3,455.1c-.4-.7-33.9-35.3-33.9-35.3l38.2-11.7s25.5-1.1,26.1-2,14.4,0,14.4,0l4.3,5.6-3.7,2.2c.1-.1-6.3-4-6.3-4s-8,8.1-7.5,8.1,7.4,19.2,7.4,19.2l-22,13-8.1,4.9Z" fill="#fe8357"/><path d="M289.3,427.5c-.3-1-7.4-12.3-7.1-13.4s23.8-7.3,23.8-7.3l5.8,6-.8,9.6,8.3,14.8s-4.1,2.7-3.8,2.3-8.6-15.6-8.6-15.6Z" fill="#fea"/><path d="M358.4,463.3c-1.4-.9-17.8-5.3-17.8-5.3H315.4l-3.6,7.2h5.9l36.8.9Z" fill="#fe8357"/><polygon points="287.9 474.1 297.3 478.8 306 486 314.2 502 328.4 500.1 323.8 482.7 327.2 478.3 329.4 476.8 328.4 474.9 321.2 476.4 314.3 475.3 309.9 470.1 287.9 474.1" fill="#fe8357"/><path d="M330.1,473.9c.4-.4,9.2,1.8,9.2,1.8s11.4-1.5,11.4-1.8,5-2.1,5-2.5a14.7,14.7,0,0,0-1.2-2.5l-11.6,2.6Z" fill="#fe8357"/><path d="M290,527.7c-.5-1.2-17.7-32.4-17.7-32.4l2.6-3.5s17.4,1,17.5.6,20.4,16.1,20.4,16.1l-2.8,5.6,6.9.9,12.5,2.4,3.3,2.9s-18.1-2-18.4-3-14.6-.3-14.8-.9a49.3,49.3,0,0,0-5.6-5.6c-.4-.1-4.6,4.9-4.6,4.9v7.7c0-.5,13.2,5.4,13.2,5.4l21.9,4.8-1,2.3-47.6-7Z" fill="#fe8357"/><path d="M386.5,486.9l-5.7,2.6s-1,10.1-.9,9.4-5.4-1.7-5.4-1.7l-8.1,6.1L355.7,506l-5.1,6.9-6.8,2.1,2.4-5.5s11.1-7.1,11.1-7.5,18.8-15.1,18.8-15.1Z" fill="#fe8357"/><polygon points="336.5 521.6 341.6 517.4 378.1 516.9 346.9 521.2 336.5 521.6" fill="#fe8357"/><path d="M341.7,527l17.5,10.8,5.2,1.4,11.4,1.3L377,528s-10.5-.1-10.6-1-4.4-4-4.4-4Z" fill="#984233"/><path d="M299.9,549.5l-3.8-6.9,22.3.5s1.5,8.3,1.3,7.5S299.9,549.5,299.9,549.5Z" fill="#fe8357"/><path d="M132.7,737.8l-18,60.3h8.6c30.6-.2,132.3-1,132.5-2.1s35.6-63.1,34.9-64.8S306,710.9,306,710.9l22.4,4.3,24.7,34.1s20.3,51.9,19,51.9,63.2,0,63.8-1.8,14.7-82.9,14.7-82.9l-6.9-21.2-10.1-25.6-13.3-18.6-29.4-31.9-10.5-42.4-39.8,5.6-4.7,7.9-36.4,8.1-3.4-6.4h-8L273,597.3l-.7,4.6-19.5,35.6-43,31.3-45.9,51.4-20.6,15.1Z" fill="#7e2829"/><path d="M263.9,708.1c-.2-1.4-20.4,38.6-20.4,38.6v17l2.3,32.9-122.5,1.5,20-62.8,20.6-15.1,45.9-51.4,22.5-15.2h18.3l-11.4-6.1,9.5-7,26.8,30.9s10.7,19.8,9.7,19.1-16.8-14.9-16.8-14.9l-14.9-15.3,4.2,15.3,8.4,16.2Z" fill="#984233"/><path d="M162.9,728.4l7.7,19s.5,14.6,0,13.6-14.8,37.1-14.8,37.1h22.4L193,781.4l2.9-6.5s28.8-22,29.2-22.9,41-60.2,41-60.2l-5.9-9.7L241.9,664h12.6l-1-3.7-12.3-6.7h-8.9l-22.5,15.2-45.9,51.4Z" fill="#ea6848"/><path d="M168.9,733.8l9.3,15.2-3,13-19.4,36.1,9.6-.3s20.5-35.1,20.3-35.8,10.1-2.8,10.1-2.8,6.5,1.7,6.5,1.2,19-14.8,19-14.8L252,696.9l6.3-11.3C260.2,682.1,237,667,237,667l4.9-3h9.6c-.3,0-3.1-3.7-3.1-3.7l-8.3-4.1-10.2,2,2.4,5.8h-8.9l-16.3,11.4-32.6,43.9Z" fill="#fea16a"/><polygon points="252.8 637.5 274.7 647.5 279.7 656.2 251.5 643.8 248.7 640.5 252.8 637.5" fill="#ea6848"/><path d="M260.2,624.2s33.1-20,34-20.4,43.9-7.4,43.9-7.4,15.8-4.2,16.8-4.2h30.6l8.1,29.8-16.5,5.1,9.4,5.4,15.8-1,5.5,6-10.5,3,5,2.9c-.7-.4,8.3-2.9,8.3-2.9l9.7,10.6s-44.4,31.1-44.4,30.2-11.5,2.8-11.5,2.8,14-18,14.3-18.6,14.2-16.1,14.2-16.1l-12.5,2.8-16,23.5L332.9,664l-38.7,20.1-14.5-27.9-5-8.7s-5.5-14.2-5.5-15.1-12-2.9-12-2.9Z" fill="#984233"/><path d="M282.6,616.6l17.2-13.9,34.7-4.3-1.3,55.2v6.7s-3.1,3.3-4.8,1.8-19.8-21.6-19.8-21.6H292.5Z" fill="#ea6848"/><path d="M344.3,631.8c.4,1.2-7.8,26.4-7.8,26.4l6,5.8,16.6,9.5s6.6-3.1,6.6-3.4S383,644.4,383,644.4l2.2,3.1,12.1-7,10.5-3-5.5-6-15.8,1s-15,18.8-14.4,17.8-7.7-12.8-7.7-12.8l-13.2-6Z" fill="#ea6848"/><path d="M386.1,801.1c-.3-1.3-9.3-28.5-9.3-28.5V750l21.7-29.1L414,662.5l10.2-5.9,9.4,13.1,10.1,25.6,6.9,21.2,39.2,33.2,11.4,48.2S386.9,803.9,386.1,801.1Z" fill="#984233"/><polygon points="472.7 686.7 489.8 749.7 450.6 716.5 443.7 695.3 472.7 686.7"/><path d="M420.3,666.7c.2,0,8.2,9.6,8.2,9.6L452,725.8l4.4,35-5.8,26.3-4.8,14.8s-43.7.8-43.5,0-6.3-37.4-6.3-37.4-12.8-23.1-11.9-24.3,1.7-7.9,2.3-11,18.6-43.3,18.9-45.1,3.7-12.1,4-13S420.3,666.7,420.3,666.7Z" fill="#ea6848"/><path d="M384,666.7c-.1-1.3,28.4-22.8,28.4-22.8h-6.2l-27.5,21.6Z" fill="#ea6848"/><path d="M382.1,673.5c.4-.9,11.1-5.2,12-6.8s22-17,21.3-17.3-14.6,7.2-14.6,7.2Z" fill="#ea6848"/><path d="M462.5,572.5l8.8,58-5.9,6.2-11.8-3.4,2.8,4.8,6,2.1s10.6-3.1,10.7-4.1,2.4-5.6,2.4-5.6l-11-61.4Z" fill="#413e38"/><path d="M468.6,540.5s1.6,12.8,1.8,12.1,3-.6,2.7-1-1.8-11.5-1.8-11.5Z" fill="#413e38"/><path d="M402.3,580.3l-3.5,24.3,7.8,10.6v19s8.4,10.7,8.8,9.7.4-36.8,0-37.6-4.6-4.1-4.6-4.1l26.8-12.4-20.9,2.4-10.9-13.3Z" fill="#413e38"/><path d="M404.1,604.6h3.7v32.9h5.9c.1,0-2.9-39.7-2.9-40.3s6.3-1.9,6.3-1.9l11-3.1s-7.7-1.6-7.9-2.2-4.8-7.5-4.8-7.5l-3.8-3.8-5.8.2Z" fill="#eebb76"/><polygon points="183.5 300.9 186.5 319.7 193.7 329.6 177.8 319.9 184.8 330.3 165.3 319 173.6 317.2 163.8 311.5 183.5 315.9 183.5 300.9" fill="#413e38"/><path d="M331.3,117.6l5.4-5.2,11.9,12.5c.2.2-3.9,9.2-3.9,9.2l-9-15.3Z" fill="#fea"/><path d="M451.6,248l2.7,6.4,20.3,9.5-4.6,4.2c.5-.5,13.4,0,13.4,0l-1.5-5.1,15.6,4.2L511,281.7l10.5,26.6,2.9,14.9v14.5l3.7-11.3-3.7-25.6-10.7-23.5-15.4-12.9-17.6-7.5Z" fill="#fea"/><path d="M524,427.8c.6-.6,5.4,1.9,5.1,1s-7.6-27.9-7.6-27.9Z" fill="#fea"/><path d="M547.2,499.8s-15.8-43.6-16-43.8l-18.3-14.1,17.8,24.6,4.2,13.9Z" fill="#fea"/><polygon points="361.7 405.7 343.8 417.9 364.4 436.2 383.5 443.4 384.7 423.2 387.9 417.9 374.6 406.8 361.7 405.7" fill="#fea"/><path d="M273.2,243.1s-7.8,21-7.3,20.5,4.6.5,4.6,0,7.1-17.3,7.1-17.3Z" fill="#fea"/><path d="M273.8,265.4a48.6,48.6,0,0,1,5.4,0l1,1.4s-11.7,2.1-11.8,1.8S273.8,265.4,273.8,265.4Z" fill="#fea"/><path d="M256.6,275.6c.4-.4,1.8-.9,2-1.4s17.2.7,17.2.7l.8,6.4s-21.6-4-21.6-4.2A11,11,0,0,1,256.6,275.6Z" fill="#fea"/><path d="M234,282.2c0,.4,7.7,7.3,7.7,7.3v1.8l20.8,7.2,7.8-6.9-21.7-5.5-4.6,1.5-8.4-4.4Z" fill="#fea"/><path d="M239,302l2.9-2.2,16.7,7.9s-1.7,4.2-1.7,3.6-18-7.4-17.9-7.7A8.5,8.5,0,0,0,239,302Z" fill="#fea"/><polygon points="218 320.5 221.2 318.6 226.4 318.2 222.2 321.6 218 321.3 218 320.5" fill="#fea"/><path d="M191.1,578.2l6.7,43.8s5.2-.1,5.2-1,.4-7.5.4-7.5l-3.8-30.4-1.1-6.9Z" fill="#bd8d5b"/><path d="M185.3,578.2h5.8l6.7,43.8s-6.3.6-6.3,0S185.3,578.2,185.3,578.2Z" fill="#8b735b"/><polygon points="328.4 715.2 343.8 706.1 350.7 686.7 364.4 675.7 378.7 665.5 364.4 684.1 353.5 690.3 347.5 707.9 328.4 715.2"/><polygon points="306 710.9 290.7 689 281.5 682.7 285.2 690.5 306 710.9"/></g></svg>