<svg xmlns="http://www.w3.org/2000/svg" id="Layer_1" width="468" height="468" viewBox="0 0 468 468"><style>.st0{fill:#fff}</style><path d="M388.1 80.5c-41.2-41.2-96-63.9-154.3-63.9S120.7 39.3 79.5 80.5s-63.9 96-63.9 154.3 22.7 113.1 63.9 154.3 96 63.9 154.3 63.9 113.1-22.7 154.3-63.9 63.9-96 63.9-154.3-22.7-113.1-63.9-154.3zM233.8 433c-109.3 0-198.2-88.9-198.2-198.2S124.5 36.6 233.8 36.6 432 125.5 432 234.8 343.1 433 233.8 433z" class="st0"/><path d="M346.3 120H123.6c-16 0-29.1 13.1-29.1 29.1v167.8c0 6.9 2.4 13.3 6.5 18.3.7 1.2 1.6 2.3 2.8 3.2.2.2.5.3.7.5 5.1 4.4 11.8 7.1 19.1 7.1h222.7c16 0 29.1-13.1 29.1-29.1V149.1c0-16-13.1-29.1-29.1-29.1zm-231.8 34.8l65.6 62.1-65.6 89.9v-152zm122.8 88.7l-35.5-33.7c-.6-.9-1.4-1.8-2.4-2.5-.2-.2-.5-.3-.7-.5L128 140h212.6L237.3 243.5zm-42.6-12.7l35.9 34c1.9 1.8 4.4 2.7 6.9 2.7 2.6 0 5.1-1 7.1-2.9l35.4-35.5 64 96.9H125.2l69.5-95.2zm97.5-14l63.2-63.3v159l-63.2-95.7z" class="st0"/></svg>