<?xml version="1.0" encoding="utf-8"?>
<!-- Generator: Adobe Illustrator 21.1.0, SVG Export Plug-In . SVG Version: 6.00 Build 0)  -->
<svg version="1.1" id="Layer_1" xmlns="http://www.w3.org/2000/svg" xmlns:xlink="http://www.w3.org/1999/xlink" x="0px" y="0px"
	 viewBox="0 0 468 468" style="enable-background:new 0 0 468 468;" xml:space="preserve">
<style type="text/css">
	.st0{fill:#FFFFFF;}
</style>
<g>
	<path class="st0" d="M388.1,80.5c-41.2-41.2-96-63.9-154.3-63.9S120.7,39.3,79.5,80.5s-63.9,96-63.9,154.3s22.7,113.1,63.9,154.3
		s96,63.9,154.3,63.9s113.1-22.7,154.3-63.9s63.9-96,63.9-154.3S429.3,121.7,388.1,80.5z M233.8,433
		c-109.3,0-198.2-88.9-198.2-198.2S124.5,36.6,233.8,36.6S432,125.5,432,234.8S343.1,433,233.8,433z"/>
	<path class="st0" d="M346.3,120H123.6c-16,0-29.1,13.1-29.1,29.1v167.8c0,6.9,2.4,13.3,6.5,18.3c0.7,1.2,1.6,2.3,2.8,3.2
		c0.2,0.2,0.5,0.3,0.7,0.5c5.1,4.4,11.8,7.1,19.1,7.1h222.7c16,0,29.1-13.1,29.1-29.1V149.1C375.4,133.1,362.3,120,346.3,120z
		 M114.5,154.8l65.6,62.1l-65.6,89.9C114.5,306.8,114.5,154.8,114.5,154.8z M237.3,243.5l-35.5-33.7c-0.6-0.9-1.4-1.8-2.4-2.5
		c-0.2-0.2-0.5-0.3-0.7-0.5L128,140h212.6L237.3,243.5z M194.7,230.8l35.9,34c1.9,1.8,4.4,2.7,6.9,2.7c2.6,0,5.1-1,7.1-2.9
		l35.4-35.5l64,96.9H125.2L194.7,230.8z M292.2,216.8l63.2-63.3v159L292.2,216.8z"/>
</g>
</svg>
