<svg xmlns="http://www.w3.org/2000/svg"><symbol id="behance" viewBox="0 0 468 468"><style>.st0{fill:#fff}</style><path d="M88.2 141.1H175c9.6-.3 19.1 1 28.2 4 12.8 4.5 22.4 12.8 26.9 25.9 4.5 12.6 3.8 26.7-2 38.7-3.3 6-8.3 10.8-14.3 14.1l-3.5 2.3 7.5 3.8c10.1 5.8 16.9 15.6 18.9 26.9 2.8 12.3 1.5 25.4-4 36.7-5.8 12.8-16.6 22.4-29.9 26.7-8.6 2.8-17.6 4-26.7 3.8H88.2V141.1zm42.3 151.4h.8c15.8-.3 31.7 0 47.5-.5 5.8 0 11.6-2.8 15.3-7 5.5-6.5 6.3-14.3 5.3-22.4-.5-6.8-4.8-12.8-11.1-15.3-3.8-1.8-7.8-2.8-12.1-3-14.6-.5-29.2-.3-43.5-.5-2.3 0-2.5.8-2.5 2.8v43.8c.3.4.3 1.1.3 2.1zm.2-119.4c0 1-.3 1.8-.3 2.3v35.5c0 2 .5 2.5 2.5 2.5h35.7c4-.3 8-.8 12.1-1.5 4.5-.8 8.6-3 11.6-6.5 3.3-4.8 4.5-10.8 3.5-16.6-1-6.8-4.5-11.8-11.8-13.3-5-1-10.1-1.8-15.1-2-9.3-.3-18.1-.3-27.4-.3l-10.8-.1zm252.3 90h-95.8c.3 2.3.3 4.3.8 6.3 2 12.3 8.3 20.9 20.4 24.4 8.8 3 18.6 2.3 26.9-1.8 3.8-2 7-5 8.8-8.6.8-2 2.8-3 4.8-2.8h31.9c-.8 5.8-2.8 11.3-6.3 16.1-8.3 12.8-21.6 21.6-36.5 24.7-15.6 3.8-31.9 2.8-47-3-19.1-7.5-32.2-20.9-36.2-41.8-3.5-16.3-3-33.2 1.5-49.3 3.5-12.6 11.1-23.4 21.6-30.9 12.8-9.3 27.4-12.6 42.5-12.1 12.1 0 24.1 3.5 34.5 9.8 8.8 5.8 15.8 13.8 20.4 23.1 4 8.6 6.5 18.1 6.8 27.7 0 .8.3 1.8.5 2.5l.4 15.7zm-36-22.9c-.5-10.6-4.3-19.1-13.8-23.9-10.1-5.8-22.4-5.5-32.2.5-8.3 5-11.6 13.8-13.3 23.4H347zm7.1-91V167h-73.4v-17.9h73.4z" class="st0"/><path d="M388.1 79.5c-41.2-41.2-96-63.9-154.3-63.9S120.7 38.3 79.5 79.5s-63.9 96-63.9 154.3 22.7 113.1 63.9 154.3 96 63.9 154.3 63.9 113.1-22.7 154.3-63.9 63.9-96 63.9-154.3-22.7-113.1-63.9-154.3zM233.8 432c-109.3 0-198.2-88.9-198.2-198.2S124.5 35.6 233.8 35.6 432 124.5 432 233.8 343.1 432 233.8 432z" class="st0"/></symbol><symbol id="insta" viewBox="0 0 468 468"><style>.st0{fill:#fff}</style><path d="M233.4 121c36.8 0 41.4 0 55.5.8 8.8 0 17.6 1.9 26 5 11.9 4.6 21.5 14.2 26 26 3.1 8 4.6 16.9 4.6 25.7.8 14.6.8 18.8.8 55.5s0 41.4-.8 55.5c0 8.8-1.5 17.6-4.6 25.7-4.6 11.9-14.2 21.5-26 26-8 3.1-16.9 4.6-25.7 4.6-14.6.8-18.8.8-55.5.8s-41.4 0-55.5-.8c-8.8 0-17.6-1.1-26-4.2-11.9-4.6-21.5-14.2-26-26-3.1-8-4.6-16.9-4.6-25.7-.8-14.6-.8-18.8-.8-55.5s0-41.4.8-55.5c0-8.8 1.5-17.6 4.6-25.7 4.6-12.3 14.2-21.8 26-26.4 8-3.1 16.9-4.6 25.7-4.6 14.6-.8 18.8-.8 55.5-.8m0-25c-37.5 0-42.1 0-56.7.8-11.5.4-22.6 2.3-33.3 6.5-18.8 6.9-33.3 21.8-40.6 40.2-4.2 10.7-6.1 21.8-6.5 33.3-.8 14.6-.8 19.5-.8 56.7s0 42.1.8 56.7c.4 11.5 2.3 22.6 6.5 33.3 7.3 18.8 21.8 33.3 40.6 40.6 10.7 4.2 21.8 6.1 33.3 6.5 14.6.8 19.5.8 56.7.8s42.1 0 56.7-.8c11.5-.4 22.6-2.3 33.3-6.5 18.8-6.9 33.7-21.5 41-40.2 3.8-10.7 6.1-21.8 6.1-33.3.8-14.6.8-19.5.8-56.7s0-42.1-.8-56.7c-.4-11.5-2.3-22.6-6.5-33.3-6.9-18.8-21.5-33.7-40.2-41-10.7-4.2-21.8-6.1-33.3-6.5-14.9-.4-19.5-.8-57.1-.8v.4z" class="st0"/><path d="M233.4 163.1c-39.1 0-70.9 31.8-70.9 70.9s31.8 70.9 70.9 70.9 70.9-31.8 70.9-70.9c0-39.1-31.8-70.9-70.9-70.9zm0 116.8c-25.3 0-46-20.7-46-46s20.7-46 46-46 46 20.7 46 46-20.7 46-46 46z" class="st0"/><circle cx="307.3" cy="160.4" r="16.5" class="st0"/><path d="M387.7 79.7c-41.2-41.2-96-63.9-154.3-63.9S120.3 38.5 79.1 79.7s-63.9 96-63.9 154.3 22.7 113.1 63.9 154.3 96 63.9 154.3 63.9 113.1-22.7 154.3-63.9 63.9-96 63.9-154.3-22.7-113.1-63.9-154.3zM233.4 432.2c-109.3 0-198.2-88.9-198.2-198.2S124.1 35.8 233.4 35.8 431.6 124.7 431.6 234s-88.9 198.2-198.2 198.2z" class="st0"/></symbol><symbol id="email" viewBox="0 0 468 468"><style>.st0{fill:#fff}</style><path d="M388.1 80.5c-41.2-41.2-96-63.9-154.3-63.9S120.7 39.3 79.5 80.5s-63.9 96-63.9 154.3 22.7 113.1 63.9 154.3 96 63.9 154.3 63.9 113.1-22.7 154.3-63.9 63.9-96 63.9-154.3-22.7-113.1-63.9-154.3zM233.8 433c-109.3 0-198.2-88.9-198.2-198.2S124.5 36.6 233.8 36.6 432 125.5 432 234.8 343.1 433 233.8 433z" class="st0"/><path d="M346.3 120H123.6c-16 0-29.1 13.1-29.1 29.1v167.8c0 6.9 2.4 13.3 6.5 18.3.7 1.2 1.6 2.3 2.8 3.2.2.2.5.3.7.5 5.1 4.4 11.8 7.1 19.1 7.1h222.7c16 0 29.1-13.1 29.1-29.1V149.1c0-16-13.1-29.1-29.1-29.1zm-231.8 34.8l65.6 62.1-65.6 89.9v-152zm122.8 88.7l-35.5-33.7c-.6-.9-1.4-1.8-2.4-2.5-.2-.2-.5-.3-.7-.5L128 140h212.6L237.3 243.5zm-42.6-12.7l35.9 34c1.9 1.8 4.4 2.7 6.9 2.7 2.6 0 5.1-1 7.1-2.9l35.4-35.5 64 96.9H125.2l69.5-95.2zm97.5-14l63.2-63.3v159l-63.2-95.7z" class="st0"/></symbol><symbol id="placeholder-circle" viewBox="0 0 256 256"><defs><style>.a{fill:#e2e2e2}.b{fill:#666}.c{fill:none;stroke:#666;stroke-miterlimit:10;stroke-width:4px}</style></defs><path d="M128 253a125 125 0 1 1 125-125 125.1 125.1 0 0 1-125 125z" class="a"/><path d="M128 5a123 123 0 0 1 87 210A123 123 0 1 1 41 41a122.2 122.2 0 0 1 87-36m0-4a127 127 0 1 0 127 127A127 127 0 0 0 128 1z" class="b"/><path d="M40 41l177.3 177.3m-2-177.6L40.5 215.5" class="c"/></symbol><symbol id="wordmarkl" viewBox="0 0 544 66.6"><style>.st0{fill:#fdfefe}.st1{fill:#548f96}.st2{fill:#636466}</style><path d="M380.2 55.9c9.1 0 15-9.6 15-22.3s-5.9-22.4-15-22.4h-10v44.7m10-5h-6l14-17.1-14-17.6h6c7.2 0 11.2 7.7 11.2 17.4s-4.1 17.3-11.2 17.3z" class="st0"/><path d="M370.2 11.2l18 22.6-18 22.1z" class="st1"/><path d="M123.2 10.5h-13.5v44.7l12.2-14.9 3-3.7c4.6-.5 8.9-4.5 8.9-12.6s-4.4-13.5-10.6-13.5zm3.1 20.9l-12.7-15.9h9.1c4 0 6.7 3.5 6.7 8.5 0 3.3-1.2 6-3.1 7.4zm-27-4H79.1V14.2h20.7v-3.7H75.4L75.3 31h24zM79 37.1h20.3v-3.6h-24l.1 21.8h24.4v-3.7H79.1zm61.5-26.6h3.6v44.8h-3.6V10.5zm112.6.7h3.6v44.7h-3.6V11.2zm210.8 0h3.6v44.7h-3.6V11.2zm22.5 16.7h13.7v3.7h-13.7z" class="st0"/><path d="M496.5 34.2h-10.1v3.7h10.1V47c-.8 1.1-1.7 2-2.7 2.8a9.06 9.06 0 0 1-5.2 2c-4.9 0-8.9-4.5-10.5-11.4-.1-.8-.3-1.6-.4-2.5-.1-.8-.2-1.7-.2-2.5-.1-.6-.1-1.2-.1-1.8 0-10.7 4.8-18.2 11.2-18.2 1.9.1 3.7.8 5.2 2 1.1.9 2 2 2.7 3.2l.6 1 2.9-2.7c-.9-1.8-2.1-3.4-3.5-4.9-.8-.9-1.7-1.6-2.7-2.2-1.6-.9-3.4-1.3-5.2-1.3-8.3 0-15 9.2-15 23.1 0 .6 0 1.2.1 1.8 0 .8.1 1.7.1 2.5s.3 1.7.4 2.5c1.8 10 7.6 16.3 14.4 16.3 1.8 0 3.6-.5 5.2-1.3 1-.5 1.9-1.1 2.7-1.9 1.5-1.3 2.7-2.8 3.6-4.5V34.2h-3.6zM48.6 27.4V10.5H45v44.8h3.6V31h14.5v-3.6z" class="st0"/><path d="M65.4 10.5v23H51.3V37h14.1v18.3H69V10.5zM424.7 28h-20.2l.1-13.1h20.6v-3.8h-24.4l-.1 20.5h24zm-20.2 9.9h20.2v-3.8h-24l.1 21.8h24.4v-3.7h-20.7zM273 55.9c9.1 0 15-9.6 15-22.3s-5.9-22.4-15-22.4h-10v44.7m10-5h-6l14-17.1-14-17.6h6c7.2 0 11.2 7.7 11.2 17.4s-4.1 17.3-11.2 17.3zm26-9.9zm19.3 0h-13.8l-.8 3.9 11.1.1 3.4 10.9h4.7zm-6.6-7.2z" class="st0"/><path d="M312.9 38.2h4.4l-5.6-18.4-2.6-8.6h-5.3l-2.6 8.5-4.3 14.1-2.3 7.2-4.5 14.9h4.7l3-9.9 1.2-5 2.2-7.2 5.3-17.6 2.7 9.3m22.6 20.2V11.2h-3.6v38.1h1.8v.1h22.4v-3.7zm-3.6 6.5v3.7h24.2v-3.7zm-199.4 3.1h5L126.1 39l-3 3.7z" class="st0"/><path d="M109.7 55.3l12.2-15-12.2 14.9zm15.2-18.7zm-3 3.7z" class="st2"/><path d="M171 10.5v38L156.8 27v6.4l14.4 21.9h3.5V10.5z" class="st0"/><path d="M154.2 10.5h-3.7v44.8h3.6V17l14 22.2v-6.8m75-21.2v38l-14.2-21.5v6.4L243.2 56h3.6V11.2z" class="st0"/><path d="M226.3 11.2h-3.7V56h3.6V17.7l14 22.2v-6.8m286.8-22v38l-14.2-21.5V34l14.4 21.9h3.5V11.1z" class="st0"/><path d="M510.2 11.1h-3.7v44.8h3.6V17.6l14 22.3V33" class="st0"/><path d="M27.2 24.7c-3.1-.8-5.9-1.5-7.4-3.1-.6-.6-.9-1.5-.9-2.4 0-3.2 2.9-5.4 7-5.4 3.7-.2 7.3 1.3 9.9 4l2.6-3.1c-2.9-3-6.9-4.7-12.2-4.7s-11.7 3.8-11.7 9.4c0 .7 0 1.5.2 2.2 1.2 4.8 6.5 6.1 11.4 7.4s6.8 1.8 8.1 4.1l2.8-3.7c-2.4-2.5-6.2-3.7-9.8-4.7zm-1.1 10c-3-.9-5.3-1.9-6.7-3.6l-2.7 3.6c2.5 2.3 5.2 3.2 8.3 4.4s7.8 2 9.1 4.5c.3.7.5 1.5.5 2.3 0 2.7-2 6.1-8 6.1-4.2 0-8.1-1.9-10.7-5.1l-2.5 3.4c2.8 3.3 7.1 5.6 13 5.6 9.2 0 12.6-5.2 12.6-10.4 0-.7-.1-1.5-.3-2.2-1.1-5.6-7.6-7.2-12.6-8.6zm178.8-10.2c-3.1-.8-5.9-1.5-7.4-3.1-.6-.6-.9-1.5-.9-2.4 0-3.2 2.9-5.4 7-5.4 3.7-.1 7.3 1.3 9.9 4l2.6-3.1c-3.3-3.2-7.7-4.9-12.2-4.7-6.7 0-11.7 3.8-11.7 9.4 0 .7 0 1.5.2 2.2 1.2 4.8 6.5 6.2 11.4 7.4s6.8 1.9 8.1 4.1l2.8-3.7c-2.4-2.5-6.2-3.7-9.8-4.7zm-1 10c-3.1-.9-5.4-1.9-6.8-3.6l-2.7 3.7c2.5 2.2 5.2 3.2 8.3 4.4s7.8 1.9 9.1 4.4c.3.7.5 1.5.5 2.3 0 2.7-2 6.1-8 6.1-4.1 0-8-1.8-10.7-5l-2.5 3.3c2.8 3.3 7.1 5.6 13 5.6 9.2 0 12.6-5.2 12.6-10.4 0-.7-.1-1.5-.3-2.2-1.1-5.6-7.6-7.2-12.5-8.6zm240.7-9.2c-3.1-.8-6-1.6-7.4-3.1-.6-.7-.9-1.6-.9-2.5 0-3.2 2.9-5.3 7-5.3 3.7-.1 7.3 1.3 9.9 4l2.6-3.1c-2.9-3-7-4.7-12.2-4.7-6.7 0-11.8 3.8-11.8 9.4 0 .7.1 1.5.3 2.2 1.2 4.8 6.5 6.1 11.3 7.4s6.9 1.8 8.2 4.1l2.8-3.7c-2.4-2.6-6.3-3.7-9.8-4.7zm-1.1 10c-3-.9-5.3-2-6.7-3.6l-2.7 3.6c2.4 2.2 5.1 3.2 8.3 4.4s7.8 2 9 4.5c.4.7.6 1.5.5 2.3 0 2.7-1.9 6.1-8 6.1-4.1-.1-8-1.9-10.7-5.1l-2.5 3.4c2.8 3.3 7.2 5.6 13.1 5.6 9.2 0 12.5-5.3 12.5-10.4 0-.7 0-1.5-.2-2.2-1.1-5.6-7.6-7.3-12.6-8.6zM109.7 10.6l18 22.6-18 22zm153.3.6l18 22.6-18 22.1z" class="st1"/></symbol></svg>