<?xml version="1.0" encoding="utf-8"?>
<!-- Generator: Adobe Illustrator 22.0.1, SVG Export Plug-In . SVG Version: 6.00 Build 0)  -->
<svg version="1.1" id="Layer_1" xmlns="http://www.w3.org/2000/svg" xmlns:xlink="http://www.w3.org/1999/xlink" x="0px" y="0px"
	 viewBox="0 0 150 150" style="enable-background:new 0 0 150 150;" xml:space="preserve">
<style type="text/css">
	.st0{fill:none;}
	.st1{fill:#FFFFFF;}
</style>
<path class="st0" d="M0,84.4v4.4c0.5,0.2,0.9,0.4,1.4,0.6c-0.3-1.6-0.6-3.2-0.8-4.8C0.4,84.6,0.2,84.5,0,84.4z"/>
<path d="M0.6,84.7c0.2,1.6,0.5,3.2,0.8,4.8c0.7,0.3,1.3,0.6,2,0.9C5.2,91.2,7,92,8.6,92.9c-0.5-1.7-0.9-3.5-1.2-5.2
	c-0.8-0.4-1.5-0.7-2.3-1.1C3.6,85.9,2.1,85.3,0.6,84.7z"/>
<path d="M142.8,42.9c1.3-1.5,2.8-3.1,4.4-4.7l1.4-1.4L116.1,3.2l-1.5,1.5c-1.5,1.5-2.9,2.9-4.3,4.1C99.7,3.2,87.7,0,75,0
	C33.6,0,0,33.6,0,75c0,2.1,0.1,4.2,0.3,6.3l0.8,0.3c1.8,0.7,3.6,1.4,5.3,2.2c0.2,0.1,0.3,0.2,0.5,0.2c-0.4-3-0.6-6-0.6-9.1
	c0-9.3,1.8-18.3,5.4-26.8c3.5-8.2,8.4-15.5,14.7-21.9c6.3-6.3,13.7-11.3,21.9-14.7C56.7,8.1,65.7,6.2,75,6.2s18.3,1.8,26.8,5.4
	c1.1,0.5,2.3,1,3.4,1.5c-7.7,6.1-13.4,8.4-17.1,9.2c-5,1.1-7.4-0.4-7.7-0.6l-2.5-2.2L63.8,76.8l4.9,5.6l25.6-26l1.3,1.3L70.5,83.9
	l4.5,5.6l54-13.8l3.3-0.8l-2.2-2.5c-0.2-0.3-1.7-2.6-0.6-7.7c0.8-3.6,3-9.1,8.8-16.6c0,0,0,0,0,0c3.6,8.5,5.4,17.5,5.4,26.8
	s-1.8,18.3-5.4,26.8c-3.5,8.2-8.4,15.5-14.7,21.9c-6.3,6.3-13.7,11.3-21.9,14.7c-8.5,3.6-17.5,5.4-26.8,5.4s-18.3-1.8-26.8-5.4
	c-8.2-3.5-15.5-8.4-21.9-14.7c-6.3-6.3-11.3-13.7-14.7-21.9c-0.7-1.6-1.3-3.2-1.8-4.8c-2.4-1.3-4.9-2.6-7.6-3.9
	C10.3,125.8,39.8,150,75,150c41.4,0,75-33.6,75-75C150,63.5,147.4,52.6,142.8,42.9z M125.3,64.7c-0.6,3.4-0.3,6,0.3,7.7l-49,12.5
	L76,84.2l25.5-26.5l-7.1-7L68.9,76.3l-0.6-0.7l12.1-49.3c1.7,0.5,4.2,0.9,7.7,0.2c8-1.4,17.4-7.3,27.9-17.5l26.9,27.7
	C132.7,47.3,126.8,56.7,125.3,64.7z"/>
<path class="st1" d="M116,9.1c-10.5,10.2-19.9,16.1-27.9,17.5c-3.4,0.6-6,0.3-7.7-0.2L68.3,75.7l0.6,0.7l25.4-25.7l7.1,7L76,84.2
	l0.6,0.7l49-12.5c-0.5-1.7-0.9-4.3-0.3-7.7c1.4-8,7.3-17.4,17.6-27.9L116,9.1z"/>
<path class="st1" d="M17.5,91.4c6.8,3.9,12.2,6.9,19.2,6.9c0.3,0,0.7,0,1,0c8.8-0.4,17.5-5.2,26.1-14.4l1-1.1l5.2,4.8l-1,1.1
	c-9.9,10.7-20.3,16.3-31,16.7c-0.4,0-0.9,0-1.3,0c0,0,0,0,0,0c-1.6,0-3.3-0.1-4.9-0.4c-6.5-1.1-12-4.2-17.8-7.5
	c-1.6-0.9-3.1-1.8-4.8-2.7c0.2,0.7,0.4,1.4,0.7,2.1c1.2,0.6,2.3,1.3,3.4,1.9c5.9,3.4,11.5,6.5,18.3,7.6c1.7,0.3,3.4,0.4,5.1,0.4
	c0.5,0,0.9,0,1.4,0c11.1-0.5,21.9-6.2,32-17.2l2-2.2l-2.2-2l-3-2.8l-2.2-2l-2,2.2c-8.3,8.9-16.7,13.6-25,14c-0.3,0-0.6,0-1,0
	c-6.6,0-11.6-2.8-18.5-6.7c-3.3-1.9-7-4-11.4-6c0.1,0.6,0.2,1.2,0.3,1.8C11,87.7,14.4,89.6,17.5,91.4z"/>
<path class="st0" d="M31.5,106.5c1.7,0.3,3.4,0.4,5.1,0.4c0.5,0,0.9,0,1.4,0c11.1-0.5,21.9-6.2,32-17.2l2-2.2l-2.2-2l-3-2.8l-2.2-2
	l-2,2.2c-8.3,8.9-16.7,13.6-25,14c-0.3,0-0.6,0-1,0c-6.6,0-11.6-2.8-18.5-6.7c-3.3-1.9-7-4-11.4-6c0.1,0.6,0.2,1.2,0.3,1.8
	c3.9,1.9,7.3,3.8,10.4,5.5c6.8,3.9,12.2,6.9,19.2,6.9c0.3,0,0.7,0,1,0c8.8-0.4,17.5-5.2,26.1-14.4l1-1.1l5.2,4.8l-1,1.1
	c-9.9,10.7-20.3,16.3-31,16.7c-0.4,0-0.9,0-1.3,0c0,0,0,0,0,0c-1.6,0-3.3-0.1-4.9-0.4c-6.5-1.1-12-4.2-17.8-7.5
	c-1.6-0.9-3.1-1.8-4.8-2.7c0.2,0.7,0.4,1.4,0.7,2.1c1.2,0.6,2.3,1.3,3.4,1.9C19.1,102.2,24.7,105.4,31.5,106.5z"/>
<g>
	<path class="st0" d="M31.5,106.5c1.7,0.3,3.4,0.4,5.1,0.4c0.5,0,0.9,0,1.4,0c11.1-0.5,21.9-6.2,32-17.2l2-2.2l-2.2-2l-3-2.8l-2.2-2
		l-2,2.2c-8.3,8.9-16.7,13.6-25,14c-0.3,0-0.6,0-1,0c-6.6,0-11.6-2.8-18.5-6.7c-3.3-1.9-7-4-11.4-6c0.1,0.6,0.2,1.2,0.3,1.8
		c3.9,1.9,7.3,3.8,10.4,5.5c6.8,3.9,12.2,6.9,19.2,6.9c0.3,0,0.7,0,1,0c8.8-0.4,17.5-5.2,26.1-14.4l1-1.1l5.2,4.8l-1,1.1
		c-9.9,10.7-20.3,16.3-31,16.7c-0.4,0-0.9,0-1.3,0c0,0,0,0,0,0c-1.6,0-3.3-0.1-4.9-0.4c-6.5-1.1-12-4.2-17.8-7.5
		c-1.6-0.9-3.1-1.8-4.8-2.7c0.2,0.7,0.4,1.4,0.7,2.1c1.2,0.6,2.3,1.3,3.4,1.9C19.1,102.2,24.7,105.4,31.5,106.5z"/>
	<g>
		<path class="st0" d="M31.5,106.5c1.7,0.3,3.4,0.4,5.1,0.4c0.5,0,0.9,0,1.4,0c11.1-0.5,21.9-6.2,32-17.2l2-2.2l-2.2-2l-3-2.8
			l-2.2-2l-2,2.2c-8.3,8.9-16.7,13.6-25,14c-0.3,0-0.6,0-1,0c-6.6,0-11.6-2.8-18.5-6.7c-3.3-1.9-7-4-11.4-6c0.1,0.6,0.2,1.2,0.3,1.8
			c3.9,1.9,7.3,3.8,10.4,5.5c6.8,3.9,12.2,6.9,19.2,6.9c0.3,0,0.7,0,1,0c8.8-0.4,17.5-5.2,26.1-14.4l1-1.1l5.2,4.8l-1,1.1
			c-9.9,10.7-20.3,16.3-31,16.7c-0.4,0-0.9,0-1.3,0c0,0,0,0,0,0c-1.6,0-3.3-0.1-4.9-0.4c-6.5-1.1-12-4.2-17.8-7.5
			c-1.6-0.9-3.1-1.8-4.8-2.7c0.2,0.7,0.4,1.4,0.7,2.1c1.2,0.6,2.3,1.3,3.4,1.9C19.1,102.2,24.7,105.4,31.5,106.5z"/>
		<path class="st1" d="M14,97.6c5.8,3.3,11.3,6.4,17.8,7.5c1.6,0.3,3.2,0.4,4.9,0.4c0,0,0,0,0,0c0.4,0,0.9,0,1.3,0
			c10.7-0.4,21.1-6.1,31-16.7l1-1.1l-5.2-4.8l-1,1.1C55.2,93,46.4,97.9,37.7,98.3c-0.3,0-0.7,0-1,0c-7,0-12.4-3.1-19.2-6.9
			c-3-1.7-6.5-3.7-10.4-5.5c-0.1-0.6-0.2-1.2-0.3-1.8c-0.2-0.1-0.3-0.2-0.5-0.2c-1.7-0.8-3.5-1.5-5.3-2.2l-0.8-0.3
			c0,0.6,0.1,1.1,0.2,1.7c0.1,0.6,0.1,1.1,0.2,1.7c1.5,0.6,3,1.2,4.5,1.9c0.8,0.4,1.6,0.7,2.3,1.1c3.5,1.7,6.6,3.4,9.3,5
			c7,4,12.5,7.1,19.9,7.1c0.4,0,0.7,0,1.1,0c9.2-0.4,18.3-5.4,27.1-14.9l3,2.8c-9.6,10.4-19.7,15.8-30,16.2c-0.4,0-0.8,0-1.3,0
			c-1.6,0-3.2-0.1-4.6-0.4c-6.3-1-11.5-4-17.3-7.3c-2-1.1-4-2.2-6.1-3.4C7,92,5.2,91.2,3.4,90.3c-0.7-0.3-1.3-0.6-2-0.9
			c0.1,0.6,0.2,1.2,0.4,1.8c0.1,0.6,0.3,1.2,0.4,1.8C5,94.3,7.5,95.6,9.8,97c-0.2-0.7-0.4-1.4-0.7-2.1C10.8,95.8,12.4,96.7,14,97.6z
			"/>
		<path class="st1" d="M138.3,48.2C138.3,48.2,138.3,48.2,138.3,48.2c-5.8,7.4-8.1,12.9-8.8,16.6c-1.1,5,0.4,7.4,0.6,7.7l2.2,2.5
			l-3.3,0.8L75,89.6l-4.5-5.6l25.2-26.2l-1.3-1.3l-25.6,26l-4.9-5.6l14.1-57.2l2.5,2.2c0.3,0.2,2.6,1.7,7.7,0.6
			c3.7-0.8,9.4-3.1,17.1-9.2c-1.1-0.5-2.2-1-3.4-1.5C93.3,8.1,84.3,6.2,75,6.2s-18.3,1.8-26.8,5.4c-8.2,3.5-15.5,8.4-21.9,14.7
			c-6.3,6.3-11.3,13.7-14.7,21.9C8.1,56.7,6.2,65.7,6.2,75c0,3.1,0.2,6.1,0.6,9.1c4.3,2,8.1,4.1,11.4,6c6.9,3.9,11.9,6.7,18.5,6.7
			c0.3,0,0.6,0,1,0c8.3-0.3,16.8-5,25-14l2-2.2l2.2,2l3,2.8l2.2,2l-2,2.2c-10.1,11-20.9,16.7-32,17.2c-0.5,0-0.9,0-1.4,0
			c-1.7,0-3.4-0.1-5.1-0.4c-6.8-1.1-12.4-4.3-18.3-7.6c-1.1-0.6-2.2-1.3-3.4-1.9c0.5,1.6,1.2,3.2,1.8,4.8
			c3.5,8.2,8.4,15.5,14.7,21.9c6.3,6.3,13.7,11.3,21.9,14.7c8.5,3.6,17.5,5.4,26.8,5.4s18.3-1.8,26.8-5.4
			c8.2-3.5,15.5-8.4,21.9-14.7c6.3-6.3,11.3-13.7,14.7-21.9c3.6-8.5,5.4-17.5,5.4-26.8S141.9,56.7,138.3,48.2z"/>
	</g>
</g>
<path d="M37.8,99.8c-0.4,0-0.7,0-1.1,0c-7.4,0-13-3.2-19.9-7.1c-3.4-1.9-7.2-4.1-11.6-6.1c-1.7-0.8-3.4-1.5-5.1-2.1v4.4
	c1.1,0.5,2.3,0.9,3.4,1.4c4.3,1.9,7.9,4,11.3,5.9c5.8,3.3,11.1,6.3,17.3,7.3c1.5,0.2,3,0.4,4.6,0.4c0.4,0,0.8,0,1.3,0
	c10.3-0.4,20.4-5.9,30-16.2l-3-2.8C56,94.4,46.9,99.4,37.8,99.8z"/>
</svg>
