<?xml version="1.0" encoding="utf-8"?>
<!-- Generator: Adobe Illustrator 21.1.0, SVG Export Plug-In . SVG Version: 6.00 Build 0)  -->
<svg version="1.1" id="Layer_1" xmlns="http://www.w3.org/2000/svg" xmlns:xlink="http://www.w3.org/1999/xlink" x="0px" y="0px"
	 viewBox="0 0 468 468" style="enable-background:new 0 0 468 468;" xml:space="preserve">
<style type="text/css">
	.st0{fill:#FFFFFF;}
</style>
<path class="st0" d="M233.4,121c36.8,0,41.4,0,55.5,0.8c8.8,0,17.6,1.9,26,5c11.9,4.6,21.5,14.2,26,26c3.1,8,4.6,16.9,4.6,25.7
	c0.8,14.6,0.8,18.8,0.8,55.5s0,41.4-0.8,55.5c0,8.8-1.5,17.6-4.6,25.7c-4.6,11.9-14.2,21.5-26,26c-8,3.1-16.9,4.6-25.7,4.6
	c-14.6,0.8-18.8,0.8-55.5,0.8s-41.4,0-55.5-0.8c-8.8,0-17.6-1.1-26-4.2c-11.9-4.6-21.5-14.2-26-26c-3.1-8-4.6-16.9-4.6-25.7
	c-0.8-14.6-0.8-18.8-0.8-55.5s0-41.4,0.8-55.5c0-8.8,1.5-17.6,4.6-25.7c4.6-12.3,14.2-21.8,26-26.4c8-3.1,16.9-4.6,25.7-4.6
	c14.6-0.8,18.8-0.8,55.5-0.8 M233.4,96.4c-37.5,0-42.1,0-56.7,0.8c-11.5,0.4-22.6,2.3-33.3,6.5c-18.8,6.9-33.3,21.8-40.6,40.2
	c-4.2,10.7-6.1,21.8-6.5,33.3c-0.8,14.6-0.8,19.5-0.8,56.7s0,42.1,0.8,56.7c0.4,11.5,2.3,22.6,6.5,33.3
	c7.3,18.8,21.8,33.3,40.6,40.6c10.7,4.2,21.8,6.1,33.3,6.5c14.6,0.8,19.5,0.8,56.7,0.8s42.1,0,56.7-0.8c11.5-0.4,22.6-2.3,33.3-6.5
	c18.8-6.9,33.7-21.5,41-40.2c3.8-10.7,6.1-21.8,6.1-33.3c0.8-14.6,0.8-19.5,0.8-56.7s0-42.1-0.8-56.7c-0.4-11.5-2.3-22.6-6.5-33.3
	c-6.9-18.8-21.5-33.7-40.2-41c-10.7-4.2-21.8-6.1-33.3-6.5c-14.9-0.4-19.5-0.8-57.1-0.8V96.4z"/>
<path class="st0" d="M233.4,163.1c-39.1,0-70.9,31.8-70.9,70.9s31.8,70.9,70.9,70.9s70.9-31.8,70.9-70.9l0,0
	C304.3,194.9,272.5,163.1,233.4,163.1L233.4,163.1z M233.4,279.9c-25.3,0-46-20.7-46-46s20.7-46,46-46s46,20.7,46,46
	S258.7,279.9,233.4,279.9z"/>
<circle class="st0" cx="307.3" cy="160.4" r="16.5"/>
<path class="st0" d="M387.7,79.7c-41.2-41.2-96-63.9-154.3-63.9S120.3,38.5,79.1,79.7s-63.9,96-63.9,154.3s22.7,113.1,63.9,154.3
	s96,63.9,154.3,63.9s113.1-22.7,154.3-63.9s63.9-96,63.9-154.3S428.9,120.9,387.7,79.7z M233.4,432.2
	c-109.3,0-198.2-88.9-198.2-198.2S124.1,35.8,233.4,35.8S431.6,124.7,431.6,234S342.7,432.2,233.4,432.2z"/>
</svg>
