<svg xmlns="http://www.w3.org/2000/svg" id="Layer_1" width="468" height="468" viewBox="0 0 468 468"><style>.st0{fill:#fff}</style><path d="M233.4 121c36.8 0 41.4 0 55.5.8 8.8 0 17.6 1.9 26 5 11.9 4.6 21.5 14.2 26 26 3.1 8 4.6 16.9 4.6 25.7.8 14.6.8 18.8.8 55.5s0 41.4-.8 55.5c0 8.8-1.5 17.6-4.6 25.7-4.6 11.9-14.2 21.5-26 26-8 3.1-16.9 4.6-25.7 4.6-14.6.8-18.8.8-55.5.8s-41.4 0-55.5-.8c-8.8 0-17.6-1.1-26-4.2-11.9-4.6-21.5-14.2-26-26-3.1-8-4.6-16.9-4.6-25.7-.8-14.6-.8-18.8-.8-55.5s0-41.4.8-55.5c0-8.8 1.5-17.6 4.6-25.7 4.6-12.3 14.2-21.8 26-26.4 8-3.1 16.9-4.6 25.7-4.6 14.6-.8 18.8-.8 55.5-.8m0-25c-37.5 0-42.1 0-56.7.8-11.5.4-22.6 2.3-33.3 6.5-18.8 6.9-33.3 21.8-40.6 40.2-4.2 10.7-6.1 21.8-6.5 33.3-.8 14.6-.8 19.5-.8 56.7s0 42.1.8 56.7c.4 11.5 2.3 22.6 6.5 33.3 7.3 18.8 21.8 33.3 40.6 40.6 10.7 4.2 21.8 6.1 33.3 6.5 14.6.8 19.5.8 56.7.8s42.1 0 56.7-.8c11.5-.4 22.6-2.3 33.3-6.5 18.8-6.9 33.7-21.5 41-40.2 3.8-10.7 6.1-21.8 6.1-33.3.8-14.6.8-19.5.8-56.7s0-42.1-.8-56.7c-.4-11.5-2.3-22.6-6.5-33.3-6.9-18.8-21.5-33.7-40.2-41-10.7-4.2-21.8-6.1-33.3-6.5-14.9-.4-19.5-.8-57.1-.8v.4z" class="st0"/><path d="M233.4 163.1c-39.1 0-70.9 31.8-70.9 70.9s31.8 70.9 70.9 70.9 70.9-31.8 70.9-70.9c0-39.1-31.8-70.9-70.9-70.9zm0 116.8c-25.3 0-46-20.7-46-46s20.7-46 46-46 46 20.7 46 46-20.7 46-46 46z" class="st0"/><circle cx="307.3" cy="160.4" r="16.5" class="st0"/><path d="M387.7 79.7c-41.2-41.2-96-63.9-154.3-63.9S120.3 38.5 79.1 79.7s-63.9 96-63.9 154.3 22.7 113.1 63.9 154.3 96 63.9 154.3 63.9 113.1-22.7 154.3-63.9 63.9-96 63.9-154.3-22.7-113.1-63.9-154.3zM233.4 432.2c-109.3 0-198.2-88.9-198.2-198.2S124.1 35.8 233.4 35.8 431.6 124.7 431.6 234s-88.9 198.2-198.2 198.2z" class="st0"/></svg>