<?xml version="1.0" encoding="utf-8"?>
<!-- Generator: Adobe Illustrator 22.0.1, SVG Export Plug-In . SVG Version: 6.00 Build 0)  -->
<svg version="1.1" xmlns="http://www.w3.org/2000/svg" xmlns:xlink="http://www.w3.org/1999/xlink" x="0px" y="0px"
	 viewBox="0 0 1000 935.6" style="enable-background:new 0 0 1000 935.6;" xml:space="preserve">
<style type="text/css">
	.st0{fill:#FFFFFF;stroke:#231F20;stroke-miterlimit:10;}
	.st1{fill:#636466;}
	.st2{fill:#4B616A;}
</style>
<g id="Box">
	<rect x="12.3" y="16.1" class="st0" width="979.7" height="907.6"/>
	<path d="M978.8,21.2v893.1H21.2V21.2H978.8 M1000,0H0v935.6h1000V0L1000,0z"/>
</g>
<g id="Full_Name">
	<path class="st1" d="M664,50.1h-77v0.5v254.2l69.6-85.1l0,0l0,0l0,0l0,0l17-20.7c26.1-3.1,50.4-26,50.4-71.9
		C724,79.9,699,50.1,664,50.1z M681.4,169l-72.3-90.7h51.9c22.7,0,38.2,19.9,38.2,48.6C699.3,145.8,692.5,160.8,681.4,169z"/>
	<g>
		<polygon class="st1" points="527.8,146.3 412.5,146.3 412.8,71.3 530.3,71.3 530.3,50.1 391.3,50.1 391,166.8 527.8,166.8 		"/>
		<polygon class="st1" points="412.2,201.6 527.8,201.6 527.8,180.7 391,180.7 391.3,305.2 530.3,305.2 530.3,284.1 412.5,284.1 		
			"/>
	</g>
	<path class="st1" d="M762.3,50.1H783v255.1h-20.7V50.1z"/>
	<path class="st1" d="M391.3,340.3H412v254.2h-20.7V340.3z"/>
	<path class="st1" d="M576.6,629.3h20.7v254.2h-20.7V629.3z"/>
	<rect x="705" y="760" class="st1" width="41.9" height="21.1"/>
	<rect x="705" y="724.6" class="st1" width="77.8" height="21.2"/>
	<path class="st1" d="M762.3,760h-0.2v14.3v58.5c-3.6,5.5-8.9,11.4-15.2,16.3c-8.2,6.4-18.2,11.1-29.4,11.1
		c-27.9,0-50.6-25.7-59.7-64.8c-1.1-4.6-1.9-9.3-2.6-14.3c-0.6-4.6-0.9-9.4-1.2-14.3c-0.2-3.5-0.6-6.8-0.6-10.3
		c0-60.6,27.7-103.3,64.1-103.3c10.7,0,20.8,4.3,29.4,11.4c5.9,4.8,11.1,10.9,15.4,18c1.1,1.9,2.3,3.7,3.3,5.7l16.5-15.6
		c-5.7-10.7-12.2-20.2-19.7-27.8c-4.7-4.8-9.8-8.9-15.4-12.1c-8.7-4.9-18.4-7.7-29.4-7.7c-47.4,0-85.5,52.6-85.5,131.5
		c0,3.5,0.2,6.9,0.3,10.3c0.2,4.9,0.6,9.6,1.1,14.3c0.5,4.9,1.2,9.7,2,14.3c10.3,56.9,43,93,82.1,93c10.5,0,20.4-2.7,29.4-7.5
		c5.4-2.9,10.6-6.5,15.4-10.8c7.8-7,14.6-15.6,20.5-25.6v-70.4V760H762.3z"/>
	<polygon class="st1" points="239,146.1 239,50.1 218.4,50.1 218.4,173.2 218.4,305.2 239,305.2 239,188.1 239,173.2 239,166.5 
		321.5,166.5 321.5,146.1 	"/>
	<polygon class="st1" points="334.7,50.1 334.7,159.8 334.7,173.2 334.7,180.7 254.4,180.7 254.4,200.6 334.7,200.6 334.7,305.2 
		355.2,305.2 355.2,173.2 355.2,50.1 	"/>
	<g>
		<polygon class="st1" points="353.6,725 238.3,725 238.6,650 356.1,650 356.1,628.8 217.1,628.8 216.8,745.5 353.6,745.5 		"/>
		<polygon class="st1" points="238.1,781.3 353.6,781.3 353.6,759.5 216.8,759.5 217.1,883.9 356.1,883.9 356.1,862.8 238.3,862.8 
					"/>
	</g>
	<path class="st1" d="M504.8,340.3H448v254.2h20.7v0.8l0.5-0.8h35.6c51.6,0,85.3-54.5,85.3-126.9
		C590.1,395.5,556.5,340.3,504.8,340.3z M504.8,566.3l-34,0.2l79.7-97.5l-80.1-100.5h34.3c41.2,0,63.8,44.2,63.8,99.1
		C568.7,522,545.2,566.3,504.8,566.3z"/>
	<path class="st1" d="M100,629.3H43.1v254.2h20.7v0.8l0.5-0.8H100c51.6,0,85.3-54.5,85.3-126.9C185.3,684.6,151.6,629.3,100,629.3z
		 M100,855.3l-33.6,0.2l79.4-97.5L65.3,657.5H100c41.2,0,63.8,44.2,63.8,99.1C163.8,811.1,140.4,855.3,100,855.3z"/>
	<polygon class="st1" points="653.2,509.9 653.2,509.9 653.2,509.8 	"/>
	<polygon class="st1" points="762.8,509.9 684.1,509.9 679.5,531.8 743.2,532.5 762.1,594.5 789,594.5 	"/>
	<polygon class="st1" points="725.4,469 725.4,469 725.4,469 	"/>
	<polyline class="st1" points="732.2,493.8 756.9,493.8 725.4,388.9 710.4,340.3 680.4,340.3 665.5,388.5 640.7,469 628.2,509.9 
		602.1,594.5 629,594.5 646.2,538.1 653.2,509.9 653.2,509.8 665.5,469 695.5,368.5 711.3,421.5 	"/>
	<rect x="819.2" y="340.3" class="st1" width="20.6" height="217"/>
	<rect x="854.6" y="536.7" class="st1" width="102.2" height="20.7"/>
	<polygon class="st1" points="819.2,573.8 819.2,594.5 848.2,594.5 956.8,594.5 956.8,573.8 	"/>
	<polygon class="st1" points="695.8,305.2 724,305.2 680.4,212.3 663.4,233.1 	"/>
	<polygon class="st1" points="587,305.2 656.6,219.6 587,304.7 	"/>
	<polygon class="st1" points="673.6,198.8 673.6,198.8 673.6,198.8 	"/>
	<polygon class="st1" points="656.6,219.6 656.6,219.6 656.6,219.6 	"/>
	<polygon class="st1" points="936.2,50.1 936.2,134.2 936.2,219.1 936.2,266.1 855.3,143.9 855.3,180.3 936.9,305.2 956.9,305.2 
		956.9,219.1 956.9,134.2 956.9,50.1 	"/>
	<polyline class="st1" points="840.3,50.1 819.1,50.1 819.1,134.2 819.1,219.1 819.1,305.2 839.8,305.2 839.8,219.1 839.8,134.2 
		839.8,86.8 919.3,213.6 919.3,174.7 	"/>
	<polygon class="st1" points="334.7,340.2 334.7,424.4 334.7,509.2 334.7,556.3 253.7,434.1 253.7,470.4 335.4,595.3 355.4,595.3 
		355.4,509.2 355.4,424.4 355.4,340.2 	"/>
	<polyline class="st1" points="238.8,340.2 217.5,340.2 217.5,424.4 217.5,509.2 217.5,595.3 238.3,595.3 238.3,509.2 238.3,424.4 
		238.3,377 317.8,503.7 317.8,464.8 	"/>
	<polygon class="st1" points="936.2,628.9 936.2,713 936.2,797.9 936.2,844.9 855.3,722.7 855.3,759.1 936.9,884 956.9,884 
		956.9,797.9 956.9,713 956.9,628.9 	"/>
	<polyline class="st1" points="840.3,628.9 819.1,628.9 819.1,713 819.1,797.9 819.1,884 839.8,884 839.8,797.9 839.8,713 
		839.8,665.7 919.3,792.4 919.3,753.5 	"/>
</g>
<g id="S1">
	<path d="M117,131c-17.5-4.7-33.9-8.9-42-17.8c-3.4-3.7-5.4-8.3-5.4-14c0-18.2,16.7-30.6,40.1-30.6c21.4,0,41.9,7.2,56.5,23.1
		L180.8,74c-16.4-17-39.5-26.9-69.4-26.9c-38.3,0-67,21.7-67,53.5c0,4.6,0.5,8.8,1.5,12.5c6.9,27.4,37.2,35,64.7,42.1
		c20.2,5.4,39,10.5,46.3,23.6l15.9-21.2C159.4,143.1,137.3,136.3,117,131z"/>
	<path d="M111,187.6c-17.4-4.9-30.3-11-38.3-20.3L57.2,188c14.1,12.6,29.3,18.3,47.4,25.1c19.6,7.4,44.4,11.3,51.5,25.3
		c1.9,3.7,2.9,8,2.9,13.1c0,15.4-11,34.8-45.6,34.8c-27.3,0-48.2-13.9-61-28.8l-14.2,19.1c16,18.8,40.7,32.1,74.4,32.1
		c52.3,0,71.5-30,71.5-59.3c0-4.6-0.4-8.8-1.2-12.7C176.2,204.7,139.2,195.4,111,187.6z"/>
</g>
<g id="S2">
	<path d="M117,416.1c-17.5-4.7-33.9-8.9-42-17.8c-3.4-3.7-5.4-8.3-5.4-14c0-18.2,16.7-30.6,40.1-30.6c21.4,0,41.9,7.2,56.5,23.1
		l14.6-17.6c-16.4-17-39.5-26.9-69.4-26.9c-38.3,0-67,21.7-67,53.5c0,4.6,0.5,8.8,1.5,12.5c6.9,27.4,37.2,35,64.7,42.1
		c20.2,5.4,39,10.5,46.3,23.6l15.9-21.2C159.4,428.3,137.4,421.5,117,416.1z"/>
	<path d="M111,472.8c-17.4-4.9-30.3-11-38.3-20.3l-15.5,20.6c14.1,12.6,29.3,18.3,47.4,25.1c19.6,7.4,44.4,11.3,51.5,25.3
		c1.9,3.7,2.9,8,2.9,13.1c0,15.4-11,34.8-45.6,34.8c-27.3,0-48.2-13.9-61-28.8l-14.2,19.1c16,18.8,40.7,32.1,74.4,32.1
		c52.3,0,71.5-30,71.5-59.3c0-4.6-0.4-8.8-1.2-12.7C176.3,489.9,139.3,480.6,111,472.8z"/>
</g>
<g id="S3">
	<path d="M466.6,709.6c-17.5-4.7-33.9-8.9-42-17.8c-3.4-3.7-5.4-8.3-5.4-14c0-18.2,16.7-30.6,40.1-30.6c21.4,0,41.9,7.2,56.5,23.1
		l14.6-17.6c-16.4-17-39.5-26.9-69.4-26.9c-38.3,0-67,21.7-67,53.5c0,4.6,0.5,8.8,1.5,12.5c6.9,27.4,37.2,35,64.7,42.1
		c20.2,5.4,39,10.5,46.3,23.6l15.9-21.2C509,721.7,486.9,714.9,466.6,709.6z"/>
	<path d="M460.6,766.2c-17.4-4.9-30.3-11-38.3-20.3l-15.5,20.6c14.1,12.6,29.3,18.3,47.4,25.1c19.6,7.4,44.4,11.3,51.5,25.3
		c1.9,3.7,2.9,8,2.9,13.1c0,15.4-11,34.8-45.6,34.8c-27.3,0-48.2-13.9-61-28.8l-14.2,19.1c16,18.8,40.7,32.1,74.4,32.1
		c52.3,0,71.5-30,71.5-59.3c0-4.6-0.4-8.8-1.2-12.7C525.8,783.3,488.8,774,460.6,766.2z"/>
</g>
<g id="D1">
	<polygon class="st2" points="587,50.5 689.6,179.2 587,304.7 	"/>
</g>
<g id="D2">
	<g>
		<polygon points="448,340.2 550.6,468.9 448,594.4 		"/>
	</g>
	<g>
		<polygon class="st2" points="448,340.2 550.6,468.9 448,594.4 		"/>
	</g>
</g>
<g id="D3">
	<polygon class="st2" points="43.1,629.7 145.7,758.4 43.1,883.9 	"/>
</g>
</svg>
