<svg xmlns="http://www.w3.org/2000/svg" width="1000" height="935.6" viewBox="0 0 1000 935.6"><style>.st0{fill:#fff;stroke:#231f20;stroke-miterlimit:10}.st1{fill:#636466}.st2{fill:#4b616a}</style><g id="Box"><path d="M12.3 16.1H992v907.6H12.3z" class="st0"/><path d="M978.8 21.2v893.1H21.2V21.2h957.6M1000 0H0v935.6h1000V0z"/></g><g id="Full_Name"><path d="M664 50.1h-77v254.7l69.6-85.1 17-20.7c26.1-3.1 50.4-26 50.4-71.9 0-47.2-25-77-60-77zM681.4 169l-72.3-90.7H661c22.7 0 38.2 19.9 38.2 48.6.1 18.9-6.7 33.9-17.8 42.1zm-153.6-22.7H412.5l.3-75h117.5V50.1h-139l-.3 116.7h136.8zm-115.6 55.3h115.6v-20.9H391l.3 124.5h139v-21.1H412.5zM762.3 50.1H783v255.1h-20.7V50.1zm-371 290.2H412v254.2h-20.7V340.3zm185.3 289h20.7v254.2h-20.7V629.3zM705 760h41.9v21.1H705zm0-35.4h77.8v21.2H705z" class="st1"/><path d="M762.3 760h-.2v72.8c-3.6 5.5-8.9 11.4-15.2 16.3-8.2 6.4-18.2 11.1-29.4 11.1-27.9 0-50.6-25.7-59.7-64.8-1.1-4.6-1.9-9.3-2.6-14.3-.6-4.6-.9-9.4-1.2-14.3-.2-3.5-.6-6.8-.6-10.3 0-60.6 27.7-103.3 64.1-103.3 10.7 0 20.8 4.3 29.4 11.4 5.9 4.8 11.1 10.9 15.4 18 1.1 1.9 2.3 3.7 3.3 5.7l16.5-15.6c-5.7-10.7-12.2-20.2-19.7-27.8-4.7-4.8-9.8-8.9-15.4-12.1-8.7-4.9-18.4-7.7-29.4-7.7-47.4 0-85.5 52.6-85.5 131.5 0 3.5.2 6.9.3 10.3.2 4.9.6 9.6 1.1 14.3.5 4.9 1.2 9.7 2 14.3 10.3 56.9 43 93 82.1 93 10.5 0 20.4-2.7 29.4-7.5 5.4-2.9 10.6-6.5 15.4-10.8 7.8-7 14.6-15.6 20.5-25.6V760h-20.6zM239 146.1v-96h-20.6v255.1H239V166.5h82.5v-20.4z" class="st1"/><path d="M334.7 50.1v130.6h-80.3v19.9h80.3v104.6h20.5V50.1zM353.6 725H238.3l.3-75h117.5v-21.2h-139l-.3 116.7h136.8zm-115.5 56.3h115.5v-21.8H216.8l.3 124.4h139v-21.1H238.3zm266.7-441H448v254.2h20.7v.8l.5-.8h35.6c51.6 0 85.3-54.5 85.3-126.9 0-72.1-33.6-127.3-85.3-127.3zm0 226l-34 .2 79.7-97.5-80.1-100.5h34.3c41.2 0 63.8 44.2 63.8 99.1.2 54.4-23.3 98.7-63.7 98.7zm-404.8 63H43.1v254.2h20.7v.8l.5-.8H100c51.6 0 85.3-54.5 85.3-126.9 0-72-33.7-127.3-85.3-127.3zm0 226l-33.6.2 79.4-97.5-80.5-100.5H100c41.2 0 63.8 44.2 63.8 99.1 0 54.5-23.4 98.7-63.8 98.7zm553.2-345.4v-.1zm109.6 0h-78.7l-4.6 21.9 63.7.7 18.9 62H789zM725.4 469z" class="st1"/><path d="M732.2 493.8h24.7l-31.5-104.9-15-48.6h-30l-14.9 48.2-24.8 80.5-12.5 40.9-26.1 84.6H629l17.2-56.4 7-28.2v-.1l12.3-40.8 30-100.5 15.8 53m107.9-81.2h20.6v217h-20.6zm35.4 196.4h102.2v20.7H854.6zm-35.4 37.1v20.7h137.6v-20.7zM695.8 305.2H724l-43.6-92.9-17 20.8zm-108.8 0l69.6-85.6-69.6 85.1zm86.6-106.4zm-17 20.8zM936.2 50.1v216l-80.9-122.2v36.4l81.6 124.9h20V50.1z" class="st1"/><path d="M840.3 50.1h-21.2v255.1h20.7V86.8l79.5 126.8v-38.9M334.7 340.2v216.1l-81-122.2v36.3l81.7 124.9h20V340.2z" class="st1"/><path d="M238.8 340.2h-21.3v255.1h20.8V377l79.5 126.7v-38.9m618.4 164.1v216l-80.9-122.2v36.4L936.9 884h20V628.9z" class="st1"/><path d="M840.3 628.9h-21.2V884h20.7V665.7l79.5 126.7v-38.9" class="st1"/></g><path id="S1" d="M117 131c-17.5-4.7-33.9-8.9-42-17.8-3.4-3.7-5.4-8.3-5.4-14 0-18.2 16.7-30.6 40.1-30.6 21.4 0 41.9 7.2 56.5 23.1L180.8 74c-16.4-17-39.5-26.9-69.4-26.9-38.3 0-67 21.7-67 53.5 0 4.6.5 8.8 1.5 12.5 6.9 27.4 37.2 35 64.7 42.1 20.2 5.4 39 10.5 46.3 23.6l15.9-21.2c-13.4-14.5-35.5-21.3-55.8-26.6zm-6 56.6c-17.4-4.9-30.3-11-38.3-20.3L57.2 188c14.1 12.6 29.3 18.3 47.4 25.1 19.6 7.4 44.4 11.3 51.5 25.3 1.9 3.7 2.9 8 2.9 13.1 0 15.4-11 34.8-45.6 34.8-27.3 0-48.2-13.9-61-28.8l-14.2 19.1c16 18.8 40.7 32.1 74.4 32.1 52.3 0 71.5-30 71.5-59.3 0-4.6-.4-8.8-1.2-12.7-6.7-32-43.7-41.3-71.9-49.1z"/><path id="S2" d="M117 416.1c-17.5-4.7-33.9-8.9-42-17.8-3.4-3.7-5.4-8.3-5.4-14 0-18.2 16.7-30.6 40.1-30.6 21.4 0 41.9 7.2 56.5 23.1l14.6-17.6c-16.4-17-39.5-26.9-69.4-26.9-38.3 0-67 21.7-67 53.5 0 4.6.5 8.8 1.5 12.5 6.9 27.4 37.2 35 64.7 42.1 20.2 5.4 39 10.5 46.3 23.6l15.9-21.2c-13.4-14.5-35.4-21.3-55.8-26.7zm-6 56.7c-17.4-4.9-30.3-11-38.3-20.3l-15.5 20.6c14.1 12.6 29.3 18.3 47.4 25.1 19.6 7.4 44.4 11.3 51.5 25.3 1.9 3.7 2.9 8 2.9 13.1 0 15.4-11 34.8-45.6 34.8-27.3 0-48.2-13.9-61-28.8l-14.2 19.1c16 18.8 40.7 32.1 74.4 32.1 52.3 0 71.5-30 71.5-59.3 0-4.6-.4-8.8-1.2-12.7-6.6-31.9-43.6-41.2-71.9-49z"/><path id="S3" d="M466.6 709.6c-17.5-4.7-33.9-8.9-42-17.8-3.4-3.7-5.4-8.3-5.4-14 0-18.2 16.7-30.6 40.1-30.6 21.4 0 41.9 7.2 56.5 23.1l14.6-17.6c-16.4-17-39.5-26.9-69.4-26.9-38.3 0-67 21.7-67 53.5 0 4.6.5 8.8 1.5 12.5 6.9 27.4 37.2 35 64.7 42.1 20.2 5.4 39 10.5 46.3 23.6l15.9-21.2c-13.4-14.6-35.5-21.4-55.8-26.7zm-6 56.6c-17.4-4.9-30.3-11-38.3-20.3l-15.5 20.6c14.1 12.6 29.3 18.3 47.4 25.1 19.6 7.4 44.4 11.3 51.5 25.3 1.9 3.7 2.9 8 2.9 13.1 0 15.4-11 34.8-45.6 34.8-27.3 0-48.2-13.9-61-28.8l-14.2 19.1c16 18.8 40.7 32.1 74.4 32.1 52.3 0 71.5-30 71.5-59.3 0-4.6-.4-8.8-1.2-12.7-6.7-31.9-43.7-41.2-71.9-49z"/><path id="D1" d="M587 50.5l102.6 128.7L587 304.7z" class="st2"/><g id="D2"><path d="M448 340.2l102.6 128.7L448 594.4z"/><path d="M448 340.2l102.6 128.7L448 594.4z" class="st2"/></g><path id="D3" d="M43.1 629.7l102.6 128.7L43.1 883.9z" class="st2"/></svg>