<svg id="Layer_1" data-name="Layer 1" xmlns="http://www.w3.org/2000/svg" width="179.9" height="164.5" viewBox="0 0 179.9 164.5"><title>Artboard 1</title><path d="M58.6,80.1s-16-7.4-23.4,13.5-5.7,20.9-28.4,20.9c0,0-.6,19.4,19.1,22.9S53,118.3,53,118.3Z" fill="#e786b4" stroke="#231f20" stroke-miterlimit="10"/><path d="M53.6,92.4s-7.7-1.8-10.9,17.9-18.5,16.8-22.9,15.6" fill="none" stroke="#231f20" stroke-miterlimit="10"/><path d="M132.6,117.1v21.5a6.5,6.5,0,0,1-6.1,7h-7.2l-1.7-23.2Z" fill="#fff" stroke="#231f20" stroke-miterlimit="10"/><path d="M77.7,122.4v16.7c0,6.5-7.7,6.5-7.7,6.5H62.9l2.4-23.2Z" fill="#fff" stroke="#231f20" stroke-miterlimit="10"/><path d="M154.5,37.3H131.6s-4.1-11.2-9.7-5.6,4.8,11.6,4.8,11.6-9.2.8-8.8,14.1l.4,13.2L68.9,73C46.8,73,49.6,99.1,49.6,99.1s-.1,41-.1,48.6,2.8,6.5,9.7,6.9,9.7-6.9,9.7-6.9V130.9h39v14.8c0,8.9,4.8,8.9,10.8,8.9s6-9.7,6-9.7V132.1l8.5-8.5s5.6-2.8,4.8-16c-.3-4.1,1.2-12.3,3.3-21.6h0c10,4.4,23.5,3.2,29.2-9.8C180.2,54.5,154.5,37.3,154.5,37.3Z" fill="#fff" stroke="#231f20" stroke-miterlimit="10"/><path d="M110.9,75c.8,13.3-15.7,13.5-15.7,13.5S73.3,89.8,71,74.5s6.5-15.6,6.5-15.6a7.6,7.6,0,0,0-.4,8.6Z" fill="#fbaa1f" stroke="#231f20" stroke-miterlimit="10"/><path d="M115.8,71.6c.7,13.3-15.8,13.5-15.8,13.5s-21.9,1.2-24.2-14,6.6-15.7,6.6-15.7a7.9,7.9,0,0,0-.5,8.7Z" fill="#75cfe9" stroke="#231f20" stroke-miterlimit="10"/><path d="M97.1,56.5s-8.8-1.2-10.5,6.1a7.9,7.9,0,0,1,.5-8.7s-8.8.3-6.6,15.6,24.2,14.1,24.2,14.1,16.6-.3,15.8-13.5-3.2-25.7,6.2-26.8c0,0-6.1-4.3-4.8-11.6,0,0,5.8-2.2,9.7,5.6s24.4,5.1,26.7-.9,0-7.8,0-7.8,4.2-.4,1.4-11.6c0,0-1.3,10.2-15.5,9,0,0-2.6-11.3-17.3-7.6s-11.6,9.4-11.6,9.4-5.5-1.3-10.2,4.1-.6,13.3-.6,13.3-4.1.7-5.6,3.9A22,22,0,0,0,97.1,56.5Z" fill="#e786b4" stroke="#231f20" stroke-miterlimit="10"/><path d="M148.9,27.1l-9.1-7.3-3.5,8.9a11.1,11.1,0,0,0,12.9,2.4S149,29.7,148.9,27.1Z" fill="#75cfe9" stroke="#231f20" stroke-miterlimit="10"/><path d="M148.3,12.3c-.2-10.7-5.1-1.1-5.1-1.1l-1.4,3.6,6.8,5.9Q148.5,17,148.3,12.3Z" fill="#fbaa1f" stroke="#231f20" stroke-miterlimit="10"/><path d="M148.6,20.7c.1,2.6.2,4.7.3,6.4l-9.1-7.3,2-5Z" fill="#e786b4" stroke="#231f20" stroke-miterlimit="10"/><path d="M146.3,51s1.3,5.5,6,5.2,3.2-5.9,3.2-5.9" fill="none" stroke="#231f20" stroke-miterlimit="10"/><path d="M141.3,86s-15.4-2.5-12.1-15.7" fill="none" stroke="#231f20" stroke-miterlimit="10"/><circle cx="144.6" cy="66.5" r="5.4" fill="#e786b4" stroke="#231f20" stroke-miterlimit="10"/></svg>