<svg xmlns="http://www.w3.org/2000/svg" width="179.9" height="164.5" viewBox="0 0 179.9 164.5"><path fill="#e786b4" stroke="#231f20" stroke-miterlimit="10" d="M58.6 80.1s-16-7.4-23.4 13.5-5.7 20.9-28.4 20.9c0 0-.6 19.4 19.1 22.9S53 118.3 53 118.3z"/><path fill="none" stroke="#231f20" stroke-miterlimit="10" d="M53.6 92.4s-7.7-1.8-10.9 17.9-18.5 16.8-22.9 15.6"/><path fill="#fff" stroke="#231f20" stroke-miterlimit="10" d="M132.6 117.1v21.5a6.5 6.5 0 0 1-6.1 7h-7.2l-1.7-23.2zm-54.9 5.3v16.7c0 6.5-7.7 6.5-7.7 6.5h-7.1l2.4-23.2z"/><path fill="#fff" stroke="#231f20" stroke-miterlimit="10" d="M154.5 37.3h-22.9s-4.1-11.2-9.7-5.6 4.8 11.6 4.8 11.6-9.2.8-8.8 14.1l.4 13.2L68.9 73c-22.1 0-19.3 26.1-19.3 26.1s-.1 41-.1 48.6 2.8 6.5 9.7 6.9 9.7-6.9 9.7-6.9v-16.8h39v14.8c0 8.9 4.8 8.9 10.8 8.9s6-9.7 6-9.7v-12.8l8.5-8.5s5.6-2.8 4.8-16c-.3-4.1 1.2-12.3 3.3-21.6 10 4.4 23.5 3.2 29.2-9.8 9.7-21.7-16-38.9-16-38.9z"/><path fill="#fbaa1f" stroke="#231f20" stroke-miterlimit="10" d="M110.9 75c.8 13.3-15.7 13.5-15.7 13.5s-21.9 1.3-24.2-14 6.5-15.6 6.5-15.6a7.6 7.6 0 0 0-.4 8.6z"/><path fill="#75cfe9" stroke="#231f20" stroke-miterlimit="10" d="M115.8 71.6c.7 13.3-15.8 13.5-15.8 13.5s-21.9 1.2-24.2-14 6.6-15.7 6.6-15.7a7.9 7.9 0 0 0-.5 8.7z"/><path fill="#e786b4" stroke="#231f20" stroke-miterlimit="10" d="M97.1 56.5s-8.8-1.2-10.5 6.1a7.9 7.9 0 0 1 .5-8.7s-8.8.3-6.6 15.6 24.2 14.1 24.2 14.1 16.6-.3 15.8-13.5-3.2-25.7 6.2-26.8c0 0-6.1-4.3-4.8-11.6 0 0 5.8-2.2 9.7 5.6s24.4 5.1 26.7-.9 0-7.8 0-7.8 4.2-.4 1.4-11.6c0 0-1.3 10.2-15.5 9 0 0-2.6-11.3-17.3-7.6s-11.6 9.4-11.6 9.4-5.5-1.3-10.2 4.1-.6 13.3-.6 13.3-4.1.7-5.6 3.9a22 22 0 0 0-1.8 7.4z"/><path fill="#75cfe9" stroke="#231f20" stroke-miterlimit="10" d="M148.9 27.1l-9.1-7.3-3.5 8.9a11.1 11.1 0 0 0 12.9 2.4s-.2-1.4-.3-4z"/><path fill="#fbaa1f" stroke="#231f20" stroke-miterlimit="10" d="M148.3 12.3c-.2-10.7-5.1-1.1-5.1-1.1l-1.4 3.6 6.8 5.9q-.1-3.7-.3-8.4z"/><path fill="#e786b4" stroke="#231f20" stroke-miterlimit="10" d="M148.6 20.7c.1 2.6.2 4.7.3 6.4l-9.1-7.3 2-5z"/><path fill="none" stroke="#231f20" stroke-miterlimit="10" d="M146.3 51s1.3 5.5 6 5.2 3.2-5.9 3.2-5.9M141.3 86s-15.4-2.5-12.1-15.7"/><circle cx="144.6" cy="66.5" r="5.4" fill="#e786b4" stroke="#231f20" stroke-miterlimit="10"/></svg>