<?xml version="1.0" encoding="utf-8"?>
<!-- Generator: Adobe Illustrator 22.0.1, SVG Export Plug-In . SVG Version: 6.00 Build 0)  -->
<svg version="1.1" id="Layer_1" xmlns="http://www.w3.org/2000/svg" xmlns:xlink="http://www.w3.org/1999/xlink" x="0px" y="0px"
	 viewBox="0 0 150 150" style="enable-background:new 0 0 150 150;" xml:space="preserve">
<style type="text/css">
	.st0{stroke:#FFFFFF;stroke-width:2;stroke-miterlimit:10;}
	.st1{stroke:#FFFFFF;stroke-miterlimit:10;}
</style>
<path class="st0" d="M53.3,139.7c-7.4-14.1-14.9-28.2-22.4-42.3c-1.1-2-0.8-2.6,1.4-3.3c1.8-0.5,3.8,0.1,4.9,1.9
	c1.1,1.7,1.9,3.5,3,5.2c1,1.6,2.1,3.2,3.3,4.7c1.6,2,4.4,2.7,7,1.7c2.5-0.9,3.9-2.9,3.9-5.7c0-7.7,0-15.4,0-23.1c0.1,0,0.1,0,0.2,0
	c0-7.8,0.1-15.6,0-23.3c0-2.8,3-4.3,5.4-3.3c1.5,0.6,2,1.8,2,3.4c0,8.1,0,16.1,0,24.2c0,4.1,0,8.2,0,12.4c0,2.2,1.1,3.5,2.8,3.6
	c1.6,0.1,3-0.7,3.2-2.3c0.2-2.2,0.4-4.5,0.2-6.7c-0.4-3.8,3.6-5,6-3.6c1.3,0.7,1.8,1.8,1.8,3.2c0,3.7,0,7.3,0,11c0,2.3,2,3.7,4,2.9
	c1.2-0.4,1.9-1.3,2-2.5c0.1-1.5,0-3,0.1-4.5c0.1-2.8,2.1-4.2,4.8-3.4c1.4,0.4,2.1,1.4,2.1,2.8c0,2.8,0,5.7,0,8.5
	c0,0.8,0.1,1.6,0.5,2.2c0.6,1.1,1.7,1.7,3,1.5s2.2-0.9,2.5-2.3c0.2-1.3,0.2-2.5,0.2-3.8c0-2,1.2-3.4,3.1-3.4s3.7,1.3,3.7,3.1
	c0,6.8,0.1,13.6,0,20.4c-0.1,4.9-0.5,9.8-0.9,14.6c-0.1,1.3-0.4,2.5-0.8,3.7c-0.4,1.1-0.9,2-1.7,2.5l4.7,4.2
	c1.9-1.7,3.1-4.1,3.5-7.1c0.7-4.8,1.2-9.7,1.3-14.6c0.2-8,0.1-15.9,0.1-23.9c0-4.3-2.8-7.8-7-8.7c-2-0.4-4.2-0.1-6.3-0.1
	c-2.6-5.6-7.1-7.1-12.7-5.8c-2.5-6.4-7.4-8.1-13.8-6.9c0-2.6,0-5.1,0-7.6c0-5.1,0.1-10.3-0.2-15.4c-0.3-4.7-4.5-8.1-9.6-8.2
	c-4.6-0.1-8.9,3.3-9.6,7.6c-0.3,2-0.3,4.1-0.3,6.2c0,13.5,0,27.1-0.1,40.6c0,0.5-0.1,1-0.1,1.8c-0.5-0.6-0.8-0.8-1-1.2
	c-1.3-2.2-2.8-4.4-3.9-6.7C39.7,87.2,31.8,86.4,27,90c-3.3,2.5-4,5.6-2.1,9.2c7.7,14.7,15.5,29.5,23.2,44.2c0.5,0.9,1,1.6,1.7,2.2
	l4-5.2C53.6,140.3,53.4,140.1,53.3,139.7z"/>
<g>
	<path d="M75,6c38,0,69,31,69,69s-31,69-69,69S6,113,6,75S37,6,75,6 M75,0C33.6,0,0,33.6,0,75s33.6,75,75,75s75-33.6,75-75
		S116.4,0,75,0L75,0z"/>
</g>
<path class="st1" d="M43.4,82.1c-10.2-5-17.6-16.2-17.4-28.6c0.3-16.2,11.9-28.4,25.8-31.2c13.7-2.7,27.6,3.5,34.6,16.2
	C93.2,51,90.7,65,82.7,74.3c-1.2-0.8-2.3-1.7-3.4-2.4c1.5-2.6,3.2-5.1,4.3-7.8C89,52,83.9,36.8,72.4,30.2
	c-12.8-7.4-27.9-4.3-36.6,7.6c-3.8,5.1-5.4,11-5.1,17.4c0.5,8.9,4.5,15.9,11.6,21.1c0.8,0.6,1.2,1.2,1.1,2.1
	C43.4,79.6,43.4,80.8,43.4,82.1z"/>
<path class="st1" d="M43.4,68.7c-7.8-7.3-9-21-0.1-29.8c8.6-8.6,22.8-8,30.8,1.2c8,9.3,5.7,22.5-1.3,28.5c0.3-3.3-0.3-6.5,0.9-9.7
	c2.2-6.3,0.8-12.2-4-16.9C65,37.5,59.3,36.1,53,38.2c-6.4,2.1-10.1,6.8-11.2,13.4c-0.4,2.5-0.3,5.1,0.8,7.4c0.8,1.7,0.9,3.5,0.9,5.3
	C43.4,65.7,43.4,67.1,43.4,68.7z"/>
</svg>
