<?xml version="1.0" encoding="utf-8"?>
<!-- Generator: Adobe Illustrator 22.0.1, SVG Export Plug-In . SVG Version: 6.00 Build 0)  -->
<svg version="1.1" id="Layer_1" xmlns="http://www.w3.org/2000/svg" xmlns:xlink="http://www.w3.org/1999/xlink" x="0px" y="0px"
	 viewBox="0 0 150 150" style="enable-background:new 0 0 150 150;" xml:space="preserve">
<style type="text/css">
	.st0{fill:#FFFFFF;}
	.st1{fill:#333333;}
</style>
<circle class="st0" cx="75" cy="75" r="75"/>
<path class="st1" d="M107.2,98.3c0-3.8-2.5-6.9-6.2-7.7c-1.3-0.3-2.7-0.2-4.1-0.1c-0.7,0-1.3,0.1-1.9,0.1h-0.6L94,89.9
	c-2.2-4.8-6-6.5-11.6-5.2l-0.8,0.2l-0.3-0.8c-2.1-5.5-6.2-7.5-12.7-6.3L67.4,78v-8.8c0-1,0-2,0-3.1c0-4,0-8.2-0.2-12.3
	c-0.3-4-4-7.2-8.6-7.3c-0.1,0-0.1,0-0.2,0c-4.1,0-7.8,3-8.4,6.8c-0.3,1.9-0.3,4-0.3,6c0,13.3,0,27.1-0.1,40.6c0,0.2,0,0.5,0,0.8
	s-0.1,0.6-0.1,1v2.8l-1.8-2.1c-0.2-0.2-0.3-0.4-0.4-0.5c-0.3-0.3-0.5-0.5-0.7-0.9c-0.4-0.6-0.8-1.3-1.2-1.9c-1-1.5-1.9-3.1-2.7-4.8
	c-1.6-2.7-4.2-4.6-7.1-5.2c-0.7-0.1-1.4-0.2-2.1-0.2c-2.1,0-4.2,0.7-5.9,1.9c-2.9,2.2-3.5,4.8-1.8,7.9c3.9,7.4,7.7,14.7,11.6,22.1
	c3.9,7.4,7.8,14.8,11.6,22.1c0.3,0.5,0.5,0.8,0.7,1.1l2.8-3.6c-0.1-0.1-0.1-0.2-0.1-0.4c-7.4-14-15-28.3-22.4-42.1c-0.5-1-1-2-0.6-3
	c0.4-0.9,1.3-1.4,2.6-1.8c2.4-0.7,4.8,0.3,6.1,2.3c0.6,0.9,1,1.8,1.5,2.6c0.5,0.9,0.9,1.7,1.5,2.5c1.1,1.7,2.2,3.3,3.2,4.6
	c1.3,1.7,3.7,2.2,5.9,1.4c2.1-0.8,3.3-2.4,3.3-4.8V77.8c0,0,0.3-17.2,0.2-22.3c0-1.6,0.7-2.9,2-3.8c1.4-0.9,3.2-1.1,4.8-0.5
	c1.7,0.7,2.6,2.1,2.6,4.3v36.6c0,0.9,0.2,2.5,1.9,2.6c0.9,0.1,2-0.3,2.1-1.4c0.2-2,0.4-4.3,0.2-6.5c-0.2-1.9,0.5-3.5,2-4.4
	c1.6-1,3.8-1.1,5.5-0.1c1.5,0.8,2.3,2.2,2.3,4.1v11c0,0.8,0.3,1.5,0.9,1.8c0.5,0.3,1.1,0.4,1.8,0.1c0.9-0.3,1.3-0.8,1.4-1.7
	c0-0.7,0-1.4,0-2.2s0-1.5,0.1-2.3c0.1-1.6,0.7-3,1.8-3.8c1.1-0.8,2.6-1,4.3-0.5c1.8,0.5,2.8,1.9,2.8,3.8v8.5c0,0.8,0.1,1.3,0.3,1.6
	c0.5,0.8,1.2,1.2,2,1.1c1-0.2,1.5-0.6,1.7-1.5c0.2-1.2,0.2-2.3,0.2-3.6c0-2.6,1.7-4.4,4.1-4.4c2.6,0,4.7,1.8,4.7,4.1
	c0,2.3,0,4.5,0,6.8c0,4.5,0,9.1,0,13.6c-0.1,5.1-0.5,10.2-0.9,14.7c-0.1,1.2-0.4,2.5-0.8,3.9c-0.3,0.7-0.6,1.5-1.2,2.2l3.2,2.8
	c1.4-1.5,2.2-3.5,2.5-5.9c0.8-5.3,1.2-10.1,1.3-14.5c0.2-6,0.1-12,0.1-17.9C107.2,102.3,107.2,100.3,107.2,98.3z"/>
<g>
	<path class="st1" d="M75,6c38,0,69,31,69,69s-31,69-69,69S6,113,6,75S37,6,75,6 M75,0C33.6,0,0,33.6,0,75s33.6,75,75,75
		s75-33.6,75-75S116.4,0,75,0L75,0z"/>
</g>
<path class="st1" d="M86,38.7c-5.7-10.4-16.4-16.6-27.9-16.6c-2,0-4.1,0.2-6.2,0.6c-14.7,3-25.1,15.6-25.4,30.7
	C26.3,65,32.9,76,42.9,81.3v-2.9c0.1-0.7-0.2-1.2-0.9-1.7c-7.3-5.4-11.3-12.6-11.8-21.5c-0.3-6.7,1.4-12.7,5.2-17.7
	c8.9-12.1,24.2-15.3,37.3-7.7C84.4,36.5,89.5,52,84.1,64.3c-0.8,2-2,3.9-3.1,5.8c-0.3,0.5-0.7,1.1-1,1.6c0.5,0.3,0.9,0.7,1.4,1
	c0.4,0.3,0.8,0.6,1.2,0.9C90.8,63.8,92.2,50.1,86,38.7z"/>
<path class="st1" d="M58.8,33.3c-0.2,0-0.5,0-0.7,0c-5.5,0-10.5,2.1-14.4,5.9c-4,3.9-6.1,9.2-6.1,14.8c0.1,5.1,2,9.9,5.3,13.5
	c0-1.1,0-2.2,0.1-3.2c0-1.5-0.1-3.4-0.9-5.1c-1-2.2-1.3-4.7-0.8-7.7c1.2-6.9,5.1-11.7,11.5-13.8s12.3-0.8,17.2,3.9
	c5,4.9,6.4,10.9,4.1,17.4c-0.8,2.1-0.8,4.1-0.8,6.3c0,0.7,0,1.4,0,2.1c2.9-3,4.9-7.4,5.2-12c0.4-5.5-1.3-10.8-4.9-14.9
	C70,36.1,64.5,33.5,58.8,33.3z"/>
</svg>
