<?xml version="1.0" encoding="utf-8"?>
<!-- Generator: Adobe Illustrator 22.0.1, SVG Export Plug-In . SVG Version: 6.00 Build 0)  -->
<svg version="1.1" id="Layer_1" xmlns="http://www.w3.org/2000/svg" xmlns:xlink="http://www.w3.org/1999/xlink" x="0px" y="0px"
	 viewBox="0 0 464.4 66.6" style="enable-background:new 0 0 464.4 66.6;" xml:space="preserve">
<style type="text/css">
	.st0{fill:#FFFFFF;}
</style>
<path class="st0" d="M453.6,13.9v33l-12.4-18.3v5.7l12.5,18.5h3v-39H453.6z"/>
<path class="st0" d="M439,13.9h-3.2v39h3.1V19.6l12.2,18.1v-5.8 M205.8,14v33l-12.4-18.3v5.7L205.9,53h3V14L205.8,14z"/>
<path class="st0" d="M191.2,14h-3.3v39h3.2V19.6l12.1,18.1v-5.8 M364.7,27.6h-17.7V17.1h18v-3.2h-21.2v16.9h20.9L364.7,27.6z
	 M347.1,49.7V37.2h17.7V34h-20.9v18.9h21.2v-3.2H347.1z M231.8,52.9c7.9,0,13-8.4,13-19.4c0-11-5.1-19.4-13-19.4h-8.7v38.8
	 M226.5,18.3h5.2c6.3,0,9.7,6.8,9.7,15.1s-3.6,15-9.7,15h-5.2 M300.8,52.9v-3.1h-21v3.1 M101.5,13.9H89.8v38.9l10.6-13l2.6-3.1
	c4-0.4,7.7-4,7.7-11C110.7,18.4,106.9,13.9,101.5,13.9z M104.2,32.1l-11-13.8h7.9c3.5,0,5.8,3,5.8,7.4
	C106.9,28.5,105.9,30.9,104.2,32.1z M80.7,27.7H63.2V17.1h17.9v-3.2H59.8v17h20.9L80.7,27.7z M63.2,49.7V37.2h17.6V34H59.8v18.9
	h21.2v-3.2H63.2z M116.6,13.9h3.1v39h-3.1V13.9z M214.4,14.1h3.1v38.8h-3.1V14.1z M398.7,14.1h3.1v38.8h-3.1V14.1z M418.3,30.6h11.9
	v3.2h-11.9V30.6z"/>
<path class="st0" d="M418.3,37v3.2h8.7v4.7c-0.5,0.9-1.4,1.7-2.3,2.5c-1.2,1-2.8,1.7-4.5,1.7c-4.3,0-7.7-3.9-9.1-9.9
	c-0.2-0.7-0.3-1.4-0.4-2.2c-0.1-0.7-0.2-1.5-0.2-2.2c0-0.5-0.1-1-0.1-1.6c0-9.2,4.3-15.7,9.8-15.7c1.7,0,3.1,0.7,4.5,1.7
	c0.9,0.7,1.7,1.7,2.3,2.8c0.2,0.3,0.3,0.6,0.5,0.9l2.5-2.3c-0.9-1.7-1.8-3-3-4.3c-0.7-0.7-1.5-1.4-2.3-1.8c-1.3-0.8-2.8-1.2-4.5-1.2
	c-7.2,0-13,8-13,20.1c0,0.5,0,1,0.1,1.6c0,0.8,0.1,1.5,0.2,2.2c0.1,0.8,0.2,1.5,0.3,2.2c1.6,8.7,6.6,14.2,12.5,14.2
	c1.7,0,3.1-0.4,4.5-1.1c0.9-0.4,1.7-1,2.3-1.7c1.2-1,2.3-2.3,3.1-3.9V37 M36.6,27.7V13.9h-3.1v39h3.1v-22h12.6v-3.1H36.6z"/>
<path class="st0" d="M51.2,13.9V34H39v3h12.3v15.8h3.1v-39H51.2z M271.2,40h-12l-0.8,3.4h9.7l2.9,9.5h4.2L271.2,40z"/>
<path class="st0" d="M263.2,13.8h-4.6l-12,39.1h4.2L261,18.1l5.4,18.7h3.8 M300.8,46.5v-3.1H283V13.8h-3.1v32.7 M106.4,52.9h4.3
	l-6.2-13l-2.6,3.1L106.4,52.9z M89.8,52.9l10.6-13L89.8,52.9L89.8,52.9z M143.1,13.9v33l-12.4-18.3v5.7l12.5,18.5h3v-39H143.1z"/>
<path class="st0" d="M128.5,13.9h-3.2v39h3.1V19.6l12.2,18.1v-5.8 M18,26.3c-2.7-0.7-5.2-1.4-6.4-2.7c-0.5-0.6-0.8-1.2-0.8-2.2
	c0-2.8,2.5-4.7,6.1-4.7c3.3,0,6.3,1.1,8.6,3.6l2.3-2.7c-2.5-2.6-6-4.1-10.6-4.1c-5.8,0-10.3,3.3-10.3,8.2c0,0.7,0.1,1.3,0.3,1.9
	c1,4.2,5.7,5.3,9.9,6.4c3,0.9,6,1.6,7,3.6l2.4-3.2C24.4,28.2,21.1,27.1,18,26.3z M17,35c-2.7-0.8-4.6-1.7-5.8-3.1L8.9,35
	c2.2,1.9,4.5,2.8,7.2,3.8c3,1.1,6.8,1.7,7.8,3.8c0.3,0.6,0.4,1.2,0.4,2c0,2.3-1.7,5.3-7,5.3c-4.2,0-7.4-2.1-9.3-4.3l-2.2,2.9
	c2.4,2.9,6.2,4.9,11.4,4.9c8,0,10.9-4.6,10.9-9c0-0.7-0.1-1.3-0.2-1.9C27.1,37.6,21.4,36.1,17,35z M172.6,26.1
	c-2.7-0.7-5.2-1.4-6.4-2.7c-0.5-0.6-0.8-1.2-0.8-2.2c0-2.8,2.5-4.7,6.1-4.7c3.3,0,6.3,1.1,8.6,3.6l2.3-2.7c-2.5-2.6-6-4.1-10.6-4.1
	c-5.8,0-10.3,3.3-10.3,8.2c0,0.7,0.1,1.3,0.3,1.9c1,4.2,5.7,5.3,9.9,6.4c3,0.9,6,1.6,7,3.6l2.4-3.2C179,28,175.7,27,172.6,26.1
	L172.6,26.1z M171.6,34.8c-2.7-0.8-4.6-1.7-5.8-3.1l-2.3,3.1c2.2,1.9,4.5,2.8,7.2,3.8c3,1.1,6.8,1.7,7.8,3.8c0.3,0.6,0.4,1.2,0.4,2
	c0,2.3-1.7,5.3-7,5.3c-4.2,0-7.4-2.1-9.3-4.3l-2.2,2.9c2.4,2.9,6.2,4.9,11.4,4.9c8,0,10.9-4.6,10.9-9c0-0.7-0.1-1.3-0.2-1.9
	C181.6,37.4,176,36,171.6,34.8L171.6,34.8z M382,26c-2.7-0.7-5.2-1.4-6.4-2.7c-0.5-0.6-0.8-1.2-0.8-2.2c0-2.8,2.5-4.7,6.1-4.7
	c3.3,0,6.3,1.1,8.6,3.6l2.3-2.7c-2.5-2.6-6-4.1-10.6-4.1c-5.8,0-10.3,3.3-10.3,8.2c0,0.7,0.1,1.3,0.3,1.9c1,4.2,5.7,5.3,9.9,6.4
	c3,0.9,6,1.6,7,3.6l2.4-3.2C388.4,27.9,385,26.9,382,26z M381,34.7c-2.7-0.8-4.6-1.7-5.8-3.1l-2.3,3.1c2.2,1.9,4.5,2.8,7.2,3.8
	c3,1.1,6.8,1.7,7.8,3.8c0.3,0.6,0.4,1.2,0.4,2c0,2.3-1.7,5.3-7,5.3c-4.2,0-7.4-2.1-9.3-4.3l-2.2,2.9c2.4,2.9,6.2,4.9,11.4,4.9
	c8,0,10.9-4.6,10.9-9c0-0.7-0.1-1.3-0.2-1.9C391,37.3,385.3,35.9,381,34.7L381,34.7z M89.8,13.9l15.7,19.7L89.8,52.7V13.9z
	 M325.9,14.1h-8.7v38.8h8.7c7.9,0,13-8.4,13-19.4C339,22.5,333.8,14.1,325.9,14.1z M325.9,48.6h-5.1l-0.2-30.3h5.3
	c6.3,0,9.7,6.8,9.7,15.1S332.1,48.6,325.9,48.6z"/>
<path class="st0" d="M317.2,14.1l15.7,19.7l-15.7,19.1V14.1z M223.1,14.1l15.7,19.7l-15.7,19V14.1z"/>
<rect y="0" class="st0" width="464.5" height="3.1"/>
<rect y="63.5" class="st0" width="464.5" height="3.1"/>
</svg>
