<svg xmlns="http://www.w3.org/2000/svg" id="Layer_1" width="464.4" height="66.6" viewBox="0 0 464.4 66.6"><style>.st0{fill:#fff}</style><path d="M453.6 13.9v33l-12.4-18.3v5.7l12.5 18.5h3v-39h-3.1z" class="st0"/><path d="M439 13.9h-3.2v39h3.1V19.6l12.2 18.1v-5.8M205.8 14v33l-12.4-18.3v5.7L205.9 53h3V14h-3.1z" class="st0"/><path d="M191.2 14h-3.3v39h3.2V19.6l12.1 18.1v-5.8m161.5-4.3H347V17.1h18v-3.2h-21.2v16.9h20.9v-3.2zm-17.6 22.1V37.2h17.7V34h-20.9v18.9h21.2v-3.2h-18zm-115.3 3.2c7.9 0 13-8.4 13-19.4 0-11-5.1-19.4-13-19.4h-8.7v38.8m3.4-34.6h5.2c6.3 0 9.7 6.8 9.7 15.1s-3.6 15-9.7 15h-5.2m74.3 4.5v-3.1h-21v3.1m-178.3-39H89.8v38.9l10.6-13 2.6-3.1c4-.4 7.7-4 7.7-11 0-7.3-3.8-11.8-9.2-11.8zm2.7 18.2l-11-13.8h7.9c3.5 0 5.8 3 5.8 7.4 0 2.8-1 5.2-2.7 6.4zm-23.5-4.4H63.2V17.1h17.9v-3.2H59.8v17h20.9v-3.2zm-17.5 22V37.2h17.6V34h-21v18.9H81v-3.2H63.2zm53.4-35.8h3.1v39h-3.1v-39zm97.8.2h3.1v38.8h-3.1V14.1zm184.3 0h3.1v38.8h-3.1V14.1zm19.6 16.5h11.9v3.2h-11.9v-3.2z" class="st0"/><path d="M418.3 37v3.2h8.7v4.7c-.5.9-1.4 1.7-2.3 2.5-1.2 1-2.8 1.7-4.5 1.7-4.3 0-7.7-3.9-9.1-9.9-.2-.7-.3-1.4-.4-2.2-.1-.7-.2-1.5-.2-2.2 0-.5-.1-1-.1-1.6 0-9.2 4.3-15.7 9.8-15.7 1.7 0 3.1.7 4.5 1.7.9.7 1.7 1.7 2.3 2.8.2.3.3.6.5.9l2.5-2.3c-.9-1.7-1.8-3-3-4.3-.7-.7-1.5-1.4-2.3-1.8-1.3-.8-2.8-1.2-4.5-1.2-7.2 0-13 8-13 20.1 0 .5 0 1 .1 1.6 0 .8.1 1.5.2 2.2.1.8.2 1.5.3 2.2 1.6 8.7 6.6 14.2 12.5 14.2 1.7 0 3.1-.4 4.5-1.1.9-.4 1.7-1 2.3-1.7 1.2-1 2.3-2.3 3.1-3.9V37M36.6 27.7V13.9h-3.1v39h3.1v-22h12.6v-3.1H36.6z" class="st0"/><path d="M51.2 13.9V34H39v3h12.3v15.8h3.1v-39h-3.2zm220 26.1h-12l-.8 3.4h9.7l2.9 9.5h4.2l-4-12.9z" class="st0"/><path d="M263.2 13.8h-4.6l-12 39.1h4.2L261 18.1l5.4 18.7h3.8m30.6 9.7v-3.1H283V13.8h-3.1v32.7m-173.5 6.4h4.3l-6.2-13-2.6 3.1 4.5 9.9zm-16.6 0l10.6-13-10.6 13zm53.3-39v33l-12.4-18.3v5.7l12.5 18.5h3v-39h-3.1z" class="st0"/><path d="M128.5 13.9h-3.2v39h3.1V19.6l12.2 18.1v-5.8M18 26.3c-2.7-.7-5.2-1.4-6.4-2.7-.5-.6-.8-1.2-.8-2.2 0-2.8 2.5-4.7 6.1-4.7 3.3 0 6.3 1.1 8.6 3.6l2.3-2.7c-2.5-2.6-6-4.1-10.6-4.1-5.8 0-10.3 3.3-10.3 8.2 0 .7.1 1.3.3 1.9 1 4.2 5.7 5.3 9.9 6.4 3 .9 6 1.6 7 3.6l2.4-3.2c-2.1-2.2-5.4-3.3-8.5-4.1zM17 35c-2.7-.8-4.6-1.7-5.8-3.1L8.9 35c2.2 1.9 4.5 2.8 7.2 3.8 3 1.1 6.8 1.7 7.8 3.8.3.6.4 1.2.4 2 0 2.3-1.7 5.3-7 5.3-4.2 0-7.4-2.1-9.3-4.3l-2.2 2.9c2.4 2.9 6.2 4.9 11.4 4.9 8 0 10.9-4.6 10.9-9 0-.7-.1-1.3-.2-1.9-.8-4.9-6.5-6.4-10.9-7.5zm155.6-8.9c-2.7-.7-5.2-1.4-6.4-2.7-.5-.6-.8-1.2-.8-2.2 0-2.8 2.5-4.7 6.1-4.7 3.3 0 6.3 1.1 8.6 3.6l2.3-2.7c-2.5-2.6-6-4.1-10.6-4.1-5.8 0-10.3 3.3-10.3 8.2 0 .7.1 1.3.3 1.9 1 4.2 5.7 5.3 9.9 6.4 3 .9 6 1.6 7 3.6l2.4-3.2c-2.1-2.2-5.4-3.2-8.5-4.1zm-1 8.7c-2.7-.8-4.6-1.7-5.8-3.1l-2.3 3.1c2.2 1.9 4.5 2.8 7.2 3.8 3 1.1 6.8 1.7 7.8 3.8.3.6.4 1.2.4 2 0 2.3-1.7 5.3-7 5.3-4.2 0-7.4-2.1-9.3-4.3l-2.2 2.9c2.4 2.9 6.2 4.9 11.4 4.9 8 0 10.9-4.6 10.9-9 0-.7-.1-1.3-.2-1.9-.9-4.9-6.5-6.3-10.9-7.5zM382 26c-2.7-.7-5.2-1.4-6.4-2.7-.5-.6-.8-1.2-.8-2.2 0-2.8 2.5-4.7 6.1-4.7 3.3 0 6.3 1.1 8.6 3.6l2.3-2.7c-2.5-2.6-6-4.1-10.6-4.1-5.8 0-10.3 3.3-10.3 8.2 0 .7.1 1.3.3 1.9 1 4.2 5.7 5.3 9.9 6.4 3 .9 6 1.6 7 3.6l2.4-3.2c-2.1-2.2-5.5-3.2-8.5-4.1zm-1 8.7c-2.7-.8-4.6-1.7-5.8-3.1l-2.3 3.1c2.2 1.9 4.5 2.8 7.2 3.8 3 1.1 6.8 1.7 7.8 3.8.3.6.4 1.2.4 2 0 2.3-1.7 5.3-7 5.3-4.2 0-7.4-2.1-9.3-4.3l-2.2 2.9c2.4 2.9 6.2 4.9 11.4 4.9 8 0 10.9-4.6 10.9-9 0-.7-.1-1.3-.2-1.9-.9-4.9-6.6-6.3-10.9-7.5zM89.8 13.9l15.7 19.7-15.7 19.1V13.9zm236.1.2h-8.7v38.8h8.7c7.9 0 13-8.4 13-19.4.1-11-5.1-19.4-13-19.4zm0 34.5h-5.1l-.2-30.3h5.3c6.3 0 9.7 6.8 9.7 15.1s-3.5 15.2-9.7 15.2z" class="st0"/><path d="M317.2 14.1l15.7 19.7-15.7 19.1V14.1zm-94.1 0l15.7 19.7-15.7 19V14.1zM0 0h464.5v3.1H0zm0 63.5h464.5v3.1H0z" class="st0"/></svg>