<svg xmlns="http://www.w3.org/2000/svg" id="Layer_1" viewBox="0 0 544 66.6" width="544" height="66.6"><style>.st0{fill:#fdfefe}.st1{fill:#548f96}.st2{fill:#636466}</style><path d="M380.2 55.9c9.1 0 15-9.6 15-22.3s-5.9-22.4-15-22.4h-10v44.7m10-5h-6l14-17.1-14-17.6h6c7.2 0 11.2 7.7 11.2 17.4s-4.1 17.3-11.2 17.3z" class="st0"/><path d="M370.2 11.2l18 22.6-18 22.1z" class="st1"/><path d="M123.2 10.5h-13.5v44.7l12.2-14.9 3-3.7c4.6-.5 8.9-4.5 8.9-12.6s-4.4-13.5-10.6-13.5zm3.1 20.9l-12.7-15.9h9.1c4 0 6.7 3.5 6.7 8.5 0 3.3-1.2 6-3.1 7.4zm-27-4H79.1V14.2h20.7v-3.7H75.4L75.3 31h24zM79 37.1h20.3v-3.6h-24l.1 21.8h24.4v-3.7H79.1zm61.5-26.6h3.6v44.8h-3.6V10.5zm112.6.7h3.6v44.7h-3.6V11.2zm210.8 0h3.6v44.7h-3.6V11.2zm22.5 16.7h13.7v3.7h-13.7z" class="st0"/><path d="M496.5 34.2h-10.1v3.7h10.1V47c-.8 1.1-1.7 2-2.7 2.8a9.06 9.06 0 0 1-5.2 2c-4.9 0-8.9-4.5-10.5-11.4-.1-.8-.3-1.6-.4-2.5-.1-.8-.2-1.7-.2-2.5-.1-.6-.1-1.2-.1-1.8 0-10.7 4.8-18.2 11.2-18.2 1.9.1 3.7.8 5.2 2 1.1.9 2 2 2.7 3.2l.6 1 2.9-2.7c-.9-1.8-2.1-3.4-3.5-4.9-.8-.9-1.7-1.6-2.7-2.2-1.6-.9-3.4-1.3-5.2-1.3-8.3 0-15 9.2-15 23.1 0 .6 0 1.2.1 1.8 0 .8.1 1.7.1 2.5s.3 1.7.4 2.5c1.8 10 7.6 16.3 14.4 16.3 1.8 0 3.6-.5 5.2-1.3 1-.5 1.9-1.1 2.7-1.9 1.5-1.3 2.7-2.8 3.6-4.5V34.2h-3.6zM48.6 27.4V10.5H45v44.8h3.6V31h14.5v-3.6z" class="st0"/><path d="M65.4 10.5v23H51.3V37h14.1v18.3H69V10.5zM424.7 28h-20.2l.1-13.1h20.6v-3.8h-24.4l-.1 20.5h24zm-20.2 9.9h20.2v-3.8h-24l.1 21.8h24.4v-3.7h-20.7zM273 55.9c9.1 0 15-9.6 15-22.3s-5.9-22.4-15-22.4h-10v44.7m10-5h-6l14-17.1-14-17.6h6c7.2 0 11.2 7.7 11.2 17.4s-4.1 17.3-11.2 17.3zm26-9.9zm19.3 0h-13.8l-.8 3.9 11.1.1 3.4 10.9h4.7zm-6.6-7.2z" class="st0"/><path d="M312.9 38.2h4.4l-5.6-18.4-2.6-8.6h-5.3l-2.6 8.5-4.3 14.1-2.3 7.2-4.5 14.9h4.7l3-9.9 1.2-5 2.2-7.2 5.3-17.6 2.7 9.3m22.6 20.2V11.2h-3.6v38.1h1.8v.1h22.4v-3.7zm-3.6 6.5v3.7h24.2v-3.7zm-199.4 3.1h5L126.1 39l-3 3.7z" class="st0"/><path d="M109.7 55.3l12.2-15-12.2 14.9zm15.2-18.7zm-3 3.7z" class="st2"/><path d="M171 10.5v38L156.8 27v6.4l14.4 21.9h3.5V10.5z" class="st0"/><path d="M154.2 10.5h-3.7v44.8h3.6V17l14 22.2v-6.8m75-21.2v38l-14.2-21.5v6.4L243.2 56h3.6V11.2z" class="st0"/><path d="M226.3 11.2h-3.7V56h3.6V17.7l14 22.2v-6.8m286.8-22v38l-14.2-21.5V34l14.4 21.9h3.5V11.1z" class="st0"/><path d="M510.2 11.1h-3.7v44.8h3.6V17.6l14 22.3V33" class="st0"/><path d="M27.2 24.7c-3.1-.8-5.9-1.5-7.4-3.1-.6-.6-.9-1.5-.9-2.4 0-3.2 2.9-5.4 7-5.4 3.7-.2 7.3 1.3 9.9 4l2.6-3.1c-2.9-3-6.9-4.7-12.2-4.7s-11.7 3.8-11.7 9.4c0 .7 0 1.5.2 2.2 1.2 4.8 6.5 6.1 11.4 7.4s6.8 1.8 8.1 4.1l2.8-3.7c-2.4-2.5-6.2-3.7-9.8-4.7zm-1.1 10c-3-.9-5.3-1.9-6.7-3.6l-2.7 3.6c2.5 2.3 5.2 3.2 8.3 4.4s7.8 2 9.1 4.5c.3.7.5 1.5.5 2.3 0 2.7-2 6.1-8 6.1-4.2 0-8.1-1.9-10.7-5.1l-2.5 3.4c2.8 3.3 7.1 5.6 13 5.6 9.2 0 12.6-5.2 12.6-10.4 0-.7-.1-1.5-.3-2.2-1.1-5.6-7.6-7.2-12.6-8.6zm178.8-10.2c-3.1-.8-5.9-1.5-7.4-3.1-.6-.6-.9-1.5-.9-2.4 0-3.2 2.9-5.4 7-5.4 3.7-.1 7.3 1.3 9.9 4l2.6-3.1c-3.3-3.2-7.7-4.9-12.2-4.7-6.7 0-11.7 3.8-11.7 9.4 0 .7 0 1.5.2 2.2 1.2 4.8 6.5 6.2 11.4 7.4s6.8 1.9 8.1 4.1l2.8-3.7c-2.4-2.5-6.2-3.7-9.8-4.7zm-1 10c-3.1-.9-5.4-1.9-6.8-3.6l-2.7 3.7c2.5 2.2 5.2 3.2 8.3 4.4s7.8 1.9 9.1 4.4c.3.7.5 1.5.5 2.3 0 2.7-2 6.1-8 6.1-4.1 0-8-1.8-10.7-5l-2.5 3.3c2.8 3.3 7.1 5.6 13 5.6 9.2 0 12.6-5.2 12.6-10.4 0-.7-.1-1.5-.3-2.2-1.1-5.6-7.6-7.2-12.5-8.6zm240.7-9.2c-3.1-.8-6-1.6-7.4-3.1-.6-.7-.9-1.6-.9-2.5 0-3.2 2.9-5.3 7-5.3 3.7-.1 7.3 1.3 9.9 4l2.6-3.1c-2.9-3-7-4.7-12.2-4.7-6.7 0-11.8 3.8-11.8 9.4 0 .7.1 1.5.3 2.2 1.2 4.8 6.5 6.1 11.3 7.4s6.9 1.8 8.2 4.1l2.8-3.7c-2.4-2.6-6.3-3.7-9.8-4.7zm-1.1 10c-3-.9-5.3-2-6.7-3.6l-2.7 3.6c2.4 2.2 5.1 3.2 8.3 4.4s7.8 2 9 4.5c.4.7.6 1.5.5 2.3 0 2.7-1.9 6.1-8 6.1-4.1-.1-8-1.9-10.7-5.1l-2.5 3.4c2.8 3.3 7.2 5.6 13.1 5.6 9.2 0 12.5-5.3 12.5-10.4 0-.7 0-1.5-.2-2.2-1.1-5.6-7.6-7.3-12.6-8.6zM109.7 10.6l18 22.6-18 22zm153.3.6l18 22.6-18 22.1z" class="st1"/></svg>