<svg xmlns="http://www.w3.org/2000/svg" id="Layer_1" viewBox="0 0 544 66.6" width="544" height="66.6"><style>.st0{fill:#fff}</style><path d="M527.5 11v37.9l-14.2-21v6.6l14.4 21.3h3.5V11z" class="st0"/><path d="M510.7 11H507v44.8h3.6V17.5l14 20.8v-6.7m-282-20.5V49l-14.2-21v6.6l14.3 21.3h3.5V11.1z" class="st0"/><path d="M225.8 11.1H222v44.8h3.7V17.6l13.9 20.8v-6.7m185.7-4.9H405V14.7h20.7V11h-24.4v19.4h24zM405 52.1V37.8h20.3v-3.7h-24v21.7h24.4v-3.7zm-132.5 3.7c9.1 0 15-9.6 15-22.3 0-12.6-5.9-22.3-15-22.3h-10v44.6m3.9-39.7h6c7.2 0 11.2 7.8 11.2 17.4 0 9.6-4.1 17.3-11.2 17.3h-6m85.4 5v-3.6h-24.1v3.6M122.7 11h-13.5v44.7l12.2-14.9 3-3.6c4.6-.5 8.9-4.6 8.9-12.6 0-8.4-4.4-13.6-10.6-13.6zm3.1 20.9L113.1 16h9.1c4 0 6.7 3.5 6.7 8.5 0 3.3-1.2 6-3.1 7.4zm-27-5H78.6V14.7h20.6V11H74.8v19.5h24zM78.6 52.1V37.8h20.2v-3.7h-24v21.7h24.4v-3.7zM140 11h3.6v44.8H140zm112.5.2h3.6v44.6h-3.6zm211.9 0h3.6v44.6h-3.6zm22.5 19h13.7v3.7h-13.7z" class="st0"/><path d="M486.9 37.5v3.7h10v5.4c-.6 1-1.6 2-2.7 2.9-1.4 1.1-3.2 2-5.2 2-4.9 0-8.9-4.5-10.5-11.4-.2-.8-.3-1.6-.5-2.5-.1-.8-.2-1.7-.2-2.5 0-.6-.1-1.2-.1-1.8 0-10.6 4.9-18.1 11.3-18.1 1.9 0 3.6.8 5.2 2 1 .8 1.9 1.9 2.7 3.2.2.3.4.7.6 1l2.9-2.7c-1-1.9-2.1-3.5-3.5-4.9-.8-.8-1.7-1.6-2.7-2.1-1.5-.9-3.2-1.4-5.2-1.4-8.3 0-15 9.2-15 23.1 0 .6 0 1.2.1 1.8 0 .9.1 1.7.2 2.5.1.9.2 1.7.4 2.5 1.8 10 7.6 16.3 14.4 16.3 1.9 0 3.6-.5 5.2-1.3 1-.5 1.9-1.1 2.7-1.9 1.4-1.2 2.6-2.7 3.6-4.5V37.6M48.1 26.9V11h-3.6v44.8h3.6V30.5h14.5v-3.6z" class="st0"/><path d="M64.9 11v23.1H50.8v3.5h14.1v18.2h3.6V11zm233.6 29.6zm19.3.4H304l-.9 3.9h11.2l3.3 10.9h4.8zm-6.6-7.5z" class="st0"/><path d="M308.6 10.9h-5.3l-13.8 44.9h4.8l11.7-40 6.2 21.5h4.4m35.2 11.2v-3.6h-20.5v-34h-3.6v37.6m-199.4 7.3h5l-7.1-15-3 3.6zm-19.1 0l12.2-15-12.2 14.9zm15.2-18.7zm-3 3.7zM170.5 11v37.9l-14.2-21v6.6l14.4 21.3h3.5V11z" class="st0"/><path d="M153.7 11H150v44.8h3.6V17.5l14 20.8v-6.7M26.7 25.2c-3.1-.8-6-1.6-7.4-3.1-.6-.7-.9-1.4-.9-2.5 0-3.2 2.9-5.4 7-5.4 3.8 0 7.3 1.3 9.9 4.1l2.6-3.1c-2.9-3-6.9-4.7-12.2-4.7-6.7 0-11.8 3.8-11.8 9.4 0 .8.1 1.5.3 2.2 1.2 4.8 6.5 6.1 11.4 7.4 3.5 1 6.9 1.8 8.1 4.1l2.8-3.7c-2.4-2.5-6.2-3.7-9.8-4.7zm-1.1 10c-3.1-.9-5.3-1.9-6.7-3.6l-2.7 3.6c2.5 2.2 5.2 3.2 8.3 4.4 3.4 1.3 7.8 2 9 4.4.3.7.5 1.4.5 2.3 0 2.7-1.9 6.1-8 6.1-4.8 0-8.5-2.4-10.7-5l-2.5 3.3c2.8 3.3 7.1 5.6 13.1 5.6 9.2 0 12.5-5.3 12.5-10.4 0-.8-.1-1.5-.2-2.2-1.1-5.5-7.6-7.2-12.6-8.5zM204.4 25c-3.1-.8-6-1.6-7.4-3.1-.6-.7-.9-1.4-.9-2.5 0-3.2 2.9-5.4 7-5.4 3.8 0 7.3 1.3 9.9 4.1l2.6-3.1c-2.9-3-6.9-4.7-12.2-4.7-6.7 0-11.8 3.8-11.8 9.4 0 .8.1 1.5.3 2.2 1.2 4.8 6.5 6.1 11.4 7.4 3.5 1 6.9 1.8 8.1 4.1l2.8-3.7c-2.4-2.5-6.2-3.7-9.8-4.7zm-1.1 10c-3.1-.9-5.3-1.9-6.7-3.6l-2.7 3.6c2.5 2.2 5.2 3.2 8.3 4.4 3.4 1.3 7.8 2 9 4.4.3.7.5 1.4.5 2.3 0 2.7-1.9 6.1-8 6.1-4.8 0-8.5-2.4-10.7-5l-2.5 3.3c2.8 3.3 7.1 5.6 13.1 5.6 9.2 0 12.5-5.3 12.5-10.4 0-.8-.1-1.5-.2-2.2-1.1-5.5-7.6-7.1-12.6-8.5zm241.8-10.1c-3.1-.8-6-1.6-7.4-3.1-.6-.7-.9-1.4-.9-2.5 0-3.2 2.9-5.4 7-5.4 3.8 0 7.3 1.3 9.9 4.1l2.6-3.1c-2.9-3-6.9-4.7-12.2-4.7-6.7 0-11.8 3.8-11.8 9.4 0 .8.1 1.5.3 2.2 1.2 4.8 6.5 6.1 11.4 7.4 3.5 1 6.9 1.8 8.1 4.1l2.8-3.7c-2.4-2.5-6.3-3.7-9.8-4.7zm-1.1 10c-3.1-.9-5.3-1.9-6.7-3.6l-2.7 3.6c2.5 2.2 5.2 3.2 8.3 4.4 3.4 1.3 7.8 2 9 4.4.3.7.5 1.4.5 2.3 0 2.7-1.9 6.1-8 6.1-4.8 0-8.5-2.4-10.7-5l-2.5 3.3c2.8 3.3 7.1 5.6 13.1 5.6 9.2 0 12.5-5.3 12.5-10.4 0-.8-.1-1.5-.2-2.2-1.1-5.5-7.6-7.1-12.6-8.5zM109.2 11l18 22.6-18 22zm271.5.2h-10v44.6h10c9.1 0 15-9.6 15-22.3 0-12.6-5.9-22.3-15-22.3zm0 39.7h-5.9l-.2-34.8h6.1c7.2 0 11.2 7.8 11.2 17.4 0 9.6-4.1 17.4-11.2 17.4z" class="st0"/><path d="M370.7 11.2l18 22.6-18 22zm-108.2 0l18 22.7-18 21.9z" class="st0"/></svg>