<?xml version="1.0" encoding="utf-8"?>
<!-- Generator: Adobe Illustrator 22.0.1, SVG Export Plug-In . SVG Version: 6.00 Build 0)  -->
<svg version="1.1" id="Layer_1" xmlns="http://www.w3.org/2000/svg" xmlns:xlink="http://www.w3.org/1999/xlink" x="0px" y="0px"
	 viewBox="0 0 544 66.6" style="enable-background:new 0 0 544 66.6;" xml:space="preserve">
<style type="text/css">
	.st0{fill:#FFFFFF;}
</style>
<g>
	<polygon class="st0" points="527.5,11 527.5,25.8 527.5,40.7 527.5,48.9 513.3,27.9 513.3,34.5 527.7,55.8 531.2,55.8 531.2,40.7 
		531.2,25.8 531.2,11 	"/>
	<polyline class="st0" points="510.7,11 507,11 507,25.8 507,40.7 507,55.8 510.6,55.8 510.6,40.7 510.6,25.8 510.6,17.5 
		524.6,38.3 524.6,31.6 	"/>
	<polygon class="st0" points="242.6,11.1 242.6,25.9 242.6,40.8 242.6,49 228.4,28 228.4,34.6 242.7,55.9 246.2,55.9 246.2,40.8 
		246.2,25.9 246.2,11.1 	"/>
	<polyline class="st0" points="225.8,11.1 222,11.1 222,25.9 222,40.8 222,55.9 225.7,55.9 225.7,40.8 225.7,25.9 225.7,17.6 
		239.6,38.4 239.6,31.7 	"/>
	<g>
		<polygon class="st0" points="425.3,26.8 405,26.8 405,14.7 425.7,14.7 425.7,11 401.3,11 401.3,30.4 425.3,30.4 		"/>
		<polygon class="st0" points="405,52.1 405,37.8 425.3,37.8 425.3,34.1 401.3,34.1 401.3,55.8 425.7,55.8 425.7,52.1 		"/>
	</g>
	<path class="st0" d="M272.5,55.8c9.1,0,15-9.6,15-22.3c0-12.6-5.9-22.3-15-22.3h-10v44.6 M266.4,16.1h6c7.2,0,11.2,7.8,11.2,17.4
		c0,9.6-4.1,17.3-11.2,17.3l-6,0"/>
	<polyline class="st0" points="351.8,55.8 351.8,52.2 327.7,52.2 327.7,55.8 	"/>
	<path class="st0" d="M122.7,11h-13.5v0.1v44.6l12.2-14.9l0,0l3-3.6c4.6-0.5,8.9-4.6,8.9-12.6C133.3,16.2,128.9,11,122.7,11z
		 M125.8,31.9L113.1,16h9.1c4,0,6.7,3.5,6.7,8.5C128.9,27.8,127.7,30.5,125.8,31.9z"/>
	<polygon class="st0" points="98.8,26.9 78.6,26.9 78.6,14.7 99.2,14.7 99.2,11 74.8,11 74.8,30.5 98.8,30.5 	"/>
	<polygon class="st0" points="78.6,52.1 78.6,37.8 98.8,37.8 98.8,34.1 74.8,34.1 74.8,55.8 99.2,55.8 99.2,52.1 	"/>
	<rect x="140" y="11" class="st0" width="3.6" height="44.8"/>
	<rect x="252.5" y="11.2" class="st0" width="3.6" height="44.6"/>
	<rect x="464.4" y="11.2" class="st0" width="3.6" height="44.6"/>
	<rect x="486.9" y="30.2" class="st0" width="13.7" height="3.7"/>
	<path class="st0" d="M486.9,37.5v3.7h10l0,5.4c-0.6,1-1.6,2-2.7,2.9c-1.4,1.1-3.2,2-5.2,2c-4.9,0-8.9-4.5-10.5-11.4
		c-0.2-0.8-0.3-1.6-0.5-2.5c-0.1-0.8-0.2-1.7-0.2-2.5c0-0.6-0.1-1.2-0.1-1.8c0-10.6,4.9-18.1,11.3-18.1c1.9,0,3.6,0.8,5.2,2
		c1,0.8,1.9,1.9,2.7,3.2c0.2,0.3,0.4,0.7,0.6,1l2.9-2.7c-1-1.9-2.1-3.5-3.5-4.9c-0.8-0.8-1.7-1.6-2.7-2.1c-1.5-0.9-3.2-1.4-5.2-1.4
		c-8.3,0-15,9.2-15,23.1c0,0.6,0,1.2,0.1,1.8c0,0.9,0.1,1.7,0.2,2.5c0.1,0.9,0.2,1.7,0.4,2.5c1.8,10,7.6,16.3,14.4,16.3
		c1.9,0,3.6-0.5,5.2-1.3c1-0.5,1.9-1.1,2.7-1.9c1.4-1.2,2.6-2.7,3.6-4.5l0-8.7v-2.5"/>
	<polygon class="st0" points="48.1,26.9 48.1,11 44.5,11 44.5,55.8 48.1,55.8 48.1,30.5 62.6,30.5 62.6,26.9 	"/>
	<polygon class="st0" points="64.9,11 64.9,34.1 50.8,34.1 50.8,37.6 64.9,37.6 64.9,55.8 68.5,55.8 68.5,11 	"/>
	<polygon class="st0" points="298.5,40.6 298.5,40.6 298.5,40.6 	"/>
	<polygon class="st0" points="317.8,41 304,41 303.1,44.9 314.3,44.9 317.6,55.8 322.4,55.8 	"/>
	<polygon class="st0" points="311.2,33.5 311.2,33.5 311.2,33.5 	"/>
	<polyline class="st0" points="308.6,10.9 303.3,10.9 289.5,55.8 294.3,55.8 306,15.8 312.2,37.3 316.6,37.3 	"/>
	<polyline class="st0" points="351.8,48.5 351.8,44.9 331.3,44.9 331.3,10.9 327.7,10.9 327.7,48.5 	"/>
	<polygon class="st0" points="128.3,55.8 133.3,55.8 126.2,40.8 123.2,44.4 	"/>
	<polygon class="st0" points="109.2,55.8 121.4,40.8 109.2,55.7 	"/>
	<polygon class="st0" points="124.4,37.1 124.4,37.1 124.4,37.1 	"/>
	<polygon class="st0" points="121.4,40.8 121.4,40.8 121.4,40.8 	"/>
	<polygon class="st0" points="170.5,11 170.5,25.8 170.5,40.7 170.5,48.9 156.3,27.9 156.3,34.5 170.7,55.8 174.2,55.8 174.2,40.7 
		174.2,25.8 174.2,11 	"/>
	<polyline class="st0" points="153.7,11 150,11 150,25.8 150,40.7 150,55.8 153.6,55.8 153.6,40.7 153.6,25.8 153.6,17.5 
		167.6,38.3 167.6,31.6 	"/>
	<path class="st0" d="M26.7,25.2c-3.1-0.8-6-1.6-7.4-3.1c-0.6-0.7-0.9-1.4-0.9-2.5c0-3.2,2.9-5.4,7-5.4c3.8,0,7.3,1.3,9.9,4.1
		l2.6-3.1c-2.9-3-6.9-4.7-12.2-4.7c-6.7,0-11.8,3.8-11.8,9.4c0,0.8,0.1,1.5,0.3,2.2c1.2,4.8,6.5,6.1,11.4,7.4c3.5,1,6.9,1.8,8.1,4.1
		l2.8-3.7C34.1,27.4,30.3,26.2,26.7,25.2z"/>
	<path class="st0" d="M25.6,35.2c-3.1-0.9-5.3-1.9-6.7-3.6l-2.7,3.6c2.5,2.2,5.2,3.2,8.3,4.4c3.4,1.3,7.8,2,9,4.4
		c0.3,0.7,0.5,1.4,0.5,2.3c0,2.7-1.9,6.1-8,6.1c-4.8,0-8.5-2.4-10.7-5l-2.5,3.3c2.8,3.3,7.1,5.6,13.1,5.6c9.2,0,12.5-5.3,12.5-10.4
		c0-0.8-0.1-1.5-0.2-2.2C37.1,38.2,30.6,36.5,25.6,35.2z"/>
	<path class="st0" d="M204.4,25c-3.1-0.8-6-1.6-7.4-3.1c-0.6-0.7-0.9-1.4-0.9-2.5c0-3.2,2.9-5.4,7-5.4c3.8,0,7.3,1.3,9.9,4.1
		l2.6-3.1c-2.9-3-6.9-4.7-12.2-4.7c-6.7,0-11.8,3.8-11.8,9.4c0,0.8,0.1,1.5,0.3,2.2c1.2,4.8,6.5,6.1,11.4,7.4c3.5,1,6.9,1.8,8.1,4.1
		l2.8-3.7C211.8,27.2,208,26,204.4,25z"/>
	<path class="st0" d="M203.3,35c-3.1-0.9-5.3-1.9-6.7-3.6l-2.7,3.6c2.5,2.2,5.2,3.2,8.3,4.4c3.4,1.3,7.8,2,9,4.4
		c0.3,0.7,0.5,1.4,0.5,2.3c0,2.7-1.9,6.1-8,6.1c-4.8,0-8.5-2.4-10.7-5l-2.5,3.3c2.8,3.3,7.1,5.6,13.1,5.6c9.2,0,12.5-5.3,12.5-10.4
		c0-0.8-0.1-1.5-0.2-2.2C214.8,38,208.3,36.4,203.3,35z"/>
	<path class="st0" d="M445.1,24.9c-3.1-0.8-6-1.6-7.4-3.1c-0.6-0.7-0.9-1.4-0.9-2.5c0-3.2,2.9-5.4,7-5.4c3.8,0,7.3,1.3,9.9,4.1
		l2.6-3.1c-2.9-3-6.9-4.7-12.2-4.7c-6.7,0-11.8,3.8-11.8,9.4c0,0.8,0.1,1.5,0.3,2.2c1.2,4.8,6.5,6.1,11.4,7.4c3.5,1,6.9,1.8,8.1,4.1
		l2.8-3.7C452.5,27.1,448.6,25.9,445.1,24.9z"/>
	<path class="st0" d="M444,34.9c-3.1-0.9-5.3-1.9-6.7-3.6l-2.7,3.6c2.5,2.2,5.2,3.2,8.3,4.4c3.4,1.3,7.8,2,9,4.4
		c0.3,0.7,0.5,1.4,0.5,2.3c0,2.7-1.9,6.1-8,6.1c-4.8,0-8.5-2.4-10.7-5l-2.5,3.3c2.8,3.3,7.1,5.6,13.1,5.6c9.2,0,12.5-5.3,12.5-10.4
		c0-0.8-0.1-1.5-0.2-2.2C455.5,37.9,449,36.3,444,34.9z"/>
	<polygon class="st0" points="109.2,11 127.2,33.6 109.2,55.6 	"/>
	<path class="st0" d="M380.7,11.2h-10v44.6h10c9.1,0,15-9.6,15-22.3C395.7,20.9,389.8,11.2,380.7,11.2z M380.7,50.9l-5.9,0
		l-0.2-34.8h6.1c7.2,0,11.2,7.8,11.2,17.4C391.9,43.1,387.8,50.9,380.7,50.9z"/>
	<polygon class="st0" points="370.7,11.2 388.7,33.8 370.7,55.8 	"/>
	<polygon class="st0" points="262.5,11.2 280.5,33.9 262.5,55.8 	"/>
</g>
</svg>
